<?xml version="1.0" standalone="no"?>
<!DOCTYPE svg PUBLIC "-//W3C//DTD SVG 1.1//EN" "http://www.w3.org/Graphics/SVG/1.1/DTD/svg11.dtd" >
<svg xmlns="http://www.w3.org/2000/svg">
<metadata>
Created by FontPrep 20130207 at Sun May 11 16:12:59 2014
 By Steve Kaufman
Copyright (c) 2011 by Jan Tonellato. All rights reserved.
</metadata>
<defs>
<font id="59d5d4e8049b4ab832376f797b2f9ab7" horiz-adv-x='1024' >
  <font-face 
    font-family="Novecentowide-Book"
    font-weight="350"
    font-stretch="expanded"
    units-per-em="2048"
    panose-1="0 0 4 5 0 0 0 0 0 0"
    ascent="1741"
    descent="-307"
    x-height="1434"
    cap-height="1434"
    bbox="-414 -492 2740 1896"
    underline-thickness="100"
    underline-position="-217"
    unicode-range="U+0020-25CA"
  />
<missing-glyph horiz-adv-x="1423" 
d="M1026 1108l76 -76l-311 -313l313 -313l-78 -76l-313 311l-312 -311l-77 78l311 311l-311 311l75 78l314 -311zM399 41h627q78 0 115 36t37 120v1040q0 84 -41 120t-131 36h-586q-96 0 -134 -35t-38 -121v-1040q-1 -156 151 -156zM201 174v1086q0 80 49 126t125 48h676
q76 0 125 -48t49 -126v-1086q0 -82 -48 -128t-126 -46h-676q-78 0 -126 46t-48 128z" />
    <glyph glyph-name=".notdef" horiz-adv-x="1423" 
d="M1026 1108l76 -76l-311 -313l313 -313l-78 -76l-313 311l-312 -311l-77 78l311 311l-311 311l75 78l314 -311zM399 41h627q78 0 115 36t37 120v1040q0 84 -41 120t-131 36h-586q-96 0 -134 -35t-38 -121v-1040q-1 -156 151 -156zM201 174v1086q0 80 49 126t125 48h676
q76 0 125 -48t49 -126v-1086q0 -82 -48 -128t-126 -46h-676q-78 0 -126 46t-48 128z" />
    <glyph glyph-name=".null" horiz-adv-x="0" 
 />
    <glyph glyph-name="nonmarkingreturn" horiz-adv-x="681" 
 />
    <glyph glyph-name="space" unicode=" " horiz-adv-x="512" 
 />
    <glyph glyph-name="exclam" unicode="!" horiz-adv-x="518" 
d="M201 0v322h116v-322h-116zM201 475v959h116v-959h-116z" />
    <glyph glyph-name="quotedbl" unicode="&#x22;" horiz-adv-x="796" 
d="M479 989v445h119v-445h-119zM201 989v445h116v-445h-116z" />
    <glyph glyph-name="numbersign" unicode="#" horiz-adv-x="1714" 
d="M977 494l242 473h-496l-240 -473h494zM1608 967h-277l-239 -473h276l-51 -99h-275l-200 -395h-117l203 395h-494l-201 -395h-118l202 395h-256l52 99h254l241 473h-256l51 98h256l189 369h113l-187 -369h496l188 369h111l-187 -369h277z" />
    <glyph glyph-name="dollar" unicode="$" horiz-adv-x="1210" 
d="M594 1356q-158 0 -259 -73t-102 -196q0 -89 65 -140q36 -28 64 -46t95 -41q66 -23 166 -50q100 -28 147 -43t124 -52t120 -77t77 -108t33 -149q0 -168 -128 -282t-339 -126v-157h-114v157q-197 19 -318 135t-143 283l113 31q12 -145 123 -244q112 -98 292 -98t286 84
q105 84 105 203t-60 175q-33 32 -59 52t-83 43q-81 33 -247 76q-167 43 -259 94t-119 94q-61 95 -61 182q0 154 119 257q120 103 311 120v158h114v-158q174 -16 295 -118t150 -261l-115 -30q-23 141 -129 223t-264 82z" />
    <glyph glyph-name="percent" unicode="%" horiz-adv-x="1832" 
d="M1432 76q122 0 198 94t76 230t-75 232t-199 95q-124 0 -201 -95q-76 -96 -76 -232t77 -230t200 -94zM1802 399q0 -175 -102 -295t-269 -120t-269 119q-101 120 -101 297t101 298q100 121 268 121t270 -122t102 -298zM676 1032q0 138 -76 232t-200 94t-200 -94t-75 -232
q-1 -138 75 -231q76 -94 200 -94t200 94t76 231zM387 0l965 1434h92l-963 -1434h-94zM772 1032q0 -176 -102 -297t-270 -121q-167 0 -268 120t-101 298t101 298t268 120q168 0 270 -121t102 -297z" />
    <glyph glyph-name="ampersand" unicode="&#x26;" horiz-adv-x="1452" 
d="M1020 516v176h-416q-176 0 -285 -75t-109 -219t112 -232q111 -88 282 -88q229 0 323 110q93 111 93 328zM1405 793v-101h-270v-180q0 -541 -531 -541q-227 0 -368 117t-142 305q0 152 92 244t228 106v2q-109 17 -196 101t-87 224t99 259q50 59 142 96t216 37
q190 0 323 -106t170 -305l-106 -31q-72 338 -387 338q-96 0 -167 -30t-105 -78q-64 -90 -64 -196t93 -184t263 -77h797z" />
    <glyph glyph-name="quotesingle" unicode="'" horiz-adv-x="518" 
d="M201 989v445h116v-445h-116z" />
    <glyph glyph-name="parenleft" unicode="(" horiz-adv-x="716" 
d="M213 719q0 -395 108 -615t324 -297l-39 -106q-510 180 -510 1016t510 1020l39 -109q-217 -78 -325 -296t-107 -613z" />
    <glyph glyph-name="parenright" unicode=")" horiz-adv-x="722" 
d="M627 717q0 -836 -510 -1016l-39 106q216 78 324 297q108 218 108 614t-108 614t-324 296l39 109q510 -184 510 -1020z" />
    <glyph glyph-name="asterisk" unicode="*" horiz-adv-x="1079" 
d="M496 1434h88l-4 -287l272 88l27 -82l-273 -82l172 -235l-69 -52l-170 242l-166 -242l-70 52l170 235l-272 82l26 82l269 -88v287z" />
    <glyph glyph-name="plus" unicode="+" 
d="M1192 780v-102h-420v-420h-113v420h-419v102h419v412h113v-412h420z" />
    <glyph glyph-name="comma" unicode="," horiz-adv-x="415" 
d="M297 37q0 -166 -139 -309h-60q105 108 105 235l18 10l-18 2q-31 -2 -57 22q-26 25 -26 61t26 60t64 24t62 -30t25 -75z" />
    <glyph glyph-name="hyphen" unicode="-" horiz-adv-x="1353" 
d="M201 780h952v-102h-952v102z" />
    <glyph glyph-name="period" unicode="." horiz-adv-x="415" 
d="M207 -29q-35 0 -60 26q-25 27 -25 61t25 59t61 25t60 -26q24 -24 25 -60t-25 -60t-61 -25z" />
    <glyph glyph-name="slash" unicode="/" horiz-adv-x="942" 
d="M47 0l733 1434h113l-727 -1434h-119z" />
    <glyph glyph-name="zero" unicode="0" horiz-adv-x="1470" 
d="M735 1348q-167 0 -287 -90q-234 -175 -233 -542q0 -366 234 -540q121 -90 286 -90q246 0 383 183t137 447t-137 448t-383 184zM735 1462q295 0 468 -218t173 -527t-173 -527t-468 -219q-295 0 -468 218q-173 217 -173 527t173 528t468 218z" />
    <glyph glyph-name="one" unicode="1" horiz-adv-x="808" 
d="M608 1434v-1434h-116v1051l4 182l2 31h-2l-21 -23q-40 -46 -88 -94l-217 -213l-76 74l430 426h84z" />
    <glyph glyph-name="two" unicode="2" horiz-adv-x="1153" 
d="M88 1085q108 377 524 377q200 0 334 -126q133 -126 133 -318q0 -104 -24 -161q-25 -56 -39 -88t-45 -69q-31 -36 -48 -58t-57 -56t-76 -65q-35 -30 -96 -75l-432 -337l2 -3h6l76 5l95 2h638v-113h-981v96q39 33 672 555q190 158 191 365q-1 150 -101 244t-258 94
t-261 -78t-142 -219z" />
    <glyph glyph-name="three" unicode="3" horiz-adv-x="1212" 
d="M646 1462q218 0 336 -112q120 -112 120 -260t-95 -242t-227 -100v-3q138 -6 238 -95t100 -238q0 -199 -139 -320t-348 -121t-358 114q-148 114 -179 298l109 31q20 -152 137 -243t291 -91t270 95t96 237t-102 212q-102 71 -283 70h-127v101h129q367 0 367 286
q0 105 -88 189t-275 84q-309 0 -385 -301l-106 28q39 177 170 279t349 102z" />
    <glyph glyph-name="four" unicode="4" horiz-adv-x="1269" 
d="M877 496v536l4 167l2 58v9h-2l-21 -29q-80 -107 -139 -176l-346 -410q-98 -114 -139 -155l2 -2l254 2h385zM1196 496v-107h-205v-389h-114v389h-783v84l805 961h92v-938h205z" />
    <glyph glyph-name="five" unicode="5" horiz-adv-x="1183" 
d="M362 1321q-85 -492 -100 -533l2 -2q39 54 133 102t213 48q216 0 358 -135t142 -344t-141 -347t-353 -138t-352 111q-139 112 -176 292l109 31q31 -150 139 -239t274 -89t274 108t107 271t-109 271t-272 108q-272 0 -360 -201l-103 29l125 770h752v-113h-662z" />
    <glyph glyph-name="six" unicode="6" horiz-adv-x="1208" 
d="M213 464q0 -170 113 -278t294 -108q182 0 294 108t115 279q3 172 -109 275q-113 104 -297 104t-297 -104t-113 -276zM642 946q218 0 359 -138t141 -349t-148 -349t-376 -138t-375 138q-148 140 -149 357q0 127 43 235t139 238l377 494h133l-479 -629l2 -2
q115 143 333 143z" />
    <glyph glyph-name="seven" unicode="7" horiz-adv-x="1124" 
d="M72 1321v113h1001v-78l-764 -1356h-127l647 1147q43 77 97 151l16 25l-2 2h-12l-129 -4h-727z" />
    <glyph glyph-name="eight" unicode="8" horiz-adv-x="1251" 
d="M209 391q0 -145 112 -232q113 -87 305 -87t304 87t112 232t-111 229q-111 82 -305 82t-306 -83t-111 -228zM626 1368q-158 0 -260 -80t-102 -202t102 -198t260 -73q159 2 259 77q100 74 100 196t-100 201t-259 79zM158 1096q0 150 131 258t337 108t337 -108t131 -258
t-104 -238t-195 -94v-2q147 -12 255 -112t107 -259q0 -186 -147 -302t-385 -116t-384 116q-147 116 -147 288t108 272t255 113v2q-90 6 -195 94q-104 88 -104 238z" />
    <glyph glyph-name="nine" unicode="9" horiz-adv-x="1222" 
d="M1010 974q0 186 -119 283t-295 97t-296 -100t-120 -286q0 -188 121 -284t297 -96t294 100t118 286zM66 974q0 216 150 352q151 136 382 136t381 -131t149 -366q0 -137 -66 -273t-226 -323l-318 -369h-137l537 629l-3 2q-127 -145 -331 -146q-238 1 -378 137t-140 352z
" />
    <glyph glyph-name="colon" unicode=":" horiz-adv-x="415" 
d="M207 -29q-35 0 -60 26q-25 27 -25 61t25 59t61 25t60 -26q24 -24 25 -60t-25 -60t-61 -25zM207 618q-35 0 -60 26t-24 61t25 59t60 24t60 -24t25 -60t-25 -61t-61 -25z" />
    <glyph glyph-name="semicolon" unicode=";" horiz-adv-x="444" 
d="M145 52q0 36 26 60t64 24q39 0 63 -31q24 -30 24 -74q0 -166 -140 -310h-59q104 109 104 236l19 10l-19 2q-31 -2 -57 22q-26 25 -25 61zM227 618q-35 0 -59 26t-25 61q0 35 25 59q24 24 60 24t61 -24t25 -60t-26 -61t-61 -25z" />
    <glyph glyph-name="less" unicode="&#x3c;" 
d="M1182 252h-172l-783 500l783 499h172l-779 -499z" />
    <glyph glyph-name="equal" unicode="=" 
d="M240 600h952v-102h-952v102zM240 952h952v-102h-952v102z" />
    <glyph glyph-name="greater" unicode="&#x3e;" 
d="M248 252l778 500l-778 499h172l782 -499l-782 -500h-172z" />
    <glyph glyph-name="question" unicode="?" horiz-adv-x="1165" 
d="M496 0v322h120v-322h-120zM496 475v191q252 104 352 191t100 201t-71 198q-37 44 -110 71t-171 27q-322 0 -399 -301l-103 28q41 181 174 281q132 100 352 100t336 -114t115 -266q0 -151 -97 -259q-84 -90 -226 -155q-57 -27 -132 -56v-137h-120z" />
    <glyph glyph-name="at" unicode="@" horiz-adv-x="1624" 
d="M1053 717v104q0 101 -77 159t-197 58q-121 0 -197 -89t-76 -231t80 -224t200 -82t193 82q74 82 74 223zM1053 1092h88v-564q0 -61 34 -99t87 -38q86 0 136 93t50 241q0 285 -181 472t-455 187t-456 -187q-180 -187 -180 -473t181 -482t454 -197q181 0 283 48
q101 48 124 73q23 24 25 24l66 -36q-52 -69 -178 -125t-320 -58q-307 0 -512 217q-205 218 -205 536t204 528t514 210t514 -210t204 -527q0 -176 -74 -292t-199 -116q-80 -1 -134 49t-60 140l-2 2q-31 -82 -112 -135t-171 -54q-162 0 -266 110t-104 288t102 296t270 117
q84 0 150 -32t92 -63q26 -32 29 -48h2v105z" />
    <glyph glyph-name="A" unicode="A" horiz-adv-x="1472" 
d="M406 522h661l-264 604q-54 140 -55 142l-11 24h-2l-10 -24q-11 -25 -27 -68t-28 -74zM1296 0l-182 418h-756l-182 -418h-129l637 1434h104l637 -1434h-129z" />
    <glyph glyph-name="B" unicode="B" horiz-adv-x="1316" 
d="M317 104h437q150 0 246 85t98 223q0 138 -106 228q-106 89 -253 89h-422v-625zM317 827h375q137 0 224 74q88 75 88 183t-85 177t-227 68h-375v-502zM201 1434h512q184 0 297 -96t112 -251q0 -106 -79 -192t-175 -102v-2q123 -11 238 -115t115 -256q0 -190 -125 -305
t-338 -115h-557v1434z" />
    <glyph glyph-name="C" unicode="C" horiz-adv-x="1562" 
d="M838 1348q-268 0 -446 -176t-177 -454q0 -278 179 -454t444 -176q180 0 328 90t227 242l116 -33q-90 -193 -269 -305t-402 -111q-311 0 -528 212q-216 212 -216 534q0 321 216 533t528 212q207 0 380 -102t271 -273l-119 -30q-80 135 -222 213t-310 78z" />
    <glyph glyph-name="D" unicode="D" horiz-adv-x="1632" 
d="M317 113h496q252 -1 428 163t176 436t-179 441q-179 168 -441 168h-480v-1208zM201 1434h596q313 0 527 -204t214 -518t-211 -513t-514 -199h-612v1434z" />
    <glyph glyph-name="E" unicode="E" horiz-adv-x="1267" 
d="M317 113h828v-113h-944v1434h932v-113h-816v-500h658v-108h-658v-600z" />
    <glyph glyph-name="F" unicode="F" horiz-adv-x="1181" 
d="M1112 1321h-795v-541h637v-108h-637v-672h-116v1434h911v-113z" />
    <glyph glyph-name="G" unicode="G" horiz-adv-x="1630" 
d="M1403 240h-2q-67 -84 -161 -148q-179 -121 -402 -121q-311 0 -528 212q-216 212 -216 534q0 321 216 533t528 212q221 -6 388 -105t263 -270l-119 -30q-80 135 -222 213t-310 78q-268 0 -446 -176t-177 -454q0 -276 179 -454t446 -178q202 0 356 97t205 210v228h-453v102
h559v-727h-106v175l2 52v17z" />
    <glyph glyph-name="H" unicode="H" horiz-adv-x="1488" 
d="M1169 1434h119v-1434h-119v692h-852v-692h-116v1434h116v-629h852v629z" />
    <glyph glyph-name="I" unicode="I" horiz-adv-x="518" 
d="M317 0h-116v1434h116v-1434z" />
    <glyph glyph-name="J" unicode="J" horiz-adv-x="1327" 
d="M1051 1434h120v-852q-1 -287 -153 -450t-434 -163q-202 1 -350 103t-203 270l119 31q44 -135 162 -213t272 -78q229 0 348 129t119 362v861z" />
    <glyph glyph-name="K" unicode="K" horiz-adv-x="1386" 
d="M315 653h2l41 41q41 41 107 108t106 107l525 525h147l-579 -580l632 -854h-139l-575 772l-265 -264v-508h-116v1434h116v-426l-2 -313v-42z" />
    <glyph glyph-name="L" unicode="L" horiz-adv-x="1153" 
d="M317 113h795v-113h-911v1434h116v-1321z" />
    <glyph glyph-name="M" unicode="M" horiz-adv-x="1693" 
d="M1493 1434v-1434h-117v727q0 174 6 420l2 84h-2q-2 0 -122 -217l-381 -662h-64l-381 662q-121 217 -123 217h-2l2 -84q6 -246 6 -420v-727h-116v1434h110l379 -654q57 -96 96 -168t50 -92l10 -22h2l10 22q53 106 146 260l378 654h111z" />
    <glyph glyph-name="N" unicode="N" horiz-adv-x="1542" 
d="M1225 1434h118v-1434h-110l-731 985q-106 144 -166 234l-21 26h-2l2 -47l2 -326v-872h-116v1434h110l729 -981q46 -59 96 -129t72 -99l21 -26h2l-2 47l-4 317v871z" />
    <glyph glyph-name="O" unicode="O" horiz-adv-x="1677" 
d="M1462 718q0 278 -179 454t-445 176t-444 -176t-179 -454q0 -278 178 -454q177 -178 443 -178t446 177t180 455zM94 717q0 321 216 533t528 212t529 -212q216 -212 216 -534t-216 -533q-216 -212 -528 -212t-529 212q-216 212 -216 534z" />
    <glyph glyph-name="P" unicode="P" horiz-adv-x="1196" 
d="M317 649h291q195 0 300 89q106 89 106 249t-109 247t-297 87h-291v-672zM201 1434h407q248 0 387 -119t139 -329t-140 -330t-386 -119h-291v-537h-116v1434z" />
    <glyph glyph-name="Q" unicode="Q" horiz-adv-x="1677" 
d="M837 86q265 0 445 177t180 455t-179 454t-445 176t-444 -176t-179 -454q0 -277 178 -455q179 -177 444 -177zM776 -270v243q-290 23 -486 232t-196 521t216 524t528 212t529 -212q216 -212 216 -525t-198 -521t-488 -231v-243h-121z" />
    <glyph glyph-name="R" unicode="R" horiz-adv-x="1277" 
d="M317 657h297q190 -1 294 91t106 246q0 154 -106 241q-106 86 -294 86h-297v-664zM608 553h-291v-553h-116v1434h407q246 0 386 -119t141 -324q0 -156 -81 -261t-231 -148l357 -582h-133l-342 559q-45 -6 -97 -6z" />
    <glyph glyph-name="S" unicode="S" horiz-adv-x="1210" 
d="M594 1356q-158 0 -259 -73t-102 -196q0 -89 65 -140q36 -28 64 -46t95 -41q66 -23 166 -50q100 -28 147 -43t124 -52t120 -77t77 -108t33 -149q0 -178 -142 -294t-370 -116t-366 118q-139 118 -164 302l113 31q12 -145 123 -244q112 -98 292 -98t286 84q105 84 105 203
t-60 175q-33 32 -59 52t-83 43q-81 33 -247 76q-167 43 -259 94t-119 94q-61 95 -61 182q0 167 138 273t341 106t340 -104t170 -277l-115 -30q-23 141 -129 223t-264 82z" />
    <glyph glyph-name="T" unicode="T" horiz-adv-x="1206" 
d="M53 1434h1100v-113h-491v-1321h-119v1321h-490v113z" />
    <glyph glyph-name="U" unicode="U" horiz-adv-x="1466" 
d="M1190 1434h119v-852q-1 -297 -149 -455t-428 -158t-427 157t-147 456v852h116v-856q0 -496 458 -496t458 496v856z" />
    <glyph glyph-name="V" unicode="V" horiz-adv-x="1468" 
d="M1294 1434h127l-628 -1434h-115l-631 1434h127l477 -1092q17 -37 37 -90t33 -84l12 -33h2l15 33q12 31 32 85t35 89z" />
    <glyph glyph-name="W" unicode="W" horiz-adv-x="1966" 
d="M1788 1434h121l-498 -1434h-98l-246 780q-51 156 -76 264l-6 25h-2l-6 -25q-6 -22 -28 -96t-50 -168l-244 -780h-100l-498 1434h121l365 -1049q16 -51 31 -103t24 -77l6 -23h2l6 23q17 71 52 180l270 840h98l271 -840q16 -53 30 -104t21 -76l6 -23h2l6 23q8 25 24 77
q15 52 33 103z" />
    <glyph glyph-name="X" unicode="X" horiz-adv-x="1355" 
d="M680 657h-2l-14 -20q-14 -20 -38 -54t-40 -59l-404 -524h-145l567 748l-520 686h145l357 -469q84 -133 92 -134h2l92 134l354 469h146l-518 -686l567 -748h-145l-404 524q-32 45 -80 113z" />
    <glyph glyph-name="Y" unicode="Y" horiz-adv-x="1304" 
d="M711 0h-117v723l-557 711h137l387 -492q90 -117 92 -117h2l15 19q14 18 39 50t36 48l385 492h138l-557 -711v-723z" />
    <glyph glyph-name="Z" unicode="Z" horiz-adv-x="1400" 
d="M143 1321v113h1135v-109l-903 -1104q-20 -25 -101 -112l2 -3h11q20 5 60 5l104 2h827v-113h-1155v109l911 1108q24 30 84 90l17 16l-2 2h-9l-106 -4h-875z" />
    <glyph glyph-name="bracketleft" unicode="[" horiz-adv-x="665" 
d="M324 1640v-1837h274v-110h-397v2060h397v-113h-274z" />
    <glyph glyph-name="backslash" unicode="\" horiz-adv-x="942" 
d="M893 0h-119l-727 1434h113z" />
    <glyph glyph-name="bracketright" unicode="]" horiz-adv-x="692" 
d="M369 1640h-275v113h398v-2060h-398v110h275v1837z" />
    <glyph glyph-name="asciicircum" unicode="^" horiz-adv-x="1357" 
d="M1159 977l-67 -64l-412 424l-414 -424l-65 64l479 481z" />
    <glyph glyph-name="underscore" unicode="_" horiz-adv-x="1548" 
d="M201 0h1149v-92h-1149v92z" />
    <glyph glyph-name="grave" unicode="`" horiz-adv-x="620" 
d="M500 1518l-432 213l47 88l426 -230z" />
    <glyph glyph-name="a" unicode="a" horiz-adv-x="1472" 
d="M406 522h661l-264 604q-54 140 -55 142l-11 24h-2l-10 -24q-11 -25 -27 -68t-28 -74zM1296 0l-182 418h-756l-182 -418h-129l637 1434h104l637 -1434h-129z" />
    <glyph glyph-name="b" unicode="b" horiz-adv-x="1316" 
d="M317 104h437q150 0 246 85t98 223q0 138 -106 228q-106 89 -253 89h-422v-625zM317 827h375q137 0 224 74q88 75 88 183t-85 177t-227 68h-375v-502zM201 1434h512q184 0 297 -96t112 -251q0 -106 -79 -192t-175 -102v-2q123 -11 238 -115t115 -256q0 -190 -125 -305
t-338 -115h-557v1434z" />
    <glyph glyph-name="c" unicode="c" horiz-adv-x="1562" 
d="M838 1348q-268 0 -446 -176t-177 -454q0 -278 179 -454t444 -176q180 0 328 90t227 242l116 -33q-90 -193 -269 -305t-402 -111q-311 0 -528 212q-216 212 -216 534q0 321 216 533t528 212q207 0 380 -102t271 -273l-119 -30q-80 135 -222 213t-310 78z" />
    <glyph glyph-name="d" unicode="d" horiz-adv-x="1632" 
d="M317 113h496q252 -1 428 163t176 436t-179 441q-179 168 -441 168h-480v-1208zM201 1434h596q313 0 527 -204t214 -518t-211 -513t-514 -199h-612v1434z" />
    <glyph glyph-name="e" unicode="e" horiz-adv-x="1267" 
d="M317 113h828v-113h-944v1434h932v-113h-816v-500h658v-108h-658v-600z" />
    <glyph glyph-name="f" unicode="f" horiz-adv-x="1181" 
d="M1112 1321h-795v-541h637v-108h-637v-672h-116v1434h911v-113z" />
    <glyph glyph-name="g" unicode="g" horiz-adv-x="1630" 
d="M1403 240h-2q-67 -84 -161 -148q-179 -121 -402 -121q-311 0 -528 212q-216 212 -216 534q0 321 216 533t528 212q221 -6 388 -105t263 -270l-119 -30q-80 135 -222 213t-310 78q-268 0 -446 -176t-177 -454q0 -276 179 -454t446 -178q202 0 356 97t205 210v228h-453v102
h559v-727h-106v175l2 52v17z" />
    <glyph glyph-name="h" unicode="h" horiz-adv-x="1488" 
d="M1169 1434h119v-1434h-119v692h-852v-692h-116v1434h116v-629h852v629z" />
    <glyph glyph-name="i" unicode="i" horiz-adv-x="518" 
d="M317 0h-116v1434h116v-1434z" />
    <glyph glyph-name="j" unicode="j" horiz-adv-x="1327" 
d="M1051 1434h120v-852q-1 -287 -153 -450t-434 -163q-202 1 -350 103t-203 270l119 31q44 -135 162 -213t272 -78q229 0 348 129t119 362v861z" />
    <glyph glyph-name="k" unicode="k" horiz-adv-x="1386" 
d="M315 653h2l41 41q41 41 107 108t106 107l525 525h147l-579 -580l632 -854h-139l-575 772l-265 -264v-508h-116v1434h116v-426l-2 -313v-42z" />
    <glyph glyph-name="l" unicode="l" horiz-adv-x="1153" 
d="M317 113h795v-113h-911v1434h116v-1321z" />
    <glyph glyph-name="m" unicode="m" horiz-adv-x="1693" 
d="M1493 1434v-1434h-117v727q0 174 6 420l2 84h-2q-2 0 -122 -217l-381 -662h-64l-381 662q-121 217 -123 217h-2l2 -84q6 -246 6 -420v-727h-116v1434h110l379 -654q57 -96 96 -168t50 -92l10 -22h2l10 22q53 106 146 260l378 654h111z" />
    <glyph glyph-name="n" unicode="n" horiz-adv-x="1542" 
d="M1225 1434h118v-1434h-110l-731 985q-106 144 -166 234l-21 26h-2l2 -47l2 -326v-872h-116v1434h110l729 -981q46 -59 96 -129t72 -99l21 -26h2l-2 47l-4 317v871z" />
    <glyph glyph-name="o" unicode="o" horiz-adv-x="1677" 
d="M1462 718q0 278 -179 454t-445 176t-444 -176t-179 -454q0 -278 178 -454q177 -178 443 -178t446 177t180 455zM94 717q0 321 216 533t528 212t529 -212q216 -212 216 -534t-216 -533q-216 -212 -528 -212t-529 212q-216 212 -216 534z" />
    <glyph glyph-name="p" unicode="p" horiz-adv-x="1196" 
d="M317 649h291q195 0 300 89q106 89 106 249t-109 247t-297 87h-291v-672zM201 1434h407q248 0 387 -119t139 -329t-140 -330t-386 -119h-291v-537h-116v1434z" />
    <glyph glyph-name="q" unicode="q" horiz-adv-x="1677" 
d="M837 86q265 0 445 177t180 455t-179 454t-445 176t-444 -176t-179 -454q0 -277 178 -455q179 -177 444 -177zM776 -270v243q-290 23 -486 232t-196 521t216 524t528 212t529 -212q216 -212 216 -525t-198 -521t-488 -231v-243h-121z" />
    <glyph glyph-name="r" unicode="r" horiz-adv-x="1277" 
d="M317 657h297q190 -1 294 91t106 246q0 154 -106 241q-106 86 -294 86h-297v-664zM608 553h-291v-553h-116v1434h407q246 0 386 -119t141 -324q0 -156 -81 -261t-231 -148l357 -582h-133l-342 559q-45 -6 -97 -6z" />
    <glyph glyph-name="s" unicode="s" horiz-adv-x="1210" 
d="M594 1356q-158 0 -259 -73t-102 -196q0 -89 65 -140q36 -28 64 -46t95 -41q66 -23 166 -50q100 -28 147 -43t124 -52t120 -77t77 -108t33 -149q0 -178 -142 -294t-370 -116t-366 118q-139 118 -164 302l113 31q12 -145 123 -244q112 -98 292 -98t286 84q105 84 105 203
t-60 175q-33 32 -59 52t-83 43q-81 33 -247 76q-167 43 -259 94t-119 94q-61 95 -61 182q0 167 138 273t341 106t340 -104t170 -277l-115 -30q-23 141 -129 223t-264 82z" />
    <glyph glyph-name="t" unicode="t" horiz-adv-x="1206" 
d="M53 1434h1100v-113h-491v-1321h-119v1321h-490v113z" />
    <glyph glyph-name="u" unicode="u" horiz-adv-x="1466" 
d="M1190 1434h119v-852q-1 -297 -149 -455t-428 -158t-427 157t-147 456v852h116v-856q0 -496 458 -496t458 496v856z" />
    <glyph glyph-name="v" unicode="v" horiz-adv-x="1468" 
d="M1294 1434h127l-628 -1434h-115l-631 1434h127l477 -1092q17 -37 37 -90t33 -84l12 -33h2l15 33q12 31 32 85t35 89z" />
    <glyph glyph-name="w" unicode="w" horiz-adv-x="1966" 
d="M1788 1434h121l-498 -1434h-98l-246 780q-51 156 -76 264l-6 25h-2l-6 -25q-6 -22 -28 -96t-50 -168l-244 -780h-100l-498 1434h121l365 -1049q16 -51 31 -103t24 -77l6 -23h2l6 23q17 71 52 180l270 840h98l271 -840q16 -53 30 -104t21 -76l6 -23h2l6 23q8 25 24 77
q15 52 33 103z" />
    <glyph glyph-name="x" unicode="x" horiz-adv-x="1355" 
d="M680 657h-2l-14 -20q-14 -20 -38 -54t-40 -59l-404 -524h-145l567 748l-520 686h145l357 -469q84 -133 92 -134h2l92 134l354 469h146l-518 -686l567 -748h-145l-404 524q-32 45 -80 113z" />
    <glyph glyph-name="y" unicode="y" horiz-adv-x="1304" 
d="M711 0h-117v723l-557 711h137l387 -492q90 -117 92 -117h2l15 19q14 18 39 50t36 48l385 492h138l-557 -711v-723z" />
    <glyph glyph-name="z" unicode="z" horiz-adv-x="1400" 
d="M143 1321v113h1135v-109l-903 -1104q-20 -25 -101 -112l2 -3h11q20 5 60 5l104 2h827v-113h-1155v109l911 1108q24 30 84 90l17 16l-2 2h-9l-106 -4h-875z" />
    <glyph glyph-name="braceleft" unicode="{" horiz-adv-x="763" 
d="M334 406q0 248 -133 315q17 6 44 30q87 79 89 285v273q0 451 393 450v-110q-274 0 -274 -330v-272q0 -256 -113 -326q18 -11 38 -29t47 -99q28 -81 28 -198v-272q0 -330 274 -330v-110q-393 0 -393 450v273z" />
    <glyph glyph-name="bar" unicode="|" horiz-adv-x="501" 
d="M301 -152h-100v1739h100v-1739z" />
    <glyph glyph-name="braceright" unicode="}" horiz-adv-x="763" 
d="M311 1319q0 330 -274 330v110q393 0 393 -450v-273q0 -207 87 -283q29 -26 46 -32q-87 -37 -120 -177q-13 -60 -13 -138v-273q0 -451 -393 -450v110q274 0 274 330v272q0 117 28 198t47 99t38 29q-113 70 -113 326v272z" />
    <glyph glyph-name="asciitilde" unicode="~" 
d="M926 598q-118 0 -214 79t-166 79q-69 0 -109 -36t-46 -91l-102 26q14 91 83 143t151 52q81 0 147 -40t121 -79t113 -39t96 37q40 37 44 92l103 -28q-12 -91 -79 -143q-68 -52 -142 -52z" />
    <glyph glyph-name="exclamdown" unicode="&#xa1;" horiz-adv-x="518" 
d="M201 958h116v-958h-116v958zM201 1434h116v-322h-116v322z" />
    <glyph glyph-name="cent" unicode="&#xa2;" horiz-adv-x="1150" 
d="M670 -29h-101v219q-203 18 -339 166t-136 362t136 362t337 167v215h103v-215q136 -12 246 -86t169 -188l-102 -29q-53 96 -148 148t-217 53q-180 0 -296 -117t-115 -308q0 -191 116 -308t295 -117q129 0 230 59q100 59 151 168l101 -28q-55 -129 -170 -210t-260 -94v-219
z" />
    <glyph glyph-name="sterling" unicode="&#xa3;" horiz-adv-x="1347" 
d="M1251 113v-113h-1050v113q129 27 164 129t18 309l-12 137h-156v100h145l-20 222q-16 190 101 319q118 129 311 133q160 4 290 -86t183 -297l-105 -28q-92 313 -370 303q-144 -4 -226 -102t-67 -248l20 -216h508v-100h-500l13 -135q18 -197 -13 -301t-110 -143l2 -3h12
l165 5l174 2h523z" />
    <glyph glyph-name="currency" unicode="&#xa4;" horiz-adv-x="1331" 
d="M667 1126q-177 0 -300 -125t-123 -302t123 -301t300 -124t300 124t123 302t-123 302t-300 124zM1198 708q0 -196 -117 -341l152 -154l-66 -66l-151 154q-152 -135 -350 -135t-353 135l-153 -154l-64 66l154 156q-117 147 -117 337t133 345l-147 145l65 66l152 -148
q144 119 330 119t331 -117l148 146l63 -66l-145 -145q135 -147 135 -343z" />
    <glyph glyph-name="yen" unicode="&#xa5;" horiz-adv-x="1304" 
d="M1133 846v-94h-400l-22 -29v-55h422v-93h-422v-575h-117v575h-408v93h408v55l-23 29h-385v94h312l-461 588h137l387 -492q90 -117 92 -117h2l15 19q14 18 39 50t36 48l385 492h138l-461 -588h326z" />
    <glyph glyph-name="brokenbar" unicode="&#xa6;" horiz-adv-x="501" 
d="M201 442h100v-594h-100v594zM201 1587h100v-573h-100v573z" />
    <glyph glyph-name="section" unicode="&#xa7;" horiz-adv-x="1073" 
d="M205 768q0 -82 105 -127q105 -44 228 -64q74 -15 126 -30q96 18 155 66t59 124t-71 117q-72 41 -148 61q-76 19 -167 39l-31 7q-100 -11 -178 -61t-78 -132zM547 1380q-129 0 -212 -46t-83 -124t97 -117q79 -33 215 -63t217 -61t115 -59t62 -74t29 -105q0 -164 -217 -219
q215 -84 215 -248q0 -131 -124 -215q-125 -84 -323 -84t-316 87t-140 222l100 27q12 -109 104 -177t247 -70q157 0 249 58t92 148q0 58 -23 84q-45 51 -82 68q-88 40 -175 60q-87 21 -130 31q-42 11 -57 14t-73 20t-114 49q-56 31 -74 53q-46 63 -47 136t61 133t172 91
q-190 66 -191 207q0 115 117 189q117 73 286 73q168 0 282 -72t141 -192l-105 -28q-16 96 -101 150t-214 54z" />
    <glyph glyph-name="dieresis" unicode="&#xa8;" horiz-adv-x="782" 
d="M618 1565q-38 1 -62 25t-24 60t25 60t61 25q36 0 61 -25q23 -24 23 -60t-23 -61q-24 -24 -61 -24zM153 1565q-36 1 -61 25q-24 24 -24 60t24 60t61 25q35 0 61 -25q26 -24 26 -60t-26 -60t-61 -25z" />
    <glyph glyph-name="copyright" unicode="&#xa9;" horiz-adv-x="1677" 
d="M846 1083q102 0 194 -56t134 -140l-80 -25q-33 64 -102 102t-146 37q-121 -1 -200 -81t-79 -206t78 -206t201 -80q82 0 154 44t102 114l84 -25q-39 -94 -135 -155t-205 -62q-158 0 -262 106t-104 264q0 159 104 264t262 105zM838 66q278 0 462 181t184 472t-183 471
q-184 180 -464 180t-462 -180t-182 -471t183 -472t462 -181zM94 717q0 321 216 533t529 212q312 0 528 -212t216 -534t-216 -533q-216 -212 -528 -212t-529 212q-216 212 -216 534z" />
    <glyph glyph-name="ordfeminine" unicode="&#xaa;" horiz-adv-x="712" 
d="M41 631h631v-86h-631v86zM358 1356h-2l-6 -21q-6 -23 -15 -59t-20 -62l-79 -200h241l-80 200q-20 53 -32 121zM209 942l-70 -174h-94l277 682h67l277 -682h-93l-69 174h-295z" />
    <glyph glyph-name="guillemotleft" unicode="&#xab;" horiz-adv-x="1517" 
d="M1247 1200l70 -70l-416 -409l416 -410l-70 -69l-481 479zM682 1200l70 -70l-416 -409l416 -410l-70 -69l-481 479z" />
    <glyph glyph-name="softhyphen" unicode="&#xad;" horiz-adv-x="1353" 
d="M201 780h952v-102h-952v102z" />
    <glyph glyph-name="registered" unicode="&#xae;" horiz-adv-x="1677" 
d="M702 707h146q186 1 186 153t-186 152h-146v-305zM618 1090h226q126 0 200 -60t74 -168q0 -168 -157 -213l188 -303h-92l-180 289q-10 -2 -33 -2h-142v-287h-84v744zM838 66q278 0 462 181t184 472t-184 471t-464 180t-461 -180q-182 -180 -182 -471t183 -472t462 -181z
M94 717q0 321 216 533t529 212q312 0 528 -212t216 -534t-216 -533q-216 -212 -528 -212t-529 212q-216 212 -216 534z" />
    <glyph glyph-name="macron" unicode="&#xaf;" horiz-adv-x="778" 
d="M59 1524h648v-94h-648v94z" />
    <glyph glyph-name="degree" unicode="&#xb0;" horiz-adv-x="575" 
d="M288 1296q50 0 87 36t37 86t-37 86t-87 36t-87 -36t-37 -86t37 -86t87 -36zM288 1217q-83 0 -143 59q-59 59 -59 142q0 84 58 142t142 58t144 -58q59 -58 59 -142t-59 -142q-59 -59 -142 -59z" />
    <glyph glyph-name="plusminus" unicode="&#xb1;" 
d="M240 -18v102h952v-102h-952zM772 780h420v-102h-420v-389h-113v389h-419v102h419v412h113v-412z" />
    <glyph glyph-name="twosuperior" unicode="&#xb2;" horiz-adv-x="667" 
d="M616 1047v-84h-559v67l351 277q127 104 127 213q1 76 -55 126t-143 50t-136 -43t-74 -131l-86 22q31 117 110 177q79 61 195 61t197 -76q82 -76 82 -184q0 -139 -157 -265q-204 -164 -306 -223l2 -2q86 14 198 15h254z" />
    <glyph glyph-name="threesuperior" unicode="&#xb3;" horiz-adv-x="667" 
d="M345 946q-120 0 -206 70t-98 182l86 21q2 -87 63 -139q60 -52 154 -52t143 47t49 116t-54 111q-56 42 -144 41h-82v70h82q84 0 137 43q53 44 53 102t-46 100t-140 42q-168 0 -205 -170l-80 22q17 104 95 166t202 64q124 0 194 -62q68 -62 68 -147q0 -84 -54 -136
t-130 -57v-2q80 -4 136 -54t56 -146t-79 -164q-80 -68 -200 -68z" />
    <glyph glyph-name="acute" unicode="&#xb4;" horiz-adv-x="620" 
d="M494 1819l47 -88l-432 -213l-41 71z" />
    <glyph glyph-name="paragraph" unicode="&#xb6;" horiz-adv-x="1226" 
d="M530 1434h496v-1434h-117v1321h-176v-1321h-112v725h-91q-208 0 -322 93t-114 260q0 168 116 262t320 94z" />
    <glyph glyph-name="periodcentered" unicode="&#xb7;" horiz-adv-x="415" 
d="M207 618q-35 0 -60 26t-24 61t25 59t60 24t60 -24t25 -60t-25 -61t-61 -25z" />
    <glyph glyph-name="cedilla" unicode="&#xb8;" horiz-adv-x="477" 
d="M397 -280q0 -84 -57 -133q-57 -48 -152 -48h-120l32 76h88q59 0 95 29q35 30 35 76t-36 77t-94 31h-106l61 172h82l-37 -98q92 2 150 -48t59 -134z" />
    <glyph glyph-name="onesuperior" unicode="&#xb9;" horiz-adv-x="430" 
d="M348 1765v-802h-90v507l8 168l2 15h-2q-15 -25 -63 -76l-115 -111l-57 56l254 243h63z" />
    <glyph glyph-name="ordmasculine" unicode="&#xba;" horiz-adv-x="753" 
d="M43 631h670v-86h-670v86zM106 1106q0 -117 77 -194q77 -76 192 -76t193 76t77 195q0 118 -77 195q-76 76 -192 76t-193 -78t-77 -194zM20 1107q0 153 104 254t252 101q149 0 253 -101t104 -254t-104 -254q-105 -101 -253 -101t-252 101t-104 254z" />
    <glyph glyph-name="guillemotright" unicode="&#xbb;" horiz-adv-x="1517" 
d="M836 1200l481 -479l-481 -479l-72 69l418 410l-418 409zM270 1200l482 -479l-482 -479l-69 69l415 410l-415 409z" />
    <glyph glyph-name="onequarter" unicode="&#xbc;" horiz-adv-x="1341" 
d="M1104 289v236l8 147v4h-2l-20 -29q-65 -88 -113 -145l-107 -123q-20 -25 -98 -92l2 -2h8l94 4h228zM1298 289v-80h-108v-209h-86v209h-426v63l448 531h64v-514h108zM1081 1434h93l-963 -1434h-94zM348 1434v-803h-90v508l8 168l2 14h-2q-20 -30 -63 -76l-115 -110l-57 55
l254 244h63z" />
    <glyph glyph-name="onehalf" unicode="&#xbd;" horiz-adv-x="1427" 
d="M801 582q63 237 304 237q116 0 198 -76t81 -184q0 -139 -160 -268q-223 -180 -302 -219l2 -2q86 14 198 14h254v-84h-559v68l350 276q127 104 127 213q0 76 -55 126t-142 50t-136 -43t-74 -131zM117 0l964 1434h93l-963 -1434h-94zM348 1434v-803h-90v508l8 168l2 14h-2
q-20 -30 -63 -76l-115 -110l-57 55l254 244h63z" />
    <glyph glyph-name="threequarters" unicode="&#xbe;" horiz-adv-x="1501" 
d="M1264 289v236l8 147v4h-2l-21 -29q-73 -98 -112 -145l-107 -123q-20 -25 -98 -92l2 -2h8l93 4h229zM1458 289v-80h-108v-209h-86v209h-426v63l448 531h64v-514h108zM1239 1434h94l-964 -1434h-95zM345 614q-120 0 -206 70t-98 182l86 21q2 -86 63 -138q60 -53 154 -53
t143 47t49 116t-54 111q-56 42 -144 42h-82v69h82q84 0 137 43q53 44 53 102t-46 100t-140 42q-168 0 -205 -170l-80 23q17 105 95 167t202 62t194 -62q68 -62 68 -146t-54 -137q-54 -52 -130 -56v-2q80 -5 136 -55t56 -146t-79 -164q-80 -68 -200 -68z" />
    <glyph glyph-name="questiondown" unicode="&#xbf;" horiz-adv-x="1165" 
d="M670 958v-190q-252 -104 -352 -191t-101 -202q0 -115 72 -198q37 -44 109 -71t171 -26q322 0 400 301l102 -29q-41 -180 -174 -280t-330 -101q-241 0 -357 115t-116 281q0 197 203 330q99 66 252 124v137h121zM670 1434v-322h-121v322h121z" />
    <glyph glyph-name="Agrave" unicode="&#xc0;" horiz-adv-x="1472" 
d="M406 522h661l-264 604q-54 140 -55 142l-11 24h-2l-10 -24q-11 -25 -27 -68t-28 -74zM1296 0l-182 418h-756l-182 -418h-129l637 1434h104l637 -1434h-129zM891 1589l-39 -71l-432 213l47 88z" />
    <glyph glyph-name="Aacute" unicode="&#xc1;" horiz-adv-x="1472" 
d="M406 522h661l-264 604q-54 140 -55 142l-11 24h-2l-10 -24q-11 -25 -27 -68t-28 -74zM1296 0l-182 418h-756l-182 -418h-129l637 1434h104l637 -1434h-129zM1024 1731l-430 -213l-41 71l424 230z" />
    <glyph glyph-name="Acircumflex" unicode="&#xc2;" horiz-adv-x="1472" 
d="M406 522h661l-264 604q-54 140 -55 142l-11 24h-2l-10 -24q-11 -25 -27 -68t-28 -74zM1296 0l-182 418h-756l-182 -418h-129l637 1434h104l637 -1434h-129zM735 1751l-262 -223l-63 65l325 277l324 -277l-64 -65z" />
    <glyph glyph-name="Atilde" unicode="&#xc3;" horiz-adv-x="1472" 
d="M406 522h661l-264 604q-54 140 -55 142l-11 24h-2l-10 -24q-11 -25 -27 -68t-28 -74zM1296 0l-182 418h-756l-182 -418h-129l637 1434h104l637 -1434h-129zM881 1561q-74 0 -155 57t-125 57q-44 1 -73 -27t-28 -71h-101q1 80 57 132t132 52t156 -57t120 -57q41 -1 71 27
t32 71h98q2 -80 -54 -132t-130 -52z" />
    <glyph glyph-name="Adieresis" unicode="&#xc4;" horiz-adv-x="1472" 
d="M406 522h661l-264 604q-54 140 -55 142l-11 24h-2l-10 -24q-11 -25 -27 -68t-28 -74zM1296 0l-182 418h-756l-182 -418h-129l637 1434h104l637 -1434h-129zM964 1565q-36 1 -61 25t-25 60t26 60q24 24 60 25q36 0 60 -25q24 -24 25 -60q-1 -36 -25 -60t-60 -25zM499 1565
q-36 1 -61 25q-24 24 -24 60t24 60t61 25q35 0 61 -25q26 -24 26 -60t-26 -60t-61 -25z" />
    <glyph glyph-name="Aring" unicode="&#xc5;" horiz-adv-x="1472" 
d="M406 522h661l-264 604q-54 140 -55 142l-11 24h-2l-10 -24q-11 -25 -27 -68t-28 -74zM614 1621q0 -50 36 -86t87 -36t87 36t36 86t-36 86t-87 36t-87 -36t-36 -86zM537 1627q0 77 58 135t141 58q82 0 142 -58t60 -134t-42 -130t-105 -71l634 -1427h-129l-182 418h-756
l-182 -418h-129l635 1427q-66 19 -106 71t-39 129z" />
    <glyph glyph-name="AE" unicode="&#xc6;" horiz-adv-x="2009" 
d="M942 522v799h-172l-20 -43q-57 -135 -97 -225l-239 -531h528zM1061 113h823v-113h-942v418h-577l-189 -418h-129l658 1434h1167v-113h-811v-500h659v-108h-659v-600z" />
    <glyph glyph-name="Ccedilla" unicode="&#xc7;" horiz-adv-x="1562" 
d="M1034 -280q0 -84 -57 -133q-57 -48 -152 -48h-118l30 76h88q59 0 95 29q34 30 34 76t-35 77q-36 31 -94 31h-104l51 145q-290 23 -484 232t-194 521t216 524t528 212q207 0 380 -101t271 -274l-119 -30q-80 135 -222 213t-310 78q-268 0 -446 -176t-177 -454
q0 -278 179 -454t444 -176q180 0 328 90t227 242l116 -33q-88 -188 -263 -300t-394 -116l-27 -69q93 2 151 -48t58 -134z" />
    <glyph glyph-name="Egrave" unicode="&#xc8;" horiz-adv-x="1267" 
d="M317 113h828v-113h-944v1434h932v-113h-816v-500h658v-108h-658v-600zM825 1589l-39 -71l-432 213l47 88z" />
    <glyph glyph-name="Eacute" unicode="&#xc9;" horiz-adv-x="1267" 
d="M317 113h828v-113h-944v1434h932v-113h-816v-500h658v-108h-658v-600zM958 1731l-430 -213l-41 71l424 230z" />
    <glyph glyph-name="Ecircumflex" unicode="&#xca;" horiz-adv-x="1267" 
d="M317 113h828v-113h-944v1434h932v-113h-816v-500h658v-108h-658v-600zM670 1751l-262 -223l-64 65l326 277l323 -277l-63 -65z" />
    <glyph glyph-name="Edieresis" unicode="&#xcb;" horiz-adv-x="1267" 
d="M317 113h828v-113h-944v1434h932v-113h-816v-500h658v-108h-658v-600zM898 1565q-36 1 -60 25t-25 60q0 36 25 60q24 24 60 25q36 0 60 -25q24 -24 25 -60q-1 -36 -25 -60t-60 -25zM433 1565q-37 1 -61 25t-24 60t25 60t61 25q36 0 61 -25q25 -24 25 -60t-25 -61
q-26 -24 -62 -24z" />
    <glyph glyph-name="Igrave" unicode="&#xcc;" horiz-adv-x="518" 
d="M317 0h-116v1434h116v-1434zM373 1518l-432 213l47 88l424 -230z" />
    <glyph glyph-name="Iacute" unicode="&#xcd;" horiz-adv-x="518" 
d="M317 0h-116v1434h116v-1434zM498 1819l47 -88l-430 -213l-41 71z" />
    <glyph glyph-name="Icircumflex" unicode="&#xce;" horiz-adv-x="518" 
d="M317 0h-116v1434h116v-1434zM-70 1593l326 277l324 -277l-64 -65l-260 223l-262 -223z" />
    <glyph glyph-name="Idieresis" unicode="&#xcf;" horiz-adv-x="518" 
d="M317 0h-116v1434h116v-1434zM484 1565q-36 1 -60 25t-25 60q0 36 25 60q24 24 60 25q36 0 61 -25q25 -24 25 -60t-25 -61q-25 -24 -61 -24zM19 1565q-37 1 -61 25t-24 60t25 60t61 25q36 0 61 -25q25 -24 25 -60t-25 -61q-26 -24 -62 -24z" />
    <glyph glyph-name="Eth" unicode="&#xd0;" horiz-adv-x="1638" 
d="M322 113h495q252 -1 428 163t176 436t-179 441q-179 168 -441 168h-479v-535h405v-110h-405v-563zM205 1434h596q313 0 527 -204t214 -518t-211 -513t-514 -199h-612v676h-111v110h111v648z" />
    <glyph glyph-name="Ntilde" unicode="&#xd1;" horiz-adv-x="1542" 
d="M1225 1434h118v-1434h-110l-731 985q-106 144 -166 234l-21 26h-2l2 -47l2 -326v-872h-116v1434h110l729 -981q46 -59 96 -129t72 -99l21 -26h2l-2 47l-4 317v871zM920 1561q-74 0 -155 57t-125 57q-44 1 -73 -27t-28 -71h-101q0 80 56 132t133 52q75 0 155 -57t121 -57
q41 -1 71 27t32 71h98q2 -80 -54 -132t-130 -52z" />
    <glyph glyph-name="Ograve" unicode="&#xd2;" horiz-adv-x="1677" 
d="M1462 718q0 278 -179 454t-445 176t-444 -176t-179 -454q0 -278 178 -454q177 -178 443 -178t446 177t180 455zM94 717q0 321 216 533t528 212t529 -212q216 -212 216 -534t-216 -533q-216 -212 -528 -212t-529 212q-216 212 -216 534zM963 1518l-433 213l48 88l423 -230
z" />
    <glyph glyph-name="Oacute" unicode="&#xd3;" horiz-adv-x="1677" 
d="M1462 718q0 278 -179 454t-445 176t-444 -176t-179 -454q0 -278 178 -454q177 -178 443 -178t446 177t180 455zM94 717q0 321 216 533t528 212t529 -212q216 -212 216 -534t-216 -533q-216 -212 -528 -212t-529 212q-216 212 -216 534zM1087 1819l48 -88l-430 -213
l-41 71z" />
    <glyph glyph-name="Ocircumflex" unicode="&#xd4;" horiz-adv-x="1677" 
d="M1462 718q0 278 -179 454t-445 176t-444 -176t-179 -454q0 -278 178 -454q177 -178 443 -178t446 177t180 455zM94 717q0 321 216 533t528 212t529 -212q216 -212 216 -534t-216 -533q-216 -212 -528 -212t-529 212q-216 212 -216 534zM520 1593l326 277l323 -277
l-63 -65l-260 223l-262 -223z" />
    <glyph glyph-name="Otilde" unicode="&#xd5;" horiz-adv-x="1677" 
d="M1462 718q0 278 -179 454t-445 176t-444 -176t-179 -454q0 -278 178 -454q177 -178 443 -178t446 177t180 455zM94 717q0 321 216 533t528 212t529 -212q216 -212 216 -534t-216 -533q-216 -212 -528 -212t-529 212q-216 212 -216 534zM992 1561q-74 0 -155 57t-125 57
q-44 1 -73 -27t-29 -71h-100q0 80 56 132t132 52t156 -57t121 -57t71 27q29 28 31 71h99q2 -80 -54 -132t-130 -52z" />
    <glyph glyph-name="Odieresis" unicode="&#xd6;" horiz-adv-x="1677" 
d="M1462 718q0 278 -179 454t-445 176t-444 -176t-179 -454q0 -278 178 -454q177 -178 443 -178t446 177t180 455zM94 717q0 321 216 533t528 212t529 -212q216 -212 216 -534t-216 -533q-216 -212 -528 -212t-529 212q-216 212 -216 534zM1074 1565q-36 1 -60 25t-25 60
q0 36 25 60q24 24 60 25q36 0 61 -25q25 -24 25 -60t-25 -61q-25 -24 -61 -24zM609 1565q-37 1 -61 25t-24 60t25 60t61 25q36 0 61 -25q25 -24 25 -60t-25 -61q-26 -24 -62 -24z" />
    <glyph glyph-name="multiply" unicode="&#xd7;" 
d="M1028 1126l76 -75l-311 -314l313 -313l-78 -76l-313 311l-312 -311l-77 78l311 311l-311 312l75 77l314 -311z" />
    <glyph glyph-name="Oslash" unicode="&#xd8;" horiz-adv-x="1677" 
d="M838 86q264 0 444 177t180 460t-196 465l-766 -1010q152 -92 338 -92zM215 708q0 -286 201 -466l768 1007q-152 98 -346 99q-266 0 -444 -176q-178 -178 -179 -464zM1583 728q0 -333 -216 -545t-529 -212q-223 0 -406 115l-78 -100l-84 63l76 101q-252 219 -252 554
q0 334 216 546t528 212q231 0 415 -121l82 107l82 -62l-82 -108q248 -217 248 -550z" />
    <glyph glyph-name="Ugrave" unicode="&#xd9;" horiz-adv-x="1466" 
d="M1190 1434h119v-852q-1 -297 -149 -455t-428 -158t-427 157t-147 456v852h116v-856q0 -496 458 -496t458 496v856zM854 1518l-432 213l47 88l424 -230z" />
    <glyph glyph-name="Uacute" unicode="&#xda;" horiz-adv-x="1466" 
d="M1190 1434h119v-852q-1 -297 -149 -455t-428 -158t-427 157t-147 456v852h116v-856q0 -496 458 -496t458 496v856zM979 1819l47 -88l-430 -213l-41 71z" />
    <glyph glyph-name="Ucircumflex" unicode="&#xdb;" horiz-adv-x="1466" 
d="M1190 1434h119v-852q-1 -297 -149 -455t-428 -158t-427 157t-147 456v852h116v-856q0 -496 458 -496t458 496v856zM412 1593l325 277l324 -277l-64 -65l-260 223l-262 -223z" />
    <glyph glyph-name="Udieresis" unicode="&#xdc;" horiz-adv-x="1466" 
d="M1190 1434h119v-852q-1 -297 -149 -455t-428 -158t-427 157t-147 456v852h116v-856q0 -496 458 -496t458 496v856zM966 1565q-36 1 -61 25t-25 60t26 60q24 24 60 25q36 0 60 -25q24 -24 25 -60q-1 -36 -25 -60t-60 -25zM501 1565q-36 1 -61 25q-24 24 -24 60t24 60
t61 25q35 0 61 -25q26 -24 26 -60t-26 -60t-61 -25z" />
    <glyph glyph-name="Yacute" unicode="&#xdd;" horiz-adv-x="1304" 
d="M711 0h-117v723l-557 711h137l387 -492q90 -117 92 -117h2l15 19q14 18 39 50t36 48l385 492h138l-557 -711v-723zM893 1819l47 -88l-430 -213l-41 71z" />
    <glyph glyph-name="Thorn" unicode="&#xde;" horiz-adv-x="1216" 
d="M317 389h340q154 0 248 92t94 241t-94 242t-248 91h-340v-666zM317 1167h338q207 0 336 -125q129 -126 129 -322t-129 -319t-336 -122h-338v-279h-116v1434h116v-267z" />
    <glyph glyph-name="germandbls" unicode="&#xdf;" horiz-adv-x="1542" 
d="M317 1321v-1321h-116v1434h1106l-254 -459q-12 -25 -37 -66t-41 -69l-17 -27l3 -2h14q215 2 344 -115t129 -300t-130 -304t-335 -121q-158 0 -290 77t-195 206l110 35q54 -97 152 -155t236 -58t236 91q97 91 97 225t-92 228t-260 95h-129v96l192 354q12 25 36 64l57 94
l-3 2h-8l-97 -4h-708z" />
    <glyph glyph-name="agrave" unicode="&#xe0;" horiz-adv-x="1472" 
d="M406 522h661l-264 604q-54 140 -55 142l-11 24h-2l-10 -24q-11 -25 -27 -68t-28 -74zM1296 0l-182 418h-756l-182 -418h-129l637 1434h104l637 -1434h-129zM891 1589l-39 -71l-432 213l47 88z" />
    <glyph glyph-name="aacute" unicode="&#xe1;" horiz-adv-x="1472" 
d="M406 522h661l-264 604q-54 140 -55 142l-11 24h-2l-10 -24q-11 -25 -27 -68t-28 -74zM1296 0l-182 418h-756l-182 -418h-129l637 1434h104l637 -1434h-129zM1024 1731l-430 -213l-41 71l424 230z" />
    <glyph glyph-name="acircumflex" unicode="&#xe2;" horiz-adv-x="1472" 
d="M406 522h661l-264 604q-54 140 -55 142l-11 24h-2l-10 -24q-11 -25 -27 -68t-28 -74zM1296 0l-182 418h-756l-182 -418h-129l637 1434h104l637 -1434h-129zM735 1751l-262 -223l-63 65l325 277l324 -277l-64 -65z" />
    <glyph glyph-name="atilde" unicode="&#xe3;" horiz-adv-x="1472" 
d="M406 522h661l-264 604q-54 140 -55 142l-11 24h-2l-10 -24q-11 -25 -27 -68t-28 -74zM1296 0l-182 418h-756l-182 -418h-129l637 1434h104l637 -1434h-129zM881 1561q-74 0 -155 57t-125 57q-44 1 -73 -27t-28 -71h-101q1 80 57 132t132 52t156 -57t120 -57q41 -1 71 27
t32 71h98q2 -80 -54 -132t-130 -52z" />
    <glyph glyph-name="adieresis" unicode="&#xe4;" horiz-adv-x="1472" 
d="M406 522h661l-264 604q-54 140 -55 142l-11 24h-2l-10 -24q-11 -25 -27 -68t-28 -74zM1296 0l-182 418h-756l-182 -418h-129l637 1434h104l637 -1434h-129zM964 1565q-36 1 -61 25t-25 60t26 60q24 24 60 25q36 0 60 -25q24 -24 25 -60q-1 -36 -25 -60t-60 -25zM499 1565
q-36 1 -61 25q-24 24 -24 60t24 60t61 25q35 0 61 -25q26 -24 26 -60t-26 -60t-61 -25z" />
    <glyph glyph-name="aring" unicode="&#xe5;" horiz-adv-x="1472" 
d="M406 522h661l-264 604q-54 140 -55 142l-11 24h-2l-10 -24q-11 -25 -27 -68t-28 -74zM614 1621q0 -50 36 -86t87 -36t87 36t36 86t-36 86t-87 36t-87 -36t-36 -86zM537 1627q0 77 58 135t141 58q82 0 142 -58t60 -134t-42 -130t-105 -71l634 -1427h-129l-182 418h-756
l-182 -418h-129l635 1427q-66 19 -106 71t-39 129z" />
    <glyph glyph-name="ae" unicode="&#xe6;" horiz-adv-x="2009" 
d="M942 522v799h-172l-20 -43q-57 -135 -97 -225l-239 -531h528zM1061 113h823v-113h-942v418h-577l-189 -418h-129l658 1434h1167v-113h-811v-500h659v-108h-659v-600z" />
    <glyph glyph-name="ccedilla" unicode="&#xe7;" horiz-adv-x="1562" 
d="M1034 -280q0 -84 -57 -133q-57 -48 -152 -48h-118l30 76h88q59 0 95 29q34 30 34 76t-35 77q-36 31 -94 31h-104l51 145q-290 23 -484 232t-194 521t216 524t528 212q207 0 380 -101t271 -274l-119 -30q-80 135 -222 213t-310 78q-268 0 -446 -176t-177 -454
q0 -278 179 -454t444 -176q180 0 328 90t227 242l116 -33q-88 -188 -263 -300t-394 -116l-27 -69q93 2 151 -48t58 -134z" />
    <glyph glyph-name="egrave" unicode="&#xe8;" horiz-adv-x="1267" 
d="M317 113h828v-113h-944v1434h932v-113h-816v-500h658v-108h-658v-600zM815 1589l-39 -71l-432 213l47 88z" />
    <glyph glyph-name="eacute" unicode="&#xe9;" horiz-adv-x="1267" 
d="M317 113h828v-113h-944v1434h932v-113h-816v-500h658v-108h-658v-600zM948 1731l-430 -213l-41 71l424 230z" />
    <glyph glyph-name="ecircumflex" unicode="&#xea;" horiz-adv-x="1267" 
d="M317 113h828v-113h-944v1434h932v-113h-816v-500h658v-108h-658v-600zM659 1751l-262 -223l-63 65l325 277l324 -277l-63 -65z" />
    <glyph glyph-name="edieresis" unicode="&#xeb;" horiz-adv-x="1267" 
d="M317 113h828v-113h-944v1434h932v-113h-816v-500h658v-108h-658v-600zM888 1565q-36 1 -61 25t-25 60t26 60q24 24 60 25q36 0 60 -25q24 -24 25 -60q-1 -36 -25 -60t-60 -25zM423 1565q-36 1 -61 25q-24 24 -24 60t24 60t61 25q35 0 61 -25q26 -24 26 -60t-26 -60
t-61 -25z" />
    <glyph glyph-name="igrave" unicode="&#xec;" horiz-adv-x="518" 
d="M317 0h-116v1434h116v-1434zM375 1518l-432 213l47 88l424 -230z" />
    <glyph glyph-name="iacute" unicode="&#xed;" horiz-adv-x="518" 
d="M317 0h-116v1434h116v-1434zM500 1819l47 -88l-430 -213l-41 71z" />
    <glyph glyph-name="icircumflex" unicode="&#xee;" horiz-adv-x="518" 
d="M317 0h-116v1434h116v-1434zM-68 1593l326 277l324 -277l-64 -65l-260 223l-262 -223z" />
    <glyph glyph-name="idieresis" unicode="&#xef;" horiz-adv-x="518" 
d="M317 0h-116v1434h116v-1434zM486 1565q-36 1 -60 25t-25 60q0 36 25 60q24 24 60 25q36 0 61 -25q25 -24 25 -60t-25 -61q-25 -24 -61 -24zM22 1565q-36 1 -61 25t-25 60t26 60q24 24 60 25q36 0 62 -25q26 -24 25 -60q1 -36 -25 -60t-62 -25z" />
    <glyph glyph-name="eth" unicode="&#xf0;" horiz-adv-x="1638" 
d="M322 113h495q252 -1 428 163t176 436t-179 441q-179 168 -441 168h-479v-535h405v-110h-405v-563zM205 1434h596q313 0 527 -204t214 -518t-211 -513t-514 -199h-612v676h-111v110h111v648z" />
    <glyph glyph-name="ntilde" unicode="&#xf1;" horiz-adv-x="1542" 
d="M1225 1434h118v-1434h-110l-731 985q-106 144 -166 234l-21 26h-2l2 -47l2 -326v-872h-116v1434h110l729 -981q46 -59 96 -129t72 -99l21 -26h2l-2 47l-4 317v871zM920 1561q-74 0 -155 57t-125 57q-44 1 -73 -27t-28 -71h-101q0 80 56 132t133 52q75 0 155 -57t121 -57
q41 -1 71 27t32 71h98q2 -80 -54 -132t-130 -52z" />
    <glyph glyph-name="ograve" unicode="&#xf2;" horiz-adv-x="1677" 
d="M1462 718q0 278 -179 454t-445 176t-444 -176t-179 -454q0 -278 178 -454q177 -178 443 -178t446 177t180 455zM94 717q0 321 216 533t528 212t529 -212q216 -212 216 -534t-216 -533q-216 -212 -528 -212t-529 212q-216 212 -216 534zM958 1518l-432 213l47 88l424 -230
z" />
    <glyph glyph-name="oacute" unicode="&#xf3;" horiz-adv-x="1677" 
d="M1462 718q0 278 -179 454t-445 176t-444 -176t-179 -454q0 -278 178 -454q177 -178 443 -178t446 177t180 455zM94 717q0 321 216 533t528 212t529 -212q216 -212 216 -534t-216 -533q-216 -212 -528 -212t-529 212q-216 212 -216 534zM1083 1819l47 -88l-430 -213
l-41 71z" />
    <glyph glyph-name="ocircumflex" unicode="&#xf4;" horiz-adv-x="1677" 
d="M1462 718q0 278 -179 454t-445 176t-444 -176t-179 -454q0 -278 178 -454q177 -178 443 -178t446 177t180 455zM94 717q0 321 216 533t528 212t529 -212q216 -212 216 -534t-216 -533q-216 -212 -528 -212t-529 212q-216 212 -216 534zM516 1593l326 277l323 -277
l-63 -65l-260 223l-262 -223z" />
    <glyph glyph-name="otilde" unicode="&#xf5;" horiz-adv-x="1677" 
d="M1462 718q0 278 -179 454t-445 176t-444 -176t-179 -454q0 -278 178 -454q177 -178 443 -178t446 177t180 455zM94 717q0 321 216 533t528 212t529 -212q216 -212 216 -534t-216 -533q-216 -212 -528 -212t-529 212q-216 212 -216 534zM988 1561q-74 0 -155 57t-125 57
q-44 1 -73 -27t-29 -71h-100q0 80 56 132t132 52t156 -57t121 -57q41 -1 71 27t31 71h98q2 -80 -54 -132q-55 -52 -129 -52z" />
    <glyph glyph-name="odieresis" unicode="&#xf6;" horiz-adv-x="1677" 
d="M1462 718q0 278 -179 454t-445 176t-444 -176t-179 -454q0 -278 178 -454q177 -178 443 -178t446 177t180 455zM94 717q0 321 216 533t528 212t529 -212q216 -212 216 -534t-216 -533q-216 -212 -528 -212t-529 212q-216 212 -216 534zM1070 1565q-36 1 -60 25t-25 60
q0 36 25 60q24 24 60 25q36 0 60 -25q24 -24 25 -60q-1 -36 -25 -60t-60 -25zM605 1565q-37 1 -61 25t-24 60t25 60t61 25q36 0 61 -25q25 -24 25 -60t-25 -61q-26 -24 -62 -24z" />
    <glyph glyph-name="divide" unicode="&#xf7;" 
d="M698 195q-36 -1 -60 25t-24 61t25 59t61 25q36 0 60 -25q24 -24 24 -60t-25 -61q-26 -24 -61 -24zM229 780h953v-102h-953v102zM698 1100q-36 0 -60 26t-24 60q0 36 25 60t61 24t60 -25t24 -61t-25 -60q-26 -24 -61 -24z" />
    <glyph glyph-name="oslash" unicode="&#xf8;" horiz-adv-x="1677" 
d="M838 86q264 0 444 177t180 460t-196 465l-766 -1010q152 -92 338 -92zM215 708q0 -286 201 -466l768 1007q-152 98 -346 99q-266 0 -444 -176q-178 -178 -179 -464zM1583 728q0 -333 -216 -545t-529 -212q-223 0 -406 115l-78 -100l-84 63l76 101q-252 219 -252 554
q0 334 216 546t528 212q231 0 415 -121l82 107l82 -62l-82 -108q248 -217 248 -550z" />
    <glyph glyph-name="ugrave" unicode="&#xf9;" horiz-adv-x="1466" 
d="M1190 1434h119v-852q-1 -297 -149 -455t-428 -158t-427 157t-147 456v852h116v-856q0 -496 458 -496t458 496v856zM854 1518l-432 213l47 88l424 -230z" />
    <glyph glyph-name="uacute" unicode="&#xfa;" horiz-adv-x="1466" 
d="M1190 1434h119v-852q-1 -297 -149 -455t-428 -158t-427 157t-147 456v852h116v-856q0 -496 458 -496t458 496v856zM979 1819l47 -88l-430 -213l-41 71z" />
    <glyph glyph-name="ucircumflex" unicode="&#xfb;" horiz-adv-x="1466" 
d="M1190 1434h119v-852q-1 -297 -149 -455t-428 -158t-427 157t-147 456v852h116v-856q0 -496 458 -496t458 496v856zM412 1593l325 277l324 -277l-64 -65l-260 223l-262 -223z" />
    <glyph glyph-name="udieresis" unicode="&#xfc;" horiz-adv-x="1466" 
d="M1190 1434h119v-852q-1 -297 -149 -455t-428 -158t-427 157t-147 456v852h116v-856q0 -496 458 -496t458 496v856zM966 1565q-36 1 -61 25t-25 60t26 60q24 24 60 25q36 0 60 -25q24 -24 25 -60q-1 -36 -25 -60t-60 -25zM501 1565q-36 1 -61 25q-24 24 -24 60t24 60
t61 25q35 0 61 -25q26 -24 26 -60t-26 -60t-61 -25z" />
    <glyph glyph-name="yacute" unicode="&#xfd;" horiz-adv-x="1304" 
d="M711 0h-117v723l-557 711h137l387 -492q90 -117 92 -117h2l15 19q14 18 39 50t36 48l385 492h138l-557 -711v-723zM893 1819l47 -88l-430 -213l-41 71z" />
    <glyph glyph-name="thorn" unicode="&#xfe;" horiz-adv-x="1216" 
d="M317 389h340q154 0 248 92t94 241t-94 242t-248 91h-340v-666zM317 1167h338q207 0 336 -125q129 -126 129 -322t-129 -319t-336 -122h-338v-279h-116v1434h116v-267z" />
    <glyph glyph-name="ydieresis" unicode="&#xff;" horiz-adv-x="1304" 
d="M711 0h-117v723l-557 711h137l387 -492q90 -117 92 -117h2l15 19q14 18 39 50t36 48l385 492h138l-557 -711v-723zM880 1565q-36 1 -61 25t-25 60t26 60q24 24 60 25q36 0 60 -25q24 -24 25 -60q-1 -36 -25 -60t-60 -25zM415 1565q-36 1 -61 25q-24 24 -24 60t24 60
t61 25q35 0 61 -25q26 -24 26 -60t-26 -60t-61 -25z" />
    <glyph glyph-name="Amacron" unicode="&#x100;" horiz-adv-x="1472" 
d="M406 522h661l-264 604q-54 140 -55 142l-11 24h-2l-10 -24q-11 -25 -27 -68t-28 -74zM1296 0l-182 418h-756l-182 -418h-129l637 1434h104l637 -1434h-129zM1069 1698v-96h-645v96h645z" />
    <glyph glyph-name="amacron" unicode="&#x101;" horiz-adv-x="1472" 
d="M406 522h661l-264 604q-54 140 -55 142l-11 24h-2l-10 -24q-11 -25 -27 -68t-28 -74zM1296 0l-182 418h-756l-182 -418h-129l637 1434h104l637 -1434h-129zM1069 1698v-96h-645v96h645z" />
    <glyph glyph-name="Abreve" unicode="&#x102;" horiz-adv-x="1472" 
d="M406 522h661l-264 604q-54 140 -55 142l-11 24h-2l-10 -24q-11 -25 -27 -68t-28 -74zM1296 0l-182 418h-756l-182 -418h-129l637 1434h104l637 -1434h-129zM742 1604q68 0 124 44q54 44 70 111h86q-18 -102 -97 -168q-79 -65 -183 -65t-181 66q-78 66 -96 167h86
q15 -67 69 -111t122 -44z" />
    <glyph glyph-name="abreve" unicode="&#x103;" horiz-adv-x="1472" 
d="M406 522h661l-264 604q-54 140 -55 142l-11 24h-2l-10 -24q-11 -25 -27 -68t-28 -74zM1296 0l-182 418h-756l-182 -418h-129l637 1434h104l637 -1434h-129zM742 1604q68 0 124 44q54 44 70 111h86q-18 -102 -97 -168q-79 -65 -183 -65t-181 66q-78 66 -96 167h86
q15 -67 69 -111t122 -44z" />
    <glyph glyph-name="Aogonek" unicode="&#x104;" horiz-adv-x="1472" 
d="M406 522h661l-264 604q-54 140 -55 142l-11 24h-2l-10 -24q-11 -25 -27 -68t-28 -74zM987 -222q0 120 86 198t197 85l-156 357h-756l-182 -418h-129l637 1434h104l637 -1434h-55q-119 0 -206 -55t-87 -172q0 -78 52 -130t139 -53q153 0 219 150l74 -35
q-86 -195 -293 -194q-125 -1 -203 73t-78 194z" />
    <glyph glyph-name="aogonek" unicode="&#x105;" horiz-adv-x="1472" 
d="M406 522h661l-264 604q-54 140 -55 142l-11 24h-2l-10 -24q-11 -25 -27 -68t-28 -74zM987 -222q0 120 86 198t197 85l-156 357h-756l-182 -418h-129l637 1434h104l637 -1434h-55q-119 0 -206 -55t-87 -172q0 -78 52 -130t139 -53q153 0 219 150l74 -35
q-86 -195 -293 -194q-125 -1 -203 73t-78 194z" />
    <glyph glyph-name="Cacute" unicode="&#x106;" horiz-adv-x="1562" 
d="M838 1348q-268 0 -446 -176t-177 -454q0 -278 179 -454t444 -176q180 0 328 90t227 242l116 -33q-90 -193 -269 -305t-402 -111q-311 0 -528 212q-216 212 -216 534q0 321 216 533t528 212q207 0 380 -102t271 -273l-119 -30q-80 135 -222 213t-310 78zM1067 1819l47 -88
l-430 -213l-41 71z" />
    <glyph glyph-name="cacute" unicode="&#x107;" horiz-adv-x="1562" 
d="M838 1348q-268 0 -446 -176t-177 -454q0 -278 179 -454t444 -176q180 0 328 90t227 242l116 -33q-90 -193 -269 -305t-402 -111q-311 0 -528 212q-216 212 -216 534q0 321 216 533t528 212q207 0 380 -102t271 -273l-119 -30q-80 135 -222 213t-310 78zM1067 1819l47 -88
l-430 -213l-41 71z" />
    <glyph glyph-name="Cdotaccent" unicode="&#x10a;" horiz-adv-x="1562" 
d="M838 1348q-268 0 -446 -176t-177 -454q0 -278 179 -454t444 -176q180 0 328 90t227 242l116 -33q-90 -193 -269 -305t-402 -111q-311 0 -528 212q-216 212 -216 534q0 321 216 533t528 212q207 0 380 -102t271 -273l-119 -30q-80 135 -222 213t-310 78zM827 1565
q-35 1 -61 25t-25 60q0 36 26 60q27 24 61 25q34 0 59 -25q25 -24 25 -60t-25 -61q-25 -24 -60 -24z" />
    <glyph glyph-name="cdotaccent" unicode="&#x10b;" horiz-adv-x="1562" 
d="M838 1348q-268 0 -446 -176t-177 -454q0 -278 179 -454t444 -176q180 0 328 90t227 242l116 -33q-90 -193 -269 -305t-402 -111q-311 0 -528 212q-216 212 -216 534q0 321 216 533t528 212q207 0 380 -102t271 -273l-119 -30q-80 135 -222 213t-310 78zM827 1565
q-35 1 -61 25t-25 60q0 36 26 60q27 24 61 25q34 0 59 -25q25 -24 25 -60t-25 -61q-25 -24 -60 -24z" />
    <glyph glyph-name="Ccaron" unicode="&#x10c;" horiz-adv-x="1562" 
d="M838 1348q-268 0 -446 -176t-177 -454q0 -278 179 -454t444 -176q180 0 328 90t227 242l116 -33q-90 -193 -269 -305t-402 -111q-311 0 -528 212q-216 212 -216 534q0 321 216 533t528 212q207 0 380 -102t271 -273l-119 -30q-80 135 -222 213t-310 78zM504 1769l63 66
l260 -223l263 223l63 -66l-326 -276z" />
    <glyph glyph-name="ccaron" unicode="&#x10d;" horiz-adv-x="1562" 
d="M838 1348q-268 0 -446 -176t-177 -454q0 -278 179 -454t444 -176q180 0 328 90t227 242l116 -33q-90 -193 -269 -305t-402 -111q-311 0 -528 212q-216 212 -216 534q0 321 216 533t528 212q207 0 380 -102t271 -273l-119 -30q-80 135 -222 213t-310 78zM504 1769l63 66
l260 -223l263 223l63 -66l-326 -276z" />
    <glyph glyph-name="Dcaron" unicode="&#x10e;" horiz-adv-x="1632" 
d="M317 113h496q252 -1 428 163t176 436t-179 441q-179 168 -441 168h-480v-1208zM201 1434h596q313 0 527 -204t214 -518t-211 -513t-514 -199h-612v1434zM457 1769l63 66l260 -223l262 223l64 -66l-326 -276z" />
    <glyph glyph-name="dcaron" unicode="&#x10f;" horiz-adv-x="1632" 
d="M317 113h496q252 -1 428 163t176 436t-179 441q-179 168 -441 168h-480v-1208zM201 1434h596q313 0 527 -204t214 -518t-211 -513t-514 -199h-612v1434zM457 1769l63 66l260 -223l262 223l64 -66l-326 -276z" />
    <glyph glyph-name="Dcroat" unicode="&#x110;" horiz-adv-x="1638" 
d="M322 113h495q252 -1 428 163t176 436t-179 441q-179 168 -441 168h-479v-535h405v-110h-405v-563zM205 1434h596q313 0 527 -204t214 -518t-211 -513t-514 -199h-612v676h-111v110h111v648z" />
    <glyph glyph-name="dcroat" unicode="&#x111;" horiz-adv-x="1638" 
d="M322 113h495q252 -1 428 163t176 436t-179 441q-179 168 -441 168h-479v-535h405v-110h-405v-563zM205 1434h596q313 0 527 -204t214 -518t-211 -513t-514 -199h-612v676h-111v110h111v648z" />
    <glyph glyph-name="Emacron" unicode="&#x112;" horiz-adv-x="1267" 
d="M317 113h828v-113h-944v1434h932v-113h-816v-500h658v-108h-658v-600zM1004 1698v-96h-646v96h646z" />
    <glyph glyph-name="emacron" unicode="&#x113;" horiz-adv-x="1267" 
d="M317 113h828v-113h-944v1434h932v-113h-816v-500h658v-108h-658v-600zM993 1698v-96h-645v96h645z" />
    <glyph glyph-name="Edotaccent" unicode="&#x116;" horiz-adv-x="1267" 
d="M317 113h828v-113h-944v1434h932v-113h-816v-500h658v-108h-658v-600zM672 1565q-35 1 -61 25q-25 24 -25 60t26 60t60 25q36 0 60 -25q24 -24 24 -60t-24 -60t-60 -25z" />
    <glyph glyph-name="edotaccent" unicode="&#x117;" horiz-adv-x="1267" 
d="M317 113h828v-113h-944v1434h932v-113h-816v-500h658v-108h-658v-600zM672 1565q-35 1 -61 25q-25 24 -25 60t26 60t60 25q36 0 60 -25q24 -24 24 -60t-24 -60t-60 -25z" />
    <glyph glyph-name="Eogonek" unicode="&#x118;" horiz-adv-x="1267" 
d="M590 -214q0 128 115 214h-504v1434h932v-113h-816v-500h658v-108h-658v-600h828v-113h-172q-119 0 -206 -55t-87 -172q0 -78 52 -130t138 -53q154 0 220 150l73 -35q-86 -195 -293 -194q-124 -1 -202 73t-78 202z" />
    <glyph glyph-name="eogonek" unicode="&#x119;" horiz-adv-x="1267" 
d="M633 -214q0 128 115 214h-547v1434h932v-113h-816v-500h658v-108h-658v-600h828v-113h-129q-119 0 -206 -55t-87 -172q0 -78 52 -130t138 -53q154 0 220 150l73 -35q-86 -195 -293 -194q-125 -1 -203 73t-77 202z" />
    <glyph glyph-name="Ecaron" unicode="&#x11a;" horiz-adv-x="1267" 
d="M317 113h828v-113h-944v1434h932v-113h-816v-500h658v-108h-658v-600zM997 1769l-325 -276l-324 276l64 66l260 -223l262 223z" />
    <glyph glyph-name="ecaron" unicode="&#x11b;" horiz-adv-x="1267" 
d="M317 113h828v-113h-944v1434h932v-113h-816v-500h658v-108h-658v-600zM987 1769l-325 -276l-324 276l63 66l261 -223l262 223z" />
    <glyph glyph-name="Gcircumflex" unicode="&#x11c;" horiz-adv-x="1630" 
d="M1403 240h-2q-67 -84 -161 -148q-179 -121 -402 -121q-311 0 -528 212q-216 212 -216 534q0 321 216 533t528 212q221 -6 388 -105t263 -270l-119 -30q-80 135 -222 213t-310 78q-268 0 -446 -176t-177 -454q0 -276 179 -454t446 -178q202 0 356 97t205 210v228h-453v102
h559v-727h-106v175l2 52v17zM489 1593l326 277l324 -277l-64 -65l-260 223l-262 -223z" />
    <glyph glyph-name="gcircumflex" unicode="&#x11d;" horiz-adv-x="1630" 
d="M1403 240h-2q-67 -84 -161 -148q-179 -121 -402 -121q-311 0 -528 212q-216 212 -216 534q0 321 216 533t528 212q221 -6 388 -105t263 -270l-119 -30q-80 135 -222 213t-310 78q-268 0 -446 -176t-177 -454q0 -276 179 -454t446 -178q202 0 356 97t205 210v228h-453v102
h559v-727h-106v175l2 52v17zM489 1593l326 277l324 -277l-64 -65l-260 223l-262 -223z" />
    <glyph glyph-name="Gbreve" unicode="&#x11e;" horiz-adv-x="1630" 
d="M1403 240h-2q-67 -84 -161 -148q-179 -121 -402 -121q-311 0 -528 212q-216 212 -216 534q0 321 216 533t528 212q221 -6 388 -105t263 -270l-119 -30q-80 135 -222 213t-310 78q-268 0 -446 -176t-177 -454q0 -276 179 -454t446 -178q202 0 356 97t205 210v228h-453v102
h559v-727h-106v175l2 52v17zM822 1604q69 0 123 45t71 110h86q-18 -102 -97 -168q-79 -65 -183 -65t-181 66q-78 66 -96 167h86q16 -67 69 -111t122 -44z" />
    <glyph glyph-name="gbreve" unicode="&#x11f;" horiz-adv-x="1630" 
d="M1403 240h-2q-67 -84 -161 -148q-179 -121 -402 -121q-311 0 -528 212q-216 212 -216 534q0 321 216 533t528 212q221 -6 388 -105t263 -270l-119 -30q-80 135 -222 213t-310 78q-268 0 -446 -176t-177 -454q0 -276 179 -454t446 -178q202 0 356 97t205 210v228h-453v102
h559v-727h-106v175l2 52v17zM822 1604q69 0 123 45t71 110h86q-18 -102 -97 -168q-79 -65 -183 -65t-181 66q-78 66 -96 167h86q16 -67 69 -111t122 -44z" />
    <glyph glyph-name="Gdotaccent" unicode="&#x120;" horiz-adv-x="1630" 
d="M1403 240h-2q-67 -84 -161 -148q-179 -121 -402 -121q-311 0 -528 212q-216 212 -216 534q0 321 216 533t528 212q221 -6 388 -105t263 -270l-119 -30q-80 135 -222 213t-310 78q-268 0 -446 -176t-177 -454q0 -276 179 -454t446 -178q202 0 356 97t205 210v228h-453v102
h559v-727h-106v175l2 52v17zM817 1565q-35 1 -61 25t-25 60q0 36 26 60q27 24 61 25q34 0 59 -25q25 -24 25 -60t-25 -61q-25 -24 -60 -24z" />
    <glyph glyph-name="gdotaccent" unicode="&#x121;" horiz-adv-x="1630" 
d="M1403 240h-2q-67 -84 -161 -148q-179 -121 -402 -121q-311 0 -528 212q-216 212 -216 534q0 321 216 533t528 212q221 -6 388 -105t263 -270l-119 -30q-80 135 -222 213t-310 78q-268 0 -446 -176t-177 -454q0 -276 179 -454t446 -178q202 0 356 97t205 210v228h-453v102
h559v-727h-106v175l2 52v17zM817 1565q-35 1 -61 25t-25 60q0 36 26 60q27 24 61 25q34 0 59 -25q25 -24 25 -60t-25 -61q-25 -24 -60 -24z" />
    <glyph glyph-name="Gcommaaccent" unicode="&#x122;" horiz-adv-x="1630" 
d="M815 -248q-33 0 -57 23t-25 59q0 36 26 61q27 23 63 23t61 -30t24 -74q0 -162 -137 -303h-59q104 104 104 231l16 10h-16zM1403 240h-2q-67 -84 -161 -148q-179 -121 -402 -121q-311 0 -528 212q-216 212 -216 534q0 321 216 533t528 212q221 -6 388 -105t263 -270
l-119 -30q-80 135 -222 213t-310 78q-268 0 -446 -176t-177 -454q0 -276 179 -454t446 -178q202 0 356 97t205 210v228h-453v102h559v-727h-106v175l2 52v17z" />
    <glyph glyph-name="gcommaaccent" unicode="&#x123;" horiz-adv-x="1630" 
d="M815 -248q-33 0 -57 23t-25 59q0 36 26 61q27 23 63 23t61 -30t24 -74q0 -162 -137 -303h-59q104 104 104 231l16 10h-16zM1403 240h-2q-67 -84 -161 -148q-179 -121 -402 -121q-311 0 -528 212q-216 212 -216 534q0 321 216 533t528 212q221 -6 388 -105t263 -270
l-119 -30q-80 135 -222 213t-310 78q-268 0 -446 -176t-177 -454q0 -276 179 -454t446 -178q202 0 356 97t205 210v228h-453v102h559v-727h-106v175l2 52v17z" />
    <glyph glyph-name="Hcircumflex" unicode="&#x124;" horiz-adv-x="1488" 
d="M1169 1434h119v-1434h-119v692h-852v-692h-116v1434h116v-629h852v629zM741 1751l-262 -223l-63 65l325 277l324 -277l-64 -65z" />
    <glyph glyph-name="hcircumflex" unicode="&#x125;" horiz-adv-x="1488" 
d="M1169 1434h119v-1434h-119v692h-852v-692h-116v1434h116v-629h852v629zM741 1751l-262 -223l-63 65l325 277l324 -277l-64 -65z" />
    <glyph glyph-name="Hbar" unicode="&#x126;" horiz-adv-x="1488" 
d="M1169 805v360h-852v-360h852zM1417 1270v-105h-129v-1165h-119v692h-852v-692h-116v1165h-129v105h129v164h116v-164h852v164h119v-164h129z" />
    <glyph glyph-name="hbar" unicode="&#x127;" horiz-adv-x="1488" 
d="M1169 805v360h-852v-360h852zM1417 1270v-105h-129v-1165h-119v692h-852v-692h-116v1165h-129v105h129v164h116v-164h852v164h119v-164h129z" />
    <glyph glyph-name="Imacron" unicode="&#x12a;" horiz-adv-x="518" 
d="M317 0h-116v1434h116v-1434zM-55 1698h645v-96h-645v96z" />
    <glyph glyph-name="imacron" unicode="&#x12b;" horiz-adv-x="518" 
d="M317 0h-116v1434h116v-1434zM-53 1698h645v-96h-645v96z" />
    <glyph glyph-name="Iogonek" unicode="&#x12e;" horiz-adv-x="518" 
d="M201 1434h116v-1434h-34q-119 0 -206 -55t-87 -172q0 -78 52 -130t138 -53q153 0 219 150l74 -35q-86 -195 -293 -194q-125 -1 -203 73q-77 74 -77 197t93 202t208 80v1371z" />
    <glyph glyph-name="iogonek" unicode="&#x12f;" horiz-adv-x="518" 
d="M201 1434h116v-1434h-34q-119 0 -206 -55t-87 -172q0 -78 52 -130t138 -53q153 0 219 150l74 -35q-86 -195 -293 -194q-125 -1 -203 73q-77 74 -77 197t93 202t208 80v1371z" />
    <glyph glyph-name="Idotaccent" unicode="&#x130;" horiz-adv-x="518" 
d="M317 0h-116v1434h116v-1434zM258 1565q-34 1 -60 25t-26 60t26 60t60 25q34 0 60 -25q24 -24 24 -60t-24 -60t-60 -25z" />
    <glyph glyph-name="dotlessi" unicode="&#x131;" horiz-adv-x="518" 
d="M317 0h-116v1434h116v-1434z" />
    <glyph glyph-name="IJ" unicode="&#x132;" horiz-adv-x="1822" 
d="M1546 1434h121v-852q0 -287 -153 -450t-435 -163q-201 1 -349 103t-204 270l119 31q45 -135 163 -213t271 -78q229 0 348 129t119 362v861zM317 0h-116v1434h116v-1434z" />
    <glyph glyph-name="ij" unicode="&#x133;" horiz-adv-x="1822" 
d="M1546 1434h121v-852q0 -287 -153 -450t-435 -163q-201 1 -349 103t-204 270l119 31q45 -135 163 -213t271 -78q229 0 348 129t119 362v861zM317 0h-116v1434h116v-1434z" />
    <glyph glyph-name="Jcircumflex" unicode="&#x134;" horiz-adv-x="1327" 
d="M1051 1434h120v-852q-1 -287 -153 -450t-434 -163q-202 1 -350 103t-203 270l119 31q44 -135 162 -213t272 -78q229 0 348 129t119 362v861zM782 1593l326 277l324 -277l-64 -65l-260 223l-262 -223z" />
    <glyph glyph-name="jcircumflex" unicode="&#x135;" horiz-adv-x="1327" 
d="M1051 1434h120v-852q-1 -287 -153 -450t-434 -163q-202 1 -350 103t-203 270l119 31q44 -135 162 -213t272 -78q229 0 348 129t119 362v861zM782 1593l326 277l324 -277l-64 -65l-260 223l-262 -223z" />
    <glyph glyph-name="Kcommaaccent" unicode="&#x136;" horiz-adv-x="1386" 
d="M682 -248q-34 0 -58 23t-24 59t26 61q26 23 62 23t62 -30q25 -30 24 -74q0 -162 -137 -303h-59q104 104 104 231l16 10h-16zM315 653h2l41 41q41 41 107 108t106 107l525 525h147l-579 -580l632 -854h-139l-575 772l-265 -264v-508h-116v1434h116v-426l-2 -313v-42z" />
    <glyph glyph-name="kcommaaccent" unicode="&#x137;" horiz-adv-x="1386" 
d="M707 -248q-33 0 -58 23t-25 59t26 61q26 23 63 23t61 -30t25 -74q0 -162 -137 -303h-60q104 104 105 231l16 10h-16zM315 653h2l41 41q41 41 107 108t106 107l525 525h147l-579 -580l632 -854h-139l-575 772l-265 -264v-508h-116v1434h116v-426l-2 -313v-42z" />
    <glyph glyph-name="Lacute" unicode="&#x139;" horiz-adv-x="1153" 
d="M317 113h795v-113h-911v1434h116v-1321zM498 1819l47 -88l-430 -213l-41 71z" />
    <glyph glyph-name="lacute" unicode="&#x13a;" horiz-adv-x="1153" 
d="M317 113h795v-113h-911v1434h116v-1321zM498 1819l47 -88l-430 -213l-41 71z" />
    <glyph glyph-name="Lcommaaccent" unicode="&#x13b;" horiz-adv-x="1153" 
d="M633 -248q-33 0 -58 23t-25 59t27 61q27 23 63 23t60 -30t25 -74q0 -162 -137 -303h-60q104 104 105 231l16 10h-16zM317 113h795v-113h-911v1434h116v-1321z" />
    <glyph glyph-name="lcommaaccent" unicode="&#x13c;" horiz-adv-x="1153" 
d="M641 -248q-33 0 -57 23t-25 59q0 36 26 61q27 23 63 23t61 -30t24 -74q0 -162 -137 -303h-59q104 104 104 231l16 10h-16zM317 113h795v-113h-911v1434h116v-1321z" />
    <glyph glyph-name="Lcaron" unicode="&#x13d;" horiz-adv-x="1153" 
d="M317 113h795v-113h-911v1434h116v-1321zM766 1356q0 -166 -139 -309h-60q104 113 105 237l18 8l-18 2q-31 -2 -57 22q-25 24 -25 60t26 62q27 24 64 24q38 0 62 -30t24 -76z" />
    <glyph glyph-name="lcaron" unicode="&#x13e;" horiz-adv-x="1153" 
d="M317 113h795v-113h-911v1434h116v-1321zM584 1311q-31 1 -57 23q-25 22 -25 60t26 62t64 23q38 0 62 -30t24 -75q0 -166 -139 -309h-60q104 104 105 235l18 11h-18z" />
    <glyph glyph-name="Ldot" unicode="&#x13f;" horiz-adv-x="1153" 
d="M754 692q-35 0 -60 26q-24 26 -24 60t24 61q25 25 60 25q36 0 60 -26t24 -60t-24 -60t-60 -26zM317 113h795v-113h-911v1434h116v-1321z" />
    <glyph glyph-name="ldot" unicode="&#x140;" horiz-adv-x="1153" 
d="M754 692q-35 0 -60 26q-24 26 -24 60t24 61q25 25 60 25q36 0 60 -26t24 -60t-24 -60t-60 -26zM317 113h795v-113h-911v1434h116v-1321z" />
    <glyph glyph-name="Lslash" unicode="&#x141;" horiz-adv-x="1153" 
d="M317 113h795v-113h-911v1434h116v-736l590 299v-114l-590 -299v-471z" />
    <glyph glyph-name="lslash" unicode="&#x142;" horiz-adv-x="1153" 
d="M317 113h795v-113h-911v1434h116v-736l590 299v-114l-590 -299v-471z" />
    <glyph glyph-name="Nacute" unicode="&#x143;" horiz-adv-x="1542" 
d="M1225 1434h118v-1434h-110l-731 985q-106 144 -166 234l-21 26h-2l2 -47l2 -326v-872h-116v1434h110l729 -981q46 -59 96 -129t72 -99l21 -26h2l-2 47l-4 317v871zM1016 1819l47 -88l-430 -213l-41 71z" />
    <glyph glyph-name="nacute" unicode="&#x144;" horiz-adv-x="1542" 
d="M1225 1434h118v-1434h-110l-731 985q-106 144 -166 234l-21 26h-2l2 -47l2 -326v-872h-116v1434h110l729 -981q46 -59 96 -129t72 -99l21 -26h2l-2 47l-4 317v871zM1016 1819l47 -88l-430 -213l-41 71z" />
    <glyph glyph-name="Ncommaaccent" unicode="&#x145;" horiz-adv-x="1542" 
d="M778 -248q-34 0 -58 23t-24 59t26 61q26 23 62 23t62 -30q25 -30 24 -74q0 -162 -137 -303h-59q104 104 104 231l17 10h-17zM1225 1434h118v-1434h-110l-731 985q-106 144 -166 234l-21 26h-2l2 -47l2 -326v-872h-116v1434h110l729 -981q46 -59 96 -129t72 -99l21 -26h2
l-2 47l-4 317v871z" />
    <glyph glyph-name="ncommaaccent" unicode="&#x146;" horiz-adv-x="1542" 
d="M778 -248q-34 0 -58 23t-24 59t26 61q26 23 62 23t62 -30q25 -30 24 -74q0 -162 -137 -303h-59q104 104 104 231l17 10h-17zM1225 1434h118v-1434h-110l-731 985q-106 144 -166 234l-21 26h-2l2 -47l2 -326v-872h-116v1434h110l729 -981q46 -59 96 -129t72 -99l21 -26h2
l-2 47l-4 317v871z" />
    <glyph glyph-name="Ncaron" unicode="&#x147;" horiz-adv-x="1542" 
d="M1225 1434h118v-1434h-110l-731 985q-106 144 -166 234l-21 26h-2l2 -47l2 -326v-872h-116v1434h110l729 -981q46 -59 96 -129t72 -99l21 -26h2l-2 47l-4 317v871zM453 1769l63 66l260 -223l262 223l64 -66l-326 -276z" />
    <glyph glyph-name="ncaron" unicode="&#x148;" horiz-adv-x="1542" 
d="M1225 1434h118v-1434h-110l-731 985q-106 144 -166 234l-21 26h-2l2 -47l2 -326v-872h-116v1434h110l729 -981q46 -59 96 -129t72 -99l21 -26h2l-2 47l-4 317v871zM453 1769l63 66l260 -223l262 223l64 -66l-326 -276z" />
    <glyph glyph-name="Eng" unicode="&#x14a;" horiz-adv-x="1542" 
d="M1225 1434h118v-1434q0 -172 -97 -282t-249 -109h-84v100h78q109 0 175 80t67 211l-731 985q-106 144 -166 234l-21 26h-2l2 -47l2 -326v-872h-116v1434h110l729 -981q46 -59 96 -129t72 -99l21 -26h2l-2 47l-4 317v871z" />
    <glyph glyph-name="eng" unicode="&#x14b;" horiz-adv-x="1542" 
d="M1225 1434h118v-1434q0 -172 -97 -282t-249 -109h-84v100h78q109 0 175 80t67 211l-731 985q-106 144 -166 234l-21 26h-2l2 -47l2 -326v-872h-116v1434h110l729 -981q46 -59 96 -129t72 -99l21 -26h2l-2 47l-4 317v871z" />
    <glyph glyph-name="Omacron" unicode="&#x14c;" horiz-adv-x="1677" 
d="M1462 718q0 278 -179 454t-445 176t-444 -176t-179 -454q0 -278 178 -454q177 -178 443 -178t446 177t180 455zM94 717q0 321 216 533t528 212t529 -212q216 -212 216 -534t-216 -533q-216 -212 -528 -212t-529 212q-216 212 -216 534zM535 1698h645v-96h-645v96z" />
    <glyph glyph-name="omacron" unicode="&#x14d;" horiz-adv-x="1677" 
d="M1462 718q0 278 -179 454t-445 176t-444 -176t-179 -454q0 -278 178 -454q177 -178 443 -178t446 177t180 455zM94 717q0 321 216 533t528 212t529 -212q216 -212 216 -534t-216 -533q-216 -212 -528 -212t-529 212q-216 212 -216 534zM530 1698h646v-96h-646v96z" />
    <glyph glyph-name="Ohungarumlaut" unicode="&#x150;" horiz-adv-x="1677" 
d="M1462 718q0 278 -179 454t-445 176t-444 -176t-179 -454q0 -278 178 -454q177 -178 443 -178t446 177t180 455zM94 717q0 321 216 533t528 212t529 -212q216 -212 216 -534t-216 -533q-216 -212 -528 -212t-529 212q-216 212 -216 534zM1360 1819l47 -88l-432 -213
l-41 71zM938 1819l47 -88l-432 -213l-41 71z" />
    <glyph glyph-name="ohungarumlaut" unicode="&#x151;" horiz-adv-x="1677" 
d="M1462 718q0 278 -179 454t-445 176t-444 -176t-179 -454q0 -278 178 -454q177 -178 443 -178t446 177t180 455zM94 717q0 321 216 533t528 212t529 -212q216 -212 216 -534t-216 -533q-216 -212 -528 -212t-529 212q-216 212 -216 534zM1356 1819l47 -88l-432 -213
l-41 71zM934 1819l47 -88l-432 -213l-41 71z" />
    <glyph glyph-name="OE" unicode="&#x152;" horiz-adv-x="2017" 
d="M817 1327q-266 0 -434 -166t-168 -442q0 -277 169 -445t433 -168q78 1 133 21v1180q-55 20 -133 20zM1067 113h825v-113h-942q-57 -8 -133 -8q-311 0 -517 203t-206 522t206 522t517 203q84 0 133 -8h930v-113h-813v-500h657v-108h-657v-600z" />
    <glyph glyph-name="oe" unicode="&#x153;" horiz-adv-x="2017" 
d="M817 1327q-266 0 -434 -166t-168 -442q0 -277 169 -445t433 -168q78 1 133 21v1180q-55 20 -133 20zM1067 113h825v-113h-942q-57 -8 -133 -8q-311 0 -517 203t-206 522t206 522t517 203q84 0 133 -8h930v-113h-813v-500h657v-108h-657v-600z" />
    <glyph glyph-name="Racute" unicode="&#x154;" horiz-adv-x="1277" 
d="M317 657h297q190 -1 294 91t106 246q0 154 -106 241q-106 86 -294 86h-297v-664zM608 553h-291v-553h-116v1434h407q246 0 386 -119t141 -324q0 -156 -81 -261t-231 -148l357 -582h-133l-342 559q-45 -6 -97 -6zM883 1731l-430 -213l-41 71l424 230z" />
    <glyph glyph-name="racute" unicode="&#x155;" horiz-adv-x="1277" 
d="M317 657h297q190 -1 294 91t106 246q0 154 -106 241q-106 86 -294 86h-297v-664zM608 553h-291v-553h-116v1434h407q246 0 386 -119t141 -324q0 -156 -81 -261t-231 -148l357 -582h-133l-342 559q-45 -6 -97 -6zM946 1731l-430 -213l-41 71l424 230z" />
    <glyph glyph-name="Rcommaaccent" unicode="&#x156;" horiz-adv-x="1277" 
d="M616 -248q-34 0 -58 23t-24 59t26 61q26 23 63 23t61 -30t25 -74q0 -162 -138 -303h-59q104 104 104 231l17 10h-17zM317 657h297q190 -1 294 91t106 246q0 154 -106 241q-106 86 -294 86h-297v-664zM608 553h-291v-553h-116v1434h407q246 0 386 -119t141 -324
q0 -156 -81 -261t-231 -148l357 -582h-133l-342 559q-45 -6 -97 -6z" />
    <glyph glyph-name="rcommaaccent" unicode="&#x157;" horiz-adv-x="1277" 
d="M668 -248q-33 0 -58 23q-24 23 -24 59t25 61q26 23 63 23q38 0 62 -30t24 -74q0 -162 -137 -303h-60q104 104 105 231l16 10h-16zM317 657h297q190 -1 294 91t106 246q0 154 -106 241q-106 86 -294 86h-297v-664zM608 553h-291v-553h-116v1434h407q246 0 386 -119
t141 -324q0 -156 -81 -261t-231 -148l357 -582h-133l-342 559q-45 -6 -97 -6z" />
    <glyph glyph-name="Rcaron" unicode="&#x158;" horiz-adv-x="1277" 
d="M317 657h297q190 -1 294 91t106 246q0 154 -106 241q-106 86 -294 86h-297v-664zM608 553h-291v-553h-116v1434h407q246 0 386 -119t141 -324q0 -156 -81 -261t-231 -148l357 -582h-133l-342 559q-45 -6 -97 -6zM922 1769l-326 -276l-324 276l64 66l260 -223l262 223z
" />
    <glyph glyph-name="rcaron" unicode="&#x159;" horiz-adv-x="1277" 
d="M317 657h297q190 -1 294 91t106 246q0 154 -106 241q-106 86 -294 86h-297v-664zM608 553h-291v-553h-116v1434h407q246 0 386 -119t141 -324q0 -156 -81 -261t-231 -148l357 -582h-133l-342 559q-45 -6 -97 -6zM922 1769l-326 -276l-324 276l64 66l260 -223l262 223z
" />
    <glyph glyph-name="Sacute" unicode="&#x15a;" horiz-adv-x="1210" 
d="M594 1356q-158 0 -259 -73t-102 -196q0 -89 65 -140q36 -28 64 -46t95 -41q66 -23 166 -50q100 -28 147 -43t124 -52t120 -77t77 -108t33 -149q0 -178 -142 -294t-370 -116t-366 118q-139 118 -164 302l113 31q12 -145 123 -244q112 -98 292 -98t286 84q105 84 105 203
t-60 175q-33 32 -59 52t-83 43q-81 33 -247 76q-167 43 -259 94t-119 94q-61 95 -61 182q0 167 138 273t341 106t340 -104t170 -277l-115 -30q-23 141 -129 223t-264 82zM848 1819l47 -88l-430 -213l-41 71z" />
    <glyph glyph-name="sacute" unicode="&#x15b;" horiz-adv-x="1210" 
d="M594 1356q-158 0 -259 -73t-102 -196q0 -89 65 -140q36 -28 64 -46t95 -41q66 -23 166 -50q100 -28 147 -43t124 -52t120 -77t77 -108t33 -149q0 -178 -142 -294t-370 -116t-366 118q-139 118 -164 302l113 31q12 -145 123 -244q112 -98 292 -98t286 84q105 84 105 203
t-60 175q-33 32 -59 52t-83 43q-81 33 -247 76q-167 43 -259 94t-119 94q-61 95 -61 182q0 167 138 273t341 106t340 -104t170 -277l-115 -30q-23 141 -129 223t-264 82zM852 1819l47 -88l-430 -213l-41 71z" />
    <glyph glyph-name="Scircumflex" unicode="&#x15c;" horiz-adv-x="1210" 
d="M594 1356q-158 0 -259 -73t-102 -196q0 -89 65 -140q36 -28 64 -46t95 -41q66 -23 166 -50q100 -28 147 -43t124 -52t120 -77t77 -108t33 -149q0 -178 -142 -294t-370 -116t-366 118q-139 118 -164 302l113 31q12 -145 123 -244q112 -98 292 -98t286 84q105 84 105 203
t-60 175q-33 32 -59 52t-83 43q-81 33 -247 76q-167 43 -259 94t-119 94q-61 95 -61 182q0 167 138 273t341 106t340 -104t170 -277l-115 -30q-23 141 -129 223t-264 82zM281 1593l325 277l324 -277l-64 -65l-260 223l-262 -223z" />
    <glyph glyph-name="scircumflex" unicode="&#x15d;" horiz-adv-x="1210" 
d="M594 1356q-158 0 -259 -73t-102 -196q0 -89 65 -140q36 -28 64 -46t95 -41q66 -23 166 -50q100 -28 147 -43t124 -52t120 -77t77 -108t33 -149q0 -178 -142 -294t-370 -116t-366 118q-139 118 -164 302l113 31q12 -145 123 -244q112 -98 292 -98t286 84q105 84 105 203
t-60 175q-33 32 -59 52t-83 43q-81 33 -247 76q-167 43 -259 94t-119 94q-61 95 -61 182q0 167 138 273t341 106t340 -104t170 -277l-115 -30q-23 141 -129 223t-264 82zM281 1593l325 277l324 -277l-64 -65l-260 223l-262 -223z" />
    <glyph glyph-name="Scedilla" unicode="&#x15e;" horiz-adv-x="1210" 
d="M594 1356q-158 0 -259 -73t-102 -196q0 -89 65 -140q36 -28 64 -46t95 -41q66 -23 166 -50q100 -28 147 -43t124 -52t120 -77t77 -108t33 -149q0 -168 -127 -281t-335 -127l-29 -71q92 2 150 -48q59 -50 59 -134t-58 -133q-58 -48 -151 -48h-119l31 76h88q59 0 94 29
q35 30 35 76t-36 77t-93 31h-105l52 143q-211 8 -342 126t-156 294l113 31q12 -145 123 -244q112 -98 292 -98t286 84q105 84 105 203t-60 175q-33 32 -59 52t-83 43q-81 33 -247 76q-167 43 -259 94t-119 94q-61 95 -61 182q0 167 138 273t341 106t340 -104t170 -277
l-115 -30q-23 141 -129 223t-264 82z" />
    <glyph glyph-name="scedilla" unicode="&#x15f;" horiz-adv-x="1210" 
d="M594 1356q-158 0 -259 -73t-102 -196q0 -89 65 -140q36 -28 64 -46t95 -41q66 -23 166 -50q100 -28 147 -43t124 -52t120 -77t77 -108t33 -149q0 -166 -125 -280t-331 -128l-29 -71q93 2 151 -48t58 -134t-57 -133q-57 -48 -152 -48h-119l31 76h88q59 0 94 29
q35 30 35 76t-36 77t-93 31h-104l51 143q-215 8 -347 125t-157 295l113 31q12 -145 123 -244q112 -98 292 -98t286 84q105 84 105 203t-60 175q-33 32 -59 52t-83 43q-81 33 -247 76q-167 43 -259 94t-119 94q-61 95 -61 182q0 167 138 273t341 106t340 -104t170 -277
l-115 -30q-23 141 -129 223t-264 82z" />
    <glyph glyph-name="Scaron" unicode="&#x160;" horiz-adv-x="1210" 
d="M594 1356q-158 0 -259 -73t-102 -196q0 -89 65 -140q36 -28 64 -46t95 -41q66 -23 166 -50q100 -28 147 -43t124 -52t120 -77t77 -108t33 -149q0 -178 -142 -294t-370 -116t-366 118q-139 118 -164 302l113 31q12 -145 123 -244q112 -98 292 -98t286 84q105 84 105 203
t-60 175q-33 32 -59 52t-83 43q-81 33 -247 76q-167 43 -259 94t-119 94q-61 95 -61 182q0 167 138 273t341 106t340 -104t170 -277l-115 -30q-23 141 -129 223t-264 82zM285 1769l63 66l260 -223l262 223l64 -66l-326 -276z" />
    <glyph glyph-name="scaron" unicode="&#x161;" horiz-adv-x="1210" 
d="M594 1356q-158 0 -259 -73t-102 -196q0 -89 65 -140q36 -28 64 -46t95 -41q66 -23 166 -50q100 -28 147 -43t124 -52t120 -77t77 -108t33 -149q0 -178 -142 -294t-370 -116t-366 118q-139 118 -164 302l113 31q12 -145 123 -244q112 -98 292 -98t286 84q105 84 105 203
t-60 175q-33 32 -59 52t-83 43q-81 33 -247 76q-167 43 -259 94t-119 94q-61 95 -61 182q0 167 138 273t341 106t340 -104t170 -277l-115 -30q-23 141 -129 223t-264 82zM289 1769l63 66l260 -223l262 223l64 -66l-326 -276z" />
    <glyph glyph-name="Tcedilla" unicode="&#x162;" horiz-adv-x="1206" 
d="M662 0h-23l-39 -98q92 2 150 -48t59 -134q0 -84 -57 -133q-57 -48 -152 -48h-119l31 76h88q59 0 94 29q35 30 35 76t-36 77t-93 31h-104l61 172h-14v1321h-490v113h1100v-113h-491v-1321z" />
    <glyph glyph-name="tcedilla" unicode="&#x163;" horiz-adv-x="1206" 
d="M662 0h-23l-39 -98q92 2 150 -48t59 -134q0 -84 -57 -133q-57 -48 -152 -48h-119l31 76h88q59 0 94 29q35 30 35 76t-36 77t-93 31h-104l61 172h-14v1321h-490v113h1100v-113h-491v-1321z" />
    <glyph glyph-name="Tcaron" unicode="&#x164;" horiz-adv-x="1206" 
d="M53 1434h1100v-113h-491v-1321h-119v1321h-490v113zM934 1769l-326 -276l-323 276l63 66l260 -223l262 223z" />
    <glyph glyph-name="tcaron" unicode="&#x165;" horiz-adv-x="1206" 
d="M53 1434h1100v-113h-491v-1321h-119v1321h-490v113zM934 1769l-326 -276l-323 276l63 66l260 -223l262 223z" />
    <glyph glyph-name="Tbar" unicode="&#x166;" horiz-adv-x="1206" 
d="M1153 1321h-491v-481h268v-97h-268v-743h-119v743h-267v97h267v481h-490v113h1100v-113z" />
    <glyph glyph-name="tbar" unicode="&#x167;" horiz-adv-x="1206" 
d="M1153 1321h-491v-481h268v-97h-268v-743h-119v743h-267v97h267v481h-490v113h1100v-113z" />
    <glyph glyph-name="Umacron" unicode="&#x16a;" horiz-adv-x="1466" 
d="M1190 1434h119v-852q-1 -297 -149 -455t-428 -158t-427 157t-147 456v852h116v-856q0 -496 458 -496t458 496v856zM426 1698h645v-96h-645v96z" />
    <glyph glyph-name="umacron" unicode="&#x16b;" horiz-adv-x="1466" 
d="M1190 1434h119v-852q-1 -297 -149 -455t-428 -158t-427 157t-147 456v852h116v-856q0 -496 458 -496t458 496v856zM426 1698h645v-96h-645v96z" />
    <glyph glyph-name="Ubreve" unicode="&#x16c;" horiz-adv-x="1466" 
d="M1190 1434h119v-852q-1 -297 -149 -455t-428 -158t-427 157t-147 456v852h116v-856q0 -496 458 -496t458 496v856zM744 1604q68 0 123 45q54 45 71 110h86q-18 -102 -97 -168q-79 -65 -183 -65t-181 66q-78 66 -96 167h86q15 -67 69 -111t122 -44z" />
    <glyph glyph-name="ubreve" unicode="&#x16d;" horiz-adv-x="1466" 
d="M1190 1434h119v-852q-1 -297 -149 -455t-428 -158t-427 157t-147 456v852h116v-856q0 -496 458 -496t458 496v856zM744 1604q68 0 123 45q54 45 71 110h86q-18 -102 -97 -168q-79 -65 -183 -65t-181 66q-78 66 -96 167h86q15 -67 69 -111t122 -44z" />
    <glyph glyph-name="Uring" unicode="&#x16e;" horiz-adv-x="1466" 
d="M1190 1434h119v-852q-1 -297 -149 -455t-428 -158t-427 157t-147 456v852h116v-856q0 -496 458 -496t458 496v856zM739 1499q51 0 87 36t36 86t-36 86t-87 36t-87 -36t-36 -86t36 -86t87 -36zM940 1621q0 -83 -60 -143t-142 -59q-83 1 -141 59t-58 142t58 142t141 58
q82 0 142 -58t60 -141z" />
    <glyph glyph-name="uring" unicode="&#x16f;" horiz-adv-x="1466" 
d="M1190 1434h119v-852q-1 -297 -149 -455t-428 -158t-427 157t-147 456v852h116v-856q0 -496 458 -496t458 496v856zM739 1499q51 0 87 36t36 86t-36 86t-87 36t-87 -36t-36 -86t36 -86t87 -36zM940 1621q0 -83 -60 -143t-142 -59q-83 1 -141 59t-58 142t58 142t141 58
q82 0 142 -58t60 -141z" />
    <glyph glyph-name="Uhungarumlaut" unicode="&#x170;" horiz-adv-x="1466" 
d="M1190 1434h119v-852q-1 -297 -149 -455t-428 -158t-427 157t-147 456v852h116v-856q0 -496 458 -496t458 496v856zM1251 1819l47 -88l-432 -213l-41 71zM829 1819l48 -88l-433 -213l-41 71z" />
    <glyph glyph-name="uhungarumlaut" unicode="&#x171;" horiz-adv-x="1466" 
d="M1190 1434h119v-852q-1 -297 -149 -455t-428 -158t-427 157t-147 456v852h116v-856q0 -496 458 -496t458 496v856zM1251 1819l47 -88l-432 -213l-41 71zM829 1819l48 -88l-433 -213l-41 71z" />
    <glyph glyph-name="Uogonek" unicode="&#x172;" horiz-adv-x="1466" 
d="M1190 1434h119v-852q1 -246 -101 -397t-297 -195q-183 -60 -224 -140q-19 -37 -19 -99t51 -111q51 -50 126 -50t133 41t85 95l65 -45q-34 -68 -110 -119t-180 -51q-104 -1 -183 69q-78 70 -77 180q0 133 129 209q-268 8 -409 165q-140 157 -140 448v852h116v-856
q0 -496 458 -496t458 496v856z" />
    <glyph glyph-name="uogonek" unicode="&#x173;" horiz-adv-x="1466" 
d="M1190 1434h119v-852q1 -246 -101 -397t-297 -195q-183 -60 -224 -140q-19 -37 -19 -99t51 -111q51 -50 126 -50t133 41t85 95l65 -45q-34 -68 -110 -119t-180 -51q-104 -1 -183 69q-78 70 -77 180q0 133 129 209q-268 8 -409 165q-140 157 -140 448v852h116v-856
q0 -496 458 -496t458 496v856z" />
    <glyph glyph-name="Wcircumflex" unicode="&#x174;" horiz-adv-x="1966" 
d="M1788 1434h121l-498 -1434h-98l-246 780q-51 156 -76 264l-6 25h-2l-6 -25q-6 -22 -28 -96t-50 -168l-244 -780h-100l-498 1434h121l365 -1049q16 -51 31 -103t24 -77l6 -23h2l6 23q17 71 52 180l270 840h98l271 -840q16 -53 30 -104t21 -76l6 -23h2l6 23q8 25 24 77
q15 52 33 103zM649 1593l326 277l323 -277l-63 -65l-260 223l-262 -223z" />
    <glyph glyph-name="wcircumflex" unicode="&#x175;" horiz-adv-x="1966" 
d="M1788 1434h121l-498 -1434h-98l-246 780q-51 156 -76 264l-6 25h-2l-6 -25q-6 -22 -28 -96t-50 -168l-244 -780h-100l-498 1434h121l365 -1049q16 -51 31 -103t24 -77l6 -23h2l6 23q17 71 52 180l270 840h98l271 -840q16 -53 30 -104t21 -76l6 -23h2l6 23q8 25 24 77
q15 52 33 103zM662 1593l325 277l324 -277l-64 -65l-260 223l-262 -223z" />
    <glyph glyph-name="Ycircumflex" unicode="&#x176;" horiz-adv-x="1304" 
d="M711 0h-117v723l-557 711h137l387 -492q90 -117 92 -117h2l15 19q14 18 39 50t36 48l385 492h138l-557 -711v-723zM326 1593l325 277l324 -277l-64 -65l-260 223l-262 -223z" />
    <glyph glyph-name="ycircumflex" unicode="&#x177;" horiz-adv-x="1304" 
d="M711 0h-117v723l-557 711h137l387 -492q90 -117 92 -117h2l15 19q14 18 39 50t36 48l385 492h138l-557 -711v-723zM326 1593l325 277l324 -277l-64 -65l-260 223l-262 -223z" />
    <glyph glyph-name="Ydieresis" unicode="&#x178;" horiz-adv-x="1304" 
d="M711 0h-117v723l-557 711h137l387 -492q90 -117 92 -117h2l15 19q14 18 39 50t36 48l385 492h138l-557 -711v-723zM880 1565q-36 1 -61 25t-25 60t26 60q24 24 60 25q36 0 60 -25q24 -24 25 -60q-1 -36 -25 -60t-60 -25zM415 1565q-36 1 -61 25q-24 24 -24 60t24 60
t61 25q35 0 61 -25q26 -24 26 -60t-26 -60t-61 -25z" />
    <glyph glyph-name="Zacute" unicode="&#x179;" horiz-adv-x="1400" 
d="M143 1321v113h1135v-109l-903 -1104q-20 -25 -101 -112l2 -3h11q20 5 60 5l104 2h827v-113h-1155v109l911 1108q24 30 84 90l17 16l-2 2h-9l-106 -4h-875zM944 1819l47 -88l-430 -213l-41 71z" />
    <glyph glyph-name="zacute" unicode="&#x17a;" horiz-adv-x="1400" 
d="M143 1321v113h1135v-109l-903 -1104q-20 -25 -101 -112l2 -3h11q20 5 60 5l104 2h827v-113h-1155v109l911 1108q24 30 84 90l17 16l-2 2h-9l-106 -4h-875zM944 1819l47 -88l-430 -213l-41 71z" />
    <glyph glyph-name="Zdotaccent" unicode="&#x17b;" horiz-adv-x="1400" 
d="M143 1321v113h1135v-109l-903 -1104q-20 -25 -101 -112l2 -3h11q20 5 60 5l104 2h827v-113h-1155v109l911 1108q24 30 84 90l17 16l-2 2h-9l-106 -4h-875zM705 1565q-35 1 -61 25t-26 60t26 60t61 25q35 0 59 -25q24 -24 24 -60t-24 -60t-59 -25z" />
    <glyph glyph-name="zdotaccent" unicode="&#x17c;" horiz-adv-x="1400" 
d="M143 1321v113h1135v-109l-903 -1104q-20 -25 -101 -112l2 -3h11q20 5 60 5l104 2h827v-113h-1155v109l911 1108q24 30 84 90l17 16l-2 2h-9l-106 -4h-875zM705 1565q-35 1 -61 25t-26 60t26 60t61 25q35 0 59 -25q24 -24 24 -60t-24 -60t-59 -25z" />
    <glyph glyph-name="Zcaron" unicode="&#x17d;" horiz-adv-x="1400" 
d="M143 1321v113h1135v-109l-903 -1104q-20 -25 -101 -112l2 -3h11q20 5 60 5l104 2h827v-113h-1155v109l911 1108q24 30 84 90l17 16l-2 2h-9l-106 -4h-875zM381 1769l63 66l261 -223l262 223l63 -66l-325 -276z" />
    <glyph glyph-name="zcaron" unicode="&#x17e;" horiz-adv-x="1400" 
d="M143 1321v113h1135v-109l-903 -1104q-20 -25 -101 -112l2 -3h11q20 5 60 5l104 2h827v-113h-1155v109l911 1108q24 30 84 90l17 16l-2 2h-9l-106 -4h-875zM381 1769l63 66l261 -223l262 223l63 -66l-325 -276z" />
    <glyph glyph-name="Scommaaccent" unicode="&#x218;" horiz-adv-x="1210" 
d="M590 -248q-33 0 -58 23q-24 23 -24 59t26 61q26 23 62 23t62 -30q24 -30 24 -74q0 -162 -137 -303h-60q105 104 105 231l16 10h-16zM594 1356q-158 0 -259 -73t-102 -196q0 -89 65 -140q36 -28 64 -46t95 -41q66 -23 166 -50q100 -28 147 -43t124 -52t120 -77t77 -108
t33 -149q0 -178 -142 -294t-370 -116t-366 118q-139 118 -164 302l113 31q12 -145 123 -244q112 -98 292 -98t286 84q105 84 105 203t-60 175q-33 32 -59 52t-83 43q-81 33 -247 76q-167 43 -259 94t-119 94q-61 95 -61 182q0 167 138 273t341 106t340 -104t170 -277
l-115 -30q-23 141 -129 223t-264 82z" />
    <glyph glyph-name="scommaaccent" unicode="&#x219;" horiz-adv-x="1210" 
d="M590 -248q-33 0 -58 23q-24 23 -24 59t26 61q26 23 62 23t62 -30q24 -30 24 -74q0 -162 -137 -303h-60q105 104 105 231l16 10h-16zM594 1356q-158 0 -259 -73t-102 -196q0 -89 65 -140q36 -28 64 -46t95 -41q66 -23 166 -50q100 -28 147 -43t124 -52t120 -77t77 -108
t33 -149q0 -178 -142 -294t-370 -116t-366 118q-139 118 -164 302l113 31q12 -145 123 -244q112 -98 292 -98t286 84q105 84 105 203t-60 175q-33 32 -59 52t-83 43q-81 33 -247 76q-167 43 -259 94t-119 94q-61 95 -61 182q0 167 138 273t341 106t340 -104t170 -277
l-115 -30q-23 141 -129 223t-264 82z" />
    <glyph glyph-name="uni021A" unicode="&#x21a;" horiz-adv-x="1206" 
d="M604 -248q-34 0 -58 23t-24 59t26 61q26 23 62 23t62 -30q25 -30 24 -74q0 -162 -137 -303h-59q104 104 104 231l17 10h-17zM53 1434h1100v-113h-491v-1321h-119v1321h-490v113z" />
    <glyph glyph-name="uni021B" unicode="&#x21b;" horiz-adv-x="1206" 
d="M575 -248q-33 0 -57 23t-24 59t25 61q26 23 63 23q38 0 62 -30t24 -74q0 -162 -138 -303h-59q104 104 104 231l17 10h-17zM53 1434h1100v-113h-491v-1321h-119v1321h-490v113z" />
    <glyph glyph-name="dotlessj" unicode="&#x237;" horiz-adv-x="1327" 
d="M1051 1434h120v-852q-1 -287 -153 -450t-434 -163q-202 1 -350 103t-203 270l119 31q44 -135 162 -213t272 -78q229 0 348 129t119 362v861z" />
    <glyph glyph-name="circumflex" unicode="&#x2c6;" horiz-adv-x="778" 
d="M59 1593l324 277l326 -277l-64 -65l-262 223l-260 -223z" />
    <glyph glyph-name="caron" unicode="&#x2c7;" horiz-adv-x="778" 
d="M59 1769l64 66l260 -223l262 223l64 -66l-326 -276z" />
    <glyph glyph-name="breve" unicode="&#x2d8;" horiz-adv-x="675" 
d="M330 1604q70 0 123 45t69 110h86q-18 -102 -97 -168q-79 -65 -182 -65t-182 65q-78 66 -96 168h88q13 -67 67 -111t124 -44z" />
    <glyph glyph-name="dotaccent" unicode="&#x2d9;" horiz-adv-x="317" 
d="M150 1565q-35 1 -60 25q-24 24 -24 60t24 60t60 25q36 0 60 -25q24 -24 24 -60t-25 -60q-24 -24 -59 -25z" />
    <glyph glyph-name="ring" unicode="&#x2da;" horiz-adv-x="534" 
d="M261 1460q50 0 87 36t37 86t-37 86t-87 36t-86 -36t-36 -86t36 -86t86 -36zM261 1380q-83 0 -141 58t-59 143q1 84 59 142q58 59 141 59t142 -58t59 -142q0 -82 -58 -142q-60 -60 -143 -60z" />
    <glyph glyph-name="ogonek" unicode="&#x2db;" horiz-adv-x="1228" 
d="M258 -218q0 124 94 203t211 78l78 -63q-119 0 -207 -55t-88 -172q0 -78 52 -130t139 -53q153 0 219 150l75 -35q-90 -195 -294 -194q-123 -1 -201 73t-78 198z" />
    <glyph glyph-name="tilde" unicode="&#x2dc;" horiz-adv-x="813" 
d="M550 1561q-74 0 -154 57t-125 57q-43 1 -73 -27t-30 -71h-100q0 80 56 132t132 52t156 -57t120 -57q40 -1 71 27q30 28 32 71h98q2 -80 -54 -132q-55 -52 -129 -52z" />
    <glyph glyph-name="hungarumlaut" unicode="&#x2dd;" horiz-adv-x="1042" 
d="M915 1819l48 -88l-433 -213l-41 71zM494 1819l47 -88l-432 -213l-41 71z" />
    <glyph glyph-name="commaaccentcomb" unicode="&#x326;" horiz-adv-x="0" 
d="M293 -186q0 -160 -137 -306h-58q103 111 103 236l16 8l-16 2q-31 -2 -56 21t-25 59t26 61q26 23 62 23t60 -29t25 -75z" />
    <glyph glyph-name="Wgrave" unicode="&#x1e80;" horiz-adv-x="1966" 
d="M1788 1434h121l-498 -1434h-98l-246 780q-51 156 -76 264l-6 25h-2l-6 -25q-6 -22 -28 -96t-50 -168l-244 -780h-100l-498 1434h121l365 -1049q16 -51 31 -103t24 -77l6 -23h2l6 23q17 71 52 180l270 840h98l271 -840q16 -53 30 -104t21 -76l6 -23h2l6 23q8 25 24 77
q15 52 33 103zM1092 1518l-433 213l48 88l423 -230z" />
    <glyph glyph-name="wgrave" unicode="&#x1e81;" horiz-adv-x="1966" 
d="M1788 1434h121l-498 -1434h-98l-246 780q-51 156 -76 264l-6 25h-2l-6 -25q-6 -22 -28 -96t-50 -168l-244 -780h-100l-498 1434h121l365 -1049q16 -51 31 -103t24 -77l6 -23h2l6 23q17 71 52 180l270 840h98l271 -840q16 -53 30 -104t21 -76l6 -23h2l6 23q8 25 24 77
q15 52 33 103zM1104 1518l-432 213l47 88l424 -230z" />
    <glyph glyph-name="Wacute" unicode="&#x1e82;" horiz-adv-x="1966" 
d="M1788 1434h121l-498 -1434h-98l-246 780q-51 156 -76 264l-6 25h-2l-6 -25q-6 -22 -28 -96t-50 -168l-244 -780h-100l-498 1434h121l365 -1049q16 -51 31 -103t24 -77l6 -23h2l6 23q17 71 52 180l270 840h98l271 -840q16 -53 30 -104t21 -76l6 -23h2l6 23q8 25 24 77
q15 52 33 103zM1217 1819l47 -88l-430 -213l-41 71z" />
    <glyph glyph-name="wacute" unicode="&#x1e83;" horiz-adv-x="1966" 
d="M1788 1434h121l-498 -1434h-98l-246 780q-51 156 -76 264l-6 25h-2l-6 -25q-6 -22 -28 -96t-50 -168l-244 -780h-100l-498 1434h121l365 -1049q16 -51 31 -103t24 -77l6 -23h2l6 23q17 71 52 180l270 840h98l271 -840q16 -53 30 -104t21 -76l6 -23h2l6 23q8 25 24 77
q15 52 33 103zM1229 1819l47 -88l-430 -213l-41 71z" />
    <glyph glyph-name="Wdieresis" unicode="&#x1e84;" horiz-adv-x="1966" 
d="M1788 1434h121l-498 -1434h-98l-246 780q-51 156 -76 264l-6 25h-2l-6 -25q-6 -22 -28 -96t-50 -168l-244 -780h-100l-498 1434h121l365 -1049q16 -51 31 -103t24 -77l6 -23h2l6 23q17 71 52 180l270 840h98l271 -840q16 -53 30 -104t21 -76l6 -23h2l6 23q8 25 24 77
q15 52 33 103zM1203 1565q-37 1 -61 25t-24 60t25 60t61 25q36 0 60 -25q24 -24 24 -60t-24 -61q-25 -24 -61 -24zM738 1565q-36 1 -60 25t-25 60q0 36 25 60q24 24 60 25q36 0 62 -25q26 -24 26 -60t-26 -61q-26 -24 -62 -24z" />
    <glyph glyph-name="wdieresis" unicode="&#x1e85;" horiz-adv-x="1966" 
d="M1788 1434h121l-498 -1434h-98l-246 780q-51 156 -76 264l-6 25h-2l-6 -25q-6 -22 -28 -96t-50 -168l-244 -780h-100l-498 1434h121l365 -1049q16 -51 31 -103t24 -77l6 -23h2l6 23q17 71 52 180l270 840h98l271 -840q16 -53 30 -104t21 -76l6 -23h2l6 23q8 25 24 77
q15 52 33 103zM1215 1565q-37 1 -61 25t-24 60t25 60t61 25q36 0 60 -25q24 -24 24 -60t-24 -61q-25 -24 -61 -24zM751 1565q-36 1 -61 25q-24 24 -24 60t24 60t61 25q35 0 61 -25q26 -24 26 -60t-26 -60t-61 -25z" />
    <glyph glyph-name="Germandbls" unicode="&#x1e9e;" horiz-adv-x="1542" 
d="M317 1321v-1321h-116v1434h1106l-254 -459q-12 -25 -37 -66t-41 -69l-17 -27l3 -2h14q215 2 344 -115t129 -300t-130 -304t-335 -121q-158 0 -290 77t-195 206l110 35q54 -97 152 -155t236 -58t236 91q97 91 97 225t-92 228t-260 95h-129v96l192 354q12 25 36 64l57 94
l-3 2h-8l-97 -4h-708z" />
    <glyph glyph-name="Ygrave" unicode="&#x1ef2;" horiz-adv-x="1304" 
d="M711 0h-117v723l-557 711h137l387 -492q90 -117 92 -117h2l15 19q14 18 39 50t36 48l385 492h138l-557 -711v-723zM768 1518l-432 213l47 88l424 -230z" />
    <glyph glyph-name="ygrave" unicode="&#x1ef3;" horiz-adv-x="1304" 
d="M711 0h-117v723l-557 711h137l387 -492q90 -117 92 -117h2l15 19q14 18 39 50t36 48l385 492h138l-557 -711v-723zM768 1518l-432 213l47 88l424 -230z" />
    <glyph glyph-name="uni2007" unicode="&#x2007;" 
 />
    <glyph glyph-name="uni2009" unicode="&#x2009;" horiz-adv-x="245" 
 />
    <glyph glyph-name="uni200A" unicode="&#x200a;" horiz-adv-x="81" 
 />
    <glyph glyph-name="endash" unicode="&#x2013;" horiz-adv-x="1236" 
d="M201 782h837v-110h-837v110z" />
    <glyph glyph-name="emdash" unicode="&#x2014;" horiz-adv-x="2080" 
d="M201 782h1679v-110h-1679v110z" />
    <glyph glyph-name="quoteleft" unicode="&#x2018;" horiz-adv-x="598" 
d="M375 1134q0 -38 -26 -63q-27 -25 -63 -25t-61 30t-24 77q0 164 137 309h59q-104 -112 -104 -237l-17 -8l17 -3q31 2 57 -20t25 -60z" />
    <glyph glyph-name="quoteright" unicode="&#x2019;" horiz-adv-x="598" 
d="M223 1376q0 38 26 62q27 24 63 24t61 -30t24 -76q0 -166 -139 -309h-57q104 112 104 237l17 8l-17 2q-31 -2 -57 21t-25 61z" />
    <glyph glyph-name="quotesinglbase" unicode="&#x201a;" horiz-adv-x="598" 
d="M223 58q0 38 26 63q27 25 63 25t61 -30t24 -77q0 -166 -139 -309h-57q104 112 104 237l17 8l-17 2q-31 -2 -57 21q-26 22 -25 60z" />
    <glyph glyph-name="quotedblleft" unicode="&#x201c;" horiz-adv-x="946" 
d="M725 1132q0 -36 -27 -61q-28 -25 -64 -25t-61 30t-24 77q0 166 139 309h60q-105 -112 -105 -237l-18 -8l18 -3q31 2 57 -22t25 -60zM375 1134q0 -38 -26 -63q-27 -25 -63 -25t-61 30t-24 77q0 164 137 309h59q-104 -112 -104 -237l-17 -8l17 -3q31 2 57 -20t25 -60z" />
    <glyph glyph-name="quotedblright" unicode="&#x201d;" horiz-adv-x="946" 
d="M571 1376q0 36 27 62q27 24 64 24q38 0 62 -30t24 -76q0 -166 -140 -309h-59q104 112 104 237l19 8l-19 2q-31 -2 -57 22t-25 60zM223 1376q0 38 26 62q27 24 63 24t61 -30t24 -76q0 -166 -139 -309h-57q104 112 104 237l17 8l-17 2q-31 -2 -57 21t-25 61z" />
    <glyph glyph-name="quotedblbase" unicode="&#x201e;" horiz-adv-x="911" 
d="M618 -25q-30 0 -56 24q-26 25 -26 61t26 60t64 24t62 -30t25 -75q0 -162 -140 -309h-59q104 108 104 235l19 10h-19zM305 -25q-31 0 -57 24q-26 25 -25 61q0 36 26 60q27 24 63 24t61 -30t24 -75q0 -166 -139 -309h-57q104 108 104 235l17 10h-17z" />
    <glyph glyph-name="dagger" unicode="&#x2020;" horiz-adv-x="1007" 
d="M956 1042v-104h-397v-311q0 -193 -7 -410t-9 -217h-78q-3 0 -10 248q-6 248 -6 379v311h-396v104h396v392h110v-392h397z" />
    <glyph glyph-name="daggerdbl" unicode="&#x2021;" horiz-adv-x="1007" 
d="M559 938v-324h397v-104h-397q-8 -510 -16 -510h-78q-8 0 -16 510h-396v104h396v324h-396v104h396v392h110v-392h397v-104h-397z" />
    <glyph glyph-name="bullet" unicode="&#x2022;" horiz-adv-x="753" 
d="M377 549q-74 0 -125 52t-51 126t51 125t125 51t126 -51t52 -125t-52 -126t-126 -52z" />
    <glyph glyph-name="ellipsis" unicode="&#x2026;" horiz-adv-x="1470" 
d="M1278 -29q-29 1 -49 21t-21 49q0 29 20 49t51 20q30 0 49 -20q20 -20 20 -50t-20 -50t-50 -19zM725 -29q-29 1 -49 21t-21 49q1 29 21 49t50 20t49 -20t19 -50t-20 -50t-49 -19zM193 -29q-29 1 -49 21t-21 49q0 29 20 49q21 20 51 20t49 -20t19 -50t-20 -50t-49 -19z" />
    <glyph glyph-name="perthousand" unicode="&#x2030;" horiz-adv-x="2832" 
d="M2370 76q122 0 198 94t76 230t-75 232t-199 95q-124 0 -201 -95q-76 -96 -76 -232t77 -230t200 -94zM1495 76q123 0 199 94t76 230t-75 232q-75 95 -200 95t-201 -95q-76 -96 -76 -232t78 -230q76 -94 199 -94zM2740 399q0 -175 -102 -295t-269 -120t-269 119
q-101 120 -101 297t101 298q100 121 268 121t270 -122t102 -298zM1494 -16q-167 0 -268 120q-102 120 -102 296q0 177 102 298t268 121q167 0 269 -122q103 -122 103 -298q0 -175 -102 -295t-270 -120zM464 707q124 0 200 94t75 231q0 137 -75 232q-76 94 -200 94t-200 -94
t-76 -232t76 -231q76 -94 200 -94zM451 0l964 1434h92l-962 -1434h-94zM464 614q-167 0 -268 120t-102 298q0 178 102 298t268 120q167 0 269 -121q103 -121 103 -297t-102 -297t-270 -121z" />
    <glyph glyph-name="guilsinglleft" unicode="&#x2039;" horiz-adv-x="952" 
d="M682 1200l70 -70l-416 -409l416 -410l-70 -69l-481 479z" />
    <glyph glyph-name="guilsinglright" unicode="&#x203a;" horiz-adv-x="952" 
d="M270 1200l482 -479l-482 -479l-69 69l415 410l-415 409z" />
    <glyph glyph-name="fraction" unicode="&#x2044;" horiz-adv-x="229" 
d="M-414 0l965 1434h92l-962 -1434h-95z" />
    <glyph glyph-name="Euro" unicode="&#x20ac;" horiz-adv-x="1638" 
d="M920 -25q-274 0 -479 168q-204 168 -248 435h-99v90h88q-2 16 -2 48t2 46h-88v90h96q45 268 250 437t480 169q206 0 378 -100t269 -273l-123 -30q-78 135 -217 211t-307 75q-228 0 -398 -134t-213 -355h635v-90h-645q-2 -14 -2 -46t2 -48h643v-90h-631q45 -218 213 -352
t396 -134q180 0 327 88t223 240l117 -31q-90 -190 -268 -302t-399 -112z" />
    <glyph glyph-name="uni20B9" unicode="&#x20b9;" horiz-adv-x="1173" 
d="M1075 1434v-99h-274q78 -59 123 -133h151v-94h-110q16 -59 16 -117q0 -190 -135 -314t-344 -124h-49l469 -553h-150l-469 555v102h201q152 1 253 95t101 237q0 57 -20 119h-637v94h583q-102 133 -280 133h-303v99h874z" />
    <glyph glyph-name="afii61352" unicode="&#x2116;" horiz-adv-x="2299" 
d="M1567 631h669v-86h-669v86zM1630 1106q0 -117 77 -194q77 -76 191 -76t193 76q78 76 78 195q0 118 -77 195q-77 76 -193 76q-117 0 -193 -78t-76 -194zM1225 1434h118v-1434h-110l-731 985q-106 144 -166 234l-21 26h-2l2 -47l2 -326v-872h-116v1434h110l729 -981
q46 -59 96 -129t72 -99l21 -26h2l-2 47l-4 317v871zM1900 752q-148 0 -252 101t-104 254t104 254t252 101t252 -101t104 -254t-104 -254t-252 -101z" />
    <glyph glyph-name="trademark" unicode="&#x2122;" horiz-adv-x="1607" 
d="M1411 1434v-666h-86v293q0 61 8 205l2 34h-2q-13 -30 -65 -116l-160 -262h-47l-160 262q-15 30 -33 60l-32 56h-2l2 -34q8 -140 8 -205v-293h-86v666h82l186 -316q18 -28 32 -56t25 -52h2l7 10l20 40q14 28 33 56l184 318h82zM53 1352v82h576v-82h-246v-584h-86v584h-244
z" />
    <glyph glyph-name="oneeighth" unicode="&#x215b;" horiz-adv-x="1419" 
d="M1092 379q-94 0 -154 -43t-59 -115q0 -72 58 -116q57 -44 153 -44t155 44t59 115t-58 115q-60 44 -154 44zM907 608q0 -61 51 -101q52 -40 134 -39t133 40t51 101q0 61 -51 99t-133 38t-134 -38q-51 -39 -51 -100zM795 213q0 94 59 146t125 65v2q-45 8 -98 58t-53 133
t73 143q74 60 190 59q117 0 191 -59q74 -58 74 -142t-54 -134t-98 -58v-2q66 -12 125 -64t59 -147q0 -94 -82 -161q-83 -66 -214 -66t-214 66t-83 161zM117 0l964 1434h93l-963 -1434h-94zM348 1434v-803h-90v508l8 168l2 14h-2q-20 -30 -63 -76l-115 -110l-57 55l254 244
h63z" />
    <glyph glyph-name="threeeighths" unicode="&#x215c;" horiz-adv-x="1579" 
d="M1252 379q-94 0 -154 -43t-60 -115t58 -116t154 -44q95 0 155 44q59 44 59 115t-59 115t-153 44zM1067 608q0 -61 51 -101t133 -39t133 40q52 39 52 101q0 61 -52 99t-133 38q-82 0 -133 -39q-51 -38 -51 -99zM1548 213q0 -94 -83 -161q-83 -66 -214 -66t-214 66t-83 161
q0 94 60 146t125 65v2q-45 8 -99 58q-53 50 -53 133t74 143q73 60 189 59q116 0 191 -59q75 -58 75 -142t-54 -134t-98 -58v-2q66 -12 125 -64t59 -147zM276 0l965 1434h92l-962 -1434h-95zM354 1450q124 0 194 -62q68 -62 68 -146t-54 -137q-54 -52 -130 -56v-2
q80 -5 136 -55t56 -146t-79 -164q-80 -68 -200 -68t-206 70t-98 182l86 21q2 -86 63 -138q60 -53 154 -53t143 47t49 116t-54 111q-56 42 -144 42h-82v69h82q84 0 137 43q53 44 53 102t-46 100t-140 42q-168 0 -205 -170l-80 23q17 105 95 167t202 62z" />
    <glyph glyph-name="fiveeighths" unicode="&#x215d;" horiz-adv-x="1548" 
d="M1221 379q-93 0 -153 -43t-60 -115t58 -116t154 -44q95 0 154 44q60 44 60 115t-60 115t-153 44zM1036 608q0 -61 51 -101t133 -39t134 40q51 39 51 101q0 61 -51 99t-133 38t-134 -38q-51 -39 -51 -100zM924 213q0 94 59 146t125 65v2q-45 8 -98 58q-54 50 -54 133
t74 143t190 59q116 0 190 -59q74 -58 75 -142t-53 -134t-99 -58v-2q66 -12 125 -64q60 -52 60 -147q0 -94 -83 -161q-83 -66 -214 -66t-214 66t-83 161zM1210 1434h93l-963 -1434h-94zM335 1165q124 -1 203 -77q78 -76 78 -197t-80 -199t-202 -78q-123 0 -199 68t-94 176
l86 23q10 -85 62 -135q51 -50 141 -50t145 54t55 142q0 87 -55 141t-135 54q-80 1 -128 -29t-69 -67l-75 19l69 424h434v-84h-364l-25 -133q-9 -59 -17 -79q-7 -19 -10 -32t-8 -23l3 -2q61 84 185 84z" />
    <glyph glyph-name="seveneighths" unicode="&#x215e;" horiz-adv-x="1343" 
d="M1016 379q-94 0 -154 -43t-59 -115q0 -72 58 -116q57 -44 153 -44t155 44t59 115t-58 115q-60 44 -154 44zM1200 609q0 61 -51 99t-133 38t-134 -39q-52 -38 -51 -99q-1 -61 51 -101t134 -39t133 40t51 101zM719 213q0 94 59 146t125 65v2q-45 8 -98 58t-53 133t73 143
q74 59 190 59q117 0 191 -59q74 -58 74 -142t-54 -134t-98 -58v-2q66 -12 125 -64t59 -147q0 -94 -82 -161q-83 -66 -214 -66t-214 66t-83 161zM41 0l965 1434h92l-963 -1434h-94zM20 1350v84h568v-60l-422 -743h-90l362 641q22 42 54 71l8 11l-2 2h-6q-16 -4 -48 -4l-65 -2
h-359z" />
    <glyph glyph-name="minus" unicode="&#x2212;" 
d="M240 780h952v-102h-952v102z" />
    <glyph glyph-name="notequal" unicode="&#x2260;" 
d="M1192 850h-367l-129 -250h496v-102h-547l-133 -260h-109l134 260h-297v102h350l127 250h-477v102h530l143 281h107l-143 -281h315v-102z" />
    <glyph glyph-name="lessequal" unicode="&#x2264;" 
d="M1178 84v-102h-953v102h953zM1149 285h-174l-748 467l783 499h172l-779 -499z" />
    <glyph glyph-name="greaterequal" unicode="&#x2265;" 
d="M252 84h952v-102h-952v102zM281 285l745 467l-778 499h172l782 -499l-747 -467h-174z" />
    <glyph glyph-name="lozenge" unicode="&#x25ca;" horiz-adv-x="1587" 
d="M793 1321l-605 -604l605 -604l606 604zM793 -29l-746 746l746 745l745 -745z" />
    <glyph glyph-name="Cacute.loclPLK" horiz-adv-x="1562" 
d="M838 1348q-268 0 -446 -176t-177 -454q0 -278 179 -454t444 -176q180 0 328 90t227 242l116 -33q-90 -193 -269 -305t-402 -111q-311 0 -528 212q-216 212 -216 534q0 321 216 533t528 212q207 0 380 -102t271 -273l-119 -30q-80 135 -222 213t-310 78zM944 1896l92 -53
l-211 -334l-82 45z" />
    <glyph glyph-name="I.ss03" horiz-adv-x="847" 
d="M483 106h271v-106h-660v106h273v1221h-265v107h643v-107h-262v-1221z" />
    <glyph glyph-name="IJ.ss03" horiz-adv-x="2152" 
d="M1876 1434h121v-852q0 -287 -153 -450t-435 -163q-201 1 -349 103t-204 270l119 31q45 -135 163 -213t271 -78q229 0 348 129t119 362v861zM483 1327v-1221h271v-106h-660v106h273v1221h-265v107h643v-107h-262z" />
    <glyph glyph-name="IJ.ss03.ss04" horiz-adv-x="2158" 
d="M1214 1434h789v-852q0 -287 -153 -450t-435 -163q-201 1 -349 103t-204 270l119 31q45 -135 163 -213t271 -78q229 0 348 129t119 362v748h-668v113zM483 1327v-1221h271v-106h-660v106h273v1221h-265v107h643v-107h-262z" />
    <glyph glyph-name="IJ.ss04" horiz-adv-x="1828" 
d="M885 1434h788v-852q-1 -287 -153 -450t-435 -163q-201 1 -349 103t-204 270l119 31q45 -135 163 -213t271 -78q229 0 349 129q119 129 118 362v748h-667v113zM201 0v1434h116v-1434h-116z" />
    <glyph glyph-name="Iacute.ss03" horiz-adv-x="847" 
d="M483 106h271v-106h-660v106h273v1221h-265v107h643v-107h-262v-1221zM711 1731l-430 -213l-41 71l424 230z" />
    <glyph glyph-name="Icircumflex.ss03" horiz-adv-x="847" 
d="M483 106h271v-106h-660v106h273v1221h-265v107h643v-107h-262v-1221zM422 1751l-262 -223l-64 65l326 277l323 -277l-63 -65z" />
    <glyph glyph-name="Idieresis.ss03" horiz-adv-x="847" 
d="M483 106h271v-106h-660v106h273v1221h-265v107h643v-107h-262v-1221zM650 1565q-36 1 -60 25t-25 60q0 36 25 60q24 24 60 25q36 0 61 -25q25 -24 25 -60t-25 -61q-25 -24 -61 -24zM185 1565q-37 1 -61 25t-24 60t25 60t61 25q36 0 61 -25q25 -24 25 -60t-25 -61
q-26 -24 -62 -24z" />
    <glyph glyph-name="Idotaccent.ss03" horiz-adv-x="847" 
d="M483 106h271v-106h-660v106h273v1221h-265v107h643v-107h-262v-1221zM424 1565q-34 1 -60 25t-26 60t26 60t60 25q34 0 60 -25q24 -24 24 -60t-24 -60t-60 -25z" />
    <glyph glyph-name="Igrave.ss03" horiz-adv-x="847" 
d="M483 106h271v-106h-660v106h273v1221h-265v107h643v-107h-262v-1221zM578 1589l-39 -71l-433 213l48 88z" />
    <glyph glyph-name="Imacron.ss03" horiz-adv-x="847" 
d="M483 106h271v-106h-660v106h273v1221h-265v107h643v-107h-262v-1221zM745 1698v-96h-643v96h643z" />
    <glyph glyph-name="Iogonek.ss03" horiz-adv-x="847" 
d="M754 0h-346q-119 0 -206 -55t-87 -172q0 -78 52 -130t138 -53q154 0 219 150l74 -35q-86 -195 -293 -194q-125 -1 -203 73t-77 189q0 141 114 227h-45v106h273v1221h-265v107h643v-107h-262v-1221h271v-106z" />
    <glyph glyph-name="J.ss04" horiz-adv-x="1327" 
d="M383 1434h788v-852q-1 -287 -153 -450t-434 -163q-202 1 -350 103t-203 270l119 31q44 -135 162 -213t272 -78q229 0 348 129t119 362v748h-668v113z" />
    <glyph glyph-name="Jcircumflex.ss04" horiz-adv-x="1327" 
d="M383 1434h788v-852q-1 -287 -153 -450t-434 -163q-202 1 -350 103t-203 270l119 31q44 -135 162 -213t272 -78q229 0 348 129t119 362v748h-668v113zM774 1751l-262 -223l-63 65l325 277l324 -277l-64 -65z" />
    <glyph glyph-name="N.ss02" horiz-adv-x="1542" 
d="M1225 1434h118v-1434h-118v571l-666 519q-166 134 -215 176l-29 24h-2v-10l2 -69v-54l2 -132v-1025h-116v1434h112l553 -439q352 -285 359 -284h2v30l-2 80v613z" />
    <glyph glyph-name="Nacute.loclPLK" horiz-adv-x="1542" 
d="M1225 1434h118v-1434h-110l-731 985q-106 144 -166 234l-21 26h-2l2 -47l2 -326v-872h-116v1434h110l729 -981q46 -59 96 -129t72 -99l21 -26h2l-2 47l-4 317v871zM893 1896l92 -53l-211 -334l-82 45z" />
    <glyph glyph-name="Nacute.loclPLK.ss02" horiz-adv-x="1542" 
d="M1225 1434h118v-1434h-118v571l-666 519q-166 134 -215 176l-29 24h-2v-10l2 -69v-54l2 -132v-1025h-116v1434h112l553 -439q352 -285 359 -284h2v30l-2 80v613zM907 1896l92 -53l-211 -334l-81 45z" />
    <glyph glyph-name="Nacute.ss02" horiz-adv-x="1542" 
d="M1225 1434h118v-1434h-118v571l-666 519q-166 134 -215 176l-29 24h-2v-10l2 -69v-54l2 -132v-1025h-116v1434h112l553 -439q352 -285 359 -284h2v30l-2 80v613zM1030 1819l47 -88l-430 -213l-41 71z" />
    <glyph glyph-name="Ncaron.ss02" horiz-adv-x="1542" 
d="M1225 1434h118v-1434h-118v571l-666 519q-166 134 -215 176l-29 24h-2v-10l2 -69v-54l2 -132v-1025h-116v1434h112l553 -439q352 -285 359 -284h2v30l-2 80v613zM467 1769l63 66l261 -223l262 223l63 -66l-325 -276z" />
    <glyph glyph-name="Ncommaaccent.ss02" horiz-adv-x="1542" 
d="M776 -248q-34 0 -58 23t-24 59t26 61q26 23 62 23t62 -30q25 -30 24 -74q0 -162 -137 -303h-59q104 104 104 231l17 10h-17zM1225 1434h118v-1434h-118v571l-666 519q-166 134 -215 176l-29 24h-2v-10l2 -69v-54l2 -132v-1025h-116v1434h112l553 -439q352 -285 359 -284
h2v30l-2 80v613z" />
    <glyph glyph-name="Ntilde.ss02" horiz-adv-x="1542" 
d="M1225 1434h118v-1434h-118v571l-666 519q-166 134 -215 176l-29 24h-2v-10l2 -69v-54l2 -132v-1025h-116v1434h112l553 -439q352 -285 359 -284h2v30l-2 80v613zM934 1561q-74 0 -154 57q-82 57 -126 57q-44 1 -72 -27t-29 -71h-100q0 80 56 132t132 52t156 -57
q81 -57 121 -57q40 -1 70 27t32 71h98q2 -80 -54 -132t-130 -52z" />
    <glyph glyph-name="Oacute.loclPLK" horiz-adv-x="1677" 
d="M1462 718q0 278 -179 454t-445 176t-444 -176t-179 -454q0 -278 178 -454q177 -178 443 -178t446 177t180 455zM94 717q0 321 216 533t528 212t529 -212q216 -212 216 -534t-216 -533q-216 -212 -528 -212t-529 212q-216 212 -216 534zM965 1896l92 -53l-211 -334l-82 45
z" />
    <glyph glyph-name="Q.ss01" horiz-adv-x="1703" 
d="M215 732q0 -271 178 -444q177 -173 441 -173t444 174t180 444q0 271 -179 443t-443 172t-443 -172q-178 -173 -178 -444zM1606 115v-115h-772q-311 0 -526 208q-214 208 -214 523t215 523t527 208t527 -209q216 -209 216 -522q0 -215 -114 -383t-298 -246l2 -2l7 2
q4 0 14 1t24 2t51 5q37 5 148 5h193z" />
    <glyph glyph-name="Sacute.loclPLK" horiz-adv-x="1210" 
d="M594 1356q-158 0 -259 -73t-102 -196q0 -89 65 -140q36 -28 64 -46t95 -41q66 -23 166 -50q100 -28 147 -43t124 -52t120 -77t77 -108t33 -149q0 -178 -142 -294t-370 -116t-366 118q-139 118 -164 302l113 31q12 -145 123 -244q112 -98 292 -98t286 84q105 84 105 203
t-60 175q-33 32 -59 52t-83 43q-81 33 -247 76q-167 43 -259 94t-119 94q-61 95 -61 182q0 167 138 273t341 106t340 -104t170 -277l-115 -30q-23 141 -129 223t-264 82zM725 1896l92 -53l-211 -334l-82 45z" />
    <glyph glyph-name="Y.ss05" horiz-adv-x="1304" 
d="M1014 760v-101h-303v-659h-117v659h-299v101h270l-528 674h137l387 -492q90 -117 92 -117h2l15 19q14 18 39 50t36 48l385 492h138l-529 -674h275z" />
    <glyph glyph-name="Yacute.ss05" horiz-adv-x="1304" 
d="M1014 760v-101h-303v-659h-117v659h-299v101h270l-528 674h137l387 -492q90 -117 92 -117h2l15 19q14 18 39 50t36 48l385 492h138l-529 -674h275zM940 1731l-430 -213l-41 71l424 230z" />
    <glyph glyph-name="Ycircumflex.ss05" horiz-adv-x="1304" 
d="M1014 760v-101h-303v-659h-117v659h-299v101h270l-528 674h137l387 -492q90 -117 92 -117h2l15 19q14 18 39 50t36 48l385 492h138l-529 -674h275zM651 1751l-262 -223l-63 65l325 277l324 -277l-64 -65z" />
    <glyph glyph-name="Ydieresis.ss05" horiz-adv-x="1304" 
d="M1014 760v-101h-303v-659h-117v659h-299v101h270l-528 674h137l387 -492q90 -117 92 -117h2l15 19q14 18 39 50t36 48l385 492h138l-529 -674h275zM880 1565q-36 1 -61 25t-25 60t26 60q24 24 60 25q36 0 60 -25q24 -24 25 -60q-1 -36 -25 -60t-60 -25zM415 1565
q-36 1 -61 25q-24 24 -24 60t24 60t61 25q35 0 61 -25q26 -24 26 -60t-26 -60t-61 -25z" />
    <glyph glyph-name="Ygrave.ss05" horiz-adv-x="1304" 
d="M1014 760v-101h-303v-659h-117v659h-299v101h270l-528 674h137l387 -492q90 -117 92 -117h2l15 19q14 18 39 50t36 48l385 492h138l-529 -674h275zM807 1589l-39 -71l-432 213l47 88z" />
    <glyph glyph-name="Zacute.loclPLK" horiz-adv-x="1400" 
d="M143 1321v113h1135v-109l-903 -1104q-20 -25 -101 -112l2 -3h11q20 5 60 5l104 2h827v-113h-1155v109l911 1108q24 30 84 90l17 16l-2 2h-9l-106 -4h-875zM821 1896l92 -53l-211 -334l-81 45z" />
    <glyph glyph-name="cacute.loclPLK" horiz-adv-x="1562" 
d="M838 1348q-268 0 -446 -176t-177 -454q0 -278 179 -454t444 -176q180 0 328 90t227 242l116 -33q-90 -193 -269 -305t-402 -111q-311 0 -528 212q-216 212 -216 534q0 321 216 533t528 212q207 0 380 -102t271 -273l-119 -30q-80 135 -222 213t-310 78zM944 1896l92 -53
l-211 -334l-82 45z" />
    <glyph glyph-name="dotlessj.ss04" horiz-adv-x="1327" 
d="M383 1434h788v-852q-1 -287 -153 -450t-434 -163q-202 1 -350 103t-203 270l119 31q44 -135 162 -213t272 -78q229 0 348 129t119 362v748h-668v113z" />
    <glyph glyph-name="i.ss03" horiz-adv-x="847" 
d="M483 106h271v-106h-660v106h273v1221h-265v107h643v-107h-262v-1221z" />
    <glyph glyph-name="iacute.ss03" horiz-adv-x="847" 
d="M483 106h271v-106h-660v106h273v1221h-265v107h643v-107h-262v-1221zM711 1731l-430 -213l-41 71l424 230z" />
    <glyph glyph-name="icircumflex.ss03" horiz-adv-x="847" 
d="M483 106h271v-106h-660v106h273v1221h-265v107h643v-107h-262v-1221zM422 1751l-262 -223l-64 65l326 277l323 -277l-63 -65z" />
    <glyph glyph-name="idieresis.ss03" horiz-adv-x="847" 
d="M483 106h271v-106h-660v106h273v1221h-265v107h643v-107h-262v-1221zM650 1565q-36 1 -60 25t-25 60q0 36 25 60q24 24 60 25q36 0 61 -25q25 -24 25 -60t-25 -61q-25 -24 -61 -24zM185 1565q-37 1 -61 25t-24 60t25 60t61 25q36 0 61 -25q25 -24 25 -60t-25 -61
q-26 -24 -62 -24z" />
    <glyph glyph-name="idotaccent.ss03" horiz-adv-x="847" 
d="M483 106h271v-106h-660v106h273v1221h-265v107h643v-107h-262v-1221zM424 1565q-34 1 -60 25t-26 60t26 60t60 25q34 0 60 -25q24 -24 24 -60t-24 -60t-60 -25z" />
    <glyph glyph-name="igrave.ss03" horiz-adv-x="847" 
d="M483 106h271v-106h-660v106h273v1221h-265v107h643v-107h-262v-1221zM578 1589l-39 -71l-433 213l48 88z" />
    <glyph glyph-name="ij.ss03" horiz-adv-x="2152" 
d="M1876 1434h121v-852q0 -287 -153 -450t-435 -163q-201 1 -349 103t-204 270l119 31q45 -135 163 -213t271 -78q229 0 348 129t119 362v861zM483 1327v-1221h271v-106h-660v106h273v1221h-265v107h643v-107h-262z" />
    <glyph glyph-name="ij.ss03.ss04" horiz-adv-x="2158" 
d="M1214 1434h789v-852q0 -287 -153 -450t-435 -163q-201 1 -349 103t-204 270l119 31q45 -135 163 -213t271 -78q229 0 348 129t119 362v748h-668v113zM483 1327v-1221h271v-106h-660v106h273v1221h-265v107h643v-107h-262z" />
    <glyph glyph-name="ij.ss04" horiz-adv-x="1828" 
d="M885 1434h788v-852q-1 -287 -153 -450t-435 -163q-201 1 -349 103t-204 270l119 31q45 -135 163 -213t271 -78q229 0 349 129q119 129 118 362v748h-667v113zM201 0v1434h116v-1434h-116z" />
    <glyph glyph-name="imacron.ss03" horiz-adv-x="847" 
d="M483 106h271v-106h-660v106h273v1221h-265v107h643v-107h-262v-1221zM745 1698v-96h-643v96h643z" />
    <glyph glyph-name="iogonek.ss03" horiz-adv-x="847" 
d="M754 0h-346q-119 0 -206 -55t-87 -172q0 -78 52 -130t138 -53q154 0 219 150l74 -35q-86 -195 -293 -194q-125 -1 -203 73t-77 189q0 141 114 227h-45v106h273v1221h-265v107h643v-107h-262v-1221h271v-106z" />
    <glyph glyph-name="j.ss04" horiz-adv-x="1327" 
d="M383 1434h788v-852q-1 -287 -153 -450t-434 -163q-202 1 -350 103t-203 270l119 31q44 -135 162 -213t272 -78q229 0 348 129t119 362v748h-668v113z" />
    <glyph glyph-name="jcircumflex.ss04" horiz-adv-x="1327" 
d="M383 1434h788v-852q-1 -287 -153 -450t-434 -163q-202 1 -350 103t-203 270l119 31q44 -135 162 -213t272 -78q229 0 348 129t119 362v748h-668v113zM774 1751l-262 -223l-63 65l325 277l324 -277l-64 -65z" />
    <glyph glyph-name="n.ss02" horiz-adv-x="1542" 
d="M1225 1434h118v-1434h-118v571l-666 519q-166 134 -215 176l-29 24h-2v-10l2 -69v-54l2 -132v-1025h-116v1434h112l553 -439q352 -285 359 -284h2v30l-2 80v613z" />
    <glyph glyph-name="nacute.loclPLK" horiz-adv-x="1542" 
d="M1225 1434h118v-1434h-110l-731 985q-106 144 -166 234l-21 26h-2l2 -47l2 -326v-872h-116v1434h110l729 -981q46 -59 96 -129t72 -99l21 -26h2l-2 47l-4 317v871zM893 1896l92 -53l-211 -334l-82 45z" />
    <glyph glyph-name="nacute.loclPLK.ss02" horiz-adv-x="1542" 
d="M1225 1434h118v-1434h-118v571l-666 519q-166 134 -215 176l-29 24h-2v-10l2 -69v-54l2 -132v-1025h-116v1434h112l553 -439q352 -285 359 -284h2v30l-2 80v613zM907 1896l92 -53l-211 -334l-81 45z" />
    <glyph glyph-name="nacute.ss02" horiz-adv-x="1542" 
d="M1225 1434h118v-1434h-118v571l-666 519q-166 134 -215 176l-29 24h-2v-10l2 -69v-54l2 -132v-1025h-116v1434h112l553 -439q352 -285 359 -284h2v30l-2 80v613zM1030 1819l47 -88l-430 -213l-41 71z" />
    <glyph glyph-name="ncaron.ss02" horiz-adv-x="1542" 
d="M1225 1434h118v-1434h-118v571l-666 519q-166 134 -215 176l-29 24h-2v-10l2 -69v-54l2 -132v-1025h-116v1434h112l553 -439q352 -285 359 -284h2v30l-2 80v613zM467 1769l63 66l261 -223l262 223l63 -66l-325 -276z" />
    <glyph glyph-name="ncommaaccent.ss02" horiz-adv-x="1542" 
d="M776 -248q-34 0 -58 23t-24 59t26 61q26 23 62 23t62 -30q25 -30 24 -74q0 -162 -137 -303h-59q104 104 104 231l17 10h-17zM1225 1434h118v-1434h-118v571l-666 519q-166 134 -215 176l-29 24h-2v-10l2 -69v-54l2 -132v-1025h-116v1434h112l553 -439q352 -285 359 -284
h2v30l-2 80v613z" />
    <glyph glyph-name="ntilde.ss02" horiz-adv-x="1542" 
d="M1225 1434h118v-1434h-118v571l-666 519q-166 134 -215 176l-29 24h-2v-10l2 -69v-54l2 -132v-1025h-116v1434h112l553 -439q352 -285 359 -284h2v30l-2 80v613zM934 1561q-74 0 -154 57q-82 57 -126 57q-44 1 -72 -27t-29 -71h-100q0 80 56 132t132 52t156 -57
q81 -57 121 -57q40 -1 70 27t32 71h98q2 -80 -54 -132t-130 -52z" />
    <glyph glyph-name="oacute.loclPLK" horiz-adv-x="1677" 
d="M1462 718q0 278 -179 454t-445 176t-444 -176t-179 -454q0 -278 178 -454q177 -178 443 -178t446 177t180 455zM94 717q0 321 216 533t528 212t529 -212q216 -212 216 -534t-216 -533q-216 -212 -528 -212t-529 212q-216 212 -216 534zM965 1896l92 -53l-211 -334l-82 45
z" />
    <glyph glyph-name="q.ss01" horiz-adv-x="1703" 
d="M215 732q0 -271 178 -444q177 -173 441 -173t444 174t180 444q0 271 -179 443t-443 172t-443 -172q-178 -173 -178 -444zM1606 115v-115h-772q-311 0 -526 208q-214 208 -214 523t215 523t527 208t527 -209q216 -209 216 -522q0 -215 -114 -383t-298 -246l2 -2l7 2
q4 0 14 1t24 2t51 5q37 5 148 5h193z" />
    <glyph glyph-name="sacute.loclPLK" horiz-adv-x="1210" 
d="M594 1356q-158 0 -259 -73t-102 -196q0 -89 65 -140q36 -28 64 -46t95 -41q66 -23 166 -50q100 -28 147 -43t124 -52t120 -77t77 -108t33 -149q0 -178 -142 -294t-370 -116t-366 118q-139 118 -164 302l113 31q12 -145 123 -244q112 -98 292 -98t286 84q105 84 105 203
t-60 175q-33 32 -59 52t-83 43q-81 33 -247 76q-167 43 -259 94t-119 94q-61 95 -61 182q0 167 138 273t341 106t340 -104t170 -277l-115 -30q-23 141 -129 223t-264 82zM725 1896l92 -53l-211 -334l-82 45z" />
    <glyph glyph-name="y.ss05" horiz-adv-x="1304" 
d="M1014 760v-101h-303v-659h-117v659h-299v101h270l-528 674h137l387 -492q90 -117 92 -117h2l15 19q14 18 39 50t36 48l385 492h138l-529 -674h275z" />
    <glyph glyph-name="yacute.ss05" horiz-adv-x="1304" 
d="M1014 760v-101h-303v-659h-117v659h-299v101h270l-528 674h137l387 -492q90 -117 92 -117h2l15 19q14 18 39 50t36 48l385 492h138l-529 -674h275zM940 1731l-430 -213l-41 71l424 230z" />
    <glyph glyph-name="ycircumflex.ss05" horiz-adv-x="1304" 
d="M1014 760v-101h-303v-659h-117v659h-299v101h270l-528 674h137l387 -492q90 -117 92 -117h2l15 19q14 18 39 50t36 48l385 492h138l-529 -674h275zM651 1751l-262 -223l-63 65l325 277l324 -277l-64 -65z" />
    <glyph glyph-name="ydieresis.ss05" horiz-adv-x="1304" 
d="M1014 760v-101h-303v-659h-117v659h-299v101h270l-528 674h137l387 -492q90 -117 92 -117h2l15 19q14 18 39 50t36 48l385 492h138l-529 -674h275zM880 1565q-36 1 -61 25t-25 60t26 60q24 24 60 25q36 0 60 -25q24 -24 25 -60q-1 -36 -25 -60t-60 -25zM415 1565
q-36 1 -61 25q-24 24 -24 60t24 60t61 25q35 0 61 -25q26 -24 26 -60t-26 -60t-61 -25z" />
    <glyph glyph-name="ygrave.ss05" horiz-adv-x="1304" 
d="M1014 760v-101h-303v-659h-117v659h-299v101h270l-528 674h137l387 -492q90 -117 92 -117h2l15 19q14 18 39 50t36 48l385 492h138l-529 -674h275zM807 1589l-39 -71l-432 213l47 88z" />
    <glyph glyph-name="zacute.loclPLK" horiz-adv-x="1400" 
d="M143 1321v113h1135v-109l-903 -1104q-20 -25 -101 -112l2 -3h11q20 5 60 5l104 2h827v-113h-1155v109l911 1108q24 30 84 90l17 16l-2 2h-9l-106 -4h-875zM821 1896l92 -53l-211 -334l-81 45z" />
    <glyph glyph-name="zero.slsh" horiz-adv-x="1470" 
d="M735 86q246 0 383 183q138 183 138 465t-164 462l-652 -1016q123 -94 295 -94zM215 717q0 -306 166 -484l651 1016q-125 99 -294 99q-170 0 -290 -90q-234 -176 -233 -541zM735 1462q295 0 468 -218t173 -527t-173 -527t-468 -219q-295 0 -468 218q-173 217 -173 527
t173 528t468 218z" />
    <glyph glyph-name="zero.sups" horiz-adv-x="800" 
d="M125 1364q-1 -138 75 -232t200 -94t200 94t76 232q0 137 -76 231q-76 95 -200 95t-200 -94t-75 -232zM772 1364q0 -176 -102 -297t-270 -121q-167 0 -268 120t-101 298t101 298t268 120q168 0 270 -121t102 -297z" />
    <glyph glyph-name="four.sups" horiz-adv-x="684" 
d="M446 1251v237l9 146v4h-2l-21 -28q-81 -109 -113 -146l-106 -123q-16 -20 -42 -43t-40 -36l-16 -13l2 -2h8l93 4h228zM641 1251v-80h-109v-208h-86v208h-426v64l449 530h63v-514h109z" />
    <glyph glyph-name="five.sups" horiz-adv-x="659" 
d="M335 1497q124 0 203 -77q78 -78 78 -198t-80 -198t-202 -78q-123 0 -199 68t-94 176l86 22q10 -84 62 -134q51 -50 141 -50t145 54t55 142t-55 141q-55 54 -135 54q-80 1 -128 -29t-69 -67l-75 18l69 424h434v-84h-364l-25 -133q-9 -56 -16 -77q-8 -21 -12 -35t-7 -21
l3 -2q61 84 185 84z" />
    <glyph glyph-name="six.sups" horiz-adv-x="667" 
d="M327 1028q93 0 150 54t61 144t-56 144q-58 55 -153 55t-153 -55t-59 -143q0 -88 58 -144q59 -55 152 -55zM338 1503q127 0 207 -79q80 -78 80 -200t-83 -200t-212 -78t-214 79t-85 207t100 263l209 270h98l-286 -358l2 -2q29 31 41 44t54 33t89 21z" />
    <glyph glyph-name="seven.sups" horiz-adv-x="598" 
d="M20 1681v84h568v-59l-422 -743h-90l362 641q22 42 54 71l8 11l-2 2h-6q-20 -5 -48 -5l-65 -2h-359z" />
    <glyph glyph-name="eight.sups" horiz-adv-x="655" 
d="M328 1341q-94 -1 -154 -43t-59 -114q0 -72 58 -116q57 -44 153 -44t155 44t59 115t-58 115q-60 44 -154 43zM328 1708q-82 0 -134 -38t-51 -99q-1 -61 51 -101t134 -40q82 2 133 40t51 102q0 62 -51 99t-133 37zM31 1176q0 94 59 146t125 64v3q-45 8 -98 58t-53 133
t73 142q74 60 190 60q117 0 191 -60t74 -142q0 -83 -54 -133t-98 -58v-3q66 -12 125 -64t59 -146t-82 -161q-83 -67 -214 -67t-214 67t-83 161z" />
    <glyph glyph-name="nine.sups" horiz-adv-x="655" 
d="M328 1702q-92 0 -150 -56t-61 -144q-2 -88 55 -143q58 -54 154 -54t153 54t57 143q0 88 -58 144t-150 56zM305 1227q-115 0 -195 78q-80 77 -79 199q0 122 83 200t212 78t214 -79t85 -214t-148 -313l-182 -213h-105l304 348l-2 2q-72 -86 -187 -86z" />
    <glyph glyph-name="zero.tf" 
d="M715 1348q-123 0 -216 -58q-164 -101 -219 -355q-24 -105 -24 -218q0 -230 98 -420q50 -95 144 -153t217 -58q338 0 434 412q25 106 25 219q0 229 -100 421q-50 94 -143 152t-216 58zM715 1462q119 0 217 -44q180 -81 271 -275t91 -426q0 -363 -198 -585
q-66 -73 -164 -117t-217 -44t-217 44t-164 117q-196 216 -199 585q0 230 93 426q93 197 270 275q98 44 217 44z" />
    <glyph glyph-name="one.tf" 
d="M719 1051q0 95 6 182v31h-2l-21 -23q-63 -73 -88 -94l-217 -213l-75 74l430 426h86v-1321h356v-113h-836v113h361v938z" />
    <glyph glyph-name="two.tf" 
d="M199 1085q109 377 524 377q201 0 334 -126t133 -318q0 -106 -24 -161q-24 -56 -40 -88q-14 -32 -45 -69q-31 -36 -48 -58t-57 -56t-55 -48q-15 -12 -61 -48t-55 -44l-432 -337l2 -3h6l76 5l95 2h638v-113h-981v96q39 33 672 555q190 158 190 365q0 150 -100 244t-258 94
q-157 0 -261 -78t-143 -219z" />
    <glyph glyph-name="three.tf" 
d="M742 1462q218 0 336 -112q120 -112 120 -260t-95 -242t-226 -100v-3q139 -6 238 -95t99 -238q0 -199 -139 -320t-348 -121t-357 114t-180 298l109 31q20 -152 137 -243t291 -91t270 95q97 95 97 237t-102 212q-102 71 -283 70h-127v101h129q367 0 366 286q0 105 -88 189
t-274 84q-309 0 -385 -301l-107 28q39 177 170 279t349 102z" />
    <glyph glyph-name="four.tf" 
d="M938 496v536l4 167l2 58v9h-2l-20 -29q-74 -100 -140 -176l-346 -410q-98 -114 -139 -155l2 -2l254 2h385zM1257 496v-107h-204v-389h-115v389h-782v84l805 961h92v-938h204z" />
    <glyph glyph-name="five.tf" 
d="M723 936q215 0 357 -135t142 -344t-140 -347q-142 -138 -354 -138t-351 111q-139 112 -176 292l108 31q31 -150 139 -239t274 -89t274 108t108 271t-109 271t-272 108q-272 0 -361 -201l-102 29l125 770h752v-113h-662q-68 -394 -76 -429q-8 -36 -13 -58l-11 -46l2 -2
q39 54 133 102t213 48z" />
    <glyph glyph-name="six.tf" 
d="M309 464q0 -170 113 -278t294 -108t294 108q114 108 116 279q2 172 -110 275q-113 104 -297 104t-297 -104t-113 -276zM738 946q218 0 360 -138t141 -349q0 -211 -148 -349q-147 -138 -375 -138t-376 138q-148 140 -150 357q0 127 43 235t140 238l377 494h133l-480 -629
l3 -2q114 143 332 143z" />
    <glyph glyph-name="seven.tf" 
d="M225 1321v113h1002v-78l-764 -1356h-127l647 1147q47 83 96 151l17 25l-2 2h-13l-129 -4h-727z" />
    <glyph glyph-name="eight.tf" 
d="M716 72q192 0 304 87t113 232q0 145 -112 229q-111 84 -305 82q-194 0 -306 -83t-111 -228q0 -145 112 -232q113 -87 305 -87zM716 1368q-158 0 -260 -80t-102 -202t102 -198t260 -73q159 2 259 77q100 74 100 196t-100 201t-259 79zM248 1096q0 150 131 258t337 108
t337 -108t131 -258t-104 -238t-195 -94v-2q147 -12 255 -112t107 -259q0 -186 -147 -302t-385 -116t-384 116q-147 116 -147 288t108 272t255 113v2q-90 6 -195 94q-104 88 -104 238z" />
    <glyph glyph-name="nine.tf" 
d="M1094 974q0 186 -119 283t-295 97t-296 -100t-120 -286q0 -188 121 -284t297 -96t294 100t118 286zM150 974q0 216 150 352q151 136 382 136t381 -131t149 -366q0 -137 -66 -273t-226 -323l-318 -369h-137l536 629l-2 2q-127 -145 -331 -146q-238 1 -378 137t-140 352z
" />
    <glyph glyph-name="zero.slsh.tf" 
d="M715 86q338 0 434 412q25 106 25 219q0 268 -113 440l-621 -969q113 -102 275 -102zM715 1348q-123 0 -216 -58q-164 -101 -219 -355q-24 -105 -24 -218q0 -293 131 -469l623 975q-115 125 -295 125zM715 1462q119 0 217 -44q180 -81 271 -275t91 -426q0 -363 -198 -585
q-66 -73 -164 -117t-217 -44t-217 44t-164 117q-196 216 -199 585q0 230 93 426q93 197 270 275q98 44 217 44z" />
    <glyph glyph-name="zero.slsh.numr" horiz-adv-x="792" 
d="M401 707q123 0 199 94q76 93 76 235t-82 234l-334 -522q59 -41 141 -41zM401 1358q-125 0 -201 -94t-75 -236q0 -142 82 -233l336 522q-59 41 -142 41zM400 1450q168 0 270 -121t102 -297t-102 -297t-270 -121t-268 120q-101 120 -101 298t101 298t268 120z" />
    <glyph glyph-name="zero.slsh.dnom" horiz-adv-x="792" 
d="M676 396q0 142 -82 233l-334 -523q59 -41 141 -40q123 0 199 94t76 236zM401 717q-125 0 -201 -94q-76 -93 -75 -235q0 -142 82 -234l336 522q-59 41 -142 41zM400 809q168 0 270 -121t102 -297t-102 -297t-270 -121t-268 120q-101 120 -101 298t101 298t268 120z" />
    <glyph glyph-name="zero.slsh.sups" horiz-adv-x="792" 
d="M401 1038q123 0 199 94t76 236t-82 234l-334 -523q59 -41 141 -41zM401 1690q-125 0 -201 -94t-75 -236q0 -142 82 -234l336 523q-59 41 -142 41zM400 1782q168 0 270 -121t102 -297t-102 -297t-270 -121t-268 120q-101 120 -101 298t101 298t268 120z" />
    <glyph glyph-name="zero.dnom" horiz-adv-x="800" 
d="M401 76q123 0 199 94t76 230t-75 232t-200 95q-125 0 -201 -95q-76 -96 -75 -232t77 -230t199 -94zM400 -16q-167 0 -268 120t-101 296q0 177 101 298t268 121q168 0 270 -122t102 -298t-102 -296q-103 -119 -270 -119z" />
    <glyph glyph-name="one.dnom" horiz-adv-x="430" 
d="M348 803v-803h-90v508l8 168l2 12h-2l-34 -42q-15 -19 -29 -34l-115 -110l-57 55l254 246h63z" />
    <glyph glyph-name="two.dnom" horiz-adv-x="667" 
d="M362 84h254v-84h-559v66l351 278q127 100 127 213q1 76 -55 126t-144 50t-136 -43t-73 -133l-86 23q31 117 110 178t195 61t197 -76q82 -76 82 -184q0 -143 -156 -264q-219 -171 -235 -181t-72 -42l2 -2q86 14 198 14z" />
    <glyph glyph-name="three.dnom" horiz-adv-x="653" 
d="M354 819q124 0 194 -62q68 -63 68 -147t-54 -136t-130 -56v-2q80 -6 136 -56t56 -146q0 -94 -79 -162q-80 -68 -200 -68t-206 70t-98 179l86 23q2 -86 62 -138q61 -52 155 -52t143 47t49 115t-54 110q-56 41 -144 41h-82v72h82q86 0 138 42t52 101t-46 101t-140 42
q-166 0 -205 -170l-80 23q17 104 95 166t202 63z" />
    <glyph glyph-name="four.dnom" horiz-adv-x="684" 
d="M446 287v238l9 143v6h-2l-21 -27q-57 -83 -113 -145l-106 -123q-16 -21 -55 -55t-43 -37l2 -2h8l52 2h269zM641 289v-82h-109v-207h-86v207h-426v65l449 531h63v-514h109z" />
    <glyph glyph-name="five.dnom" horiz-adv-x="659" 
d="M330 66q90 0 145 54t55 141t-55 141t-135 54t-128 -29q-48 -30 -69 -69l-75 19l69 426h434v-84h-364l-25 -135q-10 -56 -17 -76t-11 -34t-7 -21l3 -2q63 81 186 81t202 -76q78 -76 78 -196q0 -121 -80 -199q-80 -77 -202 -77q-123 0 -200 66t-93 177l86 23
q10 -84 62 -134q51 -50 141 -50z" />
    <glyph glyph-name="six.dnom" horiz-adv-x="667" 
d="M329 463q-95 0 -153 -55q-58 -56 -59 -144q1 -88 59 -143t151 -55t150 54t61 143t-56 145q-58 56 -153 55zM625 261q0 -122 -83 -200q-83 -77 -212 -77t-214 78t-85 206q0 127 100 262l209 273h98l-286 -359l2 -2q27 31 41 44q14 12 55 32t88 21q127 0 207 -78t80 -200z
" />
    <glyph glyph-name="seven.dnom" horiz-adv-x="598" 
d="M20 719v84h568v-60l-422 -743h-90l362 639q22 42 62 82l-2 2h-6l-79 -4h-393z" />
    <glyph glyph-name="eight.dnom" horiz-adv-x="655" 
d="M328 379q-94 0 -154 -44t-59 -115q0 -71 58 -116q57 -45 153 -45t155 45t59 116t-58 115q-60 44 -154 44zM512 608q0 62 -51 100t-133 38t-134 -39t-51 -101q-1 -62 51 -100t134 -38q82 1 133 40t51 100zM31 211q0 94 59 147t125 66v2q-45 6 -98 56t-53 134t73 144
q74 60 190 59q117 0 191 -59q74 -60 74 -144t-54 -134t-98 -56v-2q66 -12 125 -66t59 -147q0 -94 -82 -161q-83 -66 -214 -66t-214 66t-83 161z" />
    <glyph glyph-name="nine.dnom" horiz-adv-x="655" 
d="M328 737q-92 0 -150 -55t-61 -144q-2 -90 56 -144q59 -54 153 -54t152 54t58 144t-58 145q-58 54 -150 54zM305 262q-113 0 -193 79t-81 201q0 122 83 200t212 77q129 0 214 -79q85 -80 85 -214t-148 -313l-182 -213h-105l304 346l-2 2q-74 -86 -187 -86z" />
    <glyph glyph-name="zero.numr" horiz-adv-x="800" 
d="M676 1032q0 138 -76 232t-200 94t-200 -94t-75 -232q-1 -138 75 -231q76 -94 200 -94t200 94t76 231zM772 1032q0 -176 -102 -297t-270 -121q-167 0 -268 120t-101 298t101 298t268 120q168 0 270 -121t102 -297z" />
    <glyph glyph-name="one.numr" horiz-adv-x="430" 
d="M348 1434v-803h-90v508l8 168l2 14h-2q-20 -30 -63 -76l-115 -110l-57 55l254 244h63z" />
    <glyph glyph-name="two.numr" horiz-adv-x="667" 
d="M616 715v-84h-559v67l351 277q127 104 127 213q1 76 -55 126t-143 50t-136 -43t-74 -131l-86 22q31 118 110 178t195 60t197 -76q82 -76 82 -184q0 -139 -161 -268t-216 -166l-86 -54l2 -2q86 14 198 15h254z" />
    <glyph glyph-name="three.numr" horiz-adv-x="667" 
d="M354 1450q124 0 194 -62q68 -62 68 -146t-54 -137q-54 -52 -130 -56v-2q80 -5 136 -55t56 -146t-79 -164q-80 -68 -200 -68t-206 70t-98 182l86 21q2 -86 63 -138q60 -53 154 -53t143 47t49 116t-54 111q-56 42 -144 42h-82v69h82q84 0 137 43q53 44 53 102t-46 100
t-140 42q-168 0 -205 -170l-80 23q17 105 95 167t202 62z" />
    <glyph glyph-name="four.numr" horiz-adv-x="684" 
d="M446 920v236l9 147v4h-2l-21 -29q-81 -110 -113 -145l-106 -123q-16 -20 -55 -55t-43 -37l2 -3h8l93 5h228zM641 920v-80h-109v-209h-86v209h-426v63l449 531h63v-514h109z" />
    <glyph glyph-name="five.numr" horiz-adv-x="659" 
d="M335 1165q124 -1 203 -77q78 -76 78 -197t-80 -199t-202 -78q-123 0 -199 68t-94 176l86 23q10 -85 62 -135q51 -50 141 -50t145 54t55 142q0 87 -55 141t-135 54q-80 1 -128 -29t-69 -67l-75 19l69 424h434v-84h-364l-25 -133q-9 -59 -17 -79q-7 -19 -10 -32t-8 -23
l3 -2q61 84 185 84z" />
    <glyph glyph-name="six.numr" horiz-adv-x="667" 
d="M117 895q1 -87 59 -143t151 -56t150 54t61 144q4 89 -56 144q-58 56 -153 56t-153 -56t-59 -143zM338 1171q127 -1 207 -79t80 -200t-83 -200t-212 -78t-214 79t-85 207t100 263l209 271h98l-286 -359l2 -2q29 31 41 44t54 33t89 21z" />
    <glyph glyph-name="seven.numr" horiz-adv-x="598" 
d="M20 1350v84h568v-60l-422 -743h-90l362 641q22 42 54 71l8 11l-2 2h-6q-16 -4 -48 -4l-65 -2h-359z" />
    <glyph glyph-name="eight.numr" horiz-adv-x="655" 
d="M328 1010q-94 0 -154 -43t-59 -115q0 -72 58 -116q57 -44 153 -44t155 44t59 115t-58 115q-60 44 -154 44zM328 1376q-82 0 -134 -38t-51 -99q-1 -61 51 -101t134 -39t133 40t51 101t-51 99t-133 37zM31 844q0 94 59 146t125 65v2q-45 8 -98 58t-53 133q0 82 73 142
q74 60 190 60q117 0 191 -59t74 -143t-54 -133q-54 -50 -98 -58v-2q66 -13 125 -65t59 -146t-82 -161q-83 -67 -214 -67t-214 67t-83 161z" />
    <glyph glyph-name="nine.numr" horiz-adv-x="655" 
d="M328 1370q-92 0 -150 -56t-61 -144q-2 -88 55 -143q58 -54 154 -54t153 54t57 143q0 88 -58 144t-150 56zM305 895q-115 0 -195 78q-80 77 -79 199q0 122 83 200t212 78t214 -79t85 -214t-148 -313l-182 -213h-105l304 348l-2 2q-72 -86 -187 -86z" />
    <glyph glyph-name="dollar.tf" 
d="M694 1356q-158 0 -259 -73t-101 -196q0 -90 64 -140q36 -28 65 -46t94 -41t166 -50q100 -28 147 -43t124 -52t120 -77t77 -108t34 -149q0 -168 -127 -282t-338 -126v-157h-117v157q-197 19 -317 135t-144 283l113 31q12 -146 124 -244t292 -98t285 84q106 84 106 203
t-61 175q-33 32 -59 52t-94 48t-154 50q-250 66 -341 116t-119 93q-61 93 -61 182q0 154 120 257t310 120v158h117v-158q172 -16 292 -118t150 -261l-115 -30q-23 141 -129 223t-264 82z" />
    <glyph glyph-name="percent.tf" 
d="M989 76q123 0 199 94t76 230t-75 232t-200 95q-125 0 -201 -95q-76 -96 -76 -232t78 -230q76 -94 199 -94zM713 1032q0 138 -76 232t-200 94q-123 0 -199 -94t-76 -232t76 -231q76 -94 199 -94q124 0 200 94t76 231zM989 819q166 0 268 -122q103 -122 103 -298t-102 -296
q-102 -119 -270 -119q-167 0 -268 120t-102 295q0 33 3 47l-240 -446h-94l364 684q-88 -70 -213 -70q-168 0 -269 120t-101 298t101 298t268 120t269 -121t103 -297q0 -20 -4 -61l248 463h96l-363 -674q92 59 203 59z" />
    <glyph glyph-name="cent.tf" 
d="M788 -29h-98v219q-203 18 -339 166t-136 362t136 362t337 167v215h100v-215q137 -12 247 -85t171 -189l-102 -29q-115 201 -365 201q-180 0 -297 -117q-116 -117 -116 -308t116 -308t297 -117q129 0 230 59q100 59 151 168l101 -28q-57 -129 -172 -210t-261 -94v-219z
" />
    <glyph glyph-name="sterling.tf" 
d="M1255 113v-113h-1050v113q129 27 165 130t17 308l-12 137h-154v100h144l-21 222q-16 190 101 319q118 129 311 133q160 4 290 -86t183 -297l-105 -28q-90 313 -370 303q-144 -4 -226 -102t-67 -248l20 -216h508v-100h-500l13 -135q18 -197 -13 -301t-110 -143l2 -3h12
l165 5l174 2h523z" />
    <glyph glyph-name="currency.tf" 
d="M716 1126q-177 0 -300 -125t-123 -302t123 -301t300 -124t300 124t123 302t-123 302t-300 124zM1247 708q0 -196 -117 -341l154 -154l-65 -66l-152 154q-157 -135 -353 -135t-352 135l-151 -154l-66 66l156 156q-119 145 -119 337t135 345l-147 145l66 66l149 -148
q149 119 333 119t329 -117l147 146l66 -66l-148 -145q135 -147 135 -343z" />
    <glyph glyph-name="yen.tf" 
d="M1196 846v-94h-399l-23 -29v-55h422v-93h-422v-575h-117v575h-407v93h407v55l-22 29h-385v94h311l-461 588h138l387 -492q90 -117 92 -117h2l14 19q14 18 39 50t37 48l385 492h137l-461 -588h326z" />
    <glyph glyph-name="Euro.tf" 
d="M766 -25q-250 0 -435 167t-229 436h-104v90h96q-2 16 -2 48t2 46h-96v90h104q42 268 228 437t436 169q196 0 352 -99t244 -274l-119 -30q-74 137 -199 215t-280 78q-206 0 -356 -136t-189 -360h578v-90h-586q-2 -14 -2 -46t2 -48h586v-90h-576q39 -222 190 -356t335 -134
t318 89t206 243l112 -31q-82 -193 -244 -303t-372 -111z" />
    <glyph glyph-name="uni20B9.tf" 
d="M1219 1434v-99h-277q78 -59 123 -133h154v-94h-113q16 -59 16 -117q0 -190 -135 -314t-344 -124h-49l469 -553h-148l-471 555v102h201q152 1 253 95t101 237q0 57 -20 119h-637v94h584q-102 133 -281 133h-303v99h877z" />
    <glyph glyph-name="colon.case" horiz-adv-x="415" 
d="M207 307q-35 0 -60 26q-25 27 -25 61t25 59t61 25t60 -26q24 -24 25 -60t-25 -60t-61 -25zM207 954q-35 0 -60 26t-25 60t25 60q25 24 61 24t60 -24t25 -61t-25 -61t-61 -24z" />
    <glyph glyph-name="semicolon.case" horiz-adv-x="444" 
d="M145 400q0 36 26 60t64 24q39 0 63 -30t24 -75q0 -166 -140 -309h-59q104 108 104 235l19 10l-19 2q-31 -2 -57 22q-26 25 -25 61zM227 967q-35 -1 -59 25t-25 61q0 35 25 59q24 24 60 25q36 0 61 -25q25 -24 25 -60t-26 -61q-26 -24 -61 -24z" />
    <glyph glyph-name="apple" horiz-adv-x="1665" 
d="M1087 -2q-12 0 -12 12t12 13q12 -1 12 -13t-12 -12zM1223 54q-1 -34 23 -34t24 34t-24 34t-23 -34zM1341 0h-30l8 109h39l16 -70l19 70h39l4 -109h-29v82l-23 -80h-20l-23 80v-82zM942 109h31l14 -74l12 74h31l12 -74l15 74h28l-26 -109h-33l-12 72l-15 -72h-30zM891 43
v-20h43v-23h-74v109h74v-23h-43v-20h39v-23h-39zM844 0h-31v109h31v-109zM700 109h33l19 -80l20 80h31l-35 -109h-33zM625 68h37v41h28v-109h-28v43h-37v-43h-31v109h31v-41zM500 86v23h84v-23h-29v-86h-27v86h-28zM393 109h37l33 -66v66h26v-109h-30l-39 72v-72h-27v109z
M348 0h-29v41l-34 68h34l15 -48l16 48h33l-35 -68v-41zM1303 53q1 -55 -55 -55t-56 55q0 25 15 41t40 16t41 -16t15 -41zM1102 51q0 58 59 60q20 0 29 -5l-8 -24q-6 6 -19 6q-31 0 -31 -34t31 -34q12 0 19 7l6 -25q-12 -4 -29 -4q-57 0 -57 53zM243 88q-11 0 -12 -8
q0 -6 26 -15t26 -32q0 -35 -50 -35q-20 0 -32 6l8 25q25 -9 34 -9t9 11q0 6 -25 14t-24 31q0 35 43 35q20 0 30 -7l-6 -24q-16 8 -27 8zM831 524l185 -162q55 -10 272 -14q-6 193 -14 266l-166 187l166 182q6 43 14 272q-199 -4 -270 -14l-187 -166l-180 166q-72 10 -272 14
q8 -231 14 -272l162 -182l-162 -183q-6 -43 -14 -270q219 4 270 14zM1376 168q-354 0 -425 26q-22 7 -38 23l-55 47l-27 21l-77 -68q-16 -16 -39 -24q-72 -25 -426 -25h-88v88q0 361 24 427q8 22 23 38l49 55l20 25l-69 78q-14 18 -23 40q-24 66 -24 424v91h88
q345 0 430 -26q23 -7 39 -22l78 -71l34 33l41 34q18 16 40 24q66 26 425 28h90v-91q0 -354 -26 -425q-8 -23 -25 -39l-45 -54l-22 -24l73 -86q11 -19 19 -39t17 -124t9 -292v-92h-90z" />
    </font>
</defs>
</svg>
