<?xml version="1.0" standalone="no"?>
<!DOCTYPE svg PUBLIC "-//W3C//DTD SVG 1.1//EN" "http://www.w3.org/Graphics/SVG/1.1/DTD/svg11.dtd" >
<svg xmlns="http://www.w3.org/2000/svg">
<metadata>
Created by FontPrep 20130207 at Sun May 11 16:13:00 2014
 By Steve Kaufman
Copyright (c) 2011 by Jan Tonellato. All rights reserved.
</metadata>
<defs>
<font id="8f0001eb233a0285c2bfb984e8161d5e" horiz-adv-x='1024' >
  <font-face 
    font-family="Novecentowide-DemiBold"
    font-weight="650"
    font-stretch="expanded"
    units-per-em="2048"
    panose-1="0 0 7 5 0 0 0 0 0 0"
    ascent="1741"
    descent="-307"
    x-height="1434"
    cap-height="1434"
    bbox="-471 -571 2687.01 1972"
    underline-thickness="256"
    underline-position="-141"
    unicode-range="U+0020-25CA"
  />
<missing-glyph horiz-adv-x="1363" 
d="M940 1149l188 -191l-256 -256l256 -258l-190 -188l-256 256l-254 -254l-190 191l254 253l-254 254l188 189l256 -252zM369 41h626q78 0 115 36t37 120v1040q0 84 -41 120t-131 36h-586q-96 0 -134 -35t-38 -121v-1040q0 -156 152 -156zM170 174v1086q0 80 49 126t125 48
h676q76 0 125 -48t49 -126v-1086q0 -82 -48 -128t-126 -46h-676q-78 0 -126 46t-48 128z" />
    <glyph glyph-name=".notdef" horiz-adv-x="1363" 
d="M940 1149l188 -191l-256 -256l256 -258l-190 -188l-256 256l-254 -254l-190 191l254 253l-254 254l188 189l256 -252zM369 41h626q78 0 115 36t37 120v1040q0 84 -41 120t-131 36h-586q-96 0 -134 -35t-38 -121v-1040q0 -156 152 -156zM170 174v1086q0 80 49 126t125 48
h676q76 0 125 -48t49 -126v-1086q0 -82 -48 -128t-126 -46h-676q-78 0 -126 46t-48 128z" />
    <glyph glyph-name=".null" horiz-adv-x="0" 
 />
    <glyph glyph-name="nonmarkingreturn" horiz-adv-x="681" 
 />
    <glyph glyph-name="space" unicode=" " horiz-adv-x="512" 
 />
    <glyph glyph-name="exclam" unicode="!" horiz-adv-x="624" 
d="M170 0v322h285v-322h-285zM170 449v985h285v-985h-285z" />
    <glyph glyph-name="quotedbl" unicode="&#x22;" horiz-adv-x="1120" 
d="M682 989v445h268v-445h-268zM170 989v445h268v-445h-268z" />
    <glyph glyph-name="numbersign" unicode="#" horiz-adv-x="1859" 
d="M997 549l170 334h-333l-166 -334h329zM1669 883h-219l-166 -334h219l-129 -246h-211l-149 -303h-297l155 303h-327l-150 -303h-295l156 303h-199l129 246h195l170 334h-199l131 247h195l156 304h272l-150 -304h338l156 304h272l-149 -304h225z" />
    <glyph glyph-name="dollar" unicode="$" horiz-adv-x="1245" 
d="M612 1214q-98 0 -157 -42t-59 -94q-1 -84 76 -126t122 -57q84 -27 180 -61q292 -104 374 -260q38 -73 38 -164q0 -162 -111 -277t-297 -149v-168h-284v170q-166 34 -280 142t-163 273l275 74q24 -104 110 -177t205 -73t180 48t62 124q0 119 -202 188q-32 11 -134 42
q-189 58 -317 150q-128 93 -128 272q0 141 109 254t283 147v168h284v-174q145 -37 250 -136q104 -100 141 -235l-274 -76q-25 102 -104 160q-81 57 -179 57z" />
    <glyph glyph-name="percent" unicode="%" horiz-adv-x="1810" 
d="M1423 176q78 0 126 64t48 157q0 94 -48 159t-126 65t-126 -65t-48 -159q0 -93 48 -157t126 -64zM1423 -16q-162 0 -264 118t-102 295q0 178 102 296t264 118q161 0 263 -118t102 -296t-101 -296q-102 -117 -264 -117zM389 813q78 0 126 65q48 66 48 158t-48 157t-126 65
t-126 -66q-48 -64 -48 -157t48 -157t126 -65zM305 0l1012 1434h186l-1009 -1434h-189zM389 623q-162 1 -264 117t-102 294t102 297t264 119t263 -118q102 -118 102 -297t-102 -295t-263 -117z" />
    <glyph glyph-name="ampersand" unicode="&#x26;" horiz-adv-x="1452" 
d="M913 502v123h-295q-126 1 -194 -53t-68 -146t74 -150t207 -59q276 0 276 285zM1440 848v-223h-256v-138q0 -229 -140 -372t-404 -143q-266 0 -414 122q-148 123 -148 324q0 125 84 215t205 106v2q-99 11 -183 93t-84 213q0 175 132 295t352 120t356 -108
q137 -108 180 -297l-239 -68q-37 119 -99 175t-174 56q-111 0 -161 -58t-50 -133q-1 -75 61 -128t179 -53h803z" />
    <glyph glyph-name="quotesingle" unicode="'" horiz-adv-x="608" 
d="M170 989v445h268v-445h-268z" />
    <glyph glyph-name="parenleft" unicode="(" horiz-adv-x="784" 
d="M78 706q0 802 586 996l73 -270q-201 -62 -287 -240t-88 -487q0 -309 88 -487t287 -241l-73 -268q-586 195 -586 997z" />
    <glyph glyph-name="parenright" unicode=")" horiz-adv-x="784" 
d="M707 706q0 -802 -586 -997l-74 268q199 63 287 241t88 486q0 310 -87 487t-288 241l74 270q586 -194 586 -996z" />
    <glyph glyph-name="asterisk" unicode="*" horiz-adv-x="1050" 
d="M434 1434h178v-226l213 70l56 -172l-215 -62l137 -182l-148 -108l-131 190l-127 -190l-149 108l137 182l-215 62l55 172l209 -70v226z" />
    <glyph glyph-name="plus" unicode="+" 
d="M1184 844v-234h-342v-354h-250v354h-344v234h342v350h250v-350h344z" />
    <glyph glyph-name="comma" unicode="," horiz-adv-x="528" 
d="M123 120q0 56 42 97t101 41q60 0 100 -44t40 -126t-60 -182t-149 -176h-107q51 34 96 114t45 133l27 9l-27 4q-41 4 -75 39t-33 91z" />
    <glyph glyph-name="hyphen" unicode="-" horiz-adv-x="1273" 
d="M170 844h934v-234h-934v234z" />
    <glyph glyph-name="period" unicode="." horiz-adv-x="528" 
d="M264 -25q-59 0 -100 41q-41 42 -41 100t41 99t99 41q59 0 101 -41t42 -99t-41 -100q-42 -41 -101 -41z" />
    <glyph glyph-name="slash" unicode="/" horiz-adv-x="1030" 
d="M12 0l733 1434h273l-709 -1434h-297z" />
    <glyph glyph-name="zero" unicode="0" horiz-adv-x="1468" 
d="M732 1182q-177 0 -267 -130t-90 -335t90 -335t267 -130t270 130t94 335q0 205 -94 335t-270 130zM733 1462q299 0 478 -214t179 -531t-178 -531q-180 -214 -479 -215q-299 0 -477 214q-178 213 -178 531t178 532t477 214z" />
    <glyph glyph-name="one" unicode="1" horiz-adv-x="921" 
d="M752 1434v-1434h-285v784l4 197l2 35h-2l-16 -21q-18 -18 -47 -50t-52 -54l-102 -103l-176 170l475 476h199z" />
    <glyph glyph-name="two" unicode="2" horiz-adv-x="1226" 
d="M1147 266v-266h-1034v233q205 176 610 529q135 115 135 239q0 89 -63 149t-167 60t-169 -61q-65 -62 -94 -150l-263 70q54 181 194 287t353 106t355 -131t143 -330q1 -125 -61 -231t-115 -152t-119 -95q-66 -47 -99 -71q-32 -24 -107 -77t-118 -84l-41 -31l2 -2h9l238 8
h411z" />
    <glyph glyph-name="three" unicode="3" horiz-adv-x="1245" 
d="M654 1462q222 0 357 -118q134 -118 134 -293q0 -133 -92 -218t-195 -90v-2q125 -2 217 -88t92 -231q0 -199 -148 -325q-149 -126 -367 -126t-377 114t-197 288l258 71q26 -98 102 -157t187 -59t179 58t68 148t-68 140q-69 50 -186 51h-122v225h122q113 0 173 48
q59 48 59 129t-60 132t-169 51q-195 0 -263 -213l-256 70q46 183 188 289t364 106z" />
    <glyph glyph-name="four" unicode="4" horiz-adv-x="1327" 
d="M811 541v239l4 183l2 71v10h-2l-20 -28q-23 -29 -60 -77t-63 -81l-176 -207q-46 -56 -95 -110v-2l109 2h301zM1247 541v-248h-168v-293h-268v293h-733v211l770 930h231v-893h168z" />
    <glyph glyph-name="five" unicode="5" horiz-adv-x="1247" 
d="M629 217q108 0 179 72q71 73 71 181t-72 178t-176 71q-178 0 -232 -127l-245 67l127 775h798v-267h-590l-16 -88q-27 -139 -36 -170q-9 -30 -9 -32l2 -3q68 63 211 64q225 0 376 -133t151 -342t-152 -350q-150 -141 -367 -141t-362 107q-145 108 -185 265l260 70
q25 -84 92 -140t175 -57z" />
    <glyph glyph-name="six" unicode="6" horiz-adv-x="1230" 
d="M639 221q121 0 197 72q76 73 76 183t-74 180q-76 70 -199 69q-123 0 -198 -70q-75 -69 -75 -181t76 -182t197 -71zM1184 457q0 -213 -158 -349t-396 -136t-394 138q-158 138 -158 365q0 147 57 271t180 288l303 400h310l-408 -539l2 -2q66 66 172 65q222 0 356 -144
t134 -357z" />
    <glyph glyph-name="seven" unicode="7" horiz-adv-x="1165" 
d="M63 1167v267h1074v-166l-711 -1268h-305l491 866q62 111 158 260l29 43l-2 2h-15l-136 -4h-583z" />
    <glyph glyph-name="eight" unicode="8" horiz-adv-x="1243" 
d="M350 410q0 -96 76 -156t198 -59q122 0 196 60q74 61 75 157q0 96 -76 154q-75 58 -197 58t-197 -58q-75 -60 -75 -156zM385 1067q0 -82 67 -132t171 -50t170 51q65 51 65 132t-66 134q-67 53 -170 53t-170 -53t-67 -135zM1165 403q-1 -186 -153 -309t-390 -123t-391 123
q-154 123 -153 309q0 141 92 239t211 120v2q-74 12 -156 100t-82 215q-1 164 135 274q136 109 344 109t344 -110t136 -273q0 -127 -83 -215t-157 -100v-2q121 -25 212 -121t91 -238z" />
    <glyph glyph-name="nine" unicode="9" horiz-adv-x="1236" 
d="M597 1210q-120 0 -197 -68q-76 -68 -76 -186t78 -184t197 -66q120 0 197 70q76 70 76 184t-77 183q-78 67 -198 67zM47 974q0 218 158 353q157 135 397 135t398 -136t159 -368q0 -274 -254 -569l-332 -389h-325l467 537l-2 2q-55 -63 -168 -64q-238 0 -368 141
q-130 140 -130 358z" />
    <glyph glyph-name="colon" unicode=":" horiz-adv-x="528" 
d="M264 -25q-59 0 -100 41q-41 42 -41 100t41 99t99 41q59 0 101 -41t42 -99t-41 -100q-42 -41 -101 -41zM264 584q-59 0 -100 41t-41 99t41 99t99 41q59 0 101 -41t42 -99t-42 -99t-100 -41z" />
    <glyph glyph-name="semicolon" unicode=";" horiz-adv-x="563" 
d="M299 256q59 0 99 -44t40 -126t-59 -182t-150 -176h-106q51 34 96 114t45 133l27 9l-27 4q-41 4 -75 39q-33 35 -33 91t42 97t101 41zM297 584q-59 0 -100 41t-41 99t41 99t99 41t100 -41t42 -99t-41 -99t-100 -41z" />
    <glyph glyph-name="less" unicode="&#x3c;" 
d="M1171 250h-331l-604 502l604 499h331l-579 -499z" />
    <glyph glyph-name="equal" unicode="=" 
d="M248 600h936v-233h-936v233zM248 1055h936v-234h-936v234z" />
    <glyph glyph-name="greater" unicode="&#x3e;" 
d="M258 250l580 502l-580 499h332l604 -499l-604 -502h-332z" />
    <glyph glyph-name="question" unicode="?" horiz-adv-x="1196" 
d="M440 0v322h287v-322h-287zM440 449v247q232 126 308 188t76 138t-53 132q-52 56 -168 56q-117 0 -183 -51t-103 -162l-239 68q45 185 188 291q144 106 366 106t355 -119t133 -306t-171 -312q-97 -71 -222 -133v-143h-287z" />
    <glyph glyph-name="at" unicode="@" horiz-adv-x="1638" 
d="M791 920q-77 0 -135 -56t-56 -162q2 -104 58 -157t130 -53t129 50q56 50 58 144v45q2 101 -53 145t-131 44zM975 1077h184v-514q0 -141 96 -141q72 0 105 83t33 206q0 258 -163 427t-412 169q-248 0 -410 -169t-162 -426t162 -426t409 -169q117 -1 202 25t120 51t37 24
l127 -63q-1 -19 -59 -59q-58 -41 -111 -65q-124 -57 -316 -59q-319 0 -529 211t-210 533q0 323 209 535t531 212t532 -213q211 -213 211 -538q0 -239 -140 -361q-78 -68 -175 -68t-162 50q-65 49 -78 123l-2 2q-25 -63 -99 -113t-153 -51q-164 0 -265 111q-100 112 -100 295
q1 183 105 298t274 115q84 0 139 -40t68 -71h2v76z" />
    <glyph glyph-name="A" unicode="A" horiz-adv-x="1472" 
d="M524 526h424l-141 363q-12 35 -30 85q-17 50 -27 83l-13 30h-2l-10 -30q-24 -67 -59 -168zM1153 0l-106 274h-621l-107 -274h-307l590 1434h268l590 -1434h-307z" />
    <glyph glyph-name="B" unicode="B" horiz-adv-x="1343" 
d="M455 242h290q102 0 165 55q62 55 63 145q0 90 -66 146t-164 55h-288v-401zM455 862h252q86 0 142 48t56 119t-55 117t-143 46h-252v-330zM170 1434h594q188 0 308 -106t120 -265q0 -98 -62 -180t-137 -105v-2q107 -25 193 -125t86 -221q0 -190 -128 -310t-372 -120h-602
v1434z" />
    <glyph glyph-name="C" unicode="C" horiz-adv-x="1548" 
d="M821 1182q-201 0 -323 -130t-123 -336q0 -206 126 -333t320 -127q121 0 227 58t160 153l287 -76q-90 -193 -270 -307t-404 -113q-311 0 -527 212t-216 534q0 321 216 533t527 212q209 0 383 -102t269 -277l-291 -75q-58 80 -156 127t-205 47z" />
    <glyph glyph-name="D" unicode="D" horiz-adv-x="1607" 
d="M455 266h338q186 0 314 121t128 324t-130 329t-317 127h-333v-901zM170 1434h618q314 0 528 -203t214 -519t-213 -514t-524 -198h-623v1434z" />
    <glyph glyph-name="E" unicode="E" horiz-adv-x="1335" 
d="M455 266h741v-266h-1026v1434h1014v-267h-729v-305h575v-250h-575v-346z" />
    <glyph glyph-name="F" unicode="F" horiz-adv-x="1234" 
d="M1163 1167h-708v-350h555v-256h-555v-561h-285v1434h993v-267z" />
    <glyph glyph-name="G" unicode="G" horiz-adv-x="1624" 
d="M1257 150h-2q-63 -72 -183 -125t-251 -54q-311 0 -527 212t-216 534q0 321 216 533t527 212q211 -2 382 -103t270 -276l-291 -75q-58 80 -156 127t-205 47q-201 0 -323 -130t-123 -338q0 -208 130 -336q129 -128 315 -128t291 74t146 172v61h-397v231h641v-788h-246v91
l2 34v25z" />
    <glyph glyph-name="H" unicode="H" horiz-adv-x="1529" 
d="M1075 1434h285v-1434h-285v592h-620v-592h-285v1434h285v-574h620v574z" />
    <glyph glyph-name="I" unicode="I" horiz-adv-x="624" 
d="M455 0h-285v1434h285v-1434z" />
    <glyph glyph-name="J" unicode="J" horiz-adv-x="1374" 
d="M950 1434h285v-811q0 -309 -170 -481t-461 -171q-202 1 -360 103t-221 264l280 76q41 -84 119 -130t182 -46q164 0 255 99t91 273v824z" />
    <glyph glyph-name="K" unicode="K" horiz-adv-x="1470" 
d="M453 829h2l20 23q23 23 75 77t109 111l394 394h350l-600 -603l618 -831h-338l-469 643l-159 -160v-483h-285v1434h285v-283l-2 -291v-31z" />
    <glyph glyph-name="L" unicode="L" horiz-adv-x="1204" 
d="M455 266h708v-266h-993v1434h285v-1168z" />
    <glyph glyph-name="M" unicode="M" horiz-adv-x="1736" 
d="M1286 449q0 212 8 448v59h-2l-26 -43q-27 -45 -59 -101t-42 -73l-223 -385h-147l-224 385q-35 56 -102 172l-27 45h-2l2 -59q7 -212 9 -448v-449h-281v1434h268l297 -492q95 -156 131 -227h2l50 90q33 57 81 137l299 492h269v-1434h-281v449z" />
    <glyph glyph-name="N" unicode="N" horiz-adv-x="1589" 
d="M1135 1434h284v-1434h-268l-408 553q-55 76 -129 178t-116 162l-43 61h-2v-64l2 -427v-463h-285v1434h268l416 -560q123 -157 231 -317l50 -68h2v70l-2 406v469z" />
    <glyph glyph-name="O" unicode="O" horiz-adv-x="1644" 
d="M822 1182q-198 0 -322 -129t-125 -335q0 -206 125 -336q124 -130 322 -130t323 130t125 336t-125 335t-323 129zM78 717q0 321 216 533t528 212t528 -212t217 -534q0 -322 -216 -533q-217 -212 -529 -212t-528 212t-216 534z" />
    <glyph glyph-name="P" unicode="P" horiz-adv-x="1296" 
d="M455 739h221q124 -1 194 57t70 158t-71 156t-193 57h-221v-428zM170 1434h512q258 0 405 -128t147 -352t-146 -353q-148 -128 -406 -128h-227v-473h-285v1434z" />
    <glyph glyph-name="Q" unicode="Q" horiz-adv-x="1644" 
d="M822 1182q-198 0 -322 -129t-125 -335q1 -206 125 -336t322 -130t323 130t125 336t-125 335t-323 129zM676 -270v256q-260 49 -429 250t-169 481q0 321 216 533t528 212t528 -212t217 -533q0 -283 -171 -485t-435 -248v-254h-285z" />
    <glyph glyph-name="R" unicode="R" horiz-adv-x="1363" 
d="M455 1167v-424h254q113 -1 172 61t59 151t-60 151t-171 61h-254zM455 489v-489h-285v1434h502q262 0 412 -130t151 -350q0 -301 -270 -411l327 -543h-319l-285 489h-233z" />
    <glyph glyph-name="S" unicode="S" horiz-adv-x="1245" 
d="M612 1214q-98 0 -157 -42t-59 -94q-1 -84 76 -126t122 -57q84 -27 180 -61q292 -104 374 -260q38 -73 38 -164q0 -193 -153 -316t-385 -123t-385 116t-212 314l275 74q24 -104 110 -177t205 -73t180 48t62 124q0 119 -202 188q-32 11 -134 42q-189 58 -317 150
q-128 93 -128 267t151 296t362 122t359 -108t195 -281l-274 -76q-25 102 -104 160q-81 57 -179 57z" />
    <glyph glyph-name="T" unicode="T" horiz-adv-x="1239" 
d="M29 1434h1181v-267h-450v-1167h-285v1167h-446v267z" />
    <glyph glyph-name="U" unicode="U" horiz-adv-x="1515" 
d="M1090 1434h286v-811q0 -311 -166 -481t-454 -171q-288 0 -452 170q-165 170 -165 482v811h285v-807q0 -389 333 -389t333 389v807z" />
    <glyph glyph-name="V" unicode="V" horiz-adv-x="1472" 
d="M1147 1434h311l-571 -1434h-303l-572 1434h312l329 -869q21 -59 41 -124t31 -93l10 -31h2l8 31q10 29 31 92q20 63 43 125z" />
    <glyph glyph-name="W" unicode="W" horiz-adv-x="2103" 
d="M1757 1434h301l-450 -1434h-265l-221 692q-44 139 -63 226l-6 28h-2l-7 -28q-26 -115 -61 -226l-221 -692h-266l-451 1434h303l225 -775q15 -55 29 -113t21 -83l8 -27h2l6 27q31 106 63 196l218 621h264l217 -621q48 -136 61 -196l8 -27h3l6 27q8 25 22 83t31 113z" />
    <glyph glyph-name="X" unicode="X" horiz-adv-x="1396" 
d="M700 496h-2l-20 -33q-20 -35 -47 -78t-37 -59l-229 -326h-340l501 735l-473 699h342l221 -330q9 -16 66 -113l16 -26h2l17 26q14 29 35 64l28 49l221 330h345l-476 -699l502 -735h-340l-229 326q-43 69 -82 137z" />
    <glyph glyph-name="Y" unicode="Y" horiz-adv-x="1435" 
d="M858 0h-283v657l-550 777h319l295 -412q72 -106 78 -107h2q6 0 78 107l293 412h321l-553 -777v-657z" />
    <glyph glyph-name="Z" unicode="Z" horiz-adv-x="1443" 
d="M143 1167v267h1178v-267l-688 -774q-27 -29 -59 -63l-48 -51l-16 -17l2 -2h6l40 2l115 4h648v-266h-1198v266l711 785q26 29 104 100l20 18l-2 2h-14l-139 -4h-660z" />
    <glyph glyph-name="bracketleft" unicode="[" horiz-adv-x="763" 
d="M457 1487v-1530h274v-268h-561v2064h561v-266h-274z" />
    <glyph glyph-name="backslash" unicode="\" horiz-adv-x="1030" 
d="M1018 0h-295l-711 1434h273z" />
    <glyph glyph-name="bracketright" unicode="]" horiz-adv-x="770" 
d="M313 1487h-274v266h561v-2064h-561v268h274v1530z" />
    <glyph glyph-name="asciicircum" unicode="^" horiz-adv-x="1298" 
d="M1128 977l-124 -113l-355 363l-352 -363l-127 113l479 481z" />
    <glyph glyph-name="underscore" unicode="_" horiz-adv-x="1589" 
d="M170 0h1249v-225h-1249v225z" />
    <glyph glyph-name="grave" unicode="`" horiz-adv-x="647" 
d="M500 1497l-488 211l99 195l473 -254z" />
    <glyph glyph-name="a" unicode="a" horiz-adv-x="1472" 
d="M524 526h424l-141 363q-12 35 -30 85q-17 50 -27 83l-13 30h-2l-10 -30q-24 -67 -59 -168zM1153 0l-106 274h-621l-107 -274h-307l590 1434h268l590 -1434h-307z" />
    <glyph glyph-name="b" unicode="b" horiz-adv-x="1343" 
d="M455 242h290q102 0 165 55q62 55 63 145q0 90 -66 146t-164 55h-288v-401zM455 862h252q86 0 142 48t56 119t-55 117t-143 46h-252v-330zM170 1434h594q188 0 308 -106t120 -265q0 -98 -62 -180t-137 -105v-2q107 -25 193 -125t86 -221q0 -190 -128 -310t-372 -120h-602
v1434z" />
    <glyph glyph-name="c" unicode="c" horiz-adv-x="1548" 
d="M821 1182q-201 0 -323 -130t-123 -336q0 -206 126 -333t320 -127q121 0 227 58t160 153l287 -76q-90 -193 -270 -307t-404 -113q-311 0 -527 212t-216 534q0 321 216 533t527 212q209 0 383 -102t269 -277l-291 -75q-58 80 -156 127t-205 47z" />
    <glyph glyph-name="d" unicode="d" horiz-adv-x="1607" 
d="M455 266h338q186 0 314 121t128 324t-130 329t-317 127h-333v-901zM170 1434h618q314 0 528 -203t214 -519t-213 -514t-524 -198h-623v1434z" />
    <glyph glyph-name="e" unicode="e" horiz-adv-x="1335" 
d="M455 266h741v-266h-1026v1434h1014v-267h-729v-305h575v-250h-575v-346z" />
    <glyph glyph-name="f" unicode="f" horiz-adv-x="1234" 
d="M1163 1167h-708v-350h555v-256h-555v-561h-285v1434h993v-267z" />
    <glyph glyph-name="g" unicode="g" horiz-adv-x="1624" 
d="M1257 150h-2q-63 -72 -183 -125t-251 -54q-311 0 -527 212t-216 534q0 321 216 533t527 212q211 -2 382 -103t270 -276l-291 -75q-58 80 -156 127t-205 47q-201 0 -323 -130t-123 -338q0 -208 130 -336q129 -128 315 -128t291 74t146 172v61h-397v231h641v-788h-246v91
l2 34v25z" />
    <glyph glyph-name="h" unicode="h" horiz-adv-x="1529" 
d="M1075 1434h285v-1434h-285v592h-620v-592h-285v1434h285v-574h620v574z" />
    <glyph glyph-name="i" unicode="i" horiz-adv-x="624" 
d="M455 0h-285v1434h285v-1434z" />
    <glyph glyph-name="j" unicode="j" horiz-adv-x="1374" 
d="M950 1434h285v-811q0 -309 -170 -481t-461 -171q-202 1 -360 103t-221 264l280 76q41 -84 119 -130t182 -46q164 0 255 99t91 273v824z" />
    <glyph glyph-name="k" unicode="k" horiz-adv-x="1470" 
d="M453 829h2l20 23q23 23 75 77t109 111l394 394h350l-600 -603l618 -831h-338l-469 643l-159 -160v-483h-285v1434h285v-283l-2 -291v-31z" />
    <glyph glyph-name="l" unicode="l" horiz-adv-x="1204" 
d="M455 266h708v-266h-993v1434h285v-1168z" />
    <glyph glyph-name="m" unicode="m" horiz-adv-x="1736" 
d="M1286 449q0 212 8 448v59h-2l-26 -43q-27 -45 -59 -101t-42 -73l-223 -385h-147l-224 385q-35 56 -102 172l-27 45h-2l2 -59q7 -212 9 -448v-449h-281v1434h268l297 -492q95 -156 131 -227h2l50 90q33 57 81 137l299 492h269v-1434h-281v449z" />
    <glyph glyph-name="n" unicode="n" horiz-adv-x="1589" 
d="M1135 1434h284v-1434h-268l-408 553q-55 76 -129 178t-116 162l-43 61h-2v-64l2 -427v-463h-285v1434h268l416 -560q123 -157 231 -317l50 -68h2v70l-2 406v469z" />
    <glyph glyph-name="o" unicode="o" horiz-adv-x="1644" 
d="M822 1182q-198 0 -322 -129t-125 -335q0 -206 125 -336q124 -130 322 -130t323 130t125 336t-125 335t-323 129zM78 717q0 321 216 533t528 212t528 -212t217 -534q0 -322 -216 -533q-217 -212 -529 -212t-528 212t-216 534z" />
    <glyph glyph-name="p" unicode="p" horiz-adv-x="1296" 
d="M455 739h221q124 -1 194 57t70 158t-71 156t-193 57h-221v-428zM170 1434h512q258 0 405 -128t147 -352t-146 -353q-148 -128 -406 -128h-227v-473h-285v1434z" />
    <glyph glyph-name="q" unicode="q" horiz-adv-x="1644" 
d="M822 1182q-198 0 -322 -129t-125 -335q1 -206 125 -336t322 -130t323 130t125 336t-125 335t-323 129zM676 -270v256q-260 49 -429 250t-169 481q0 321 216 533t528 212t528 -212t217 -533q0 -283 -171 -485t-435 -248v-254h-285z" />
    <glyph glyph-name="r" unicode="r" horiz-adv-x="1363" 
d="M455 1167v-424h254q113 -1 172 61t59 151t-60 151t-171 61h-254zM455 489v-489h-285v1434h502q262 0 412 -130t151 -350q0 -301 -270 -411l327 -543h-319l-285 489h-233z" />
    <glyph glyph-name="s" unicode="s" horiz-adv-x="1245" 
d="M612 1214q-98 0 -157 -42t-59 -94q-1 -84 76 -126t122 -57q84 -27 180 -61q292 -104 374 -260q38 -73 38 -164q0 -193 -153 -316t-385 -123t-385 116t-212 314l275 74q24 -104 110 -177t205 -73t180 48t62 124q0 119 -202 188q-32 11 -134 42q-189 58 -317 150
q-128 93 -128 267t151 296t362 122t359 -108t195 -281l-274 -76q-25 102 -104 160q-81 57 -179 57z" />
    <glyph glyph-name="t" unicode="t" horiz-adv-x="1239" 
d="M29 1434h1181v-267h-450v-1167h-285v1167h-446v267z" />
    <glyph glyph-name="u" unicode="u" horiz-adv-x="1515" 
d="M1090 1434h286v-811q0 -311 -166 -481t-454 -171q-288 0 -452 170q-165 170 -165 482v811h285v-807q0 -389 333 -389t333 389v807z" />
    <glyph glyph-name="v" unicode="v" horiz-adv-x="1472" 
d="M1147 1434h311l-571 -1434h-303l-572 1434h312l329 -869q21 -59 41 -124t31 -93l10 -31h2l8 31q10 29 31 92q20 63 43 125z" />
    <glyph glyph-name="w" unicode="w" horiz-adv-x="2103" 
d="M1757 1434h301l-450 -1434h-265l-221 692q-44 139 -63 226l-6 28h-2l-7 -28q-26 -115 -61 -226l-221 -692h-266l-451 1434h303l225 -775q15 -55 29 -113t21 -83l8 -27h2l6 27q31 106 63 196l218 621h264l217 -621q48 -136 61 -196l8 -27h3l6 27q8 25 22 83t31 113z" />
    <glyph glyph-name="x" unicode="x" horiz-adv-x="1396" 
d="M700 496h-2l-20 -33q-20 -35 -47 -78t-37 -59l-229 -326h-340l501 735l-473 699h342l221 -330q9 -16 66 -113l16 -26h2l17 26q14 29 35 64l28 49l221 330h345l-476 -699l502 -735h-340l-229 326q-43 69 -82 137z" />
    <glyph glyph-name="y" unicode="y" horiz-adv-x="1435" 
d="M858 0h-283v657l-550 777h319l295 -412q72 -106 78 -107h2q6 0 78 107l293 412h321l-553 -777v-657z" />
    <glyph glyph-name="z" unicode="z" horiz-adv-x="1443" 
d="M143 1167v267h1178v-267l-688 -774q-27 -29 -59 -63l-48 -51l-16 -17l2 -2h6l40 2l115 4h648v-266h-1198v266l711 785q26 29 104 100l20 18l-2 2h-14l-139 -4h-660z" />
    <glyph glyph-name="braceleft" unicode="{" horiz-adv-x="886" 
d="M588 1210v-161q0 -209 -67 -291q-27 -37 -44 -37q15 0 38 -31q73 -99 73 -299v-160q0 -184 75 -247t199 -64v-266q-270 0 -415 142q-144 142 -144 392v218q0 200 -86 282q-23 22 -47 33q17 6 44 30q89 82 89 285v217q0 251 144 393t415 142v-266q-126 0 -200 -64
t-74 -248z" />
    <glyph glyph-name="bar" unicode="|" horiz-adv-x="567" 
d="M397 -152h-227v1739h227v-1739z" />
    <glyph glyph-name="braceright" unicode="}" horiz-adv-x="886" 
d="M299 1210q0 184 -75 248t-199 64v266q270 0 414 -142t145 -393v-217q0 -207 87 -283q30 -27 46 -32q-133 -66 -133 -315v-218q0 -250 -144 -392t-415 -142v266q125 0 199 64t75 247v160q0 209 67 291q29 39 44 39q-17 0 -39 30q-72 98 -72 298v161z" />
    <glyph glyph-name="asciitilde" unicode="~" 
d="M522 670q-60 0 -93 -37q-32 -37 -34 -88l-235 61q20 137 118 206t208 69t247 -68t195 -68t92 38q33 38 33 89l237 -63q-18 -137 -116 -206t-208 -69t-247 68t-197 68z" />
    <glyph glyph-name="exclamdown" unicode="&#xa1;" horiz-adv-x="624" 
d="M170 985h285v-985h-285v985zM170 1434h285v-322h-285v322z" />
    <glyph glyph-name="cent" unicode="&#xa2;" horiz-adv-x="1181" 
d="M733 -29h-229v203q-184 41 -305 188q-121 148 -121 348t121 347t305 188v217h229v-215q125 -27 226 -105t155 -190l-250 -65q-84 125 -227 125t-220 -81t-77 -220t77 -221t206 -82q180 -1 258 157l247 -69q-49 -125 -154 -210t-241 -114v-201z" />
    <glyph glyph-name="sterling" unicode="&#xa3;" horiz-adv-x="1335" 
d="M1253 266v-266h-1083v266q94 18 123 78t16 186l-6 60h-129v225h109l-17 184q-18 187 122 323t352 140t380 -159q96 -94 131 -238l-241 -68q-70 223 -269 213q-94 -4 -147 -72t-43 -165l14 -158h418v-225h-395l4 -51q20 -209 -80 -279l2 -2h10l255 8h474z" />
    <glyph glyph-name="currency" unicode="&#xa4;" horiz-adv-x="1361" 
d="M680 999q-125 0 -211 -86t-86 -216t86 -215t212 -85t212 85t86 215t-87 216t-212 86zM1233 694q0 -172 -98 -313l139 -141l-141 -142l-142 142q-143 -100 -313 -100t-309 100l-142 -142l-139 142l137 139q-98 143 -98 315t98 314l-141 139l141 141l142 -141
q139 100 311 100t315 -100l144 141l139 -141l-141 -141q98 -140 98 -312z" />
    <glyph glyph-name="yen" unicode="&#xa5;" horiz-adv-x="1433" 
d="M1270 936v-186h-346l-47 -68h393v-188h-412v-494h-283v494h-405v188h387l-47 68h-340v186h207l-352 498h319l295 -412q72 -106 78 -107h2q6 0 78 107l293 412h321l-354 -498h213z" />
    <glyph glyph-name="brokenbar" unicode="&#xa6;" horiz-adv-x="567" 
d="M170 442h227v-594h-227v594zM170 1587h227v-573h-227v573z" />
    <glyph glyph-name="section" unicode="&#xa7;" horiz-adv-x="1087" 
d="M776 721q0 36 -15 53q-15 16 -25 26q-35 35 -116 51q-82 16 -126 30q-68 -8 -116 -42t-48 -88t65 -82q75 -30 144 -46t98 -25q139 25 139 123zM538 1286q-82 0 -132 -29t-50 -63t16 -58q24 -34 210 -81t312 -120q124 -74 124 -202q0 -152 -180 -207q188 -90 188 -235
t-130 -233t-332 -89q-202 0 -332 81t-181 220l232 62q25 -76 97 -127t175 -51q102 0 157 33q54 34 54 82t-28 70q-28 23 -59 38q-30 15 -173 55q-143 39 -194 59q-50 21 -107 54q-115 67 -115 202t178 207q-162 78 -162 222q0 120 126 204t304 84t301 -74q124 -74 167 -190
l-232 -61q-18 71 -85 109t-149 38z" />
    <glyph glyph-name="dieresis" unicode="&#xa8;" horiz-adv-x="878" 
d="M676 1571q-57 0 -96 38t-39 94t39 95t96 39t96 -39t39 -95t-39 -94t-96 -38zM146 1837q56 0 96 -39t39 -95q1 -56 -39 -94t-96 -38t-95 38t-39 94t39 95t95 39z" />
    <glyph glyph-name="copyright" unicode="&#xa9;" horiz-adv-x="1644" 
d="M825 365q-145 0 -247 101t-103 251q1 150 103 251t247 101q101 0 189 -54t129 -143l-164 -43q-51 78 -143 78t-142 -51q-49 -51 -49 -138t49 -138t131 -52q117 1 162 99l164 -45q-37 -96 -127 -156t-199 -61zM821 1266q-231 0 -382 -154t-151 -394t152 -394
q150 -152 381 -152t382 153t151 393t-151 394t-382 154zM78 717q0 321 216 533t528 212t528 -212t217 -534q0 -322 -216 -533q-217 -212 -529 -212t-528 212t-216 534z" />
    <glyph glyph-name="ordfeminine" unicode="&#xaa;" horiz-adv-x="743" 
d="M41 639h661v-174h-661v174zM373 1286h-2l-6 -22q-14 -83 -35 -150l-29 -90h139l-28 90q-20 67 -35 150zM258 893l-41 -125h-174l248 682h160l249 -682h-178l-39 125h-225z" />
    <glyph glyph-name="guillemotleft" unicode="&#xab;" horiz-adv-x="1595" 
d="M1270 1200l153 -156l-336 -323l338 -324l-157 -157l-482 481zM653 1200l154 -156l-336 -323l338 -324l-158 -157l-481 481z" />
    <glyph glyph-name="softhyphen" unicode="&#xad;" horiz-adv-x="1273" 
d="M170 844h934v-234h-934v234z" />
    <glyph glyph-name="registered" unicode="&#xae;" horiz-adv-x="1644" 
d="M737 922v-179h107q46 0 72 25t26 65q0 41 -26 65t-72 24h-107zM580 1067h245q127 0 200 -62t73 -167q0 -143 -127 -197l164 -270h-170l-138 243h-90v-243h-157v696zM821 172q231 0 382 153t151 393t-151 394t-382 154t-382 -154t-151 -394t152 -394q150 -152 381 -152z
M78 717q0 321 216 533t528 212t528 -212t217 -534q0 -322 -216 -533q-217 -212 -529 -212t-528 212t-216 534z" />
    <glyph glyph-name="macron" unicode="&#xaf;" horiz-adv-x="704" 
d="M-20 1602h694v-222h-694v222z" />
    <glyph glyph-name="degree" unicode="&#xb0;" horiz-adv-x="659" 
d="M219 1458q0 -48 34 -80t80 -32t80 32q33 32 33 80q0 47 -33 80q-34 33 -81 33t-80 -33t-33 -80zM332 1176q-115 0 -199 82t-84 197q0 114 84 197t199 83q114 0 196 -83t82 -198q0 -114 -82 -196t-196 -82z" />
    <glyph glyph-name="plusminus" unicode="&#xb1;" 
d="M248 -18v233h936v-233h-936zM840 844h344v-234h-342v-239h-250v239h-344v234h342v350h250v-350z" />
    <glyph glyph-name="twosuperior" unicode="&#xb2;" horiz-adv-x="688" 
d="M502 1133h133v-162h-586v123l277 231q46 39 68 61q61 61 62 114q1 54 -31 83t-86 29q-93 0 -134 -131l-164 43q25 110 109 184t204 74t202 -78q83 -78 83 -200t-129 -230q-86 -72 -140 -105l-83 -49l2 -2h12q90 15 201 15z" />
    <glyph glyph-name="threesuperior" unicode="&#xb3;" horiz-adv-x="704" 
d="M643 1562q0 -86 -53 -132t-113 -50v-2q72 -4 125 -48t53 -122q0 -110 -84 -182t-207 -72q-124 0 -214 67t-109 169l160 43q20 -121 157 -121q55 0 88 29t33 73t-36 71q-36 28 -91 28h-76v131h76q49 0 82 28t33 64q0 38 -31 64t-80 26q-114 0 -145 -119l-158 43
q23 104 105 168t206 64t202 -67q77 -67 77 -153z" />
    <glyph glyph-name="acute" unicode="&#xb4;" horiz-adv-x="647" 
d="M485 1903l99 -195l-490 -211l-82 152z" />
    <glyph glyph-name="paragraph" unicode="&#xb6;" horiz-adv-x="1566" 
d="M578 1434h817v-1434h-285v1165h-172v-1165h-268v612h-92q-236 0 -368 109t-132 303t132 302t368 108z" />
    <glyph glyph-name="periodcentered" unicode="&#xb7;" horiz-adv-x="528" 
d="M264 584q-59 0 -100 41t-41 99t41 99t99 41q59 0 101 -41t42 -99t-42 -99t-100 -41z" />
    <glyph glyph-name="cedilla" unicode="&#xb8;" horiz-adv-x="532" 
d="M467 -324q0 -102 -67 -156t-169 -55h-219l60 152h159q78 0 78 64q0 27 -21 44q-22 17 -57 19h-190l88 256h160l-41 -111q90 2 154 -55q64 -56 65 -158z" />
    <glyph glyph-name="onesuperior" unicode="&#xb9;" horiz-adv-x="514" 
d="M446 1765v-794h-186v401q0 53 5 95t5 53l2 10h-2q-2 0 -23 -29t-48 -51l-60 -57l-116 104l292 268h131z" />
    <glyph glyph-name="ordmasculine" unicode="&#xba;" horiz-adv-x="745" 
d="M41 639h664v-174h-664v174zM195 1107q0 -81 50 -133t128 -52t128 52t50 133t-50 133t-128 52t-128 -52t-50 -133zM20 1106q0 152 102 253t250 101t250 -101t103 -253q0 -152 -102 -252t-251 -100q-148 0 -250 100t-102 252z" />
    <glyph glyph-name="guillemotright" unicode="&#xbb;" horiz-adv-x="1595" 
d="M942 1200l483 -479l-481 -481l-158 157l338 324l-336 323zM326 1200l483 -479l-481 -481l-158 157l338 324l-336 323z" />
    <glyph glyph-name="onequarter" unicode="&#xbc;" horiz-adv-x="1476" 
d="M1171 305v164l5 72v6h-2q-9 -10 -28 -37q-19 -26 -34 -41l-96 -113q-12 -14 -22 -23t-33 -32l2 -2h6q12 4 37 4l59 2h106zM1427 307v-153h-90v-154h-166v154h-397v127l422 514h141v-488h90zM1139 1434h188l-1012 -1434h-186zM446 1434v-795h-186v401q0 53 5 95t5 53l2 10
h-2q-2 0 -24 -30t-47 -50l-60 -57l-116 104l292 269h131z" />
    <glyph glyph-name="onehalf" unicode="&#xbd;" horiz-adv-x="1544" 
d="M1358 162h133v-162h-586v123l277 231q46 39 68 61q61 62 62 116q1 53 -31 81t-86 29q-93 0 -134 -131l-164 43q25 109 109 183t204 75q120 0 202 -78q83 -77 83 -199t-129 -231q-86 -72 -140 -105q-55 -32 -83 -48l2 -3h12q90 15 201 15zM129 0l1010 1434h188
l-1012 -1434h-186zM446 1434v-795h-186v401q0 53 5 95t5 53l2 10h-2q-2 0 -23 -29t-48 -51l-60 -57l-116 104l292 269h131z" />
    <glyph glyph-name="threequarters" unicode="&#xbe;" horiz-adv-x="1609" 
d="M1305 305v164l4 72v6h-2l-33 -44q-14 -19 -29 -34l-96 -113q-13 -14 -27 -27t-20 -22l-8 -6l2 -2h6q12 4 37 4l59 2h107zM1561 307v-153h-91v-154h-165v154h-398v127l422 514h141v-488h91zM1272 1434h188l-1011 -1434h-189zM655 877q0 -111 -84 -183t-207 -72
q-124 0 -214 68q-90 66 -109 168l160 43q20 -121 157 -121q55 0 88 29t33 73t-36 72t-91 27h-76v131h76q49 0 82 28t33 64t-31 64q-31 27 -80 26q-115 0 -145 -118l-158 43q23 104 105 167q82 64 206 64t202 -67q77 -67 77 -153q1 -86 -53 -132q-54 -47 -113 -49v-2
q72 -5 125 -49t53 -121z" />
    <glyph glyph-name="questiondown" unicode="&#xbf;" horiz-adv-x="1196" 
d="M756 985v-248q-231 -125 -307 -187t-76 -138t52 -132t168 -56q117 0 183 50q66 51 103 162l239 -67q-45 -185 -188 -291q-144 -106 -366 -106t-355 118q-133 119 -133 307t171 312q90 65 222 133v143h287zM756 1434v-322h-287v322h287z" />
    <glyph glyph-name="Agrave" unicode="&#xc0;" horiz-adv-x="1472" 
d="M524 526h424l-141 363q-12 35 -30 85q-17 50 -27 83l-13 30h-2l-10 -30q-24 -67 -59 -168zM1153 0l-106 274h-621l-107 -274h-307l590 1434h268l590 -1434h-307zM928 1649l-82 -152l-490 211l101 195z" />
    <glyph glyph-name="Aacute" unicode="&#xc1;" horiz-adv-x="1472" 
d="M524 526h424l-141 363q-12 35 -30 85q-17 50 -27 83l-13 30h-2l-10 -30q-24 -67 -59 -168zM1153 0l-106 274h-621l-107 -274h-307l590 1434h268l590 -1434h-307zM1069 1708l-487 -211l-84 152l473 254z" />
    <glyph glyph-name="Acircumflex" unicode="&#xc2;" horiz-adv-x="1472" 
d="M524 526h424l-141 363q-12 35 -30 85q-17 50 -27 83l-13 30h-2l-10 -30q-24 -67 -59 -168zM1153 0l-106 274h-621l-107 -274h-307l590 1434h268l590 -1434h-307zM729 1700l-244 -203l-139 141l383 326l381 -326l-137 -141z" />
    <glyph glyph-name="Atilde" unicode="&#xc3;" horiz-adv-x="1472" 
d="M524 526h424l-141 363q-12 35 -30 85q-17 50 -27 83l-13 30h-2l-10 -30q-24 -67 -59 -168zM1153 0l-106 274h-621l-107 -274h-307l590 1434h268l590 -1434h-307zM969 1810h223q0 -122 -82 -202t-209 -80q-78 0 -172 61t-134 61t-67 -25q-27 -26 -26 -64h-223
q1 123 83 203t207 81q63 1 121 -31t102 -63q46 -31 84 -31t66 26q27 26 27 64z" />
    <glyph glyph-name="Adieresis" unicode="&#xc4;" horiz-adv-x="1472" 
d="M524 526h424l-141 363q-12 35 -30 85q-17 50 -27 83l-13 30h-2l-10 -30q-24 -67 -59 -168zM1153 0l-106 274h-621l-107 -274h-307l590 1434h268l590 -1434h-307zM992 1571q-56 0 -95 38t-39 94t39 95t95 39t95 -39t39 -95t-39 -94t-95 -38zM463 1571q-57 0 -96 38t-39 94
t40 95t96 39t95 -39t39 -95t-39 -94t-96 -38z" />
    <glyph glyph-name="Aring" unicode="&#xc5;" horiz-adv-x="1472" 
d="M524 526h424l-141 363q-12 35 -30 85q-17 50 -27 83l-13 30h-2l-10 -30q-24 -67 -59 -168zM736 1792q-46 0 -80 -34t-34 -81t34 -80t80 -33t80 34q34 32 34 79t-34 81t-80 34zM455 1675q0 115 83 197q84 82 198 82t197 -82t83 -197q0 -75 -40 -141t-104 -102l588 -1432
h-307l-106 274h-621l-107 -274h-307l588 1430q-66 36 -106 102t-39 143z" />
    <glyph glyph-name="AE" unicode="&#xc6;" horiz-adv-x="2074" 
d="M918 526v641h-146l-18 -47q-16 -47 -46 -127t-46 -123l-134 -344h390zM1196 266h739v-266h-1017v274h-488l-108 -274h-310l596 1434h1315v-267h-727v-305h576v-250h-576v-346z" />
    <glyph glyph-name="Ccedilla" unicode="&#xc7;" horiz-adv-x="1548" 
d="M831 -383q78 0 78 64q0 59 -78 63h-188l80 233q-279 35 -462 241t-183 514t216 518q216 212 527 212q209 0 382 -102t270 -277l-291 -75q-58 80 -156 127t-205 47q-201 0 -323 -130t-123 -336q0 -206 126 -333t320 -127q121 0 227 58t160 153l287 -76q-84 -178 -247 -291
t-367 -127l-31 -84q90 2 155 -55q65 -56 65 -158t-68 -156q-67 -54 -171 -55h-217l60 152h157z" />
    <glyph glyph-name="Egrave" unicode="&#xc8;" horiz-adv-x="1335" 
d="M455 266h741v-266h-1026v1434h1014v-267h-729v-305h575v-250h-575v-346zM895 1649l-82 -152l-489 211l100 195z" />
    <glyph glyph-name="Eacute" unicode="&#xc9;" horiz-adv-x="1335" 
d="M455 266h741v-266h-1026v1434h1014v-267h-729v-305h575v-250h-575v-346zM1036 1708l-487 -211l-84 152l473 254z" />
    <glyph glyph-name="Ecircumflex" unicode="&#xca;" horiz-adv-x="1335" 
d="M455 266h741v-266h-1026v1434h1014v-267h-729v-305h575v-250h-575v-346zM696 1700l-243 -203l-140 141l383 326l381 -326l-137 -141z" />
    <glyph glyph-name="Edieresis" unicode="&#xcb;" horiz-adv-x="1335" 
d="M455 266h741v-266h-1026v1434h1014v-267h-729v-305h575v-250h-575v-346zM960 1571q-56 0 -96 38q-39 38 -39 94t39 95q40 39 96 39t95 -39t39 -95t-39 -94t-95 -38zM430 1571q-57 0 -96 38t-39 94t40 95t96 39t95 -39t39 -95t-39 -94t-96 -38z" />
    <glyph glyph-name="Igrave" unicode="&#xcc;" horiz-adv-x="624" 
d="M455 0h-285v1434h285v-1434zM424 1497l-490 211l101 195l471 -254z" />
    <glyph glyph-name="Iacute" unicode="&#xcd;" horiz-adv-x="624" 
d="M455 0h-285v1434h285v-1434zM549 1903l98 -195l-487 -211l-84 152z" />
    <glyph glyph-name="Icircumflex" unicode="&#xce;" horiz-adv-x="624" 
d="M455 0h-285v1434h285v-1434zM-76 1638l383 326l381 -326l-137 -141l-244 203l-244 -203z" />
    <glyph glyph-name="Idieresis" unicode="&#xcf;" horiz-adv-x="624" 
d="M455 0h-285v1434h285v-1434zM570 1837q56 0 96 -39t39 -95q1 -56 -39 -94t-96 -38t-95 38t-39 94t39 95t95 39zM41 1571q-57 0 -96 38t-39 94t40 95t96 39t95 -39t39 -95t-39 -94t-96 -38z" />
    <glyph glyph-name="Eth" unicode="&#xd0;" horiz-adv-x="1630" 
d="M477 266h338q186 0 314 121t128 324t-130 329t-316 127h-334v-313h268v-256h-268v-332zM193 1434h618q313 0 527 -203t214 -519t-213 -514t-524 -198h-622v598h-115v256h115v580z" />
    <glyph glyph-name="Ntilde" unicode="&#xd1;" horiz-adv-x="1589" 
d="M1135 1434h284v-1434h-268l-408 553q-55 76 -129 178t-116 162l-43 61h-2v-64l2 -427v-463h-285v1434h268l416 -560q123 -157 231 -317l50 -68h2v70l-2 406v469zM1030 1810h223q0 -122 -82 -202t-208 -80q-76 0 -171 61q-96 61 -136 61t-66 -25q-26 -26 -27 -64h-223
q0 123 83 203t208 81q63 1 121 -31t102 -63q45 -31 84 -31q40 0 66 26t26 64z" />
    <glyph glyph-name="Ograve" unicode="&#xd2;" horiz-adv-x="1644" 
d="M822 1182q-198 0 -322 -129t-125 -335q0 -206 125 -336q124 -130 322 -130t323 130t125 336t-125 335t-323 129zM78 717q0 321 216 533t528 212t528 -212t217 -534q0 -322 -216 -533q-217 -212 -529 -212t-528 212t-216 534zM942 1497l-489 211l100 195l471 -254z" />
    <glyph glyph-name="Oacute" unicode="&#xd3;" horiz-adv-x="1644" 
d="M822 1182q-198 0 -322 -129t-125 -335q0 -206 125 -336q124 -130 322 -130t323 130t125 336t-125 335t-323 129zM78 717q0 321 216 533t528 212t528 -212t217 -534q0 -322 -216 -533q-217 -212 -529 -212t-528 212t-216 534zM1067 1903l98 -195l-487 -211l-84 152z" />
    <glyph glyph-name="Ocircumflex" unicode="&#xd4;" horiz-adv-x="1644" 
d="M822 1182q-198 0 -322 -129t-125 -335q0 -206 125 -336q124 -130 322 -130t323 130t125 336t-125 335t-323 129zM78 717q0 321 216 533t528 212t528 -212t217 -534q0 -322 -216 -533q-217 -212 -529 -212t-528 212t-216 534zM442 1638l383 326l381 -326l-137 -141
l-244 203l-243 -203z" />
    <glyph glyph-name="Otilde" unicode="&#xd5;" horiz-adv-x="1644" 
d="M822 1182q-198 0 -322 -129t-125 -335q0 -206 125 -336q124 -130 322 -130t323 130t125 336t-125 335t-323 129zM78 717q0 321 216 533t528 212t528 -212t217 -534q0 -322 -216 -533q-217 -212 -529 -212t-528 212t-216 534zM1065 1810h223q0 -122 -82 -202t-209 -80
q-76 0 -170 61t-135 61q-42 0 -68 -25q-26 -26 -26 -64h-223q0 123 83 203t208 81q63 1 120 -31q56 -32 102 -63t85 -31t65 26t27 64z" />
    <glyph glyph-name="Odieresis" unicode="&#xd6;" horiz-adv-x="1644" 
d="M822 1182q-198 0 -322 -129t-125 -335q0 -206 125 -336q124 -130 322 -130t323 130t125 336t-125 335t-323 129zM78 717q0 321 216 533t528 212t528 -212t217 -534q0 -322 -216 -533q-217 -212 -529 -212t-528 212t-216 534zM1089 1571q-56 0 -96 38q-39 38 -39 94t39 95
t95 39t96 -39q39 -39 39 -95t-39 -94t-95 -38zM559 1571q-57 0 -96 38t-39 94t40 95t96 39t95 -39t39 -95t-39 -94t-96 -38z" />
    <glyph glyph-name="multiply" unicode="&#xd7;" 
d="M973 1167l188 -190l-256 -256l256 -258l-190 -189l-256 256l-254 -254l-191 191l254 254l-254 254l189 188l256 -252z" />
    <glyph glyph-name="Oslash" unicode="&#xd8;" horiz-adv-x="1644" 
d="M821 252q199 0 324 130t125 335q0 157 -74 272l-543 -708q80 -29 168 -29zM821 1182q-197 0 -321 -129t-125 -336q0 -162 80 -281l544 713q-86 33 -178 33zM1567 706q0 -310 -216 -523q-216 -212 -530 -212q-182 0 -342 80l-76 -98l-202 151l73 99q-196 213 -196 525
t216 522q216 212 527 212q188 0 353 -84l75 99l203 -152l-78 -100q193 -209 193 -519z" />
    <glyph glyph-name="Ugrave" unicode="&#xd9;" horiz-adv-x="1515" 
d="M1090 1434h286v-811q0 -311 -166 -481t-454 -171q-288 0 -452 170q-165 170 -165 482v811h285v-807q0 -389 333 -389t333 389v807zM870 1497l-489 211l100 195l471 -254z" />
    <glyph glyph-name="Uacute" unicode="&#xda;" horiz-adv-x="1515" 
d="M1090 1434h286v-811q0 -311 -166 -481t-454 -171q-288 0 -452 170q-165 170 -165 482v811h285v-807q0 -389 333 -389t333 389v807zM995 1903l99 -195l-488 -211l-84 152z" />
    <glyph glyph-name="Ucircumflex" unicode="&#xdb;" horiz-adv-x="1515" 
d="M1090 1434h286v-811q0 -311 -166 -481t-454 -171q-288 0 -452 170q-165 170 -165 482v811h285v-807q0 -389 333 -389t333 389v807zM371 1638l383 326l381 -326l-138 -141l-243 203l-244 -203z" />
    <glyph glyph-name="Udieresis" unicode="&#xdc;" horiz-adv-x="1515" 
d="M1090 1434h286v-811q0 -311 -166 -481t-454 -171q-288 0 -452 170q-165 170 -165 482v811h285v-807q0 -389 333 -389t333 389v807zM1017 1571q-56 0 -95 38t-39 94t39 95t95 39t95 -39t39 -95t-39 -94t-95 -38zM488 1837q56 0 96 -39t39 -95q1 -56 -39 -94t-97 -38
t-96 38t-39 94t40 95t96 39z" />
    <glyph glyph-name="Yacute" unicode="&#xdd;" horiz-adv-x="1435" 
d="M858 0h-283v657l-550 777h319l295 -412q72 -106 78 -107h2q6 0 78 107l293 412h321l-553 -777v-657zM952 1903l99 -195l-488 -211l-84 152z" />
    <glyph glyph-name="Thorn" unicode="&#xde;" horiz-adv-x="1302" 
d="M455 506h247q106 0 169 58t63 154t-62 154q-62 59 -170 58h-247v-424zM455 1198h241q238 0 386 -134t148 -345t-148 -345t-386 -134h-241v-240h-285v1434h285v-236z" />
    <glyph glyph-name="germandbls" unicode="&#xdf;" horiz-adv-x="1658" 
d="M455 1167v-1167h-285v1434h1274l-215 -402q-100 -190 -101 -192l2 -2h11q182 2 311 -120t129 -306t-136 -312q-136 -129 -362 -129q-161 0 -293 76t-204 203l270 74q84 -111 203 -111t177 60q58 59 58 149t-60 149t-171 60h-207v207l94 186q28 62 62 123l10 22l-2 2h-8
l-89 -4h-468z" />
    <glyph glyph-name="agrave" unicode="&#xe0;" horiz-adv-x="1472" 
d="M524 526h424l-141 363q-12 35 -30 85q-17 50 -27 83l-13 30h-2l-10 -30q-24 -67 -59 -168zM1153 0l-106 274h-621l-107 -274h-307l590 1434h268l590 -1434h-307zM928 1649l-82 -152l-490 211l101 195z" />
    <glyph glyph-name="aacute" unicode="&#xe1;" horiz-adv-x="1472" 
d="M524 526h424l-141 363q-12 35 -30 85q-17 50 -27 83l-13 30h-2l-10 -30q-24 -67 -59 -168zM1153 0l-106 274h-621l-107 -274h-307l590 1434h268l590 -1434h-307zM1069 1708l-487 -211l-84 152l473 254z" />
    <glyph glyph-name="acircumflex" unicode="&#xe2;" horiz-adv-x="1472" 
d="M524 526h424l-141 363q-12 35 -30 85q-17 50 -27 83l-13 30h-2l-10 -30q-24 -67 -59 -168zM1153 0l-106 274h-621l-107 -274h-307l590 1434h268l590 -1434h-307zM729 1700l-244 -203l-139 141l383 326l381 -326l-137 -141z" />
    <glyph glyph-name="atilde" unicode="&#xe3;" horiz-adv-x="1472" 
d="M524 526h424l-141 363q-12 35 -30 85q-17 50 -27 83l-13 30h-2l-10 -30q-24 -67 -59 -168zM1153 0l-106 274h-621l-107 -274h-307l590 1434h268l590 -1434h-307zM969 1810h223q0 -122 -82 -202t-209 -80q-78 0 -172 61t-134 61t-67 -25q-27 -26 -26 -64h-223
q1 123 83 203t207 81q63 1 121 -31t102 -63q46 -31 84 -31t66 26q27 26 27 64z" />
    <glyph glyph-name="adieresis" unicode="&#xe4;" horiz-adv-x="1472" 
d="M524 526h424l-141 363q-12 35 -30 85q-17 50 -27 83l-13 30h-2l-10 -30q-24 -67 -59 -168zM1153 0l-106 274h-621l-107 -274h-307l590 1434h268l590 -1434h-307zM992 1571q-56 0 -95 38t-39 94t39 95t95 39t95 -39t39 -95t-39 -94t-95 -38zM463 1571q-57 0 -96 38t-39 94
t40 95t96 39t95 -39t39 -95t-39 -94t-96 -38z" />
    <glyph glyph-name="aring" unicode="&#xe5;" horiz-adv-x="1472" 
d="M524 526h424l-141 363q-12 35 -30 85q-17 50 -27 83l-13 30h-2l-10 -30q-24 -67 -59 -168zM736 1792q-46 0 -80 -34t-34 -81t34 -80t80 -33t80 34q34 32 34 79t-34 81t-80 34zM455 1675q0 115 83 197q84 82 198 82t197 -82t83 -197q0 -75 -40 -141t-104 -102l588 -1432
h-307l-106 274h-621l-107 -274h-307l588 1430q-66 36 -106 102t-39 143z" />
    <glyph glyph-name="ae" unicode="&#xe6;" horiz-adv-x="2074" 
d="M918 526v641h-146l-18 -47q-16 -47 -46 -127t-46 -123l-134 -344h390zM1196 266h739v-266h-1017v274h-488l-108 -274h-310l596 1434h1315v-267h-727v-305h576v-250h-576v-346z" />
    <glyph glyph-name="ccedilla" unicode="&#xe7;" horiz-adv-x="1548" 
d="M831 -383q78 0 78 64q0 59 -78 63h-188l80 233q-279 35 -462 241t-183 514t216 518q216 212 527 212q209 0 382 -102t270 -277l-291 -75q-58 80 -156 127t-205 47q-201 0 -323 -130t-123 -336q0 -206 126 -333t320 -127q121 0 227 58t160 153l287 -76q-84 -178 -247 -291
t-367 -127l-31 -84q90 2 155 -55q65 -56 65 -158t-68 -156q-67 -54 -171 -55h-217l60 152h157z" />
    <glyph glyph-name="egrave" unicode="&#xe8;" horiz-adv-x="1335" 
d="M455 266h741v-266h-1026v1434h1014v-267h-729v-305h575v-250h-575v-346zM893 1649l-82 -152l-489 211l100 195z" />
    <glyph glyph-name="eacute" unicode="&#xe9;" horiz-adv-x="1335" 
d="M455 266h741v-266h-1026v1434h1014v-267h-729v-305h575v-250h-575v-346zM1034 1708l-487 -211l-84 152l473 254z" />
    <glyph glyph-name="ecircumflex" unicode="&#xea;" horiz-adv-x="1335" 
d="M455 266h741v-266h-1026v1434h1014v-267h-729v-305h575v-250h-575v-346zM694 1700l-243 -203l-140 141l383 326l381 -326l-137 -141z" />
    <glyph glyph-name="edieresis" unicode="&#xeb;" horiz-adv-x="1335" 
d="M455 266h741v-266h-1026v1434h1014v-267h-729v-305h575v-250h-575v-346zM957 1837q55 0 95 -39t40 -95t-40 -94t-95 -38q-56 0 -95 38t-39 94t39 95t95 39zM428 1571q-57 0 -96 38t-39 94t40 95t96 39t95 -39t39 -95t-39 -94t-96 -38z" />
    <glyph glyph-name="igrave" unicode="&#xec;" horiz-adv-x="624" 
d="M455 0h-285v1434h285v-1434zM424 1497l-490 211l101 195l471 -254z" />
    <glyph glyph-name="iacute" unicode="&#xed;" horiz-adv-x="624" 
d="M455 0h-285v1434h285v-1434zM549 1903l98 -195l-487 -211l-84 152z" />
    <glyph glyph-name="icircumflex" unicode="&#xee;" horiz-adv-x="624" 
d="M455 0h-285v1434h285v-1434zM-76 1638l383 326l381 -326l-137 -141l-244 203l-244 -203z" />
    <glyph glyph-name="idieresis" unicode="&#xef;" horiz-adv-x="624" 
d="M455 0h-285v1434h285v-1434zM570 1837q56 0 96 -39t39 -95q1 -56 -39 -94t-96 -38t-95 38t-39 94t39 95t95 39zM41 1571q-57 0 -96 38t-39 94t40 95t96 39t95 -39t39 -95t-39 -94t-96 -38z" />
    <glyph glyph-name="eth" unicode="&#xf0;" horiz-adv-x="1630" 
d="M477 266h338q186 0 314 121t128 324t-130 329t-316 127h-334v-313h268v-256h-268v-332zM193 1434h618q313 0 527 -203t214 -519t-213 -514t-524 -198h-622v598h-115v256h115v580z" />
    <glyph glyph-name="ntilde" unicode="&#xf1;" horiz-adv-x="1589" 
d="M1135 1434h284v-1434h-268l-408 553q-55 76 -129 178t-116 162l-43 61h-2v-64l2 -427v-463h-285v1434h268l416 -560q123 -157 231 -317l50 -68h2v70l-2 406v469zM1030 1810h223q0 -122 -82 -202t-208 -80q-76 0 -171 61q-96 61 -136 61t-66 -25q-26 -26 -27 -64h-223
q0 123 83 203t208 81q63 1 121 -31t102 -63q45 -31 84 -31q40 0 66 26t26 64z" />
    <glyph glyph-name="ograve" unicode="&#xf2;" horiz-adv-x="1644" 
d="M822 1182q-198 0 -322 -129t-125 -335q0 -206 125 -336q124 -130 322 -130t323 130t125 336t-125 335t-323 129zM78 717q0 321 216 533t528 212t528 -212t217 -534q0 -322 -216 -533q-217 -212 -529 -212t-528 212t-216 534zM938 1497l-489 211l100 195l471 -254z" />
    <glyph glyph-name="oacute" unicode="&#xf3;" horiz-adv-x="1644" 
d="M822 1182q-198 0 -322 -129t-125 -335q0 -206 125 -336q124 -130 322 -130t323 130t125 336t-125 335t-323 129zM78 717q0 321 216 533t528 212t528 -212t217 -534q0 -322 -216 -533q-217 -212 -529 -212t-528 212t-216 534zM1063 1903l98 -195l-487 -211l-84 152z" />
    <glyph glyph-name="ocircumflex" unicode="&#xf4;" horiz-adv-x="1644" 
d="M822 1182q-198 0 -322 -129t-125 -335q0 -206 125 -336q124 -130 322 -130t323 130t125 336t-125 335t-323 129zM78 717q0 321 216 533t528 212t528 -212t217 -534q0 -322 -216 -533q-217 -212 -529 -212t-528 212t-216 534zM438 1638l383 326l381 -326l-137 -141
l-244 203l-243 -203z" />
    <glyph glyph-name="otilde" unicode="&#xf5;" horiz-adv-x="1644" 
d="M822 1182q-198 0 -322 -129t-125 -335q0 -206 125 -336q124 -130 322 -130t323 130t125 336t-125 335t-323 129zM78 717q0 321 216 533t528 212t528 -212t217 -534q0 -322 -216 -533q-217 -212 -529 -212t-528 212t-216 534zM1061 1810h223q0 -122 -82 -202t-209 -80
q-78 0 -172 61t-134 61q-41 0 -67 -25q-26 -26 -26 -64h-223q0 123 83 203t208 81q63 1 120 -31q56 -32 102 -63t85 -31t65 26t27 64z" />
    <glyph glyph-name="odieresis" unicode="&#xf6;" horiz-adv-x="1644" 
d="M822 1182q-198 0 -322 -129t-125 -335q0 -206 125 -336q124 -130 322 -130t323 130t125 336t-125 335t-323 129zM78 717q0 321 216 533t528 212t528 -212t217 -534q0 -322 -216 -533q-217 -212 -529 -212t-528 212t-216 534zM1084 1837q56 0 96 -39t39 -95q1 -56 -39 -94
t-96 -38t-95 38t-39 94t39 95t95 39zM555 1571q-57 0 -96 38t-39 94t40 95t96 39t95 -39t39 -95t-39 -94t-96 -38z" />
    <glyph glyph-name="divide" unicode="&#xf7;" 
d="M702 129q-59 0 -100 41t-41 99q0 57 41 99t99 42q59 0 101 -41t42 -99t-42 -100q-42 -41 -100 -41zM246 844h936v-234h-936v234zM702 1047q-59 1 -100 41t-41 98t41 100q41 41 99 41q59 0 101 -41t42 -99t-41 -100q-42 -40 -101 -40z" />
    <glyph glyph-name="oslash" unicode="&#xf8;" horiz-adv-x="1644" 
d="M821 252q199 0 324 130t125 335q0 157 -74 272l-543 -708q80 -29 168 -29zM821 1182q-197 0 -321 -129t-125 -336q0 -162 80 -281l544 713q-86 33 -178 33zM1567 706q0 -310 -216 -523q-216 -212 -530 -212q-182 0 -342 80l-76 -98l-202 151l73 99q-196 213 -196 525
t216 522q216 212 527 212q188 0 353 -84l75 99l203 -152l-78 -100q193 -209 193 -519z" />
    <glyph glyph-name="ugrave" unicode="&#xf9;" horiz-adv-x="1515" 
d="M1090 1434h286v-811q0 -311 -166 -481t-454 -171q-288 0 -452 170q-165 170 -165 482v811h285v-807q0 -389 333 -389t333 389v807zM870 1497l-489 211l100 195l471 -254z" />
    <glyph glyph-name="uacute" unicode="&#xfa;" horiz-adv-x="1515" 
d="M1090 1434h286v-811q0 -311 -166 -481t-454 -171q-288 0 -452 170q-165 170 -165 482v811h285v-807q0 -389 333 -389t333 389v807zM995 1903l99 -195l-488 -211l-84 152z" />
    <glyph glyph-name="ucircumflex" unicode="&#xfb;" horiz-adv-x="1515" 
d="M1090 1434h286v-811q0 -311 -166 -481t-454 -171q-288 0 -452 170q-165 170 -165 482v811h285v-807q0 -389 333 -389t333 389v807zM371 1638l383 326l381 -326l-138 -141l-243 203l-244 -203z" />
    <glyph glyph-name="udieresis" unicode="&#xfc;" horiz-adv-x="1515" 
d="M1090 1434h286v-811q0 -311 -166 -481t-454 -171q-288 0 -452 170q-165 170 -165 482v811h285v-807q0 -389 333 -389t333 389v807zM1017 1571q-56 0 -95 38t-39 94t39 95t95 39t95 -39t39 -95t-39 -94t-95 -38zM488 1837q56 0 96 -39t39 -95q1 -56 -39 -94t-97 -38
t-96 38t-39 94t40 95t96 39z" />
    <glyph glyph-name="yacute" unicode="&#xfd;" horiz-adv-x="1435" 
d="M858 0h-283v657l-550 777h319l295 -412q72 -106 78 -107h2q6 0 78 107l293 412h321l-553 -777v-657zM954 1903l99 -195l-488 -211l-84 152z" />
    <glyph glyph-name="thorn" unicode="&#xfe;" horiz-adv-x="1302" 
d="M455 506h247q106 0 169 58t63 154t-62 154q-62 59 -170 58h-247v-424zM455 1198h241q238 0 386 -134t148 -345t-148 -345t-386 -134h-241v-240h-285v1434h285v-236z" />
    <glyph glyph-name="ydieresis" unicode="&#xff;" horiz-adv-x="1435" 
d="M858 0h-283v657l-550 777h319l295 -412q72 -106 78 -107h2q6 0 78 107l293 412h321l-553 -777v-657zM976 1571q-56 0 -95 38t-39 94t39 95t95 39t95 -39t39 -95t-39 -94t-95 -38zM447 1571q-57 0 -97 38q-39 38 -39 94t40 95q41 39 97 39t95 -39t39 -95t-39 -94t-96 -38z
" />
    <glyph glyph-name="Amacron" unicode="&#x100;" horiz-adv-x="1472" 
d="M524 526h424l-141 363q-12 35 -30 85q-17 50 -27 83l-13 30h-2l-10 -30q-24 -67 -59 -168zM1153 0l-106 274h-621l-107 -274h-307l590 1434h268l590 -1434h-307zM1092 1798v-221h-695v221h695z" />
    <glyph glyph-name="amacron" unicode="&#x101;" horiz-adv-x="1472" 
d="M524 526h424l-141 363q-12 35 -30 85q-17 50 -27 83l-13 30h-2l-10 -30q-24 -67 -59 -168zM1153 0l-106 274h-621l-107 -274h-307l590 1434h268l590 -1434h-307zM1092 1798v-221h-695v221h695z" />
    <glyph glyph-name="Abreve" unicode="&#x102;" horiz-adv-x="1472" 
d="M524 526h424l-141 363q-12 35 -30 85q-17 50 -27 83l-13 30h-2l-10 -30q-24 -67 -59 -168zM1153 0l-106 274h-621l-107 -274h-307l590 1434h268l590 -1434h-307zM734 1522q-138 0 -238 82t-129 215h208q13 -51 57 -86t104 -35t105 36q44 36 56 85h205q-29 -131 -130 -214
q-100 -83 -238 -83z" />
    <glyph glyph-name="abreve" unicode="&#x103;" horiz-adv-x="1472" 
d="M524 526h424l-141 363q-12 35 -30 85q-17 50 -27 83l-13 30h-2l-10 -30q-24 -67 -59 -168zM1153 0l-106 274h-621l-107 -274h-307l590 1434h268l590 -1434h-307zM734 1522q-138 0 -238 82t-129 215h208q13 -51 57 -86t104 -35t105 36q44 36 56 85h205q-29 -131 -130 -214
q-100 -83 -238 -83z" />
    <glyph glyph-name="Aogonek" unicode="&#x104;" horiz-adv-x="1472" 
d="M524 526h424l-141 363q-12 35 -30 85q-17 50 -27 83l-13 30h-2l-10 -30q-24 -67 -59 -168zM1313 0q-94 0 -171 -47t-77 -137q0 -56 41 -98t113 -42q129 0 188 125l149 -94q-49 -98 -140 -153t-197 -56q-158 0 -256 86q-99 86 -99 218t80 218q80 84 164 97l-61 157h-621
l-107 -274h-307l590 1434h268l590 -1434h-147z" />
    <glyph glyph-name="aogonek" unicode="&#x105;" horiz-adv-x="1472" 
d="M524 526h424l-141 363q-12 35 -30 85q-17 50 -27 83l-13 30h-2l-10 -30q-24 -67 -59 -168zM1313 0q-94 0 -171 -47t-77 -137q0 -56 41 -98t113 -42q129 0 188 125l149 -94q-49 -98 -140 -153t-197 -56q-158 0 -256 86q-99 86 -99 218t80 218q80 84 164 97l-61 157h-621
l-107 -274h-307l590 1434h268l590 -1434h-147z" />
    <glyph glyph-name="Cacute" unicode="&#x106;" horiz-adv-x="1548" 
d="M821 1182q-201 0 -323 -130t-123 -336q0 -206 126 -333t320 -127q121 0 227 58t160 153l287 -76q-90 -193 -270 -307t-404 -113q-311 0 -527 212t-216 534q0 321 216 533t527 212q209 0 383 -102t269 -277l-291 -75q-58 80 -156 127t-205 47zM1053 1903l98 -195
l-487 -211l-84 152z" />
    <glyph glyph-name="cacute" unicode="&#x107;" horiz-adv-x="1548" 
d="M821 1182q-201 0 -323 -130t-123 -336q0 -206 126 -333t320 -127q121 0 227 58t160 153l287 -76q-90 -193 -270 -307t-404 -113q-311 0 -527 212t-216 534q0 321 216 533t527 212q209 0 383 -102t269 -277l-291 -75q-58 80 -156 127t-205 47zM1053 1903l98 -195
l-487 -211l-84 152z" />
    <glyph glyph-name="Cdotaccent" unicode="&#x10a;" horiz-adv-x="1548" 
d="M821 1182q-201 0 -323 -130t-123 -336q0 -206 126 -333t320 -127q121 0 227 58t160 153l287 -76q-90 -193 -270 -307t-404 -113q-311 0 -527 212t-216 534q0 321 216 533t527 212q209 0 383 -102t269 -277l-291 -75q-58 80 -156 127t-205 47zM817 1569q-55 0 -95 39
t-40 95t40 95t95 39t94 -39t39 -95t-39 -95t-94 -39z" />
    <glyph glyph-name="cdotaccent" unicode="&#x10b;" horiz-adv-x="1548" 
d="M821 1182q-201 0 -323 -130t-123 -336q0 -206 126 -333t320 -127q121 0 227 58t160 153l287 -76q-90 -193 -270 -307t-404 -113q-311 0 -527 212t-216 534q0 321 216 533t527 212q209 0 383 -102t269 -277l-291 -75q-58 80 -156 127t-205 47zM817 1569q-55 0 -95 39
t-40 95t40 95t95 39t94 -39t39 -95t-39 -95t-94 -39z" />
    <glyph glyph-name="Ccaron" unicode="&#x10c;" horiz-adv-x="1548" 
d="M821 1182q-201 0 -323 -130t-123 -336q0 -206 126 -333t320 -127q121 0 227 58t160 153l287 -76q-90 -193 -270 -307t-404 -113q-311 0 -527 212t-216 534q0 321 216 533t527 212q209 0 383 -102t269 -277l-291 -75q-58 80 -156 127t-205 47zM434 1808l139 142l244 -203
l244 203l137 -142l-381 -325z" />
    <glyph glyph-name="ccaron" unicode="&#x10d;" horiz-adv-x="1548" 
d="M821 1182q-201 0 -323 -130t-123 -336q0 -206 126 -333t320 -127q121 0 227 58t160 153l287 -76q-90 -193 -270 -307t-404 -113q-311 0 -527 212t-216 534q0 321 216 533t527 212q209 0 383 -102t269 -277l-291 -75q-58 80 -156 127t-205 47zM434 1808l139 142l244 -203
l244 203l137 -142l-381 -325z" />
    <glyph glyph-name="Dcaron" unicode="&#x10e;" horiz-adv-x="1607" 
d="M455 266h338q186 0 314 121t128 324t-130 329t-317 127h-333v-901zM170 1434h618q314 0 528 -203t214 -519t-213 -514t-524 -198h-623v1434zM406 1808l139 142l243 -203l244 203l137 -142l-381 -325z" />
    <glyph glyph-name="dcaron" unicode="&#x10f;" horiz-adv-x="1607" 
d="M455 266h338q186 0 314 121t128 324t-130 329t-317 127h-333v-901zM170 1434h618q314 0 528 -203t214 -519t-213 -514t-524 -198h-623v1434zM406 1808l139 142l243 -203l244 203l137 -142l-381 -325z" />
    <glyph glyph-name="Dcroat" unicode="&#x110;" horiz-adv-x="1630" 
d="M477 266h338q186 0 314 121t128 324t-130 329t-316 127h-334v-313h268v-256h-268v-332zM193 1434h618q313 0 527 -203t214 -519t-213 -514t-524 -198h-622v598h-115v256h115v580z" />
    <glyph glyph-name="dcroat" unicode="&#x111;" horiz-adv-x="1630" 
d="M477 266h338q186 0 314 121t128 324t-130 329t-316 127h-334v-313h268v-256h-268v-332zM193 1434h618q313 0 527 -203t214 -519t-213 -514t-524 -198h-622v598h-115v256h115v580z" />
    <glyph glyph-name="Emacron" unicode="&#x112;" horiz-adv-x="1335" 
d="M455 266h741v-266h-1026v1434h1014v-267h-729v-305h575v-250h-575v-346zM1059 1798v-221h-694v221h694z" />
    <glyph glyph-name="emacron" unicode="&#x113;" horiz-adv-x="1335" 
d="M455 266h741v-266h-1026v1434h1014v-267h-729v-305h575v-250h-575v-346zM1057 1798v-221h-695v221h695z" />
    <glyph glyph-name="Edotaccent" unicode="&#x116;" horiz-adv-x="1335" 
d="M455 266h741v-266h-1026v1434h1014v-267h-729v-305h575v-250h-575v-346zM702 1569q-55 0 -95 39t-40 95t40 95t95 39q54 0 94 -39t40 -95t-40 -95t-94 -39z" />
    <glyph glyph-name="edotaccent" unicode="&#x117;" horiz-adv-x="1335" 
d="M455 266h741v-266h-1026v1434h1014v-267h-729v-305h575v-250h-575v-346zM702 1569q-55 0 -95 39t-40 95t40 95t95 39q54 0 94 -39t40 -95t-40 -95t-94 -39z" />
    <glyph glyph-name="Eogonek" unicode="&#x118;" horiz-adv-x="1335" 
d="M514 -184q0 100 64 184h-408v1434h1014v-267h-729v-305h575v-250h-575v-346h741v-266h-233q-94 0 -171 -47t-77 -137q0 -56 41 -98t112 -42q130 0 189 125l149 -94q-49 -98 -140 -153t-198 -56q-158 0 -256 86t-98 232z" />
    <glyph glyph-name="eogonek" unicode="&#x119;" horiz-adv-x="1335" 
d="M537 -184q0 100 63 184h-430v1434h1014v-267h-729v-305h575v-250h-575v-346h741v-266h-211q-94 0 -171 -47t-77 -137q0 -56 41 -98t113 -42q129 0 188 125l150 -94q-49 -98 -140 -153t-198 -56q-158 0 -256 86t-98 232z" />
    <glyph glyph-name="Ecaron" unicode="&#x11a;" horiz-adv-x="1335" 
d="M455 266h741v-266h-1026v1434h1014v-267h-729v-305h575v-250h-575v-346zM1083 1808l-381 -325l-383 325l140 142l243 -203l244 203z" />
    <glyph glyph-name="ecaron" unicode="&#x11b;" horiz-adv-x="1335" 
d="M455 266h741v-266h-1026v1434h1014v-267h-729v-305h575v-250h-575v-346zM1081 1808l-381 -325l-383 325l140 142l243 -203l244 203z" />
    <glyph glyph-name="Gcircumflex" unicode="&#x11c;" horiz-adv-x="1624" 
d="M1257 150h-2q-63 -72 -183 -125t-251 -54q-311 0 -527 212t-216 534q0 321 216 533t527 212q211 -2 382 -103t270 -276l-291 -75q-58 80 -156 127t-205 47q-201 0 -323 -130t-123 -338q0 -208 130 -336q129 -128 315 -128t291 74t146 172v61h-397v231h641v-788h-246v91
l2 34v25zM426 1638l383 326l381 -326l-137 -141l-244 203l-244 -203z" />
    <glyph glyph-name="gcircumflex" unicode="&#x11d;" horiz-adv-x="1624" 
d="M1257 150h-2q-63 -72 -183 -125t-251 -54q-311 0 -527 212t-216 534q0 321 216 533t527 212q211 -2 382 -103t270 -276l-291 -75q-58 80 -156 127t-205 47q-201 0 -323 -130t-123 -338q0 -208 130 -336q129 -128 315 -128t291 74t146 172v61h-397v231h641v-788h-246v91
l2 34v25zM426 1638l383 326l381 -326l-137 -141l-244 203l-244 -203z" />
    <glyph glyph-name="Gbreve" unicode="&#x11e;" horiz-adv-x="1624" 
d="M1257 150h-2q-63 -72 -183 -125t-251 -54q-311 0 -527 212t-216 534q0 321 216 533t527 212q211 -2 382 -103t270 -276l-291 -75q-58 80 -156 127t-205 47q-201 0 -323 -130t-123 -338q0 -208 130 -336q129 -128 315 -128t291 74t146 172v61h-397v231h641v-788h-246v91
l2 34v25zM816 1698q60 0 105 36q44 36 56 85h205q-29 -131 -130 -214q-100 -83 -238 -83t-239 82q-100 82 -129 215h209q13 -51 57 -86t104 -35z" />
    <glyph glyph-name="gbreve" unicode="&#x11f;" horiz-adv-x="1624" 
d="M1257 150h-2q-63 -72 -183 -125t-251 -54q-311 0 -527 212t-216 534q0 321 216 533t527 212q211 -2 382 -103t270 -276l-291 -75q-58 80 -156 127t-205 47q-201 0 -323 -130t-123 -338q0 -208 130 -336q129 -128 315 -128t291 74t146 172v61h-397v231h641v-788h-246v91
l2 34v25zM816 1698q60 0 105 36q44 36 56 85h205q-29 -131 -130 -214q-100 -83 -238 -83t-239 82q-100 82 -129 215h209q13 -51 57 -86t104 -35z" />
    <glyph glyph-name="Gdotaccent" unicode="&#x120;" horiz-adv-x="1624" 
d="M1257 150h-2q-63 -72 -183 -125t-251 -54q-311 0 -527 212t-216 534q0 321 216 533t527 212q211 -2 382 -103t270 -276l-291 -75q-58 80 -156 127t-205 47q-201 0 -323 -130t-123 -338q0 -208 130 -336q129 -128 315 -128t291 74t146 172v61h-397v231h641v-788h-246v91
l2 34v25zM815 1569q-55 0 -95 39t-40 95t40 95t95 39t94 -39t39 -95t-39 -95t-94 -39z" />
    <glyph glyph-name="gdotaccent" unicode="&#x121;" horiz-adv-x="1624" 
d="M1257 150h-2q-63 -72 -183 -125t-251 -54q-311 0 -527 212t-216 534q0 321 216 533t527 212q211 -2 382 -103t270 -276l-291 -75q-58 80 -156 127t-205 47q-201 0 -323 -130t-123 -338q0 -208 130 -336q129 -128 315 -128t291 74t146 172v61h-397v231h641v-788h-246v91
l2 34v25zM815 1569q-55 0 -95 39t-40 95t40 95t95 39t94 -39t39 -95t-39 -95t-94 -39z" />
    <glyph glyph-name="Gcommaaccent" unicode="&#x122;" horiz-adv-x="1624" 
d="M678 -209q0 53 39 91t94 38t93 -42t38 -118t-55 -168q-55 -94 -139 -163h-101q47 35 90 107t43 122l25 8l-25 4q-38 4 -70 36t-32 85zM1257 150h-2q-63 -72 -183 -125t-251 -54q-311 0 -527 212t-216 534q0 321 216 533t527 212q211 -2 382 -103t270 -276l-291 -75
q-58 80 -156 127t-205 47q-201 0 -323 -130t-123 -338q0 -208 130 -336q129 -128 315 -128t291 74t146 172v61h-397v231h641v-788h-246v91l2 34v25z" />
    <glyph glyph-name="gcommaaccent" unicode="&#x123;" horiz-adv-x="1624" 
d="M678 -209q0 53 39 91t94 38t93 -42t38 -118t-55 -168q-55 -94 -139 -163h-101q47 35 90 107t43 122l25 8l-25 4q-38 4 -70 36t-32 85zM1257 150h-2q-63 -72 -183 -125t-251 -54q-311 0 -527 212t-216 534q0 321 216 533t527 212q211 -2 382 -103t270 -276l-291 -75
q-58 80 -156 127t-205 47q-201 0 -323 -130t-123 -338q0 -208 130 -336q129 -128 315 -128t291 74t146 172v61h-397v231h641v-788h-246v91l2 34v25z" />
    <glyph glyph-name="Hcircumflex" unicode="&#x124;" horiz-adv-x="1529" 
d="M1075 1434h285v-1434h-285v592h-620v-592h-285v1434h285v-574h620v574zM758 1700l-244 -203l-139 141l383 326l381 -326l-138 -141z" />
    <glyph glyph-name="hcircumflex" unicode="&#x125;" horiz-adv-x="1529" 
d="M1075 1434h285v-1434h-285v592h-620v-592h-285v1434h285v-574h620v574zM758 1700l-244 -203l-139 141l383 326l381 -326l-138 -141z" />
    <glyph glyph-name="Hbar" unicode="&#x126;" horiz-adv-x="1529" 
d="M1075 860v203h-620v-203h620zM1501 1296v-233h-141v-1063h-285v592h-620v-592h-285v1063h-141v233h141v138h285v-138h620v138h285v-138h141z" />
    <glyph glyph-name="hbar" unicode="&#x127;" horiz-adv-x="1529" 
d="M1075 860v203h-620v-203h620zM1501 1296v-233h-141v-1063h-285v592h-620v-592h-285v1063h-141v233h141v138h285v-138h620v138h285v-138h141z" />
    <glyph glyph-name="Imacron" unicode="&#x12a;" horiz-adv-x="624" 
d="M455 0h-285v1434h285v-1434zM-25 1798h695v-221h-695v221z" />
    <glyph glyph-name="imacron" unicode="&#x12b;" horiz-adv-x="624" 
d="M455 0h-285v1434h285v-1434zM-25 1798h695v-221h-695v221z" />
    <glyph glyph-name="Iogonek" unicode="&#x12e;" horiz-adv-x="624" 
d="M-82 -196q0 134 84 221q84 86 168 94v1315h285v-1434h-88q-94 0 -171 -47t-77 -137q0 -56 41 -98t112 -42q130 0 189 125l149 -94q-49 -98 -140 -153t-198 -56q-158 0 -256 86t-98 220z" />
    <glyph glyph-name="iogonek" unicode="&#x12f;" horiz-adv-x="624" 
d="M-82 -196q0 134 84 221q84 86 168 94v1315h285v-1434h-88q-94 0 -171 -47t-77 -137q0 -56 41 -98t112 -42q130 0 189 125l149 -94q-49 -98 -140 -153t-198 -56q-158 0 -256 86t-98 220z" />
    <glyph glyph-name="Idotaccent" unicode="&#x130;" horiz-adv-x="624" 
d="M455 0h-285v1434h285v-1434zM313 1569q-55 0 -95 39t-40 95t40 95t95 39t95 -39t38 -95q0 -56 -39 -95t-94 -39z" />
    <glyph glyph-name="dotlessi" unicode="&#x131;" horiz-adv-x="624" 
d="M455 0h-285v1434h285v-1434z" />
    <glyph glyph-name="IJ" unicode="&#x132;" horiz-adv-x="1970" 
d="M1546 1434h285v-811q0 -309 -170 -481t-461 -171q-202 1 -360 103t-222 264l281 76q41 -84 119 -130t182 -46q164 0 255 99t91 273v824zM455 0h-285v1434h285v-1434z" />
    <glyph glyph-name="ij" unicode="&#x133;" horiz-adv-x="1970" 
d="M1546 1434h285v-811q0 -309 -170 -481t-461 -171q-202 1 -360 103t-222 264l281 76q41 -84 119 -130t182 -46q164 0 255 99t91 273v824zM455 0h-285v1434h285v-1434z" />
    <glyph glyph-name="Jcircumflex" unicode="&#x134;" horiz-adv-x="1374" 
d="M950 1434h285v-811q0 -309 -170 -481t-461 -171q-202 1 -360 103t-221 264l280 76q41 -84 119 -130t182 -46q164 0 255 99t91 273v824zM705 1638l382 326l381 -326l-137 -141l-244 203l-243 -203z" />
    <glyph glyph-name="jcircumflex" unicode="&#x135;" horiz-adv-x="1374" 
d="M950 1434h285v-811q0 -309 -170 -481t-461 -171q-202 1 -360 103t-221 264l280 76q41 -84 119 -130t182 -46q164 0 255 99t91 273v824zM705 1638l382 326l381 -326l-137 -141l-244 203l-243 -203z" />
    <glyph glyph-name="Kcommaaccent" unicode="&#x136;" horiz-adv-x="1470" 
d="M608 -209q0 53 39 91t94 38t93 -42t38 -118t-55 -168q-55 -94 -139 -163h-100q47 35 90 107t43 122l24 8l-24 4q-39 4 -71 36t-32 85zM453 829h2l20 23q23 23 75 77t109 111l394 394h350l-600 -603l618 -831h-338l-469 643l-159 -160v-483h-285v1434h285v-283l-2 -291
v-31z" />
    <glyph glyph-name="kcommaaccent" unicode="&#x137;" horiz-adv-x="1470" 
d="M610 -209q0 53 39 91t94 38t93 -42t38 -118t-55 -168q-55 -94 -139 -163h-100q47 35 90 107t43 122l24 8l-24 4q-39 4 -71 36t-32 85zM453 829h2l20 23q23 23 75 77t109 111l394 394h350l-600 -603l618 -831h-338l-469 643l-159 -160v-483h-285v1434h285v-283l-2 -291
v-31z" />
    <glyph glyph-name="Lacute" unicode="&#x139;" horiz-adv-x="1204" 
d="M455 266h708v-266h-993v1434h285v-1168zM666 1708l-488 -211l-84 152l473 254z" />
    <glyph glyph-name="lacute" unicode="&#x13a;" horiz-adv-x="1204" 
d="M455 266h708v-266h-993v1434h285v-1168zM666 1708l-488 -211l-84 152l473 254z" />
    <glyph glyph-name="Lcommaaccent" unicode="&#x13b;" horiz-adv-x="1204" 
d="M545 -209q0 53 39 91t94 38t93 -42t38 -118t-55 -168q-55 -94 -140 -163h-100q47 35 90 107t43 122l25 8l-25 4q-39 4 -71 36t-31 85zM455 266h708v-266h-993v1434h285v-1168z" />
    <glyph glyph-name="lcommaaccent" unicode="&#x13c;" horiz-adv-x="1204" 
d="M586 -80q55 0 93 -42t38 -118t-55 -168q-55 -94 -140 -163h-100q47 35 90 107t43 122l25 8l-25 4q-39 4 -71 36t-32 85t40 91q39 38 94 38zM455 266h708v-266h-993v1434h285v-1168z" />
    <glyph glyph-name="Lcaron" unicode="&#x13d;" horiz-adv-x="1204" 
d="M455 266h708v-266h-993v1434h285v-1168zM810 1458q58 0 99 -45t41 -126t-60 -182t-149 -175h-106q51 37 96 116t45 132l27 8l-27 4q-43 4 -76 39q-32 35 -32 91t42 97t100 41z" />
    <glyph glyph-name="lcaron" unicode="&#x13e;" horiz-adv-x="1204" 
d="M455 266h708v-266h-993v1434h285v-1168zM629 1326q0 56 42 97t101 41t100 -45t41 -127t-60 -182q-60 -102 -148 -176h-109q51 37 96 117t45 131l29 10l-29 2q-41 6 -75 41t-33 91z" />
    <glyph glyph-name="Ldot" unicode="&#x13f;" horiz-adv-x="1204" 
d="M973 792q0 -56 -39 -96t-95 -39q-56 0 -96 39q-39 40 -39 96t39 95t95 39t96 -39q39 -39 39 -95zM455 266h708v-266h-993v1434h285v-1168z" />
    <glyph glyph-name="ldot" unicode="&#x140;" horiz-adv-x="1204" 
d="M973 792q0 -56 -39 -96t-95 -39q-56 0 -96 39q-39 40 -39 96t39 95t95 39t96 -39q39 -39 39 -95zM455 266h708v-266h-993v1434h285v-1168z" />
    <glyph glyph-name="Lslash" unicode="&#x141;" horiz-adv-x="1204" 
d="M455 266h708v-266h-993v1434h285v-572l520 268v-270l-520 -266v-328z" />
    <glyph glyph-name="lslash" unicode="&#x142;" horiz-adv-x="1204" 
d="M455 266h708v-266h-993v1434h285v-572l520 268v-270l-520 -266v-328z" />
    <glyph glyph-name="Nacute" unicode="&#x143;" horiz-adv-x="1589" 
d="M1135 1434h284v-1434h-268l-408 553q-55 76 -129 178t-116 162l-43 61h-2v-64l2 -427v-463h-285v1434h268l416 -560q123 -157 231 -317l50 -68h2v70l-2 406v469zM1032 1903l98 -195l-487 -211l-84 152z" />
    <glyph glyph-name="nacute" unicode="&#x144;" horiz-adv-x="1589" 
d="M1135 1434h284v-1434h-268l-408 553q-55 76 -129 178t-116 162l-43 61h-2v-64l2 -427v-463h-285v1434h268l416 -560q123 -157 231 -317l50 -68h2v70l-2 406v469zM1032 1903l98 -195l-487 -211l-84 152z" />
    <glyph glyph-name="Ncommaaccent" unicode="&#x145;" horiz-adv-x="1589" 
d="M676 -209q0 53 39 91t94 38t93 -42t38 -118t-55 -168q-55 -94 -140 -163h-100q47 35 90 107t43 122l25 8l-25 4q-38 4 -70 36t-32 85zM1135 1434h284v-1434h-268l-408 553q-55 76 -129 178t-116 162l-43 61h-2v-64l2 -427v-463h-285v1434h268l416 -560q123 -157 231 -317
l50 -68h2v70l-2 406v469z" />
    <glyph glyph-name="ncommaaccent" unicode="&#x146;" horiz-adv-x="1589" 
d="M676 -209q0 53 39 91t94 38t93 -42t38 -118t-55 -168q-55 -94 -140 -163h-100q47 35 90 107t43 122l25 8l-25 4q-38 4 -70 36t-32 85zM1135 1434h284v-1434h-268l-408 553q-55 76 -129 178t-116 162l-43 61h-2v-64l2 -427v-463h-285v1434h268l416 -560q123 -157 231 -317
l50 -68h2v70l-2 406v469z" />
    <glyph glyph-name="Ncaron" unicode="&#x147;" horiz-adv-x="1589" 
d="M1135 1434h284v-1434h-268l-408 553q-55 76 -129 178t-116 162l-43 61h-2v-64l2 -427v-463h-285v1434h268l416 -560q123 -157 231 -317l50 -68h2v70l-2 406v469zM414 1808l139 142l244 -203l243 203l138 -142l-381 -325z" />
    <glyph glyph-name="ncaron" unicode="&#x148;" horiz-adv-x="1589" 
d="M1135 1434h284v-1434h-268l-408 553q-55 76 -129 178t-116 162l-43 61h-2v-64l2 -427v-463h-285v1434h268l416 -560q123 -157 231 -317l50 -68h2v70l-2 406v469zM414 1808l139 142l244 -203l243 203l138 -142l-381 -325z" />
    <glyph glyph-name="Eng" unicode="&#x14a;" horiz-adv-x="1589" 
d="M1135 1434h284v-1434q0 -207 -127 -342t-321 -135h-84v229h59q94 0 150 68q55 68 55 180l-408 553q-55 76 -129 178t-116 162l-43 61h-2v-64l2 -427v-463h-285v1434h268l416 -560q123 -157 231 -317l50 -68h2v70l-2 406v469z" />
    <glyph glyph-name="eng" unicode="&#x14b;" horiz-adv-x="1589" 
d="M1135 1434h284v-1434q0 -207 -127 -342t-321 -135h-84v229h59q94 0 150 68q55 68 55 180l-408 553q-55 76 -129 178t-116 162l-43 61h-2v-64l2 -427v-463h-285v1434h268l416 -560q123 -157 231 -317l50 -68h2v70l-2 406v469z" />
    <glyph glyph-name="Omacron" unicode="&#x14c;" horiz-adv-x="1644" 
d="M822 1182q-198 0 -322 -129t-125 -335q0 -206 125 -336q124 -130 322 -130t323 130t125 336t-125 335t-323 129zM78 717q0 321 216 533t528 212t528 -212t217 -534q0 -322 -216 -533q-217 -212 -529 -212t-528 212t-216 534zM494 1798h694v-221h-694v221z" />
    <glyph glyph-name="omacron" unicode="&#x14d;" horiz-adv-x="1644" 
d="M822 1182q-198 0 -322 -129t-125 -335q0 -206 125 -336q124 -130 322 -130t323 130t125 336t-125 335t-323 129zM78 717q0 321 216 533t528 212t528 -212t217 -534q0 -322 -216 -533q-217 -212 -529 -212t-528 212t-216 534zM489 1798h695v-221h-695v221z" />
    <glyph glyph-name="Ohungarumlaut" unicode="&#x150;" horiz-adv-x="1644" 
d="M822 1182q-198 0 -322 -129t-125 -335q1 -206 125 -336t322 -130t323 130t125 336t-125 335t-323 129zM78 717q0 321 216 533t528 212t528 -212t217 -534q0 -322 -216 -533q-217 -212 -529 -212t-528 212t-216 534zM829 1630l-311 -133l-82 152l473 254l82 -162l301 162
l99 -195l-490 -211z" />
    <glyph glyph-name="ohungarumlaut" unicode="&#x151;" horiz-adv-x="1644" 
d="M822 1182q-198 0 -322 -129t-125 -335q1 -206 125 -336t322 -130t323 130t125 336t-125 335t-323 129zM78 717q0 321 216 533t528 212t528 -212t217 -534q0 -322 -216 -533q-217 -212 -529 -212t-528 212t-216 534zM825 1630l-311 -133l-82 152l473 254l82 -162l301 162
l98 -195l-489 -211z" />
    <glyph glyph-name="OE" unicode="&#x152;" horiz-adv-x="2140" 
d="M801 1161q-193 0 -309 -121q-116 -120 -117 -322q0 -202 117 -324t309 -122q110 0 182 33v823q-72 33 -182 33zM1262 266h739v-266h-1018q-57 -8 -182 -8q-307 0 -515 205t-208 520t208 520t515 205q121 0 182 -8h1006v-267h-727v-305h575v-250h-575v-346z" />
    <glyph glyph-name="oe" unicode="&#x153;" horiz-adv-x="2140" 
d="M801 1161q-193 0 -309 -121q-116 -120 -117 -322q0 -202 117 -324t309 -122q110 0 182 33v823q-72 33 -182 33zM1262 266h739v-266h-1018q-57 -8 -182 -8q-307 0 -515 205t-208 520t208 520t515 205q121 0 182 -8h1006v-267h-727v-305h575v-250h-575v-346z" />
    <glyph glyph-name="Racute" unicode="&#x154;" horiz-adv-x="1363" 
d="M455 1167v-424h254q113 -1 172 61t59 151t-60 151t-171 61h-254zM455 489v-489h-285v1434h502q262 0 412 -130t151 -350q0 -301 -270 -411l327 -543h-319l-285 489h-233zM985 1708l-487 -211l-84 152l473 254z" />
    <glyph glyph-name="racute" unicode="&#x155;" horiz-adv-x="1363" 
d="M455 1167v-424h254q113 -1 172 61t59 151t-60 151t-171 61h-254zM455 489v-489h-285v1434h502q262 0 412 -130t151 -350q0 -301 -270 -411l327 -543h-319l-285 489h-233zM1001 1708l-487 -211l-84 152l473 254z" />
    <glyph glyph-name="Rcommaaccent" unicode="&#x156;" horiz-adv-x="1363" 
d="M551 -209q0 53 39 91t94 38t93 -42t38 -118t-55 -168q-55 -94 -139 -163h-101q47 35 90 107t43 122l25 8l-25 4q-39 4 -71 36t-31 85zM455 1167v-424h254q113 -1 172 61t59 151t-60 151t-171 61h-254zM455 489v-489h-285v1434h502q262 0 412 -130t151 -350
q0 -300 -270 -411l327 -543h-319l-285 489h-233z" />
    <glyph glyph-name="rcommaaccent" unicode="&#x157;" horiz-adv-x="1363" 
d="M575 -209q0 53 39 91q38 38 94 38t94 -42t38 -118t-56 -168q-56 -94 -139 -163h-100q47 35 90 107t43 122l24 8l-24 4q-39 4 -71 36t-32 85zM455 1167v-424h254q113 -1 172 61t59 151t-60 151t-171 61h-254zM455 489v-489h-285v1434h502q262 0 412 -130t151 -350
q0 -300 -270 -411l327 -543h-319l-285 489h-233z" />
    <glyph glyph-name="Rcaron" unicode="&#x158;" horiz-adv-x="1363" 
d="M455 1167v-424h254q113 -1 172 61t59 151t-60 151t-171 61h-254zM455 489v-489h-285v1434h502q262 0 412 -130t151 -350q0 -301 -270 -411l327 -543h-319l-285 489h-233zM1032 1808l-381 -325l-383 325l140 142l243 -203l244 203z" />
    <glyph glyph-name="rcaron" unicode="&#x159;" horiz-adv-x="1363" 
d="M455 1167v-424h254q113 -1 172 61t59 151t-60 151t-171 61h-254zM455 489v-489h-285v1434h502q262 0 412 -130t151 -350q0 -301 -270 -411l327 -543h-319l-285 489h-233zM1032 1808l-381 -325l-383 325l140 142l243 -203l244 203z" />
    <glyph glyph-name="Sacute" unicode="&#x15a;" horiz-adv-x="1245" 
d="M612 1214q-98 0 -157 -42t-59 -94q-1 -84 76 -126t122 -57q84 -27 180 -61q292 -104 374 -260q38 -73 38 -164q0 -193 -153 -316t-385 -123t-385 116t-212 314l275 74q24 -104 110 -177t205 -73t180 48t62 124q0 119 -202 188q-32 11 -134 42q-189 58 -317 150
q-128 93 -128 267t151 296t362 122t359 -108t195 -281l-274 -76q-25 102 -104 160q-81 57 -179 57zM881 1903l98 -195l-487 -211l-84 152z" />
    <glyph glyph-name="sacute" unicode="&#x15b;" horiz-adv-x="1245" 
d="M612 1214q-98 0 -157 -42t-59 -94q-1 -84 76 -126t122 -57q84 -27 180 -61q292 -104 374 -260q38 -73 38 -164q0 -193 -153 -316t-385 -123t-385 116t-212 314l275 74q24 -104 110 -177t205 -73t180 48t62 124q0 119 -202 188q-32 11 -134 42q-189 58 -317 150
q-128 93 -128 267t151 296t362 122t359 -108t195 -281l-274 -76q-25 102 -104 160q-81 57 -179 57zM897 1903l98 -195l-487 -211l-84 152z" />
    <glyph glyph-name="Scircumflex" unicode="&#x15c;" horiz-adv-x="1245" 
d="M612 1214q-98 0 -157 -42t-59 -94q-1 -84 76 -126t122 -57q84 -27 180 -61q292 -104 374 -260q38 -73 38 -164q0 -193 -153 -316t-385 -123t-385 116t-212 314l275 74q24 -104 110 -177t205 -73t180 48t62 124q0 119 -202 188q-32 11 -134 42q-189 58 -317 150
q-128 93 -128 267t151 296t362 122t359 -108t195 -281l-274 -76q-25 102 -104 160q-81 57 -179 57zM256 1638l383 326l381 -326l-137 -141l-244 203l-244 -203z" />
    <glyph glyph-name="scircumflex" unicode="&#x15d;" horiz-adv-x="1245" 
d="M612 1214q-98 0 -157 -42t-59 -94q-1 -84 76 -126t122 -57q84 -27 180 -61q292 -104 374 -260q38 -73 38 -164q0 -193 -153 -316t-385 -123t-385 116t-212 314l275 74q24 -104 110 -177t205 -73t180 48t62 124q0 119 -202 188q-32 11 -134 42q-189 58 -317 150
q-128 93 -128 267t151 296t362 122t359 -108t195 -281l-274 -76q-25 102 -104 160q-81 57 -179 57zM256 1638l383 326l381 -326l-137 -141l-244 203l-244 -203z" />
    <glyph glyph-name="Scedilla" unicode="&#x15e;" horiz-adv-x="1245" 
d="M612 1214q-98 0 -157 -42t-59 -94q-1 -84 76 -126t122 -57q84 -27 180 -61q292 -104 374 -260q38 -73 38 -164q0 -170 -121 -288t-324 -145l-32 -88q91 2 155 -55q64 -56 64 -158t-67 -156t-171 -55h-217l59 152h158q78 0 78 64q0 59 -78 63h-188l80 229
q-201 14 -337 128t-194 300l275 74q24 -104 110 -177t205 -73t180 48t62 124q0 119 -202 188q-32 11 -134 42q-189 58 -317 150q-128 93 -128 267t151 296t362 122t359 -108t195 -281l-274 -76q-25 102 -104 160q-81 57 -179 57z" />
    <glyph glyph-name="scedilla" unicode="&#x15f;" horiz-adv-x="1245" 
d="M612 1214q-98 0 -157 -42t-59 -94q-1 -84 76 -126t122 -57q84 -27 180 -61q292 -104 374 -260q38 -73 38 -164q0 -168 -116 -284t-312 -146l-33 -91q90 2 155 -55q64 -56 64 -158t-66 -156t-171 -55h-218l60 152h158q78 0 77 64q0 59 -77 63h-189l78 229
q-205 10 -346 125t-199 303l275 74q24 -104 110 -177t205 -73t180 48t62 124q0 119 -202 188q-32 11 -134 42q-189 58 -317 150q-128 93 -128 267t151 296t362 122t359 -108t195 -281l-274 -76q-25 102 -104 160q-81 57 -179 57z" />
    <glyph glyph-name="Scaron" unicode="&#x160;" horiz-adv-x="1245" 
d="M612 1214q-98 0 -157 -42t-59 -94q-1 -84 76 -126t122 -57q84 -27 180 -61q292 -104 374 -260q38 -73 38 -164q0 -193 -153 -316t-385 -123t-385 116t-212 314l275 74q24 -104 110 -177t205 -73t180 48t62 124q0 119 -202 188q-32 11 -134 42q-189 58 -317 150
q-128 93 -128 267t151 296t362 122t359 -108t195 -281l-274 -76q-25 102 -104 160q-81 57 -179 57zM262 1808l139 142l244 -203l244 203l137 -142l-381 -325z" />
    <glyph glyph-name="scaron" unicode="&#x161;" horiz-adv-x="1245" 
d="M612 1214q-98 0 -157 -42t-59 -94q-1 -84 76 -126t122 -57q84 -27 180 -61q292 -104 374 -260q38 -73 38 -164q0 -193 -153 -316t-385 -123t-385 116t-212 314l275 74q24 -104 110 -177t205 -73t180 48t62 124q0 119 -202 188q-32 11 -134 42q-189 58 -317 150
q-128 93 -128 267t151 296t362 122t359 -108t195 -281l-274 -76q-25 102 -104 160q-81 57 -179 57zM279 1808l139 142l244 -203l243 203l137 -142l-380 -325z" />
    <glyph glyph-name="Tcedilla" unicode="&#x162;" horiz-adv-x="1239" 
d="M760 0h-82l-41 -111q90 2 155 -55q64 -56 64 -158t-66 -156t-172 -55h-217l60 152h157q78 0 78 64q0 59 -78 63h-188l88 256h-43v1167h-446v267h1181v-267h-450v-1167z" />
    <glyph glyph-name="tcedilla" unicode="&#x163;" horiz-adv-x="1239" 
d="M760 0h-82l-41 -111q90 2 155 -55q64 -56 64 -158t-66 -156t-172 -55h-217l60 152h157q78 0 78 64q0 59 -78 63h-188l88 256h-43v1167h-446v267h1181v-267h-450v-1167z" />
    <glyph glyph-name="Tcaron" unicode="&#x164;" horiz-adv-x="1239" 
d="M29 1434h1181v-267h-450v-1167h-285v1167h-446v267zM1028 1808l-381 -325l-383 325l139 142l244 -203l244 203z" />
    <glyph glyph-name="tcaron" unicode="&#x165;" horiz-adv-x="1239" 
d="M29 1434h1181v-267h-450v-1167h-285v1167h-446v267zM1028 1808l-381 -325l-383 325l139 142l244 -203l244 203z" />
    <glyph glyph-name="Tbar" unicode="&#x166;" horiz-adv-x="1239" 
d="M1210 1167h-450v-307h223v-217h-223v-643h-285v643h-223v217h223v307h-446v267h1181v-267z" />
    <glyph glyph-name="tbar" unicode="&#x167;" horiz-adv-x="1239" 
d="M1210 1167h-450v-307h223v-217h-223v-643h-285v643h-223v217h223v307h-446v267h1181v-267z" />
    <glyph glyph-name="Umacron" unicode="&#x16a;" horiz-adv-x="1515" 
d="M1090 1434h286v-811q0 -311 -166 -481t-454 -171q-288 0 -452 170q-165 170 -165 482v811h285v-807q0 -389 333 -389t333 389v807zM422 1798h694v-221h-694v221z" />
    <glyph glyph-name="umacron" unicode="&#x16b;" horiz-adv-x="1515" 
d="M1090 1434h286v-811q0 -311 -166 -481t-454 -171q-288 0 -452 170q-165 170 -165 482v811h285v-807q0 -389 333 -389t333 389v807zM422 1798h694v-221h-694v221z" />
    <glyph glyph-name="Ubreve" unicode="&#x16c;" horiz-adv-x="1515" 
d="M1090 1434h286v-811q0 -311 -166 -481t-454 -171q-288 0 -452 170q-165 170 -165 482v811h285v-807q0 -389 333 -389t333 389v807zM760 1698q60 0 105 36q44 36 57 85h204q-29 -131 -130 -214t-238 -83t-238 82q-100 82 -129 215h209q12 -51 56 -86t104 -35z" />
    <glyph glyph-name="ubreve" unicode="&#x16d;" horiz-adv-x="1515" 
d="M1090 1434h286v-811q0 -311 -166 -481t-454 -171q-288 0 -452 170q-165 170 -165 482v811h285v-807q0 -389 333 -389t333 389v807zM760 1698q60 0 105 36q44 36 57 85h204q-29 -131 -130 -214t-238 -83t-238 82q-100 82 -129 215h209q12 -51 56 -86t104 -35z" />
    <glyph glyph-name="Uring" unicode="&#x16e;" horiz-adv-x="1515" 
d="M1090 1434h286v-811q0 -311 -166 -481t-454 -171q-288 0 -452 170q-165 170 -165 482v811h285v-807q0 -389 333 -389t333 389v807zM647 1677q0 -47 34 -79t80 -33q46 1 80 33q33 32 33 79t-33 81q-34 34 -80 34t-80 -34t-34 -81zM760 1395q-115 0 -198 83q-83 84 -83 198
t83 196t198 82q116 0 198 -82t82 -197t-82 -197t-198 -83z" />
    <glyph glyph-name="uring" unicode="&#x16f;" horiz-adv-x="1515" 
d="M1090 1434h286v-811q0 -311 -166 -481t-454 -171q-288 0 -452 170q-165 170 -165 482v811h285v-807q0 -389 333 -389t333 389v807zM647 1677q0 -47 34 -79t80 -33q46 1 80 33q33 32 33 79t-33 81q-34 34 -80 34t-80 -34t-34 -81zM760 1395q-115 0 -198 83q-83 84 -83 198
t83 196t198 82q116 0 198 -82t82 -197t-82 -197t-198 -83z" />
    <glyph glyph-name="Uhungarumlaut" unicode="&#x170;" horiz-adv-x="1515" 
d="M1090 1434h286v-811q0 -311 -166 -481t-454 -171q-288 0 -452 170q-165 170 -165 482v811h285v-807q0 -389 333 -389t333 389v807zM758 1630l-312 -133l-81 152l473 254l82 -162l301 162l98 -195l-490 -211z" />
    <glyph glyph-name="uhungarumlaut" unicode="&#x171;" horiz-adv-x="1515" 
d="M1090 1434h286v-811q0 -311 -166 -481t-454 -171q-288 0 -452 170q-165 170 -165 482v811h285v-807q0 -389 333 -389t333 389v807zM758 1630l-312 -133l-81 152l473 254l82 -162l301 162l98 -195l-490 -211z" />
    <glyph glyph-name="Uogonek" unicode="&#x172;" horiz-adv-x="1515" 
d="M1376 1434v-811q0 -248 -104 -407t-295 -214q-84 -35 -132 -79q-48 -43 -48 -107t38 -102t95 -38t107 37t77 90l146 -96q-42 -90 -134 -149t-190 -60q-143 0 -241 79q-97 79 -97 200t90 196q-258 23 -403 190t-146 460v811h285v-807q0 -389 333 -389t333 389v807h286z
" />
    <glyph glyph-name="uogonek" unicode="&#x173;" horiz-adv-x="1515" 
d="M1376 1434v-811q0 -248 -104 -407t-295 -214q-84 -35 -132 -79q-48 -43 -48 -107t38 -102t95 -38t107 37t77 90l146 -96q-42 -90 -134 -149t-190 -60q-143 0 -241 79q-97 79 -97 200t90 196q-258 23 -403 190t-146 460v811h285v-807q0 -389 333 -389t333 389v807h286z
" />
    <glyph glyph-name="Wcircumflex" unicode="&#x174;" horiz-adv-x="2103" 
d="M1757 1434h301l-450 -1434h-265l-221 692q-44 139 -63 226l-6 28h-2l-7 -28q-26 -115 -61 -226l-221 -692h-266l-451 1434h303l225 -775q15 -55 29 -113t21 -83l8 -27h2l6 27q31 106 63 196l218 621h264l217 -621q48 -136 61 -196l8 -27h3l6 27q8 25 22 83t31 113z
M662 1638l382 326l381 -326l-137 -141l-244 203l-243 -203z" />
    <glyph glyph-name="wcircumflex" unicode="&#x175;" horiz-adv-x="2103" 
d="M1757 1434h301l-450 -1434h-265l-221 692q-44 139 -63 226l-6 28h-2l-7 -28q-26 -115 -61 -226l-221 -692h-266l-451 1434h303l225 -775q15 -55 29 -113t21 -83l8 -27h2l6 27q31 106 63 196l218 621h264l217 -621q48 -136 61 -196l8 -27h3l6 27q8 25 22 83t31 113z
M649 1638l383 326l381 -326l-137 -141l-244 203l-244 -203z" />
    <glyph glyph-name="Ycircumflex" unicode="&#x176;" horiz-adv-x="1435" 
d="M858 0h-283v657l-550 777h319l295 -412q72 -106 78 -107h2q6 0 78 107l293 412h321l-553 -777v-657zM328 1638l383 326l381 -326l-138 -141l-243 203l-244 -203z" />
    <glyph glyph-name="ycircumflex" unicode="&#x177;" horiz-adv-x="1435" 
d="M858 0h-283v657l-550 777h319l295 -412q72 -106 78 -107h2q6 0 78 107l293 412h321l-553 -777v-657zM330 1638l383 326l381 -326l-138 -141l-243 203l-244 -203z" />
    <glyph glyph-name="Ydieresis" unicode="&#x178;" horiz-adv-x="1435" 
d="M858 0h-283v657l-550 777h319l295 -412q72 -106 78 -107h2q6 0 78 107l293 412h321l-553 -777v-657zM974 1571q-56 0 -95 38t-39 94t39 95t95 39t95 -39t39 -95t-39 -94t-95 -38zM445 1837q55 0 95 -39t40 -95t-40 -94t-96 -38q-57 0 -96 38t-39 94t40 95t96 39z" />
    <glyph glyph-name="Zacute" unicode="&#x179;" horiz-adv-x="1443" 
d="M143 1167v267h1178v-267l-688 -774q-27 -29 -59 -63l-48 -51l-16 -17l2 -2h6l40 2l115 4h648v-266h-1198v266l711 785q26 29 104 100l20 18l-2 2h-14l-139 -4h-660zM973 1903l98 -195l-487 -211l-84 152z" />
    <glyph glyph-name="zacute" unicode="&#x17a;" horiz-adv-x="1443" 
d="M143 1167v267h1178v-267l-688 -774q-27 -29 -59 -63l-48 -51l-16 -17l2 -2h6l40 2l115 4h648v-266h-1198v266l711 785q26 29 104 100l20 18l-2 2h-14l-139 -4h-660zM973 1903l98 -195l-487 -211l-84 152z" />
    <glyph glyph-name="Zdotaccent" unicode="&#x17b;" horiz-adv-x="1443" 
d="M143 1167v267h1178v-267l-688 -774q-27 -29 -59 -63l-48 -51l-16 -17l2 -2h6l40 2l115 4h648v-266h-1198v266l711 785q26 29 104 100l20 18l-2 2h-14l-139 -4h-660zM737 1569q-55 0 -95 39t-40 95t40 95t95 39t94 -39t39 -95t-39 -95t-94 -39z" />
    <glyph glyph-name="zdotaccent" unicode="&#x17c;" horiz-adv-x="1443" 
d="M143 1167v267h1178v-267l-688 -774q-27 -29 -59 -63l-48 -51l-16 -17l2 -2h6l40 2l115 4h648v-266h-1198v266l711 785q26 29 104 100l20 18l-2 2h-14l-139 -4h-660zM737 1569q-55 0 -95 39t-40 95t40 95t95 39t94 -39t39 -95t-39 -95t-94 -39z" />
    <glyph glyph-name="Zcaron" unicode="&#x17d;" horiz-adv-x="1443" 
d="M143 1167v267h1178v-267l-688 -774q-27 -29 -59 -63l-48 -51l-16 -17l2 -2h6l40 2l115 4h648v-266h-1198v266l711 785q26 29 104 100l20 18l-2 2h-14l-139 -4h-660zM354 1808l140 142l243 -203l244 203l137 -142l-381 -325z" />
    <glyph glyph-name="zcaron" unicode="&#x17e;" horiz-adv-x="1443" 
d="M143 1167v267h1178v-267l-688 -774q-27 -29 -59 -63l-48 -51l-16 -17l2 -2h6l40 2l115 4h648v-266h-1198v266l711 785q26 29 104 100l20 18l-2 2h-14l-139 -4h-660zM354 1808l140 142l243 -203l244 203l137 -142l-381 -325z" />
    <glyph glyph-name="Scommaaccent" unicode="&#x218;" horiz-adv-x="1245" 
d="M481 -209q0 53 39 91t94 38q56 0 94 -42t38 -118t-56 -168q-55 -94 -139 -163h-100q47 35 90 107t43 122l24 8l-24 4q-39 4 -71 36t-32 85zM612 1214q-98 0 -157 -42t-59 -94q-1 -84 76 -126t122 -57q84 -27 180 -61q292 -104 374 -260q38 -73 38 -164q0 -193 -153 -316
t-385 -123t-385 116t-212 314l275 74q24 -104 110 -177t205 -73t180 48t62 124q0 119 -202 188q-32 11 -134 42q-189 58 -317 150q-128 93 -128 267t151 296t362 122t359 -108t195 -281l-274 -76q-25 102 -104 160q-81 57 -179 57z" />
    <glyph glyph-name="scommaaccent" unicode="&#x219;" horiz-adv-x="1245" 
d="M481 -209q0 53 39 91t94 38q56 0 94 -42t38 -118t-56 -168q-55 -94 -139 -163h-100q47 35 90 107t43 122l24 8l-24 4q-39 4 -71 36t-32 85zM612 1214q-98 0 -157 -42t-59 -94q-1 -84 76 -126t122 -57q84 -27 180 -61q292 -104 374 -260q38 -73 38 -164q0 -193 -153 -316
t-385 -123t-385 116t-212 314l275 74q24 -104 110 -177t205 -73t180 48t62 124q0 119 -202 188q-32 11 -134 42q-189 58 -317 150q-128 93 -128 267t151 296t362 122t359 -108t195 -281l-274 -76q-25 102 -104 160q-81 57 -179 57z" />
    <glyph glyph-name="uni021A" unicode="&#x21a;" horiz-adv-x="1239" 
d="M504 -209q0 53 39 91t94 38t93 -42t38 -118t-55 -168q-55 -94 -140 -163h-100q47 35 90 107t43 122l25 8l-25 4q-38 4 -70 36t-32 85zM29 1434h1181v-267h-450v-1167h-285v1167h-446v267z" />
    <glyph glyph-name="uni021B" unicode="&#x21b;" horiz-adv-x="1239" 
d="M584 -80q56 0 93 -42q38 -42 38 -118q1 -76 -55 -168q-56 -94 -140 -163h-100q47 35 90 107t43 122l25 8l-25 4q-39 4 -71 36t-32 85t39 91t95 38zM29 1434h1181v-267h-450v-1167h-285v1167h-446v267z" />
    <glyph glyph-name="dotlessj" unicode="&#x237;" horiz-adv-x="1374" 
d="M950 1434h285v-811q0 -309 -170 -481t-461 -171q-202 1 -360 103t-221 264l280 76q41 -84 119 -130t182 -46q164 0 255 99t91 273v824z" />
    <glyph glyph-name="circumflex" unicode="&#x2c6;" horiz-adv-x="774" 
d="M-23 1638l383 326l381 -326l-137 -141l-244 203l-243 -203z" />
    <glyph glyph-name="caron" unicode="&#x2c7;" horiz-adv-x="774" 
d="M-23 1808l140 142l243 -203l244 203l137 -142l-381 -323z" />
    <glyph glyph-name="breve" unicode="&#x2d8;" horiz-adv-x="700" 
d="M316 1698q60 0 106 36q45 36 55 85h205q-29 -131 -130 -214q-100 -83 -238 -83t-237 82t-128 215h207q12 -51 56 -86t104 -35z" />
    <glyph glyph-name="dotaccent" unicode="&#x2d9;" horiz-adv-x="344" 
d="M142 1837q56 0 96 -39t38 -95q0 -56 -39 -95t-95 -39t-95 39t-39 95t39 95t95 39z" />
    <glyph glyph-name="ring" unicode="&#x2da;" horiz-adv-x="581" 
d="M266 1509q47 0 81 33t34 80t-34 80t-81 33t-80 -33q-32 -33 -32 -80t32 -80t80 -33zM265 1339q-117 0 -199 83t-82 197t83 197q83 82 199 82t197 -82q82 -82 82 -198q0 -115 -82 -197t-198 -82z" />
    <glyph glyph-name="ogonek" unicode="&#x2db;" horiz-adv-x="1228" 
d="M172 -194q0 136 90 225q90 88 174 88l185 -119q-94 0 -170 -47t-76 -137q0 -56 41 -98t112 -42q130 0 189 125l149 -94q-51 -98 -141 -153t-197 -56q-158 0 -257 86t-99 222z" />
    <glyph glyph-name="tilde" unicode="&#x2dc;" horiz-adv-x="989" 
d="M700 1810h224q0 -122 -82 -202t-209 -80q-76 0 -170 61t-135 61t-68 -25q-27 -26 -27 -64h-221q0 123 82 203t209 81q82 0 174 -62q92 -63 131 -63q40 0 66 26t26 64z" />
    <glyph glyph-name="hungarumlaut" unicode="&#x2dd;" horiz-adv-x="1030" 
d="M967 1708l-490 -211l-71 133l-312 -133l-82 152l473 254l82 -162l301 162z" />
    <glyph glyph-name="commaaccentcomb" unicode="&#x326;" horiz-adv-x="0" 
d="M119 -208q0 52 39 90t94 38t93 -42t38 -118t-55 -168q-55 -94 -140 -163h-100q47 35 90 107t43 122l25 8l-25 4q-39 6 -71 38t-31 84z" />
    <glyph glyph-name="Wgrave" unicode="&#x1e80;" horiz-adv-x="2103" 
d="M1757 1434h301l-450 -1434h-265l-221 692q-44 139 -63 226l-6 28h-2l-7 -28q-26 -115 -61 -226l-221 -692h-266l-451 1434h303l225 -775q15 -55 29 -113t21 -83l8 -27h2l6 27q31 106 63 196l218 621h264l217 -621q48 -136 61 -196l8 -27h3l6 27q8 25 22 83t31 113z
M1161 1497l-489 211l100 195l471 -254z" />
    <glyph glyph-name="wgrave" unicode="&#x1e81;" horiz-adv-x="2103" 
d="M1757 1434h301l-450 -1434h-265l-221 692q-44 139 -63 226l-6 28h-2l-7 -28q-26 -115 -61 -226l-221 -692h-266l-451 1434h303l225 -775q15 -55 29 -113t21 -83l8 -27h2l6 27q31 106 63 196l218 621h264l217 -621q48 -136 61 -196l8 -27h3l6 27q8 25 22 83t31 113z
M1149 1497l-490 211l101 195l471 -254z" />
    <glyph glyph-name="Wacute" unicode="&#x1e82;" horiz-adv-x="2103" 
d="M1757 1434h301l-450 -1434h-265l-221 692q-44 139 -63 226l-6 28h-2l-7 -28q-26 -115 -61 -226l-221 -692h-266l-451 1434h303l225 -775q15 -55 29 -113t21 -83l8 -27h2l6 27q31 106 63 196l218 621h264l217 -621q48 -136 61 -196l8 -27h3l6 27q8 25 22 83t31 113z
M1286 1903l98 -195l-487 -211l-84 152z" />
    <glyph glyph-name="wacute" unicode="&#x1e83;" horiz-adv-x="2103" 
d="M1757 1434h301l-450 -1434h-265l-221 692q-44 139 -63 226l-6 28h-2l-7 -28q-26 -115 -61 -226l-221 -692h-266l-451 1434h303l225 -775q15 -55 29 -113t21 -83l8 -27h2l6 27q31 106 63 196l218 621h264l217 -621q48 -136 61 -196l8 -27h3l6 27q8 25 22 83t31 113z
M1274 1903l98 -195l-487 -211l-84 152z" />
    <glyph glyph-name="Wdieresis" unicode="&#x1e84;" horiz-adv-x="2103" 
d="M1757 1434h301l-450 -1434h-265l-221 692q-44 139 -63 226l-6 28h-2l-7 -28q-26 -115 -61 -226l-221 -692h-266l-451 1434h303l225 -775q15 -55 29 -113t21 -83l8 -27h2l6 27q31 106 63 196l218 621h264l217 -621q48 -136 61 -196l8 -27h3l6 27q8 25 22 83t31 113z
M1308 1571q-56 0 -96 38q-38 38 -38 94t38 95q40 39 96 39t95 -39t39 -95t-39 -94t-95 -38zM778 1571q-57 0 -96 38t-39 94t40 95t96 39t95 -39t39 -95t-39 -94t-96 -38z" />
    <glyph glyph-name="wdieresis" unicode="&#x1e85;" horiz-adv-x="2103" 
d="M1757 1434h301l-450 -1434h-265l-221 692q-44 139 -63 226l-6 28h-2l-7 -28q-26 -115 -61 -226l-221 -692h-266l-451 1434h303l225 -775q15 -55 29 -113t21 -83l8 -27h2l6 27q31 106 63 196l218 621h264l217 -621q48 -136 61 -196l8 -27h3l6 27q8 25 22 83t31 113z
M1295 1837q55 0 95 -39t40 -95t-40 -94t-95 -38q-56 0 -95 38t-39 94t39 95t95 39zM766 1571q-57 0 -96 38t-39 94t40 95t96 39t95 -39t39 -95t-39 -94t-96 -38z" />
    <glyph glyph-name="Germandbls" unicode="&#x1e9e;" horiz-adv-x="1658" 
d="M455 1167v-1167h-285v1434h1274l-215 -402q-100 -190 -101 -192l2 -2h11q182 2 311 -120t129 -306t-136 -312q-136 -129 -362 -129q-161 0 -293 76t-204 203l270 74q84 -111 203 -111t177 60q58 59 58 149t-60 149t-171 60h-207v207l94 186q28 62 62 123l10 22l-2 2h-8
l-89 -4h-468z" />
    <glyph glyph-name="Ygrave" unicode="&#x1ef2;" horiz-adv-x="1435" 
d="M858 0h-283v657l-550 777h319l295 -412q72 -106 78 -107h2q6 0 78 107l293 412h321l-553 -777v-657zM827 1497l-489 211l100 195l471 -254z" />
    <glyph glyph-name="ygrave" unicode="&#x1ef3;" horiz-adv-x="1435" 
d="M858 0h-283v657l-550 777h319l295 -412q72 -106 78 -107h2q6 0 78 107l293 412h321l-553 -777v-657zM829 1497l-489 211l100 195l471 -254z" />
    <glyph glyph-name="uni2007" unicode="&#x2007;" 
 />
    <glyph glyph-name="uni2009" unicode="&#x2009;" horiz-adv-x="245" 
 />
    <glyph glyph-name="uni200A" unicode="&#x200a;" horiz-adv-x="81" 
 />
    <glyph glyph-name="endash" unicode="&#x2013;" horiz-adv-x="1210" 
d="M170 860h870v-268h-870v268z" />
    <glyph glyph-name="emdash" unicode="&#x2014;" horiz-adv-x="2111" 
d="M170 860h1772v-268h-1772v268z" />
    <glyph glyph-name="quoteleft" unicode="&#x2018;" horiz-adv-x="657" 
d="M455 1069q0 -57 -42 -98q-41 -41 -101 -41t-101 45t-41 127t60 183t149 173h108q-51 -35 -97 -115t-46 -133l-27 -8l27 -2q43 -6 77 -40t34 -91z" />
    <glyph glyph-name="quoteright" unicode="&#x2019;" horiz-adv-x="657" 
d="M203 1320q0 56 42 97t101 41t100 -44t41 -126t-60 -183t-148 -175h-109q51 37 97 116t46 132l27 8l-27 4q-43 6 -77 40t-33 90z" />
    <glyph glyph-name="quotesinglbase" unicode="&#x201a;" horiz-adv-x="657" 
d="M203 120q0 56 42 97t101 41t100 -44t41 -126t-60 -183t-148 -175h-109q51 38 97 116t46 131l27 9l-27 4q-43 6 -77 40t-33 90z" />
    <glyph glyph-name="quotedblleft" unicode="&#x201c;" horiz-adv-x="1095" 
d="M893 1068q0 -56 -42 -97t-101 -41t-100 45q-40 45 -40 127t61 183q60 101 148 173h107q-50 -35 -96 -115t-46 -133l-28 -8l28 -2q41 -6 75 -41t34 -91zM455 1069q0 -57 -42 -98q-41 -41 -101 -41t-101 45t-41 127t60 183t149 173h108q-51 -35 -97 -115t-46 -133l-27 -8
l27 -2q43 -6 77 -40t34 -91z" />
    <glyph glyph-name="quotedblright" unicode="&#x201d;" horiz-adv-x="1095" 
d="M643 1320q0 56 42 97t100 41q57 0 99 -45t42 -126t-60 -182t-149 -175h-107q51 37 97 116q45 79 45 132l26 8l-26 4q-43 4 -76 39t-33 91zM203 1320q0 56 42 97t101 41t100 -44t41 -126t-60 -183t-148 -175h-109q51 37 97 116t46 132l27 8l-27 4q-43 6 -77 40t-33 90z
" />
    <glyph glyph-name="quotedblbase" unicode="&#x201e;" horiz-adv-x="1087" 
d="M633 120q0 56 42 97t101 41q58 0 100 -44t42 -126t-60 -182t-149 -176h-109q51 38 97 116t46 131l27 9l-27 4q-43 6 -77 40t-33 90zM203 120q0 56 42 97t101 41t100 -44t41 -126t-59 -182t-149 -176h-109q51 38 97 116t46 131l27 9l-27 4q-43 6 -77 40t-33 90z" />
    <glyph glyph-name="dagger" unicode="&#x2020;" horiz-adv-x="1058" 
d="M1030 1090v-242h-377v-225q0 -275 -15 -449t-17 -174h-185q-9 0 -22 236q-12 236 -13 387v225h-372v242h372v344h252v-344h377z" />
    <glyph glyph-name="daggerdbl" unicode="&#x2021;" horiz-adv-x="1058" 
d="M653 848v-234h377v-241h-383q-7 -183 -16 -278q-8 -95 -10 -95h-185q-13 0 -28 373h-379v241h372v234h-372v242h372v344h252v-344h377v-242h-377z" />
    <glyph glyph-name="bullet" unicode="&#x2022;" horiz-adv-x="821" 
d="M411 485q-99 0 -170 71t-71 170t71 170t170 71t169 -71t70 -170t-70 -170t-169 -71z" />
    <glyph glyph-name="ellipsis" unicode="&#x2026;" horiz-adv-x="1564" 
d="M1324 -27q-48 0 -82 34t-34 82t35 82t82 34t82 -34t35 -82t-35 -82t-83 -34zM771 -27q-48 0 -82 34t-34 82t35 82t82 34t82 -34t35 -82t-35 -82t-83 -34zM239 -27q-48 0 -82 34t-34 82t35 82t82 34t82 -34q34 -34 34 -82t-34 -82t-83 -34z" />
    <glyph glyph-name="perthousand" unicode="&#x2030;" horiz-adv-x="2764" 
d="M2322 176q78 0 126 64t49 157q-1 94 -49 159t-126 65t-126 -65t-48 -159q0 -93 48 -157t126 -64zM1479 176q78 0 126 64t48 157q0 94 -48 159t-126 65t-126 -65t-48 -159q0 -93 48 -157t126 -64zM2322 -16q-162 0 -264 118t-102 295q0 178 102 296t264 118t264 -118
t101 -296q0 -178 -101 -296q-102 -117 -264 -117zM1479 -16q-162 0 -265 117q-102 118 -102 296t102 296t264 118t264 -118q101 -118 101 -296q0 -177 -101 -295t-263 -118zM444 813q78 0 126 65q48 66 48 158t-48 157t-126 65t-126 -66q-48 -64 -48 -157t48 -157t126 -65z
M360 0l1012 1434h187l-1010 -1434h-189zM444 623q-162 1 -264 117t-102 294t102 297t264 119t264 -118t101 -297q0 -179 -101 -296q-102 -116 -264 -116z" />
    <glyph glyph-name="guilsinglleft" unicode="&#x2039;" horiz-adv-x="978" 
d="M653 1200l154 -156l-334 -323l336 -324l-158 -157l-481 481z" />
    <glyph glyph-name="guilsinglright" unicode="&#x203a;" horiz-adv-x="978" 
d="M326 1200l483 -479l-481 -481l-158 157l338 324l-336 323z" />
    <glyph glyph-name="fraction" unicode="&#x2044;" horiz-adv-x="256" 
d="M-471 0l1012 1434h186l-1010 -1434h-188z" />
    <glyph glyph-name="Euro" unicode="&#x20ac;" horiz-adv-x="1642" 
d="M904 -25q-236 1 -431 143t-264 376h-131v188h100v70h-98v186h129q70 233 263 377q194 143 424 143t402 -101t267 -276l-289 -71q-58 80 -152 126t-216 46t-231 -66q-110 -66 -167 -178h430v-186h-481q-2 -12 -2 -35t2 -35h481v-188h-428q59 -110 168 -174t236 -64
q126 0 230 56t159 153l284 -72q-88 -193 -268 -305q-181 -112 -417 -113z" />
    <glyph glyph-name="uni20B9" unicode="&#x20b9;" horiz-adv-x="1220" 
d="M1149 1217h-250q35 -47 53 -103h197v-211h-176q-17 -156 -119 -260t-266 -139l379 -504h-328l-367 498v211h174q86 0 148 55q61 55 80 139h-504v211h469q-66 102 -193 103h-276v217h979v-217z" />
    <glyph glyph-name="afii61352" unicode="&#x2116;" horiz-adv-x="2275" 
d="M1565 639h663v-174h-663v174zM1718 1107q0 -81 50 -133t128 -52t128 52t50 133t-50 133t-128 52t-128 -52t-50 -133zM1135 1434h284v-1434h-268l-408 553q-55 76 -129 178t-116 162l-43 61h-2v-64l2 -427v-463h-285v1434h268l416 -560q123 -157 231 -317l50 -68h2v70
l-2 406v469zM1544 1106q0 152 102 253t249 101q149 0 251 -101t102 -253t-102 -252t-251 -100t-250 100t-101 252z" />
    <glyph glyph-name="trademark" unicode="&#x2122;" horiz-adv-x="1611" 
d="M911 985v-217h-168v666h162l129 -203q46 -71 66 -125h2l31 62q16 32 36 63l129 203h160v-666h-168v217q0 74 8 158v22h-2q-4 0 -77 -116l-80 -125h-76l-78 125q-76 117 -78 116h-2v-22q6 -60 6 -158zM29 1266v168h610v-168h-219v-498h-172v498h-219z" />
    <glyph glyph-name="oneeighth" unicode="&#x215b;" horiz-adv-x="1521" 
d="M1059 225q0 -47 39 -78t99 -31t99 32t39 78t-40 77t-99 31t-98 -31t-39 -78zM1317 595q0 39 -34 65t-86 26t-86 -26t-34 -65q0 -40 34 -67q34 -28 86 -26t86 28t34 65zM1499 211q0 -90 -85 -158q-85 -67 -217 -67t-217 68t-85 157q0 90 49 141t113 68v2q-43 12 -84 60
t-41 128t75 140t191 61q116 0 190 -60q74 -61 74 -141t-42 -128t-83 -60v-2q63 -16 113 -68t49 -141zM129 0l1012 1434h186l-1010 -1434h-188zM446 1434v-795h-186v401q0 53 5 95t5 53l2 10h-2q-2 0 -23 -29t-48 -51l-60 -57l-116 104l292 269h131z" />
    <glyph glyph-name="threeeighths" unicode="&#x215c;" horiz-adv-x="1654" 
d="M1192 225q0 -47 39 -78t99 -31t100 32q38 32 38 78t-40 77t-99 31t-98 -31t-39 -78zM1450 595q0 39 -34 65t-86 26t-86 -26t-34 -65q0 -40 34 -67q34 -28 86 -26t86 28t34 65zM1632 211q0 -90 -85 -158q-85 -67 -217 -67t-217 68t-85 157q0 90 49 141t113 68v2
q-43 12 -84 60t-41 128t75 140q74 60 190 61q116 0 191 -60q75 -61 75 -141t-43 -128q-42 -48 -83 -60v-2q62 -16 112 -68t50 -141zM262 0l1012 1434h186l-1009 -1434h-189zM643 1230q0 -86 -53 -132q-53 -47 -113 -49v-2q72 -5 125 -49t53 -121q0 -111 -84 -183t-207 -72
q-124 0 -214 68q-90 66 -109 168l160 43q20 -121 157 -121q55 0 88 29t33 73t-36 72t-91 27h-76v131h76q49 0 82 28t33 64t-31 64q-31 27 -80 26q-114 1 -145 -118l-158 43q23 104 105 167q82 64 206 64t202 -67q77 -67 77 -153z" />
    <glyph glyph-name="fiveeighths" unicode="&#x215d;" horiz-adv-x="1611" 
d="M1149 225q0 -47 39 -77t99 -31t99 31t39 78t-40 77t-99 31t-98 -31t-39 -78zM1407 595q0 39 -34 65t-86 26t-86 -26t-34 -66t34 -66q34 -28 86 -26t86 28t34 65zM1589 211q0 -90 -85 -158q-85 -67 -217 -67t-217 68t-85 157q0 90 49 141t113 68v2q-43 12 -84 60t-41 128
t75 140t191 61q116 0 190 -60q74 -61 74 -141t-42 -128t-83 -60v-2q63 -16 113 -68t49 -141zM1231 1434h186l-1009 -1434h-189zM344 1167q135 -1 216 -73t81 -192t-85 -200t-210 -80t-208 68q-83 66 -97 160l164 45q23 -115 133 -115q59 0 96 35t37 90t-37 90t-96 35
q-86 0 -121 -69l-151 40l73 433h455v-162h-322l-8 -35q-9 -42 -37 -113l2 -2q41 45 115 45z" />
    <glyph glyph-name="seveneighths" unicode="&#x215e;" horiz-adv-x="1411" 
d="M948 225q0 -47 39 -78t99 -31t100 32q39 32 39 78t-40 77q-39 31 -99 31t-99 -31t-39 -78zM967 595q-1 -40 33 -67q34 -28 86 -26t86 28t34 65t-34 65t-86 26t-86 -26t-33 -65zM784 211q0 90 50 141t112 68v2q-43 12 -84 60t-41 128t75 140q74 60 190 61q116 0 191 -60
q75 -61 75 -141t-42 -128t-83 -60v-2q63 -16 112 -68t49 -141q0 -90 -84 -158q-86 -67 -218 -67t-217 68t-85 157zM20 1272v162h603v-103l-383 -692h-183l283 510q46 85 86 125l-2 2h-8l-92 -4h-304zM18 0l1012 1434h187l-1010 -1434h-189z" />
    <glyph glyph-name="minus" unicode="&#x2212;" 
d="M248 844h936v-234h-936v234z" />
    <glyph glyph-name="notequal" unicode="&#x2260;" 
d="M1184 821h-291l-111 -221h402v-233h-520l-111 -217h-238l111 217h-178v233h297l114 221h-411v234h530l121 237h234l-121 -237h172v-234z" />
    <glyph glyph-name="lessequal" unicode="&#x2264;" 
d="M1178 215v-233h-936v233h936zM1049 369h-340l-473 383l604 499h331l-579 -499z" />
    <glyph glyph-name="greaterequal" unicode="&#x2265;" 
d="M252 215h936v-233h-936v233zM381 369l457 383l-580 499h332l604 -499l-473 -383h-340z" />
    <glyph glyph-name="lozenge" unicode="&#x25ca;" horiz-adv-x="1515" 
d="M758 1139l-422 -422l422 -422l424 422zM758 -29l-746 746l746 745l745 -745z" />
    <glyph glyph-name="Cacute.loclPLK" horiz-adv-x="1548" 
d="M821 1182q-201 0 -323 -130t-123 -336q0 -206 126 -333t320 -127q121 0 227 58t160 153l287 -76q-90 -193 -270 -307t-404 -113q-311 0 -527 212t-216 534q0 321 216 533t527 212q209 0 383 -102t269 -277l-291 -75q-58 80 -156 127t-205 47zM920 1972l208 -117
l-241 -362l-178 102z" />
    <glyph glyph-name="I.ss03" horiz-adv-x="1005" 
d="M645 250h283v-250h-850v250h282v934h-274v250h834v-250h-275v-934z" />
    <glyph glyph-name="IJ.ss03" horiz-adv-x="2351" 
d="M1927 1434h285v-811q0 -309 -170 -481t-461 -171q-201 1 -359 103t-223 264l281 76q41 -84 119 -130t182 -46q164 0 255 99t91 273v824zM645 1184v-934h283v-250h-850v250h282v934h-274v250h834v-250h-275z" />
    <glyph glyph-name="IJ.ss03.ss04" horiz-adv-x="2344" 
d="M1303 1434h903v-811q0 -309 -170 -481t-461 -171q-201 1 -360 103t-222 264l281 76q41 -84 119 -130t182 -46q164 0 255 99t91 273v557h-618v267zM645 1184v-934h283v-250h-850v250h282v934h-274v250h834v-250h-275z" />
    <glyph glyph-name="IJ.ss04" horiz-adv-x="1966" 
d="M922 1434h903v-811q0 -309 -170 -481t-461 -171q-202 1 -360 103t-222 264l281 76q41 -84 119 -130t182 -46q164 0 255 99t91 273v557h-618v267zM170 0v1434h285v-1434h-285z" />
    <glyph glyph-name="Iacute.ss03" horiz-adv-x="1005" 
d="M645 250h283v-250h-850v250h282v934h-274v250h834v-250h-275v-934zM840 1708l-488 -211l-84 152l473 254z" />
    <glyph glyph-name="Icircumflex.ss03" horiz-adv-x="1005" 
d="M645 250h283v-250h-850v250h282v934h-274v250h834v-250h-275v-934zM500 1700l-244 -203l-139 141l383 326l381 -326l-138 -141z" />
    <glyph glyph-name="Idieresis.ss03" horiz-adv-x="1005" 
d="M645 250h283v-250h-850v250h282v934h-274v250h834v-250h-275v-934zM763 1571q-56 0 -95 38t-39 94t39 95t95 39t95 -39t39 -95t-39 -94t-95 -38zM234 1571q-57 0 -97 38q-39 38 -39 94t40 95t96 39t96 -39q39 -39 39 -95t-39 -94t-96 -38z" />
    <glyph glyph-name="Idotaccent.ss03" horiz-adv-x="1005" 
d="M645 250h283v-250h-850v250h282v934h-274v250h834v-250h-275v-934zM506 1569q-55 0 -95 39t-40 95t40 95t95 39t94 -39t39 -95t-39 -95t-94 -39z" />
    <glyph glyph-name="Igrave.ss03" horiz-adv-x="1005" 
d="M645 250h283v-250h-850v250h282v934h-274v250h834v-250h-275v-934zM698 1649l-82 -152l-489 211l100 195z" />
    <glyph glyph-name="Imacron.ss03" horiz-adv-x="1005" 
d="M645 250h283v-250h-850v250h282v934h-274v250h834v-250h-275v-934zM920 1798v-221h-834v221h834z" />
    <glyph glyph-name="Iogonek.ss03" horiz-adv-x="1005" 
d="M928 0h-459q-94 0 -171 -47t-77 -137q0 -56 41 -98t113 -42q129 0 188 125l150 -94q-49 -98 -141 -153t-197 -56q-158 0 -256 86t-99 232q0 100 64 184h-6v250h282v934h-274v250h834v-250h-275v-934h283v-250z" />
    <glyph glyph-name="J.ss04" horiz-adv-x="1374" 
d="M332 1434h903v-811q0 -309 -170 -481t-461 -171q-202 1 -360 103t-221 264l280 76q41 -84 119 -130t182 -46q164 0 255 99t91 273v557h-618v267z" />
    <glyph glyph-name="Jcircumflex.ss04" horiz-adv-x="1374" 
d="M332 1434h903v-811q0 -309 -170 -481t-461 -171q-202 1 -360 103t-221 264l280 76q41 -84 119 -130t182 -46q164 0 255 99t91 273v557h-618v267zM760 1700l-244 -203l-139 141l383 326l381 -326l-140 -141z" />
    <glyph glyph-name="N.ss02" horiz-adv-x="1589" 
d="M1135 1434h284v-1434h-284v492l-365 299q-106 86 -272 237l-45 39h-2v-10l2 -60v-49l2 -125v-823h-285v1434h268l312 -267q379 -334 387 -333h2v8l-2 55v45l-2 120v372z" />
    <glyph glyph-name="Nacute.loclPLK" horiz-adv-x="1589" 
d="M1135 1434h284v-1434h-268l-408 553q-55 76 -129 178t-116 162l-43 61h-2v-64l2 -427v-463h-285v1434h268l416 -560q123 -157 231 -317l50 -68h2v70l-2 406v469zM899 1972l209 -117l-242 -362l-178 102z" />
    <glyph glyph-name="Nacute.loclPLK.ss02" horiz-adv-x="1589" 
d="M1135 1434h284v-1434h-284v492l-365 299q-106 86 -272 237l-45 39h-2v-10l2 -60v-49l2 -125v-823h-285v1434h268l312 -267q379 -334 387 -333h2v8l-2 55v45l-2 120v372zM901 1972l209 -117l-242 -362l-178 102z" />
    <glyph glyph-name="Nacute.ss02" horiz-adv-x="1589" 
d="M1135 1434h284v-1434h-284v492l-365 299q-106 86 -272 237l-45 39h-2v-10l2 -60v-49l2 -125v-823h-285v1434h268l312 -267q379 -334 387 -333h2v8l-2 55v45l-2 120v372zM1034 1903l99 -195l-488 -211l-84 152z" />
    <glyph glyph-name="Ncaron.ss02" horiz-adv-x="1589" 
d="M1135 1434h284v-1434h-284v492l-365 299q-106 86 -272 237l-45 39h-2v-10l2 -60v-49l2 -125v-823h-285v1434h268l312 -267q379 -334 387 -333h2v8l-2 55v45l-2 120v372zM416 1808l139 142l244 -203l243 203l138 -142l-381 -325z" />
    <glyph glyph-name="Ncommaaccent.ss02" horiz-adv-x="1589" 
d="M674 -209q0 53 39 91t94 38t93 -42t38 -118t-55 -168q-55 -94 -140 -163h-100q47 35 90 107t43 122l25 8l-25 4q-38 4 -70 36t-32 85zM1135 1434h284v-1434h-284v492l-365 299q-106 86 -272 237l-45 39h-2v-10l2 -60v-49l2 -125v-823h-285v1434h268l312 -267
q379 -334 387 -333h2v8l-2 55v45l-2 120v372z" />
    <glyph glyph-name="Ntilde.ss02" horiz-adv-x="1589" 
d="M1135 1434h284v-1434h-284v492l-365 299q-106 86 -272 237l-45 39h-2v-10l2 -60v-49l2 -125v-823h-285v1434h268l312 -267q379 -334 387 -333h2v8l-2 55v45l-2 120v372zM1032 1810h223q1 -122 -81 -202t-209 -80q-76 0 -170 61q-93 61 -135 61t-68 -25q-26 -26 -27 -64
h-223q0 123 83 203t208 81q63 1 121 -31t102 -63q45 -31 84 -31q40 0 66 26t26 64z" />
    <glyph glyph-name="Oacute.loclPLK" horiz-adv-x="1644" 
d="M822 1182q-198 0 -322 -129t-125 -335q0 -206 125 -336q124 -130 322 -130t323 130t125 336t-125 335t-323 129zM78 717q0 321 216 533t528 212t528 -212t217 -534q0 -322 -216 -533q-217 -212 -529 -212t-528 212t-216 534zM934 1972l209 -117l-242 -362l-178 102z" />
    <glyph glyph-name="Q.ss01" horiz-adv-x="1695" 
d="M375 731q0 -203 127 -327t316 -124t319 124q129 124 129 326t-129 327t-319 125t-316 -124q-127 -124 -127 -327zM1540 281h86v-281h-807q-311 0 -526 208t-215 523t215 524t526 209t527 -209t217 -508q0 -299 -195 -479l2 -2h2q30 15 168 15z" />
    <glyph glyph-name="Sacute.loclPLK" horiz-adv-x="1245" 
d="M612 1214q-98 0 -157 -42t-59 -94q-1 -84 76 -126t122 -57q84 -27 180 -61q292 -104 374 -260q38 -73 38 -164q0 -193 -153 -316t-385 -123t-385 116t-212 314l275 74q24 -104 110 -177t205 -73t180 48t62 124q0 119 -202 188q-32 11 -134 42q-189 58 -317 150
q-128 93 -128 267t151 296t362 122t359 -108t195 -281l-274 -76q-25 102 -104 160q-81 57 -179 57zM748 1972l208 -117l-241 -362l-178 102z" />
    <glyph glyph-name="Y.ss05" horiz-adv-x="1435" 
d="M1141 739v-233h-283v-506h-283v506h-276v233h219l-493 695h319l295 -412q72 -106 78 -107h2q6 0 78 107l293 412h321l-496 -695h226z" />
    <glyph glyph-name="Yacute.ss05" horiz-adv-x="1435" 
d="M1141 739v-233h-283v-506h-283v506h-276v233h219l-493 695h319l295 -412q72 -106 78 -107h2q6 0 78 107l293 412h321l-496 -695h226zM1051 1708l-488 -211l-84 152l473 254z" />
    <glyph glyph-name="Ycircumflex.ss05" horiz-adv-x="1435" 
d="M1141 739v-233h-283v-506h-283v506h-276v233h219l-493 695h319l295 -412q72 -106 78 -107h2q6 0 78 107l293 412h321l-496 -695h226zM711 1700l-244 -203l-139 141l383 326l381 -326l-138 -141z" />
    <glyph glyph-name="Ydieresis.ss05" horiz-adv-x="1435" 
d="M1141 739v-233h-283v-506h-283v506h-276v233h219l-493 695h319l295 -412q72 -106 78 -107h2q6 0 78 107l293 412h321l-496 -695h226zM974 1571q-56 0 -95 38t-39 94t39 95t95 39t95 -39t39 -95t-39 -94t-95 -38zM445 1837q55 0 95 -39t40 -95t-40 -94t-96 -38
q-57 0 -96 38t-39 94t40 95t96 39z" />
    <glyph glyph-name="Ygrave.ss05" horiz-adv-x="1435" 
d="M1141 739v-233h-283v-506h-283v506h-276v233h219l-493 695h319l295 -412q72 -106 78 -107h2q6 0 78 107l293 412h321l-496 -695h226zM909 1649l-82 -152l-489 211l100 195z" />
    <glyph glyph-name="Zacute.loclPLK" horiz-adv-x="1443" 
d="M143 1167v267h1178v-267l-688 -774q-27 -29 -59 -63l-48 -51l-16 -17l2 -2h6l40 2l115 4h648v-266h-1198v266l711 785q26 29 104 100l20 18l-2 2h-14l-139 -4h-660zM840 1972l209 -117l-242 -362l-178 102z" />
    <glyph glyph-name="cacute.loclPLK" horiz-adv-x="1548" 
d="M821 1182q-201 0 -323 -130t-123 -336q0 -206 126 -333t320 -127q121 0 227 58t160 153l287 -76q-90 -193 -270 -307t-404 -113q-311 0 -527 212t-216 534q0 321 216 533t527 212q209 0 383 -102t269 -277l-291 -75q-58 80 -156 127t-205 47zM920 1972l208 -117
l-241 -362l-178 102z" />
    <glyph glyph-name="dotlessj.ss04" horiz-adv-x="1374" 
d="M332 1434h903v-811q0 -309 -170 -481t-461 -171q-202 1 -360 103t-221 264l280 76q41 -84 119 -130t182 -46q164 0 255 99t91 273v557h-618v267z" />
    <glyph glyph-name="i.ss03" horiz-adv-x="1005" 
d="M645 250h283v-250h-850v250h282v934h-274v250h834v-250h-275v-934z" />
    <glyph glyph-name="iacute.ss03" horiz-adv-x="1005" 
d="M645 250h283v-250h-850v250h282v934h-274v250h834v-250h-275v-934zM840 1708l-488 -211l-84 152l473 254z" />
    <glyph glyph-name="icircumflex.ss03" horiz-adv-x="1005" 
d="M645 250h283v-250h-850v250h282v934h-274v250h834v-250h-275v-934zM500 1700l-244 -203l-139 141l383 326l381 -326l-138 -141z" />
    <glyph glyph-name="idieresis.ss03" horiz-adv-x="1005" 
d="M645 250h283v-250h-850v250h282v934h-274v250h834v-250h-275v-934zM763 1571q-56 0 -95 38t-39 94t39 95t95 39t95 -39t39 -95t-39 -94t-95 -38zM234 1571q-57 0 -97 38q-39 38 -39 94t40 95t96 39t96 -39q39 -39 39 -95t-39 -94t-96 -38z" />
    <glyph glyph-name="idotaccent.ss03" horiz-adv-x="1005" 
d="M645 250h283v-250h-850v250h282v934h-274v250h834v-250h-275v-934zM506 1569q-55 0 -95 39t-40 95t40 95t95 39t94 -39t39 -95t-39 -95t-94 -39z" />
    <glyph glyph-name="igrave.ss03" horiz-adv-x="1005" 
d="M645 250h283v-250h-850v250h282v934h-274v250h834v-250h-275v-934zM698 1649l-82 -152l-489 211l100 195z" />
    <glyph glyph-name="ij.ss03" horiz-adv-x="2351" 
d="M1927 1434h285v-811q0 -309 -170 -481t-461 -171q-201 1 -359 103t-223 264l281 76q41 -84 119 -130t182 -46q164 0 255 99t91 273v824zM645 1184v-934h283v-250h-850v250h282v934h-274v250h834v-250h-275z" />
    <glyph glyph-name="ij.ss03.ss04" horiz-adv-x="2344" 
d="M1303 1434h903v-811q0 -309 -170 -481t-461 -171q-201 1 -360 103t-222 264l281 76q41 -84 119 -130t182 -46q164 0 255 99t91 273v557h-618v267zM645 1184v-934h283v-250h-850v250h282v934h-274v250h834v-250h-275z" />
    <glyph glyph-name="ij.ss04" horiz-adv-x="1966" 
d="M922 1434h903v-811q0 -309 -170 -481t-461 -171q-202 1 -360 103t-222 264l281 76q41 -84 119 -130t182 -46q164 0 255 99t91 273v557h-618v267zM170 0v1434h285v-1434h-285z" />
    <glyph glyph-name="imacron.ss03" horiz-adv-x="1005" 
d="M645 250h283v-250h-850v250h282v934h-274v250h834v-250h-275v-934zM920 1798v-221h-834v221h834z" />
    <glyph glyph-name="iogonek.ss03" horiz-adv-x="1005" 
d="M928 0h-459q-94 0 -171 -47t-77 -137q0 -56 41 -98t113 -42q129 0 188 125l150 -94q-49 -98 -141 -153t-197 -56q-158 0 -256 86t-99 232q0 100 64 184h-6v250h282v934h-274v250h834v-250h-275v-934h283v-250z" />
    <glyph glyph-name="j.ss04" horiz-adv-x="1374" 
d="M332 1434h903v-811q0 -309 -170 -481t-461 -171q-202 1 -360 103t-221 264l280 76q41 -84 119 -130t182 -46q164 0 255 99t91 273v557h-618v267z" />
    <glyph glyph-name="jcircumflex.ss04" horiz-adv-x="1374" 
d="M332 1434h903v-811q0 -309 -170 -481t-461 -171q-202 1 -360 103t-221 264l280 76q41 -84 119 -130t182 -46q164 0 255 99t91 273v557h-618v267zM760 1700l-244 -203l-139 141l383 326l381 -326l-137 -141z" />
    <glyph glyph-name="n.ss02" horiz-adv-x="1589" 
d="M1135 1434h284v-1434h-284v492l-365 299q-106 86 -272 237l-45 39h-2v-10l2 -60v-49l2 -125v-823h-285v1434h268l312 -267q379 -334 387 -333h2v8l-2 55v45l-2 120v372z" />
    <glyph glyph-name="nacute.loclPLK" horiz-adv-x="1589" 
d="M1135 1434h284v-1434h-268l-408 553q-55 76 -129 178t-116 162l-43 61h-2v-64l2 -427v-463h-285v1434h268l416 -560q123 -157 231 -317l50 -68h2v70l-2 406v469zM899 1972l209 -117l-242 -362l-178 102z" />
    <glyph glyph-name="nacute.loclPLK.ss02" horiz-adv-x="1589" 
d="M1135 1434h284v-1434h-284v492l-365 299q-106 86 -272 237l-45 39h-2v-10l2 -60v-49l2 -125v-823h-285v1434h268l312 -267q379 -334 387 -333h2v8l-2 55v45l-2 120v372zM901 1972l209 -117l-242 -362l-178 102z" />
    <glyph glyph-name="nacute.ss02" horiz-adv-x="1589" 
d="M1135 1434h284v-1434h-284v492l-365 299q-106 86 -272 237l-45 39h-2v-10l2 -60v-49l2 -125v-823h-285v1434h268l312 -267q379 -334 387 -333h2v8l-2 55v45l-2 120v372zM1034 1903l99 -195l-488 -211l-84 152z" />
    <glyph glyph-name="ncaron.ss02" horiz-adv-x="1589" 
d="M1135 1434h284v-1434h-284v492l-365 299q-106 86 -272 237l-45 39h-2v-10l2 -60v-49l2 -125v-823h-285v1434h268l312 -267q379 -334 387 -333h2v8l-2 55v45l-2 120v372zM416 1808l139 142l244 -203l243 203l138 -142l-381 -325z" />
    <glyph glyph-name="ncommaaccent.ss02" horiz-adv-x="1589" 
d="M674 -209q0 53 39 91t94 38t93 -42t38 -118t-55 -168q-55 -94 -140 -163h-100q47 35 90 107t43 122l25 8l-25 4q-38 4 -70 36t-32 85zM1135 1434h284v-1434h-284v492l-365 299q-106 86 -272 237l-45 39h-2v-10l2 -60v-49l2 -125v-823h-285v1434h268l312 -267
q379 -334 387 -333h2v8l-2 55v45l-2 120v372z" />
    <glyph glyph-name="ntilde.ss02" horiz-adv-x="1589" 
d="M1135 1434h284v-1434h-284v492l-365 299q-106 86 -272 237l-45 39h-2v-10l2 -60v-49l2 -125v-823h-285v1434h268l312 -267q379 -334 387 -333h2v8l-2 55v45l-2 120v372zM1032 1810h223q1 -122 -81 -202t-209 -80q-76 0 -170 61q-93 61 -135 61t-68 -25q-26 -26 -27 -64
h-223q0 123 83 203t208 81q63 1 121 -31t102 -63q45 -31 84 -31q40 0 66 26t26 64z" />
    <glyph glyph-name="oacute.loclPLK" horiz-adv-x="1644" 
d="M822 1182q-198 0 -322 -129t-125 -335q0 -206 125 -336q124 -130 322 -130t323 130t125 336t-125 335t-323 129zM78 717q0 321 216 533t528 212t528 -212t217 -534q0 -322 -216 -533q-217 -212 -529 -212t-528 212t-216 534zM934 1972l209 -117l-242 -362l-178 102z" />
    <glyph glyph-name="q.ss01" horiz-adv-x="1695" 
d="M375 731q0 -203 127 -327t316 -124t319 124q129 124 129 326t-129 327t-319 125t-316 -124q-127 -124 -127 -327zM1540 281h86v-281h-807q-311 0 -526 208t-215 523t215 524t526 209t527 -209t217 -508q0 -299 -195 -479l2 -2h2q30 15 168 15z" />
    <glyph glyph-name="sacute.loclPLK" horiz-adv-x="1245" 
d="M612 1214q-98 0 -157 -42t-59 -94q-1 -84 76 -126t122 -57q84 -27 180 -61q292 -104 374 -260q38 -73 38 -164q0 -193 -153 -316t-385 -123t-385 116t-212 314l275 74q24 -104 110 -177t205 -73t180 48t62 124q0 119 -202 188q-32 11 -134 42q-189 58 -317 150
q-128 93 -128 267t151 296t362 122t359 -108t195 -281l-274 -76q-25 102 -104 160q-81 57 -179 57zM748 1972l208 -117l-241 -362l-178 102z" />
    <glyph glyph-name="y.ss05" horiz-adv-x="1435" 
d="M1141 739v-233h-283v-506h-283v506h-276v233h219l-493 695h319l295 -412q72 -106 78 -107h2q6 0 78 107l293 412h321l-496 -695h226z" />
    <glyph glyph-name="yacute.ss05" horiz-adv-x="1435" 
d="M1141 739v-233h-283v-506h-283v506h-276v233h219l-493 695h319l295 -412q72 -106 78 -107h2q6 0 78 107l293 412h321l-496 -695h226zM1051 1708l-488 -211l-84 152l473 254z" />
    <glyph glyph-name="ycircumflex.ss05" horiz-adv-x="1435" 
d="M1141 739v-233h-283v-506h-283v506h-276v233h219l-493 695h319l295 -412q72 -106 78 -107h2q6 0 78 107l293 412h321l-496 -695h226zM711 1700l-244 -203l-139 141l383 326l381 -326l-138 -141z" />
    <glyph glyph-name="ydieresis.ss05" horiz-adv-x="1435" 
d="M1141 739v-233h-283v-506h-283v506h-276v233h219l-493 695h319l295 -412q72 -106 78 -107h2q6 0 78 107l293 412h321l-496 -695h226zM974 1571q-56 0 -95 38t-39 94t39 95t95 39t95 -39t39 -95t-39 -94t-95 -38zM445 1837q55 0 95 -39t40 -95t-40 -94t-96 -38
q-57 0 -96 38t-39 94t40 95t96 39z" />
    <glyph glyph-name="ygrave.ss05" horiz-adv-x="1435" 
d="M1141 739v-233h-283v-506h-283v506h-276v233h219l-493 695h319l295 -412q72 -106 78 -107h2q6 0 78 107l293 412h321l-496 -695h226zM909 1649l-82 -152l-489 211l100 195z" />
    <glyph glyph-name="zacute.loclPLK" horiz-adv-x="1443" 
d="M143 1167v267h1178v-267l-688 -774q-27 -29 -59 -63l-48 -51l-16 -17l2 -2h6l40 2l115 4h648v-266h-1198v266l711 785q26 29 104 100l20 18l-2 2h-14l-139 -4h-660zM840 1972l209 -117l-242 -362l-178 102z" />
    <glyph glyph-name="zero.slsh" horiz-adv-x="1468" 
d="M733 252q176 0 269 130q94 130 94 326t-76 318l-451 -735q72 -39 164 -39zM733 1182q-178 0 -268 -130t-90 -326t74 -320l452 735q-72 41 -168 41zM733 1462q299 0 478 -214t179 -531t-178 -531q-180 -214 -479 -215q-299 0 -477 214q-178 213 -178 531t178 532t477 214z
" />
    <glyph glyph-name="zero.sups" horiz-adv-x="776" 
d="M389 1145q78 1 126 65t48 157t-48 158t-126 65t-126 -66q-48 -64 -48 -157t48 -157t126 -65zM389 954q-162 0 -264 117t-102 295t102 297t264 119t263 -118q102 -118 102 -297t-102 -296t-263 -117z" />
    <glyph glyph-name="four.sups" horiz-adv-x="722" 
d="M418 1276v164l4 71v7h-2l-33 -44q-14 -19 -29 -34l-96 -113l-55 -55l2 -2h6q12 4 37 4l59 2h107zM674 1278v-154h-90v-153h-166v153h-398v127l422 514h142v-487h90z" />
    <glyph glyph-name="five.sups" horiz-adv-x="690" 
d="M344 1499q135 0 216 -73q81 -72 81 -192t-85 -200t-210 -80t-208 67t-97 161l164 45q23 -115 133 -115q59 0 96 35t37 90t-37 90t-96 35q-86 0 -121 -70l-151 41l73 432h455v-161h-322l-8 -35q-11 -52 -37 -113l2 -2q41 45 115 45z" />
    <glyph glyph-name="six.sups" horiz-adv-x="688" 
d="M331 1358q-59 0 -97 -34t-38 -90t38 -90q37 -34 97 -34t97 34t38 90t-37 90t-98 34zM362 1501q123 0 200 -79q77 -80 77 -198t-86 -194t-218 -76t-222 78t-90 210t124 300l170 223h191l-225 -297l2 -2q29 35 77 35z" />
    <glyph glyph-name="seven.sups" horiz-adv-x="632" 
d="M20 1604v161h603v-102l-383 -692h-183l283 510q42 77 86 125l-2 2h-8l-92 -4h-304z" />
    <glyph glyph-name="eight.sups" horiz-adv-x="649" 
d="M324 1305q-58 0 -98 -31t-40 -78t39 -78t99 -31t100 32q39 32 39 78t-40 77t-99 31zM325 1657q-52 1 -86 -25t-34 -66t34 -67t86 -25t86 26q33 26 33 66t-34 66t-85 25zM627 1182q0 -90 -85 -158t-217 -68t-217 68t-85 158t49 141t112 68v2q-43 12 -84 60t-41 128t75 140
q75 61 191 61q117 0 191 -60t74 -141q0 -80 -42 -128t-83 -60v-2q63 -15 113 -67t49 -142z" />
    <glyph glyph-name="nine.sups" horiz-adv-x="661" 
d="M327 1628q-59 0 -97 -35t-39 -91t36 -90t99 -34t98 34q37 34 37 90t-37 91t-97 35zM299 1235q-123 0 -200 79q-77 80 -77 198t87 194q86 76 218 76t222 -78t90 -218t-137 -306l-174 -209h-201l254 293l-2 2q-27 -31 -80 -31z" />
    <glyph glyph-name="zero.tf" 
d="M713 1182q-89 0 -151 -45t-92 -120q-54 -135 -54 -301t54 -299q30 -75 92 -120t150 -45q232 0 288 313q13 74 14 152q0 160 -58 300q-31 75 -93 120t-150 45zM713 1462q147 0 265 -64t188 -172q142 -217 143 -510q0 -292 -143 -508q-70 -108 -188 -172t-265 -65
q-147 0 -265 65q-213 117 -293 409q-36 129 -36 271q0 289 141 510q70 108 188 172t265 64z" />
    <glyph glyph-name="one.tf" 
d="M938 1434v-1168h340v-266h-971v266h344v518l4 197l2 35h-2l-16 -21q-68 -76 -98 -104l-103 -103l-176 170l475 476h201z" />
    <glyph glyph-name="two.tf" 
d="M1214 266v-266h-1034v233q205 176 611 529q135 115 135 239q0 89 -64 149t-166 60q-104 0 -170 -61q-65 -62 -94 -150l-262 70q54 181 194 287t353 106t355 -131t142 -330q0 -125 -61 -231t-133 -168t-174 -131q-57 -43 -132 -96t-116 -84l-43 -31l2 -2h8l239 8h410z" />
    <glyph glyph-name="three.tf" 
d="M742 1462q222 0 357 -118q134 -118 134 -293q0 -133 -92 -218t-195 -90v-2q125 -2 217 -88t92 -231q0 -199 -148 -325q-149 -126 -367 -126t-376 114t-198 288l258 71q26 -98 102 -157t187 -59t179 58t69 148q0 90 -69 140t-185 51h-123v225h123q113 0 172 48t59 129
t-60 132t-169 51q-195 0 -263 -213l-256 70q46 183 188 289t364 106z" />
    <glyph glyph-name="four.tf" 
d="M852 541v239l4 183l2 71v10h-2l-20 -28q-23 -29 -60 -77t-63 -81l-176 -207q-46 -56 -95 -110v-2l109 2h301zM1288 541v-248h-168v-293h-268v293h-733v211l770 930h231v-893h168z" />
    <glyph glyph-name="five.tf" 
d="M1233 463q0 -209 -151 -350q-152 -141 -368 -141t-362 107q-145 108 -184 265l260 70q25 -84 91 -141q67 -56 175 -56t179 72q71 73 71 181t-72 178t-176 71q-178 0 -231 -127l-246 67l127 775h799v-267h-590l-16 -88q-21 -109 -33 -154q-12 -46 -12 -48l2 -3
q68 63 211 64q225 0 375 -133t151 -342z" />
    <glyph glyph-name="six.tf" 
d="M721 221q121 0 197 72q76 73 76 183t-74 180q-76 70 -199 69q-123 0 -198 -70q-75 -69 -75 -181t76 -182t197 -71zM1266 457q0 -213 -158 -349t-396 -136t-395 138q-158 138 -157 365q0 147 57 271t180 288l303 400h310l-408 -539l2 -2q66 66 172 65q222 0 356 -144
t134 -357z" />
    <glyph glyph-name="seven.tf" 
d="M225 1167v267h1073v-166l-710 -1268h-305l491 866q84 150 160 260l27 43l-3 2h-12l-138 -4h-583z" />
    <glyph glyph-name="eight.tf" 
d="M442 410q0 -96 76 -156t198 -59q122 0 196 60q74 61 75 157q0 96 -76 154q-75 58 -197 58t-197 -58q-75 -60 -75 -156zM477 1067q0 -82 67 -132t171 -50t170 51q65 51 65 132t-66 134q-67 53 -170 53t-170 -53t-67 -135zM1257 403q-1 -186 -153 -309t-390 -123t-390 123
q-154 123 -154 309q0 141 92 239t211 120v2q-74 12 -156 100t-81 215q0 164 135 274q135 109 343 109t344 -110t136 -273q0 -127 -83 -215t-157 -100v-2q121 -25 212 -121t91 -238z" />
    <glyph glyph-name="nine.tf" 
d="M387 956q0 -118 78 -184t198 -66q121 0 197 70t76 184t-78 182t-197 68q-120 0 -197 -68t-77 -186zM111 974q0 218 157 353q158 135 398 135t398 -136t159 -368q0 -274 -254 -569l-332 -389h-326l467 537l-2 2q-55 -63 -168 -64q-238 0 -368 141q-130 140 -129 358z" />
    <glyph glyph-name="zero.slsh.tf" 
d="M712 252q232 0 288 313q39 223 -25 406l-414 -672q63 -47 151 -47zM416 676q0 -120 43 -234l420 682q-72 58 -163 58q-92 0 -154 -45t-92 -120t-42 -148t-12 -193zM713 1462q147 0 265 -64t188 -172q142 -217 143 -510q0 -292 -143 -508q-70 -108 -188 -172t-265 -65
q-147 0 -265 65q-213 117 -293 409q-36 129 -36 271q0 289 141 510q70 108 188 172t265 64z" />
    <glyph glyph-name="zero.slsh.numr" horiz-adv-x="774" 
d="M389 813q78 0 126 65q48 64 48 148t-31 139l-208 -338q29 -14 65 -14zM389 1257q-78 -1 -126 -65t-48 -148t33 -143l211 340q-33 16 -70 16zM389 1450q162 0 263 -118q102 -118 102 -297t-102 -296t-263 -117q-162 0 -264 118q-102 116 -102 294t102 297t264 119z" />
    <glyph glyph-name="zero.slsh.dnom" horiz-adv-x="774" 
d="M389 172q78 0 126 65t48 149t-31 138l-208 -338q29 -14 65 -14zM389 616q-78 0 -126 -64t-48 -149q0 -84 33 -143l211 340q-33 16 -70 16zM389 809q162 0 263 -118q102 -118 102 -297t-102 -296q-102 -116 -263 -116q-162 0 -264 116t-102 295q0 178 102 297t264 119z
" />
    <glyph glyph-name="zero.slsh.sups" horiz-adv-x="774" 
d="M389 1145q78 1 126 65t48 148t-31 139l-208 -338q29 -14 65 -14zM389 1589q-78 -1 -126 -65t-48 -148t33 -143l211 340q-33 16 -70 16zM389 1782q162 0 263 -118q102 -118 102 -297t-102 -296t-263 -117q-162 0 -264 117t-102 295t102 297t264 119z" />
    <glyph glyph-name="zero.dnom" horiz-adv-x="776" 
d="M389 176q78 0 126 64t48 157q0 94 -48 159t-126 65t-126 -65t-48 -159q0 -93 48 -157t126 -64zM389 -16q-162 0 -264 118t-102 295q0 178 102 296t264 118t263 -118q102 -118 102 -296q0 -177 -102 -295t-263 -118z" />
    <glyph glyph-name="one.dnom" horiz-adv-x="514" 
d="M446 795v-795h-186v401q0 57 5 97t5 51l2 10h-2q-3 -1 -26 -31q-24 -30 -45 -49l-60 -55l-116 102l292 269h131z" />
    <glyph glyph-name="two.dnom" horiz-adv-x="688" 
d="M502 162h133v-162h-586v123l277 231q46 39 68 62q62 63 62 115q1 53 -31 81t-86 29q-93 0 -134 -131l-164 43q25 109 109 183t204 75q120 0 202 -78q83 -77 83 -197t-129 -233q-86 -72 -140 -105q-55 -32 -83 -48l2 -3h12q90 15 201 15z" />
    <glyph glyph-name="three.dnom" horiz-adv-x="677" 
d="M364 811q124 0 202 -67q77 -66 77 -152t-53 -133t-113 -49v-2q72 -2 125 -48t53 -122q0 -111 -85 -183q-85 -71 -207 -71q-123 0 -213 66t-109 169l160 45q18 -123 157 -123q55 0 88 29t33 73q0 43 -36 71t-91 28h-76v131h76q49 0 82 28q33 27 33 65t-31 64t-80 25
q-114 1 -145 -118l-158 43q23 104 105 168t206 63z" />
    <glyph glyph-name="four.dnom" horiz-adv-x="722" 
d="M418 305v166l4 70v6h-2q-2 -1 -26 -31l-36 -45l-96 -113q-12 -14 -26 -28l-29 -29l2 -2h6q12 4 37 4l59 2h107zM674 309v-155h-90v-154h-166v154h-398v127l422 514h142v-486h90z" />
    <glyph glyph-name="five.dnom" horiz-adv-x="690" 
d="M344 530q135 0 216 -74t81 -193q0 -120 -85 -200q-85 -79 -210 -79t-208 66t-97 161l164 45q23 -115 133 -115q59 0 96 35t37 90t-37 90t-96 35q-88 0 -121 -69l-151 40l73 433h455v-162h-322l-8 -35q-9 -42 -37 -113l2 -2q43 47 115 47z" />
    <glyph glyph-name="six.dnom" horiz-adv-x="688" 
d="M332 389q-60 0 -98 -34t-38 -91t38 -91q37 -34 97 -34t97 34t37 91q2 57 -35 91t-98 34zM639 254q0 -119 -86 -195q-86 -75 -218 -75t-222 78t-90 209q0 132 124 300l170 224h191l-225 -295l2 -2q27 33 77 32q123 0 200 -78t77 -198z" />
    <glyph glyph-name="seven.dnom" horiz-adv-x="632" 
d="M20 633v162h603v-103l-383 -692h-183l283 510q39 72 86 127l-2 2h-8q-16 -4 -52 -4l-85 -2h-259z" />
    <glyph glyph-name="eight.dnom" horiz-adv-x="649" 
d="M324 336q-58 0 -98 -32t-40 -79t39 -78t99 -31t100 32q39 32 39 79t-40 78t-99 31zM325 686q-52 0 -86 -26t-34 -65q0 -40 34 -66q34 -25 86 -25t86 26q33 26 33 65t-34 65t-85 26zM627 211q0 -90 -85 -158q-85 -67 -217 -67t-217 68t-85 157q0 90 49 141t112 68v2
q-43 12 -84 60t-41 128t75 140t191 61q117 0 191 -60q74 -59 74 -139t-42 -129t-83 -61v-2q63 -16 113 -68t49 -141z" />
    <glyph glyph-name="nine.dnom" horiz-adv-x="661" 
d="M461 532q0 57 -37 91t-97 34t-98 -33q-37 -34 -38 -92t36 -91t99 -33t98 34q37 34 37 90zM299 264q-123 0 -200 79t-77 198t87 195q86 76 218 75q132 0 222 -78q90 -77 90 -217t-137 -307l-174 -209h-201l254 293l-2 2q-31 -31 -80 -31z" />
    <glyph glyph-name="zero.numr" horiz-adv-x="776" 
d="M389 813q78 0 126 65q48 66 48 158t-48 157t-126 65t-126 -66q-48 -64 -48 -157t48 -157t126 -65zM389 623q-162 1 -264 117t-102 294t102 297t264 119t263 -118q102 -118 102 -297t-102 -295t-263 -117z" />
    <glyph glyph-name="one.numr" horiz-adv-x="514" 
d="M446 1434v-795h-186v401q0 53 5 95t5 53l2 10h-2q-2 0 -23 -29t-48 -51l-60 -57l-116 104l292 269h131z" />
    <glyph glyph-name="two.numr" horiz-adv-x="688" 
d="M502 801h133v-162h-586v123l277 231q46 39 68 61q61 62 62 116t-31 82t-86 28q-93 0 -134 -131l-164 43q25 110 109 184t204 74t202 -78q83 -78 83 -200t-129 -230q-86 -72 -150 -110q-65 -38 -73 -44l2 -2h12q90 15 201 15z" />
    <glyph glyph-name="three.numr" horiz-adv-x="704" 
d="M643 1230q0 -86 -53 -132q-53 -47 -113 -49v-2q72 -5 125 -49t53 -121q0 -111 -84 -183t-207 -72q-124 0 -214 68q-90 66 -109 168l160 43q20 -121 157 -121q55 0 88 29t33 73t-36 72t-91 27h-76v131h76q49 0 82 28t33 64t-31 64q-31 27 -80 26q-114 1 -145 -118l-158 43
q23 104 105 167q82 64 206 64t202 -67q77 -67 77 -153z" />
    <glyph glyph-name="four.numr" horiz-adv-x="722" 
d="M418 944v164l4 72v6h-2l-33 -44q-14 -19 -29 -34l-96 -113q-12 -14 -26 -27t-29 -28l2 -2h6q12 4 37 4l59 2h107zM674 946v-153h-90v-154h-166v154h-398v127l422 514h142v-488h90z" />
    <glyph glyph-name="five.numr" horiz-adv-x="690" 
d="M344 1167q135 -1 216 -73t81 -192t-85 -200t-210 -80t-208 68q-83 66 -97 160l164 45q23 -115 133 -115q59 0 96 35t37 90t-37 90t-96 35q-86 0 -121 -69l-151 40l73 433h455v-162h-322l-8 -35q-9 -42 -37 -113l2 -2q41 45 115 45z" />
    <glyph glyph-name="six.numr" horiz-adv-x="688" 
d="M331 1026q-59 0 -97 -34t-38 -90t38 -90q37 -34 97 -34t97 34t38 90t-37 90t-98 34zM639 893q0 -119 -86 -195t-218 -76t-222 78t-90 210t124 300l170 224h191l-225 -297l2 -2q29 35 77 34q123 -1 200 -79t77 -197z" />
    <glyph glyph-name="seven.numr" horiz-adv-x="632" 
d="M20 1272v162h603v-103l-383 -692h-183l283 510q46 85 86 125l-2 2h-8l-92 -4h-304z" />
    <glyph glyph-name="eight.numr" horiz-adv-x="649" 
d="M324 973q-58 0 -98 -31t-40 -78t39 -78q39 -30 99 -30t100 32q39 32 39 77q0 46 -40 77t-99 31zM325 1325q-52 1 -86 -25t-34 -66t34 -67t86 -25t86 26q33 26 33 66t-34 66t-85 25zM627 850q0 -90 -85 -158t-217 -68t-217 68t-85 158t49 141t112 68v2q-43 12 -84 60
t-41 128q0 81 75 141t191 60q117 0 191 -60t74 -140t-42 -129q-42 -48 -83 -60v-2q63 -15 113 -67t49 -142z" />
    <glyph glyph-name="nine.numr" horiz-adv-x="661" 
d="M461 1170q0 56 -37 91t-97 35t-98 -34q-37 -36 -38 -92t36 -90t99 -34t98 34q37 34 37 90zM299 903q-123 0 -200 79t-77 198q0 118 87 194q86 76 218 76t222 -78t90 -218t-137 -306l-174 -209h-201l254 293l-2 2q-27 -31 -80 -31z" />
    <glyph glyph-name="dollar.tf" 
d="M698 1214q-98 0 -157 -42t-59 -94q-1 -84 76 -126t122 -57q84 -27 180 -61q292 -104 374 -260q38 -73 38 -164q0 -162 -110 -277t-296 -149v-168h-284v170q-166 34 -281 142t-164 273l275 74q24 -104 110 -177t205 -73t180 48t62 124q0 119 -202 188q-32 11 -134 42
q-189 58 -317 150q-128 93 -128 272q0 143 110 256t284 145v168h284v-174q145 -37 249 -136q103 -100 140 -235l-274 -76q-25 102 -104 160q-81 57 -179 57z" />
    <glyph glyph-name="percent.tf" 
d="M1001 176q78 0 126 64t49 157q0 94 -48 159t-127 65q-77 0 -125 -65t-48 -159q0 -93 47 -157q48 -64 126 -64zM414 813q78 0 126 65q48 66 48 158t-48 157t-126 65t-126 -66q-48 -64 -48 -157t48 -157t126 -65zM1001 811q161 0 263 -118t102 -296t-101 -296
q-101 -117 -259 -117t-256 102t-113 264l-164 -350h-188l317 674q-84 -51 -188 -51q-162 1 -264 117t-103 294q1 178 103 297t263 119t261 -113t104 -286l180 383h187l-311 -664q76 41 167 41z" />
    <glyph glyph-name="cent.tf" 
d="M846 -29h-230v203q-184 41 -305 188q-121 148 -121 348t121 347t305 188v217h230v-215q127 -27 227 -105t154 -190l-248 -65q-86 125 -244 125q-129 0 -206 -81t-77 -220t77 -222q77 -82 206 -81q180 -1 258 157l248 -69q-49 -125 -155 -210t-240 -114v-201z" />
    <glyph glyph-name="sterling.tf" 
d="M1270 266v-266h-1084v266q94 18 123 78t17 186l-7 60h-129v225h109l-16 184q-18 186 120 323q139 136 338 140q151 4 300 -82q77 -43 137 -125t88 -190l-240 -68q-74 221 -268 213q-94 -4 -148 -72q-53 -69 -43 -165l15 -158h417v-225h-395l4 -51q20 -211 -82 -279l2 -2
h9l259 8h474z" />
    <glyph glyph-name="currency.tf" 
d="M714 999q-124 0 -210 -86t-86 -216t86 -215t211 -85t212 85t87 215t-88 216t-212 86zM162 694q0 172 98 314l-141 139l141 141l141 -141q139 100 311 100t316 -100l141 141l142 -141l-144 -141q101 -138 101 -312t-101 -313l142 -141l-142 -142l-141 142
q-143 -100 -314 -100t-311 100l-139 -142l-141 142l139 139q-98 143 -98 315z" />
    <glyph glyph-name="yen.tf" 
d="M1268 936v-186h-348l-48 -68h396v-188h-414v-494h-283v494h-405v188h387l-47 68h-340v186h207l-353 498h320l295 -412q72 -106 78 -107h2q6 0 78 107l292 412h322l-354 -498h215z" />
    <glyph glyph-name="Euro.tf" 
d="M746 -25q-230 1 -408 141t-240 378h-98v188h72v70h-70v186h96q60 238 238 379t402 141t380 -100q158 -100 246 -277l-277 -69q-51 88 -142 137t-207 49t-212 -66t-141 -194h401v-186h-434v-70h432v-188h-397q45 -126 140 -190t216 -64t223 59q101 60 150 164l270 -70
q-82 -195 -246 -307t-394 -111z" />
    <glyph glyph-name="uni20B9.tf" 
d="M1233 1217h-252q31 -37 55 -103h197v-211h-176q-19 -154 -121 -259t-264 -140l377 -504h-328l-367 498v211h174q88 0 149 55q60 55 79 139h-504v211h469q-66 102 -193 103h-276v217h981v-217z" />
    <glyph glyph-name="colon.case" horiz-adv-x="528" 
d="M264 260q-59 0 -100 41t-41 99t41 100t99 41q59 0 101 -41q42 -42 42 -100t-42 -99t-100 -41zM264 868q-59 0 -100 41t-41 99t41 100q41 41 99 41q59 0 101 -41t42 -99t-41 -100q-42 -41 -101 -41z" />
    <glyph glyph-name="semicolon.case" horiz-adv-x="563" 
d="M299 537q59 0 99 -44t40 -126q0 -83 -59 -183t-150 -176h-106q51 35 96 115t45 133l27 8l-27 4q-41 4 -75 39q-33 35 -33 91t42 98t101 41zM297 864q-59 0 -100 41t-41 99t41 100q41 41 99 41t100 -41t42 -99q0 -57 -41 -99t-100 -42z" />
    <glyph glyph-name="apple" horiz-adv-x="1605" 
d="M1057 -2q-12 0 -13 12q0 12 13 13q12 -1 12 -13t-12 -12zM1192 54q0 -34 24 -34t24 34t-24 34t-24 -34zM1311 0h-31l8 109h39l16 -70l19 70h39l4 -109h-29v82l-22 -80h-21l-22 80v-82zM911 109h31l14 -74l13 74h30l13 -74l14 74h29l-27 -109h-33l-12 72l-14 -72h-31z
M860 43v-20h43v-23h-74v109h74v-23h-43v-20h39v-23h-39zM813 0h-31v109h31v-109zM670 109h32l19 -80l20 80h31l-35 -109h-32zM594 68h37v41h28v-109h-28v43h-37v-43h-31v109h31v-41zM469 86v23h84v-23h-29v-86h-26v86h-29zM362 109h37l33 -66v66h27v-109h-31l-39 72v-72h-27
v109zM317 0h-28v41l-35 68h35l14 -48l16 48h33l-35 -68v-41zM1272 53q0 -55 -55 -55t-56 55q-1 25 15 41t41 16t40 -16t15 -41zM1071 51q0 58 59 60q20 0 29 -5l-8 -24q-6 6 -18 6q-31 0 -31 -34t31 -34q12 0 18 7l6 -25q-12 -4 -29 -4q-57 0 -57 53zM212 88q-12 0 -11 -7
q-1 -7 25 -16t26 -32q0 -35 -49 -35q-20 0 -33 6l8 25q25 -9 34 -9t9 11q-1 6 -25 14t-24 31q0 35 43 35q23 0 31 -7l-6 -24q-16 8 -28 8zM801 524l184 -162q55 -10 272 -14q-6 193 -14 266l-166 187l166 182q6 43 14 272q-199 -4 -270 -14l-186 -166l-180 166
q-72 10 -273 14q8 -231 14 -272l162 -182l-162 -183q-6 -43 -14 -270q219 4 270 14zM1346 168q-354 0 -425 26q-22 7 -38 23l-82 68l-78 -68q-16 -16 -39 -24q-72 -25 -426 -25h-88v88q0 366 25 427q8 22 22 38l70 80l-70 78q-14 18 -22 40q-25 69 -25 424v91h88
q345 0 430 -26q23 -7 39 -22l78 -71l35 33l41 34q18 16 40 24q66 26 425 28h90v-91q0 -351 -27 -425q-8 -23 -25 -39l-45 -54l-22 -24l74 -86q12 -19 19 -39q24 -71 26 -416v-92h-90z" />
    </font>
</defs>
</svg>
