<?xml version="1.0" standalone="no"?>
<!DOCTYPE svg PUBLIC "-//W3C//DTD SVG 1.1//EN" "http://www.w3.org/Graphics/SVG/1.1/DTD/svg11.dtd" >
<svg xmlns="http://www.w3.org/2000/svg">
<metadata>
Created by FontPrep 20130207 at Sun May 11 16:13:01 2014
 By Steve Kaufman
Copyright (c) 2011 by Jan Tonellato. All rights reserved.
</metadata>
<defs>
<font id="5f9b8783cc4520a201de22d83f26dcf8" horiz-adv-x='1024' >
  <font-face 
    font-family="Novecentowide-Medium"
    font-weight="600"
    font-stretch="expanded"
    units-per-em="2048"
    panose-1="0 0 7 5 0 0 0 0 0 0"
    ascent="1741"
    descent="-307"
    x-height="1434"
    cap-height="1434"
    bbox="-451 -545 2705 1946"
    underline-thickness="200"
    underline-position="-166"
    unicode-range="U+0020-25CA"
  />
<missing-glyph horiz-adv-x="1384" 
d="M969 1135l149 -150l-274 -276l274 -277l-149 -151l-277 276l-274 -274l-150 151l275 275l-277 274l150 150l276 -275zM379 41h627q78 0 114 36t37 120v1040q0 84 -41 120t-131 36h-586q-96 0 -134 -35t-38 -121v-1040q0 -156 152 -156zM180 174v1086q0 80 49 126t125 48
h676q76 0 125 -48t49 -126v-1086q0 -82 -48 -128t-126 -46h-676q-78 0 -126 46t-48 128z" />
    <glyph glyph-name=".notdef" horiz-adv-x="1384" 
d="M969 1135l149 -150l-274 -276l274 -277l-149 -151l-277 276l-274 -274l-150 151l275 275l-277 274l150 150l276 -275zM379 41h627q78 0 114 36t37 120v1040q0 84 -41 120t-131 36h-586q-96 0 -134 -35t-38 -121v-1040q0 -156 152 -156zM180 174v1086q0 80 49 126t125 48
h676q76 0 125 -48t49 -126v-1086q0 -82 -48 -128t-126 -46h-676q-78 0 -126 46t-48 128z" />
    <glyph glyph-name=".null" horiz-adv-x="0" 
 />
    <glyph glyph-name="nonmarkingreturn" horiz-adv-x="681" 
 />
    <glyph glyph-name="space" unicode=" " horiz-adv-x="512" 
 />
    <glyph glyph-name="exclam" unicode="!" horiz-adv-x="587" 
d="M180 0v322h228v-322h-228zM180 459v975h228v-975h-228z" />
    <glyph glyph-name="quotedbl" unicode="&#x22;" horiz-adv-x="1007" 
d="M610 989v445h215v-445h-215zM180 989v445h215v-445h-215z" />
    <glyph glyph-name="numbersign" unicode="#" horiz-adv-x="1808" 
d="M989 530l197 383h-391l-191 -383h385zM1649 913h-240l-190 -383h235l-100 -194h-234l-168 -336h-233l172 336h-385l-168 -336h-234l172 336h-217l103 194h213l196 383h-219l103 195h217l166 326h217l-162 -326h393l166 326h217l-162 -326h242z" />
    <glyph glyph-name="dollar" unicode="$" horiz-adv-x="1232" 
d="M605 1266q-119 0 -193 -54t-74 -139q0 -59 53 -105t105 -66t124 -42q159 -48 244 -86q196 -86 259 -205q40 -74 40 -170q-1 -163 -117 -279t-311 -143v-161h-223v164q-176 32 -293 142t-158 275l218 60q20 -119 115 -201q96 -82 236 -82t218 62t78 155q0 122 -139 183
q-65 30 -161 60t-144 46t-88 32q-40 15 -102 50q-186 105 -186 306q0 140 113 249t293 137v164h223v-166q157 -32 267 -132t143 -245l-217 -59q-25 118 -114 184t-209 66z" />
    <glyph glyph-name="percent" unicode="%" horiz-adv-x="1818" 
d="M1425 139q94 0 152 75q57 76 57 184t-57 184t-151 76t-153 -76t-59 -185t58 -183t153 -75zM1425 -16q-164 0 -266 118t-102 295q0 178 102 297t266 119q163 0 265 -119t102 -297t-101 -296q-102 -117 -266 -117zM393 776q94 0 152 75q57 75 57 183t-57 185
q-57 75 -151 75t-153 -76t-59 -184q0 -110 58 -184t153 -74zM336 0l993 1434h156l-996 -1434h-153zM393 621q-164 -1 -266 117t-102 296t102 297t266 119t265 -119q102 -119 102 -297t-102 -296t-265 -117z" />
    <glyph glyph-name="ampersand" unicode="&#x26;" horiz-adv-x="1452" 
d="M952 506v143h-338q-143 0 -226 -61t-83 -172q0 -112 87 -180q88 -68 244 -68q316 0 316 338zM1427 829v-180h-262v-151q0 -242 -133 -384t-418 -143q-238 0 -384 121t-146 318q0 135 87 224t212 107v2q-102 13 -187 95t-85 215q0 169 125 289t342 120t353 -108t177 -299
l-195 -54q-37 137 -110 203q-74 66 -206 66t-191 -71q-60 -71 -60 -159t72 -148q72 -62 209 -63h800z" />
    <glyph glyph-name="quotesingle" unicode="'" horiz-adv-x="577" 
d="M180 989v445h215v-445h-215z" />
    <glyph glyph-name="parenleft" unicode="(" horiz-adv-x="759" 
d="M84 710q0 243 50 429t137 299t177 176t195 100l62 -213q-205 -69 -299 -261t-94 -532t94 -530q94 -192 299 -260l-62 -213q-106 37 -196 100q-89 63 -176 177t-137 299q-50 186 -50 429z" />
    <glyph glyph-name="parenright" unicode=")" horiz-adv-x="761" 
d="M680 710q0 -243 -50 -429t-137 -299q-87 -112 -177 -176t-195 -101l-62 213q205 68 299 259t94 531t-94 534q-94 192 -299 259l62 213q106 -37 195 -100q88 -63 176 -176t138 -299t50 -429z" />
    <glyph glyph-name="asterisk" unicode="*" horiz-adv-x="1060" 
d="M455 1434h147v-246l232 76l47 -142l-236 -69l148 -199l-119 -88l-144 207l-143 -207l-119 86l148 201l-236 69l45 142l230 -76v246z" />
    <glyph glyph-name="plus" unicode="+" 
d="M1186 821v-188h-369v-377h-201v377h-370v188h368v373h201v-373h371z" />
    <glyph glyph-name="comma" unicode="," horiz-adv-x="487" 
d="M123 97q0 50 36 85t87 35t86 -40q35 -39 35 -115q-1 -76 -53 -170t-130 -162h-92q49 38 89 112t40 131l25 9l-25 2q-37 4 -67 34t-31 79z" />
    <glyph glyph-name="hyphen" unicode="-" horiz-adv-x="1302" 
d="M180 821h942v-188h-942v188z" />
    <glyph glyph-name="period" unicode="." horiz-adv-x="487" 
d="M244 -27q-51 0 -86 36t-35 86t35 85t86 35t86 -35t35 -85t-35 -86t-86 -36z" />
    <glyph glyph-name="slash" unicode="/" horiz-adv-x="999" 
d="M25 0l733 1434h217l-717 -1434h-233z" />
    <glyph glyph-name="zero" unicode="0" horiz-adv-x="1468" 
d="M733 1239q-203 0 -309 -147q-106 -146 -106 -374t106 -376t309 -147q203 0 311 147q108 146 107 374q1 228 -107 376t-311 147zM734 1462q298 0 475 -215t177 -530t-177 -531t-475 -215q-298 0 -474 215q-176 214 -176 530t176 531t474 215z" />
    <glyph glyph-name="one" unicode="1" horiz-adv-x="882" 
d="M702 1434v-1434h-227v879l4 190l2 35h-2l-18 -21q-72 -80 -94 -102l-144 -141l-139 135l459 459h159z" />
    <glyph glyph-name="two" unicode="2" horiz-adv-x="1202" 
d="M1122 213v-213h-1013v184q379 322 630 539q156 131 156 283q0 112 -77 184q-76 72 -198 72t-202 -66t-111 -176l-211 55q52 183 192 285t349 102t347 -129t138 -323t-116 -325q-61 -69 -112 -111t-144 -111l-342 -256l2 -2h8l214 8h490z" />
    <glyph glyph-name="three" unicode="3" horiz-adv-x="1234" 
d="M652 1462q220 0 348 -116t128 -268t-92 -240t-207 -93v-2q131 -4 227 -91t95 -234q0 -199 -145 -323q-144 -124 -360 -124t-371 114t-191 292l205 55q23 -118 113 -188t224 -70q132 0 211 72t79 180t-81 166q-81 57 -219 57h-124v180h124q135 1 207 57t72 152t-70 160
q-70 63 -204 64q-234 0 -308 -244l-202 53q43 179 182 285t359 106z" />
    <glyph glyph-name="four" unicode="4" horiz-adv-x="1306" 
d="M834 524v346l2 123l4 119v10h-2l-23 -28q-66 -95 -127 -164l-235 -279q-35 -43 -66 -76t-43 -51v-2l126 2h364zM1229 524v-198h-180v-326h-215v326h-750v168l782 940h183v-910h180z" />
    <glyph glyph-name="five" unicode="5" horiz-adv-x="1224" 
d="M631 938q221 0 368 -134t147 -344t-146 -349t-362 -139t-359 109q-143 110 -183 275l209 56q25 -106 107 -175t211 -69t212 84t83 213t-84 212t-211 83q-213 0 -275 -154l-196 56l127 772h782v-213h-615l-28 -152q-12 -68 -24 -123t-17 -78l-6 -22l2 -2q31 34 101 64
t157 30z" />
    <glyph glyph-name="six" unicode="6" horiz-adv-x="1222" 
d="M634 766q-144 0 -234 -82t-89 -215t91 -215t232 -82t230 83t89 215t-87 214t-232 82zM674 954q223 0 359 -142t136 -354q-1 -212 -155 -349t-387 -137t-388 138q-155 140 -155 361q0 141 52 260t167 270l328 433h246l-431 -572l3 -2q80 94 225 94z" />
    <glyph glyph-name="seven" unicode="7" horiz-adv-x="1150" 
d="M68 1221v213h1046v-136l-729 -1298h-242l545 965q47 81 139 223l23 35l-2 2h-12l-136 -4h-632z" />
    <glyph glyph-name="eight" unicode="8" horiz-adv-x="1245" 
d="M946 405q0 113 -88 181t-235 68t-235 -69q-88 -68 -89 -181q0 -113 89 -183q90 -69 236 -69t234 70t88 183zM903 1076q0 94 -79 156q-78 62 -202 62t-202 -62t-78 -158q0 -95 79 -154q79 -60 202 -60t201 60t79 156zM1163 399q1 -186 -151 -307t-390 -121t-388 121
q-151 121 -150 307q0 147 97 245t227 118v2q-80 10 -170 98t-90 234t134 257q134 109 341 109t341 -110t134 -271q0 -131 -90 -219t-168 -98v-2q127 -20 225 -118t98 -245z" />
    <glyph glyph-name="nine" unicode="9" horiz-adv-x="1230" 
d="M597 1262q-140 0 -232 -80q-93 -80 -93 -222t94 -218t232 -76q139 0 230 80q92 80 92 219q0 141 -92 219t-231 78zM557 479q-236 0 -370 139q-134 138 -134 356t155 353q154 135 392 135t392 -134t155 -367q0 -266 -266 -580l-328 -381h-258l491 569l-2 2
q-80 -92 -227 -92z" />
    <glyph glyph-name="colon" unicode=":" horiz-adv-x="487" 
d="M244 -27q-51 0 -86 36t-35 86t35 85t86 35t86 -35t35 -85t-35 -86t-86 -36zM244 594q-51 0 -86 36t-35 86t35 85t86 35t86 -35t35 -85t-35 -86t-86 -36z" />
    <glyph glyph-name="semicolon" unicode=";" horiz-adv-x="520" 
d="M276 213q51 0 86 -40q35 -39 35 -115t-52 -170t-130 -162h-92q49 38 89 112t40 131l24 8l-24 3q-37 4 -68 34q-30 30 -30 79q0 50 35 85q36 35 87 35zM272 594q-51 0 -86 36q-34 36 -34 86t34 85q35 35 86 35t86 -35t35 -85t-35 -86t-86 -36z" />
    <glyph glyph-name="less" unicode="&#x3c;" 
d="M1176 250h-277l-666 502l666 499h277l-650 -499z" />
    <glyph glyph-name="equal" unicode="=" 
d="M246 600h940v-188h-940v188zM246 1020h940v-189h-940v189z" />
    <glyph glyph-name="greater" unicode="&#x3e;" 
d="M254 250l649 502l-649 499h276l666 -499l-666 -502h-276z" />
    <glyph glyph-name="question" unicode="?" horiz-adv-x="1185" 
d="M461 0v322h227v-322h-227zM461 459v225q237 118 321 190t84 162t-62 158t-204 68q-254 0 -326 -244l-190 53q43 183 182 287q138 104 360 104t349 -116t127 -293q0 -176 -133 -285q-68 -55 -126 -89t-155 -79v-141h-227z" />
    <glyph glyph-name="at" unicode="@" horiz-adv-x="1634" 
d="M788 463q90 0 152 61t64 174v64q2 102 -62 151t-154 49q-91 0 -157 -69q-66 -71 -65 -187t67 -180t155 -63zM1004 1081h149v-530q0 -63 28 -102t76 -39q76 0 115 87t39 218q0 268 -169 443t-426 175t-426 -175t-169 -442q0 -268 169 -446t425 -178q164 0 249 38t110 58
q24 21 26 21l105 -55q-7 -22 -62 -61q-110 -77 -221 -99t-207 -23q-315 0 -523 213t-208 534q0 320 207 532t525 212t526 -212t208 -535q0 -172 -80 -296t-231 -124q-82 0 -142 49t-71 129l-2 2q-26 -70 -102 -122t-162 -52q-162 0 -263 112q-101 113 -101 293t102 296
q104 116 274 116q68 0 123 -28t79 -53q24 -26 27 -42h3v86z" />
    <glyph glyph-name="A" unicode="A" horiz-adv-x="1472" 
d="M483 524h506l-184 449q-52 143 -57 157l-11 29h-2l-10 -29q-9 -28 -27 -76t-30 -81zM1204 0l-133 326h-670l-133 -326h-243l606 1434h211l606 -1434h-244z" />
    <glyph glyph-name="B" unicode="B" horiz-adv-x="1333" 
d="M408 193h340q118 -1 194 65t76 173t-80 175t-197 68h-333v-481zM408 850h292q106 0 173 56t67 142t-66 140q-66 53 -174 53h-292v-391zM180 1434h565q187 0 305 -102t117 -259q-1 -102 -67 -186t-150 -105v-2q111 -18 207 -120t96 -234q0 -190 -127 -308t-358 -118h-588
v1434z" />
    <glyph glyph-name="C" unicode="C" horiz-adv-x="1552" 
d="M827 1239q-223 0 -366 -145q-143 -144 -143 -376t144 -376q146 -144 365 -145q143 0 265 69q121 70 182 185l227 -62q-92 -193 -271 -305t-403 -113q-311 0 -527 212t-216 534q0 321 216 533t527 212q207 0 381 -102t271 -275l-232 -61q-63 100 -177 158t-243 57z" />
    <glyph glyph-name="D" unicode="D" horiz-adv-x="1617" 
d="M408 213h393q209 0 353 136q144 135 144 363t-147 368t-360 141h-383v-1008zM180 1434h611q313 0 528 -203t215 -518t-212 -514t-521 -199h-621v1434z" />
    <glyph glyph-name="E" unicode="E" horiz-adv-x="1310" 
d="M408 213h770v-213h-998v1434h985v-213h-757v-373h604v-201h-604v-434z" />
    <glyph glyph-name="F" unicode="F" horiz-adv-x="1216" 
d="M1145 1221h-737v-416h583v-205h-583v-600h-228v1434h965v-213z" />
    <glyph glyph-name="G" unicode="G" horiz-adv-x="1626" 
d="M1309 180h-2q-66 -80 -194 -144t-286 -65q-311 0 -527 212t-216 534q0 321 216 533t527 212q213 -2 384 -103t268 -274l-232 -61q-63 100 -177 158t-243 57q-223 0 -366 -145q-143 -146 -143 -378t146 -378q148 -146 374 -145q180 1 303 81t168 185v121h-418v186h612
v-768h-196v131l2 39v12z" />
    <glyph glyph-name="H" unicode="H" horiz-adv-x="1515" 
d="M1108 1434h227v-1434h-227v629h-700v-629h-228v1434h228v-594h700v594z" />
    <glyph glyph-name="I" unicode="I" horiz-adv-x="587" 
d="M408 0h-228v1434h228v-1434z" />
    <glyph glyph-name="J" unicode="J" horiz-adv-x="1357" 
d="M985 1434h227v-826q0 -301 -164 -469t-450 -168q-200 1 -356 103t-217 266l225 59q39 -100 133 -158t215 -59q186 0 287 111q100 111 100 305v836z" />
    <glyph glyph-name="K" unicode="K" horiz-adv-x="1441" 
d="M408 0h-228v1434h228v-334l-2 -301l-3 -31h3l28 29q29 29 85 87t110 111l440 439h277l-594 -594l624 -840h-266l-508 690l-194 -196v-494z" />
    <glyph glyph-name="L" unicode="L" horiz-adv-x="1185" 
d="M408 213h737v-213h-965v1434h228v-1221z" />
    <glyph glyph-name="M" unicode="M" horiz-adv-x="1720" 
d="M1540 1434v-1434h-223v547q0 166 8 438l2 68h-2q-4 0 -127 -217l-278 -482h-119l-279 482q-123 217 -125 217h-2l2 -68q6 -204 6 -438v-547h-223v1434h213l326 -549q115 -193 141 -246h2l53 97q35 62 86 149l326 549h213z" />
    <glyph glyph-name="N" unicode="N" horiz-adv-x="1572" 
d="M1165 1434h228v-1434h-213l-523 705q-53 75 -117 165t-100 138l-34 49h-3l3 -53l2 -396v-608h-228v1434h213l527 -707q42 -57 106 -145t102 -142l39 -53h2l-2 59l-2 377v611z" />
    <glyph glyph-name="O" unicode="O" horiz-adv-x="1654" 
d="M1337 718q0 232 -144 376q-145 144 -367 145q-222 -1 -366 -145t-143 -376q-1 -232 143 -378t366 -145q222 0 367 146q144 145 144 377zM84 717q0 321 216 533t528 212t528 -212t217 -534q0 -322 -216 -533q-217 -212 -529 -212t-528 212t-216 534z" />
    <glyph glyph-name="P" unicode="P" horiz-adv-x="1261" 
d="M408 709h243q150 -1 232 67t82 190t-83 188t-231 67h-243v-512zM180 1434h475q257 0 401 -125t144 -344t-144 -344t-401 -125h-247v-496h-228v1434z" />
    <glyph glyph-name="Q" unicode="Q" horiz-adv-x="1654" 
d="M826 195q222 0 367 146q144 145 144 377t-144 376q-145 144 -367 145q-222 0 -365 -144q-143 -145 -143 -377t142 -378q144 -146 366 -145zM711 -270v250q-272 41 -450 244q-177 204 -177 510t216 516q216 212 528 212t528 -212t217 -518q0 -306 -181 -511t-454 -241
v-250h-227z" />
    <glyph glyph-name="R" unicode="R" horiz-adv-x="1333" 
d="M408 713h268q139 -1 214 71t75 185t-76 183t-213 69h-268v-508zM649 512h-241v-512h-228v1434h469q255 0 403 -126t148 -339q0 -150 -75 -256t-212 -158l340 -555h-256l-303 514q-14 -2 -45 -2z" />
    <glyph glyph-name="S" unicode="S" horiz-adv-x="1232" 
d="M605 1266q-119 0 -193 -54t-74 -139q0 -59 53 -105t105 -66t124 -42q159 -48 244 -86q196 -86 259 -205q40 -74 40 -170q0 -186 -148 -307q-149 -121 -379 -121t-379 117q-148 117 -196 309l218 60q20 -119 115 -201q96 -82 236 -82t218 62t78 155q0 122 -139 183
q-65 30 -161 60t-144 46t-88 32q-40 15 -102 50q-186 105 -186 299q0 170 146 286q146 115 354 115q210 0 354 -108t185 -279l-217 -59q-25 118 -114 184t-209 66z" />
    <glyph glyph-name="T" unicode="T" horiz-adv-x="1228" 
d="M37 1434h1153v-213h-465v-1221h-225v1221h-463v213z" />
    <glyph glyph-name="U" unicode="U" horiz-adv-x="1497" 
d="M1126 1434h226v-826q0 -307 -160 -472t-444 -165t-444 165q-159 165 -159 472v826h228v-824q0 -428 377 -428t376 428v824z" />
    <glyph glyph-name="V" unicode="V" horiz-adv-x="1470" 
d="M1200 1434h246l-592 -1434h-238l-591 1434h247l381 -949q18 -51 40 -110t32 -90l10 -31h2l11 31q36 112 71 200z" />
    <glyph glyph-name="W" unicode="W" horiz-adv-x="2056" 
d="M1767 1434h240l-469 -1434h-207l-229 723q-25 79 -43 147t-25 93l-6 26h-2l-6 -26q-19 -84 -68 -240l-229 -723h-207l-467 1434h240l272 -871q42 -145 53 -190l9 -27h2l6 27q8 25 23 80t36 110l236 697h204l236 -697q20 -55 36 -110t23 -80l7 -27h2l8 27q30 123 51 190z
" />
    <glyph glyph-name="X" unicode="X" horiz-adv-x="1382" 
d="M692 553h-2l-18 -29q-18 -32 -43 -70t-37 -57l-291 -397h-272l526 739l-492 695h275l266 -379q25 -35 70 -111l16 -26h2l17 26q50 85 69 111l266 379h275l-490 -695l525 -739h-273l-290 397q-38 57 -80 127z" />
    <glyph glyph-name="Y" unicode="Y" horiz-adv-x="1388" 
d="M807 0h-225v680l-553 754h256l325 -441q14 -18 43 -56t41 -54h2q2 0 82 110l326 441h256l-553 -754v-680z" />
    <glyph glyph-name="Z" unicode="Z" horiz-adv-x="1427" 
d="M143 1221v213h1162v-211l-762 -891q-27 -29 -57 -60t-44 -47l-16 -16l2 -2l10 2h29l160 4h678v-213h-1182v211l780 899q20 24 49 52t47 46l21 17l-2 2l-10 -2h-32l-157 -4h-676z" />
    <glyph glyph-name="bracketleft" unicode="[" horiz-adv-x="729" 
d="M410 1540v-1638h274v-211h-504v2062h504v-213h-274z" />
    <glyph glyph-name="backslash" unicode="\" horiz-adv-x="999" 
d="M975 0h-234l-716 1434h217z" />
    <glyph glyph-name="bracketright" unicode="]" horiz-adv-x="743" 
d="M334 1540h-275v213h504v-2062h-504v211h275v1638z" />
    <glyph glyph-name="asciicircum" unicode="^" horiz-adv-x="1318" 
d="M1139 977l-105 -94l-375 383l-374 -383l-105 94l479 481z" />
    <glyph glyph-name="underscore" unicode="_" horiz-adv-x="1574" 
d="M180 0h1215v-178h-1215v178z" />
    <glyph glyph-name="grave" unicode="`" horiz-adv-x="638" 
d="M500 1503l-467 213l80 156l454 -244z" />
    <glyph glyph-name="a" unicode="a" horiz-adv-x="1472" 
d="M483 524h506l-184 449q-52 143 -57 157l-11 29h-2l-10 -29q-9 -28 -27 -76t-30 -81zM1204 0l-133 326h-670l-133 -326h-243l606 1434h211l606 -1434h-244z" />
    <glyph glyph-name="b" unicode="b" horiz-adv-x="1333" 
d="M408 193h340q118 -1 194 65t76 173t-80 175t-197 68h-333v-481zM408 850h292q106 0 173 56t67 142t-66 140q-66 53 -174 53h-292v-391zM180 1434h565q187 0 305 -102t117 -259q-1 -102 -67 -186t-150 -105v-2q111 -18 207 -120t96 -234q0 -190 -127 -308t-358 -118h-588
v1434z" />
    <glyph glyph-name="c" unicode="c" horiz-adv-x="1552" 
d="M827 1239q-223 0 -366 -145q-143 -144 -143 -376t144 -376q146 -144 365 -145q143 0 265 69q121 70 182 185l227 -62q-92 -193 -271 -305t-403 -113q-311 0 -527 212t-216 534q0 321 216 533t527 212q207 0 381 -102t271 -275l-232 -61q-63 100 -177 158t-243 57z" />
    <glyph glyph-name="d" unicode="d" horiz-adv-x="1617" 
d="M408 213h393q209 0 353 136q144 135 144 363t-147 368t-360 141h-383v-1008zM180 1434h611q313 0 528 -203t215 -518t-212 -514t-521 -199h-621v1434z" />
    <glyph glyph-name="e" unicode="e" horiz-adv-x="1310" 
d="M408 213h770v-213h-998v1434h985v-213h-757v-373h604v-201h-604v-434z" />
    <glyph glyph-name="f" unicode="f" horiz-adv-x="1216" 
d="M1145 1221h-737v-416h583v-205h-583v-600h-228v1434h965v-213z" />
    <glyph glyph-name="g" unicode="g" horiz-adv-x="1626" 
d="M1309 180h-2q-66 -80 -194 -144t-286 -65q-311 0 -527 212t-216 534q0 321 216 533t527 212q213 -2 384 -103t268 -274l-232 -61q-63 100 -177 158t-243 57q-223 0 -366 -145q-143 -146 -143 -378t146 -378q148 -146 374 -145q180 1 303 81t168 185v121h-418v186h612
v-768h-196v131l2 39v12z" />
    <glyph glyph-name="h" unicode="h" horiz-adv-x="1515" 
d="M1108 1434h227v-1434h-227v629h-700v-629h-228v1434h228v-594h700v594z" />
    <glyph glyph-name="i" unicode="i" horiz-adv-x="587" 
d="M408 0h-228v1434h228v-1434z" />
    <glyph glyph-name="j" unicode="j" horiz-adv-x="1357" 
d="M985 1434h227v-826q0 -301 -164 -469t-450 -168q-200 1 -356 103t-217 266l225 59q39 -100 133 -158t215 -59q186 0 287 111q100 111 100 305v836z" />
    <glyph glyph-name="k" unicode="k" horiz-adv-x="1441" 
d="M408 0h-228v1434h228v-334l-2 -301l-3 -31h3l28 29q29 29 85 87t110 111l440 439h277l-594 -594l624 -840h-266l-508 690l-194 -196v-494z" />
    <glyph glyph-name="l" unicode="l" horiz-adv-x="1185" 
d="M408 213h737v-213h-965v1434h228v-1221z" />
    <glyph glyph-name="m" unicode="m" horiz-adv-x="1720" 
d="M1540 1434v-1434h-223v547q0 166 8 438l2 68h-2q-4 0 -127 -217l-278 -482h-119l-279 482q-123 217 -125 217h-2l2 -68q6 -204 6 -438v-547h-223v1434h213l326 -549q115 -193 141 -246h2l53 97q35 62 86 149l326 549h213z" />
    <glyph glyph-name="n" unicode="n" horiz-adv-x="1572" 
d="M1165 1434h228v-1434h-213l-523 705q-53 75 -117 165t-100 138l-34 49h-3l3 -53l2 -396v-608h-228v1434h213l527 -707q42 -57 106 -145t102 -142l39 -53h2l-2 59l-2 377v611z" />
    <glyph glyph-name="o" unicode="o" horiz-adv-x="1654" 
d="M1337 718q0 232 -144 376q-145 144 -367 145q-222 -1 -366 -145t-143 -376q-1 -232 143 -378t366 -145q222 0 367 146q144 145 144 377zM84 717q0 321 216 533t528 212t528 -212t217 -534q0 -322 -216 -533q-217 -212 -529 -212t-528 212t-216 534z" />
    <glyph glyph-name="p" unicode="p" horiz-adv-x="1261" 
d="M408 709h243q150 -1 232 67t82 190t-83 188t-231 67h-243v-512zM180 1434h475q257 0 401 -125t144 -344t-144 -344t-401 -125h-247v-496h-228v1434z" />
    <glyph glyph-name="q" unicode="q" horiz-adv-x="1654" 
d="M826 195q222 0 367 146q144 145 144 377t-144 376q-145 144 -367 145q-222 0 -365 -144q-143 -145 -143 -377t142 -378q144 -146 366 -145zM711 -270v250q-272 41 -450 244q-177 204 -177 510t216 516q216 212 528 212t528 -212t217 -518q0 -306 -181 -511t-454 -241
v-250h-227z" />
    <glyph glyph-name="r" unicode="r" horiz-adv-x="1333" 
d="M408 713h268q139 -1 214 71t75 185t-76 183t-213 69h-268v-508zM649 512h-241v-512h-228v1434h469q255 0 403 -126t148 -339q0 -150 -75 -256t-212 -158l340 -555h-256l-303 514q-14 -2 -45 -2z" />
    <glyph glyph-name="s" unicode="s" horiz-adv-x="1232" 
d="M605 1266q-119 0 -193 -54t-74 -139q0 -59 53 -105t105 -66t124 -42q159 -48 244 -86q196 -86 259 -205q40 -74 40 -170q0 -186 -148 -307q-149 -121 -379 -121t-379 117q-148 117 -196 309l218 60q20 -119 115 -201q96 -82 236 -82t218 62t78 155q0 122 -139 183
q-65 30 -161 60t-144 46t-88 32q-40 15 -102 50q-186 105 -186 299q0 170 146 286q146 115 354 115q210 0 354 -108t185 -279l-217 -59q-25 118 -114 184t-209 66z" />
    <glyph glyph-name="t" unicode="t" horiz-adv-x="1228" 
d="M37 1434h1153v-213h-465v-1221h-225v1221h-463v213z" />
    <glyph glyph-name="u" unicode="u" horiz-adv-x="1497" 
d="M1126 1434h226v-826q0 -307 -160 -472t-444 -165t-444 165q-159 165 -159 472v826h228v-824q0 -428 377 -428t376 428v824z" />
    <glyph glyph-name="v" unicode="v" horiz-adv-x="1470" 
d="M1200 1434h246l-592 -1434h-238l-591 1434h247l381 -949q18 -51 40 -110t32 -90l10 -31h2l11 31q36 112 71 200z" />
    <glyph glyph-name="w" unicode="w" horiz-adv-x="2056" 
d="M1767 1434h240l-469 -1434h-207l-229 723q-25 79 -43 147t-25 93l-6 26h-2l-6 -26q-19 -84 -68 -240l-229 -723h-207l-467 1434h240l272 -871q42 -145 53 -190l9 -27h2l6 27q8 25 23 80t36 110l236 697h204l236 -697q20 -55 36 -110t23 -80l7 -27h2l8 27q30 123 51 190z
" />
    <glyph glyph-name="x" unicode="x" horiz-adv-x="1382" 
d="M692 553h-2l-18 -29q-18 -32 -43 -70t-37 -57l-291 -397h-272l526 739l-492 695h275l266 -379q25 -35 70 -111l16 -26h2l17 26q50 85 69 111l266 379h275l-490 -695l525 -739h-273l-290 397q-38 57 -80 127z" />
    <glyph glyph-name="y" unicode="y" horiz-adv-x="1388" 
d="M807 0h-225v680l-553 754h256l325 -441q14 -18 43 -56t41 -54h2q2 0 82 110l326 441h256l-553 -754v-680z" />
    <glyph glyph-name="z" unicode="z" horiz-adv-x="1427" 
d="M143 1221v213h1162v-211l-762 -891q-27 -29 -57 -60t-44 -47l-16 -16l2 -2l10 2h29l160 4h678v-213h-1182v211l780 899q20 24 49 52t47 46l21 17l-2 2l-10 -2h-32l-157 -4h-676z" />
    <glyph glyph-name="braceleft" unicode="{" horiz-adv-x="843" 
d="M539 1249v-200q0 -121 -27 -202t-48 -102q-22 -20 -36 -24q14 -5 36 -25t48 -101t27 -202v-200q1 -184 75 -251t199 -67v-211q-240 0 -370 131t-130 375v236q0 158 -43 226t-90 89q19 6 45 30q88 83 88 285v236q0 244 130 375t370 131v-211q-125 0 -199 -67t-75 -251z
" />
    <glyph glyph-name="bar" unicode="|" horiz-adv-x="544" 
d="M362 -152h-182v1739h182v-1739z" />
    <glyph glyph-name="braceright" unicode="}" horiz-adv-x="843" 
d="M305 1249q0 184 -75 251t-199 67v211q239 0 369 -131t130 -375v-236q0 -204 87 -283q29 -27 47 -32q-131 -60 -134 -315v-236q0 -244 -130 -375t-369 -131v211q125 0 199 67t75 251v200q0 121 27 202t48 101q22 20 36 25q-14 4 -36 24q-22 19 -48 101t-27 203v200z" />
    <glyph glyph-name="asciitilde" unicode="~" 
d="M492 870q92 0 168 -36t138 -71q64 -36 122 -36t93 38q36 38 38 89l190 -51q-16 -119 -104 -182q-87 -63 -191 -63t-231 71t-189 71t-95 -36q-34 -36 -38 -91l-188 52q18 119 106 182q89 63 181 63z" />
    <glyph glyph-name="exclamdown" unicode="&#xa1;" horiz-adv-x="587" 
d="M180 975h228v-975h-228v975zM180 1434h228v-322h-228v322z" />
    <glyph glyph-name="cent" unicode="&#xa2;" horiz-adv-x="1171" 
d="M711 -29h-185v207q-190 33 -316 181q-126 147 -126 353t126 354t316 181v215h185v-215q129 -20 233 -97t160 -192l-197 -51q-96 152 -286 152q-147 0 -237 -94t-91 -252q0 -158 90 -251t238 -93q215 0 301 180l196 -53q-53 -127 -161 -212t-246 -108v-205z" />
    <glyph glyph-name="sterling" unicode="&#xa3;" horiz-adv-x="1339" 
d="M1253 213v-213h-1073v213q106 20 137 96t19 230l-8 86h-140v180h123l-18 199q-18 186 114 320t328 138q160 4 307 -91t199 -302l-192 -53q-78 256 -306 246q-111 -4 -173 -83t-52 -194l17 -180h448v-180h-432l8 -82q23 -268 -96 -336l2 -2h10l286 8h492z" />
    <glyph glyph-name="currency" unicode="&#xa4;" horiz-adv-x="1349" 
d="M676 1044q-142 0 -242 -99t-100 -247t98 -245q98 -99 242 -99t244 98t100 246q0 147 -99 247q-100 99 -243 99zM1221 698q0 -180 -105 -321l144 -146l-115 -114l-144 145q-145 -112 -326 -112t-327 110l-143 -143l-115 114l146 144q-106 141 -106 320t110 327l-144 143
l115 115l145 -143q140 104 316 104t323 -104l144 143l114 -115l-143 -143q111 -144 111 -324z" />
    <glyph glyph-name="yen" unicode="&#xa5;" horiz-adv-x="1388" 
d="M1223 905v-155h-365l-51 -70v-4h416v-154h-416v-522h-225v522h-406v154h406v4l-52 70h-354v155h240l-387 529h256l325 -441q14 -18 43 -56t41 -54h2q2 0 82 110l326 441h256l-387 -529h250z" />
    <glyph glyph-name="brokenbar" unicode="&#xa6;" horiz-adv-x="544" 
d="M180 442h182v-594h-182v594zM180 1587h182v-573h-182v573z" />
    <glyph glyph-name="section" unicode="&#xa7;" horiz-adv-x="1083" 
d="M768 631q45 37 45 92t-31 78t-47 35t-56 24t-58 18q-17 6 -69 16q-52 11 -69 15q-80 -10 -139 -49t-59 -93q-1 -54 29 -74q62 -44 124 -60q62 -17 107 -27t59 -14t26 -7t17 -5q76 14 121 51zM540 1319q-100 0 -160 -34t-60 -83t33 -76q34 -27 81 -42q47 -14 151 -40
q308 -76 387 -193q34 -52 34 -118q0 -156 -191 -211q197 -88 197 -246q0 -135 -128 -222t-329 -87t-326 83t-168 222l187 50q20 -86 99 -144t200 -59q121 0 189 43t69 104q0 61 -50 95q-65 44 -165 70q-241 61 -315 95t-104 60q-79 67 -79 162q0 154 197 223
q-170 76 -170 215q0 120 123 200t297 80t295 -72q120 -73 155 -192l-184 -51q-18 80 -92 124t-173 44z" />
    <glyph glyph-name="dieresis" unicode="&#xa8;" horiz-adv-x="843" 
d="M655 1569q-49 0 -83 34t-34 82q0 47 34 81t83 34t83 -34t34 -82t-34 -81q-34 -34 -83 -34zM150 1569q-49 0 -83 34t-34 82q0 47 34 81t83 34q48 0 82 -34t34 -82t-34 -81q-34 -34 -82 -34z" />
    <glyph glyph-name="copyright" unicode="&#xa9;" horiz-adv-x="1654" 
d="M831 1075q101 0 191 -55t131 -141l-133 -39q-63 100 -189 100q-94 0 -153 -61q-60 -61 -60 -161t60 -164q60 -62 153 -62q138 -1 197 120l135 -39q-37 -94 -130 -154t-202 -61q-149 0 -251 102t-103 257q1 154 103 256t251 102zM826 1303q-250 0 -410 -163t-160 -421
t162 -422t410 -164t410 164q163 164 163 422t-163 421t-412 163zM84 717q0 321 216 533t528 212t528 -212t217 -534q0 -322 -216 -533q-217 -212 -529 -212t-528 212t-216 534z" />
    <glyph glyph-name="ordfeminine" unicode="&#xaa;" horiz-adv-x="733" 
d="M41 637h651v-143h-651v143zM326 1149l-45 -129h170l-45 129q-21 74 -33 139l-6 23h-2l-5 -23q-6 -24 -15 -64t-19 -75zM240 909l-50 -141h-147l260 682h125l260 -682h-147l-49 141h-252z" />
    <glyph glyph-name="guillemotleft" unicode="&#xab;" horiz-adv-x="1568" 
d="M1262 1200l124 -125l-364 -354l367 -354l-127 -127l-482 481zM664 1200l124 -125l-364 -354l367 -354l-127 -127l-482 481z" />
    <glyph glyph-name="softhyphen" unicode="&#xad;" horiz-adv-x="1302" 
d="M180 821h942v-188h-942v188z" />
    <glyph glyph-name="registered" unicode="&#xae;" horiz-adv-x="1654" 
d="M725 731h121q129 0 129 111q0 51 -34 82t-95 30h-121v-223zM592 1075h239q127 0 201 -61t74 -168q0 -152 -137 -203l170 -283h-142l-153 261h-119v-261h-133v715zM827 133q248 0 411 164t163 422t-163 421t-412 163q-250 0 -410 -163t-160 -421t162 -422t409 -164z
M84 717q0 321 216 533t528 212t528 -212t217 -534q0 -322 -216 -533q-217 -212 -529 -212t-528 212t-216 534z" />
    <glyph glyph-name="macron" unicode="&#xaf;" horiz-adv-x="731" 
d="M8 1573h676v-174h-676v174z" />
    <glyph glyph-name="degree" unicode="&#xb0;" horiz-adv-x="630" 
d="M316 1327q48 0 83 35t35 83t-35 82t-83 34t-83 -34t-35 -82t36 -83q34 -35 82 -35zM315 1190q-104 0 -178 75t-74 178t74 177t178 74q105 0 179 -74t74 -177t-75 -178q-74 -75 -178 -75z" />
    <glyph glyph-name="plusminus" unicode="&#xb1;" 
d="M246 -20v188h940v-188h-940zM815 821h371v-188h-369v-291h-201v291h-370v188h368v373h201v-373z" />
    <glyph glyph-name="twosuperior" unicode="&#xb2;" horiz-adv-x="681" 
d="M453 1102h176v-133h-578v102l303 248q131 104 131 194q0 55 -41 91t-100 36q-123 0 -166 -145l-137 37q27 110 109 180t200 70t202 -78q83 -78 83 -198t-139 -238q-154 -128 -254 -178l2 -3l30 3q93 12 179 12z" />
    <glyph glyph-name="threesuperior" unicode="&#xb3;" horiz-adv-x="690" 
d="M633 1566q0 -86 -53 -134t-119 -52v-2q76 -4 129 -50t53 -126q0 -110 -83 -180t-204 -70t-210 68t-105 172l133 37q8 -68 55 -108t120 -40t112 36t39 88t-43 85t-109 33h-78v111h78q61 0 101 32q39 33 39 78t-36 77t-102 32q-131 0 -166 -137l-129 34q21 104 101 168
t204 64t199 -65q74 -65 74 -151z" />
    <glyph glyph-name="acute" unicode="&#xb4;" horiz-adv-x="638" 
d="M487 1872l80 -156l-467 -213l-67 125z" />
    <glyph glyph-name="paragraph" unicode="&#xb6;" horiz-adv-x="1445" 
d="M561 1434h705v-1434h-228v1221h-172v-1221h-215v651h-90q-225 -1 -351 103t-126 288t126 288t351 104z" />
    <glyph glyph-name="periodcentered" unicode="&#xb7;" horiz-adv-x="487" 
d="M244 594q-51 0 -86 36t-35 86t35 85t86 35t86 -35t35 -85t-35 -86t-86 -36z" />
    <glyph glyph-name="cedilla" unicode="&#xb8;" horiz-adv-x="512" 
d="M442 -308q0 -96 -63 -148t-164 -52h-182l49 125h133q45 0 71 22q26 21 26 55t-28 56q-26 22 -69 23h-160l80 227h131l-39 -106q91 2 153 -52t62 -150z" />
    <glyph glyph-name="onesuperior" unicode="&#xb9;" horiz-adv-x="483" 
d="M260 1407q0 99 10 154v12h-2q-30 -45 -67 -78l-80 -76l-96 86l280 260h107v-796h-152v438z" />
    <glyph glyph-name="ordmasculine" unicode="&#xba;" horiz-adv-x="747" 
d="M41 637h668v-143h-668v143zM164 1106q0 -94 59 -154t149 -61q90 0 151 60q61 61 61 155t-60 156t-151 61q-90 0 -150 -61q-59 -62 -59 -156zM20 1106q0 152 102 253t252 101q149 0 251 -101t102 -253t-102 -252q-103 -100 -251 -100t-251 100t-103 252z" />
    <glyph glyph-name="guillemotright" unicode="&#xbb;" horiz-adv-x="1568" 
d="M905 1200l481 -479l-481 -481l-127 127l367 354l-365 354zM307 1200l481 -479l-481 -481l-127 127l367 354l-365 354z" />
    <glyph glyph-name="onequarter" unicode="&#xbc;" horiz-adv-x="1431" 
d="M1149 297v199l4 90v6h-2l-12 -19q-24 -32 -72 -92l-102 -116q-13 -15 -31 -33l-29 -29l-10 -8l2 -2h8l74 4h170zM1384 301v-129h-98v-172h-137v172h-408v104l433 521h112v-496h98zM1120 1434h154l-993 -1434h-156zM260 1075q0 99 10 154v12h-2q-30 -45 -67 -78l-80 -76
l-96 87l280 260h107v-797h-152v438z" />
    <glyph glyph-name="onehalf" unicode="&#xbd;" horiz-adv-x="1505" 
d="M1276 133h176v-133h-578v102l304 248q131 104 131 195q0 55 -41 91t-101 36q-123 0 -166 -146l-137 37q27 111 109 181q83 70 201 69q118 0 201 -78q83 -79 83 -199t-130 -229q-162 -136 -263 -186l2 -2l31 4q78 10 178 10zM125 0l995 1434h154l-993 -1434h-156z
M260 1075q0 99 10 154v12h-2q-30 -45 -67 -78l-80 -76l-96 87l280 260h107v-797h-152v438z" />
    <glyph glyph-name="threequarters" unicode="&#xbe;" horiz-adv-x="1570" 
d="M1290 297v199l4 90v6h-2l-12 -19q-24 -32 -72 -92l-102 -116q-14 -15 -32 -33t-27 -29l-11 -8l2 -2h6l76 4h170zM1526 301v-129h-99v-172h-137v172h-407v104l432 521h112v-496h99zM1262 1434h153l-993 -1434h-156zM643 870q0 -110 -83 -180t-204 -70t-210 68t-105 172
l133 37q8 -67 55 -107t120 -40t112 36t39 87q0 52 -43 85t-109 33h-78v111h78q61 0 101 33q39 33 39 78t-36 77t-102 31q-131 0 -166 -137l-129 35q21 104 101 167q80 64 204 64t199 -65q74 -65 74 -151t-53 -133q-53 -48 -119 -52v-2q76 -5 129 -51t53 -126z" />
    <glyph glyph-name="questiondown" unicode="&#xbf;" horiz-adv-x="1185" 
d="M725 975v-225q-236 -117 -321 -190t-85 -163q1 -89 63 -157t204 -68q254 0 325 244l191 -54q-43 -182 -182 -286q-138 -104 -360 -104t-349 116q-127 117 -127 293t133 285q68 55 126 89t155 79v141h227zM725 1434v-322h-227v322h227z" />
    <glyph glyph-name="Agrave" unicode="&#xc0;" horiz-adv-x="1472" 
d="M483 524h506l-184 449q-52 143 -57 157l-11 29h-2l-10 -29q-9 -28 -27 -76t-30 -81zM1204 0l-133 326h-670l-133 -326h-243l606 1434h211l606 -1434h-244zM915 1628l-69 -125l-467 213l80 156z" />
    <glyph glyph-name="Aacute" unicode="&#xc1;" horiz-adv-x="1472" 
d="M483 524h506l-184 449q-52 143 -57 157l-11 29h-2l-10 -29q-9 -28 -27 -76t-30 -81zM1204 0l-133 326h-670l-133 -326h-243l606 1434h211l606 -1434h-244zM1053 1716l-467 -213l-70 125l457 244z" />
    <glyph glyph-name="Acircumflex" unicode="&#xc2;" horiz-adv-x="1472" 
d="M483 524h506l-184 449q-52 143 -57 157l-11 29h-2l-10 -29q-9 -28 -27 -76t-30 -81zM1204 0l-133 326h-670l-133 -326h-243l606 1434h211l606 -1434h-244zM729 1718l-250 -209l-112 115l362 305l363 -305l-113 -115z" />
    <glyph glyph-name="Atilde" unicode="&#xc3;" horiz-adv-x="1472" 
d="M483 524h506l-184 449q-52 143 -57 157l-11 29h-2l-10 -29q-9 -28 -27 -76t-30 -81zM1204 0l-133 326h-670l-133 -326h-243l606 1434h211l606 -1434h-244zM967 1788h180q0 -108 -73 -178t-185 -70q-72 0 -161 59t-131 59t-70 -25q-28 -26 -27 -66h-178q0 109 72 179
t168 69q94 -1 182 -61t127 -60q40 0 68 26t28 68z" />
    <glyph glyph-name="Adieresis" unicode="&#xc4;" horiz-adv-x="1472" 
d="M483 524h506l-184 449q-52 143 -57 157l-11 29h-2l-10 -29q-9 -28 -27 -76t-30 -81zM1204 0l-133 326h-670l-133 -326h-243l606 1434h211l606 -1434h-244zM981 1569q-49 0 -83 34t-34 82q0 47 34 81t83 34t83 -34t34 -82t-34 -81q-34 -34 -83 -34zM475 1569q-49 0 -83 34
t-34 82q0 47 34 81t83 34t83 -34t34 -82t-34 -81q-34 -34 -83 -34z" />
    <glyph glyph-name="Aring" unicode="&#xc5;" horiz-adv-x="1472" 
d="M483 524h506l-184 449q-52 143 -57 157l-11 29h-2l-10 -29q-9 -28 -27 -76t-30 -81zM736 1774q-48 0 -83 -34t-35 -81t35 -82t83 -35t83 34t35 82t-35 82t-83 34zM483 1670q0 89 74 163t177 74t178 -74t75 -162t-40 -149t-103 -92l604 -1430h-244l-133 326h-670
l-133 -326h-243l604 1427q-66 31 -106 93t-40 150z" />
    <glyph glyph-name="AE" unicode="&#xc6;" horiz-adv-x="2052" 
d="M926 524v697h-154q-2 0 -113 -287l-170 -410h437zM1147 213h770v-213h-991v326h-518l-138 -326h-245l618 1434h1262v-213h-758v-373h606v-201h-606v-434z" />
    <glyph glyph-name="Ccedilla" unicode="&#xc7;" horiz-adv-x="1552" 
d="M829 -508h-184l49 125h135q45 0 71 22q26 21 26 55t-27 56t-70 23h-159l71 202q-283 31 -470 238t-187 517t216 520q216 212 527 212q207 0 380 -101t272 -276l-232 -61q-63 100 -177 158t-243 57q-223 0 -366 -145q-143 -144 -143 -376t144 -376q146 -144 365 -145
q143 0 265 69q121 70 182 185l227 -62q-86 -182 -254 -294t-377 -122l-30 -79q92 2 154 -52t62 -150t-64 -148q-65 -52 -163 -52z" />
    <glyph glyph-name="Egrave" unicode="&#xc8;" horiz-adv-x="1310" 
d="M408 213h770v-213h-998v1434h985v-213h-757v-373h604v-201h-604v-434zM870 1628l-69 -125l-467 213l80 156z" />
    <glyph glyph-name="Eacute" unicode="&#xc9;" horiz-adv-x="1310" 
d="M408 213h770v-213h-998v1434h985v-213h-757v-373h604v-201h-604v-434zM1008 1716l-467 -213l-70 125l457 244z" />
    <glyph glyph-name="Ecircumflex" unicode="&#xca;" horiz-adv-x="1310" 
d="M408 213h770v-213h-998v1434h985v-213h-757v-373h604v-201h-604v-434zM684 1718l-250 -209l-112 115l362 305l363 -305l-113 -115z" />
    <glyph glyph-name="Edieresis" unicode="&#xcb;" horiz-adv-x="1310" 
d="M408 213h770v-213h-998v1434h985v-213h-757v-373h604v-201h-604v-434zM936 1569q-49 0 -83 34t-34 82q0 47 34 81t83 34t83 -34t34 -82t-34 -81q-34 -34 -83 -34zM430 1569q-49 0 -83 34t-34 82q0 47 34 81t83 34t83 -34t34 -82t-34 -81q-34 -34 -83 -34z" />
    <glyph glyph-name="Igrave" unicode="&#xcc;" horiz-adv-x="587" 
d="M408 0h-228v1434h228v-1434zM403 1503l-466 213l79 156l457 -244z" />
    <glyph glyph-name="Iacute" unicode="&#xcd;" horiz-adv-x="587" 
d="M408 0h-228v1434h228v-1434zM530 1872l80 -156l-467 -213l-69 125z" />
    <glyph glyph-name="Icircumflex" unicode="&#xce;" horiz-adv-x="587" 
d="M408 0h-228v1434h228v-1434zM-76 1624l363 305l362 -305l-112 -115l-250 209l-250 -209z" />
    <glyph glyph-name="Idieresis" unicode="&#xcf;" horiz-adv-x="587" 
d="M408 0h-228v1434h228v-1434zM539 1569q-49 0 -83 34t-34 82q0 47 34 81t83 34t83 -34t34 -82t-34 -81q-34 -34 -83 -34zM33 1569q-49 0 -83 34t-34 82q0 47 34 81t83 34t83 -34t34 -82t-34 -81q-34 -34 -83 -34z" />
    <glyph glyph-name="Eth" unicode="&#xd0;" horiz-adv-x="1632" 
d="M424 213h393q209 0 353 136q144 135 144 363t-146 368q-148 140 -361 141h-383v-392h315v-204h-315v-412zM197 1434h610q313 0 528 -203t215 -518t-212 -514t-521 -199h-620v625h-113v204h113v605z" />
    <glyph glyph-name="Ntilde" unicode="&#xd1;" horiz-adv-x="1572" 
d="M1165 1434h228v-1434h-213l-523 705q-53 75 -117 165t-100 138l-34 49h-3l3 -53l2 -396v-608h-228v1434h213l527 -707q42 -57 106 -145t102 -142l39 -53h2l-2 59l-2 377v611zM1020 1788h180q0 -108 -73 -178t-185 -70q-72 0 -161 59t-131 59t-70 -25q-28 -26 -27 -66
h-178q1 109 73 179t166 69t183 -61q88 -60 128 -60q39 0 67 26t28 68z" />
    <glyph glyph-name="Ograve" unicode="&#xd2;" horiz-adv-x="1654" 
d="M1337 718q0 232 -144 376q-145 144 -367 145q-222 -1 -366 -145t-143 -376q-1 -232 143 -378t366 -145q222 0 367 146q144 145 144 377zM84 717q0 321 216 533t528 212t528 -212t217 -534q0 -322 -216 -533q-217 -212 -529 -212t-528 212t-216 534zM948 1503l-467 213
l80 156l457 -244z" />
    <glyph glyph-name="Oacute" unicode="&#xd3;" horiz-adv-x="1654" 
d="M1337 718q0 232 -144 376q-145 144 -367 145q-222 -1 -366 -145t-143 -376q-1 -232 143 -378t366 -145q222 0 367 146q144 145 144 377zM84 717q0 321 216 533t528 212t528 -212t217 -534q0 -322 -216 -533q-217 -212 -529 -212t-528 212t-216 534zM1075 1872l80 -156
l-467 -213l-70 125z" />
    <glyph glyph-name="Ocircumflex" unicode="&#xd4;" horiz-adv-x="1654" 
d="M1337 718q0 232 -144 376q-145 144 -367 145q-222 -1 -366 -145t-143 -376q-1 -232 143 -378t366 -145q222 0 367 146q144 145 144 377zM84 717q0 321 216 533t528 212t528 -212t217 -534q0 -322 -216 -533q-217 -212 -529 -212t-528 212t-216 534zM469 1624l362 305
l363 -305l-113 -115l-250 209l-249 -209z" />
    <glyph glyph-name="Otilde" unicode="&#xd5;" horiz-adv-x="1654" 
d="M1337 718q0 232 -144 376q-145 144 -367 145q-222 -1 -366 -145t-143 -376q-1 -232 143 -378t366 -145q222 0 367 146q144 145 144 377zM84 717q0 321 216 533t528 212t528 -212t217 -534q0 -322 -216 -533q-217 -212 -529 -212t-528 212t-216 534zM1069 1788h180
q-1 -108 -73 -178t-185 -70q-72 0 -161 59t-131 59q-41 0 -69 -25q-28 -26 -28 -66h-178q0 109 73 179t167 69t182 -61t128 -60t68 26t27 68z" />
    <glyph glyph-name="Odieresis" unicode="&#xd6;" horiz-adv-x="1654" 
d="M1337 718q0 232 -144 376q-145 144 -367 145q-222 -1 -366 -145t-143 -376q-1 -232 143 -378t366 -145q222 0 367 146q144 145 144 377zM84 717q0 321 216 533t528 212t528 -212t217 -534q0 -322 -216 -533q-217 -212 -529 -212t-528 212t-216 534zM1083 1569
q-49 0 -83 34t-34 82q0 47 34 81t83 34t83 -34t34 -82t-34 -81q-34 -34 -83 -34zM461 1685q0 47 34 81t83 34q48 0 82 -34t34 -82t-34 -81q-34 -34 -82 -34q-49 0 -83 34t-34 82z" />
    <glyph glyph-name="multiply" unicode="&#xd7;" 
d="M991 1153l150 -149l-275 -277l275 -276l-150 -152l-276 276l-275 -274l-149 152l274 274l-276 274l149 150l277 -274z" />
    <glyph glyph-name="Oslash" unicode="&#xd8;" horiz-adv-x="1654" 
d="M827 195q221 0 366 146q145 147 145 363t-115 359l-625 -819q102 -49 229 -49zM827 1239q-223 0 -366 -144q-143 -143 -143 -365t120 -365l627 821q-106 53 -238 53zM1573 712q0 -318 -216 -529q-216 -212 -530 -212q-199 0 -366 92l-76 -100l-160 123l74 98
q-215 211 -215 533q0 321 216 533t527 212q201 0 375 -96l78 100l160 -118l-78 -103q211 -215 211 -533z" />
    <glyph glyph-name="Ugrave" unicode="&#xd9;" horiz-adv-x="1497" 
d="M1126 1434h226v-826q0 -307 -160 -472t-444 -165t-444 165q-159 165 -159 472v826h228v-824q0 -428 377 -428t376 428v824zM864 1503l-467 213l80 156l457 -244z" />
    <glyph glyph-name="Uacute" unicode="&#xda;" horiz-adv-x="1497" 
d="M1126 1434h226v-826q0 -307 -160 -472t-444 -165t-444 165q-159 165 -159 472v826h228v-824q0 -428 377 -428t376 428v824zM991 1872l80 -156l-467 -213l-69 125z" />
    <glyph glyph-name="Ucircumflex" unicode="&#xdb;" horiz-adv-x="1497" 
d="M1126 1434h226v-826q0 -307 -160 -472t-444 -165t-444 165q-159 165 -159 472v826h228v-824q0 -428 377 -428t376 428v824zM385 1624l363 305l362 -305l-113 -115l-249 209l-250 -209z" />
    <glyph glyph-name="Udieresis" unicode="&#xdc;" horiz-adv-x="1497" 
d="M1126 1434h226v-826q0 -307 -160 -472t-444 -165t-444 165q-159 165 -159 472v826h228v-824q0 -428 377 -428t376 428v824zM999 1569q-49 0 -83 34t-34 82q0 47 34 81t83 34t83 -34t34 -82t-34 -81q-34 -34 -83 -34zM494 1569q-49 0 -83 34t-34 82q0 47 34 81t83 34
t83 -34q33 -34 33 -82t-34 -81q-34 -34 -82 -34z" />
    <glyph glyph-name="Yacute" unicode="&#xdd;" horiz-adv-x="1388" 
d="M807 0h-225v680l-553 754h256l325 -441q14 -18 43 -56t41 -54h2q2 0 82 110l326 441h256l-553 -754v-680zM932 1872l80 -156l-467 -213l-70 125z" />
    <glyph glyph-name="Thorn" unicode="&#xde;" horiz-adv-x="1271" 
d="M408 465h278q123 0 197 71q73 70 73 184t-74 184t-196 71h-278v-510zM408 1186h274q226 0 368 -131t142 -336t-141 -336t-369 -131h-274v-252h-228v1434h228v-248z" />
    <glyph glyph-name="germandbls" unicode="&#xdf;" horiz-adv-x="1617" 
d="M408 1221v-1221h-228v1434h1215l-228 -422q-14 -27 -41 -75t-41 -77l-16 -29l2 -2h10q197 -1 325 -119t128 -302t-134 -310t-353 -127q-160 0 -292 77t-200 204l215 59q90 -145 268 -145q125 0 197 71t72 176t-72 176t-203 70h-180v170l129 246q34 70 68 125l12 23l-2 2
h-8l-93 -4h-550z" />
    <glyph glyph-name="agrave" unicode="&#xe0;" horiz-adv-x="1472" 
d="M483 524h506l-184 449q-52 143 -57 157l-11 29h-2l-10 -29q-9 -28 -27 -76t-30 -81zM1204 0l-133 326h-670l-133 -326h-243l606 1434h211l606 -1434h-244zM915 1628l-69 -125l-467 213l80 156z" />
    <glyph glyph-name="aacute" unicode="&#xe1;" horiz-adv-x="1472" 
d="M483 524h506l-184 449q-52 143 -57 157l-11 29h-2l-10 -29q-9 -28 -27 -76t-30 -81zM1204 0l-133 326h-670l-133 -326h-243l606 1434h211l606 -1434h-244zM1053 1716l-467 -213l-70 125l457 244z" />
    <glyph glyph-name="acircumflex" unicode="&#xe2;" horiz-adv-x="1472" 
d="M483 524h506l-184 449q-52 143 -57 157l-11 29h-2l-10 -29q-9 -28 -27 -76t-30 -81zM1204 0l-133 326h-670l-133 -326h-243l606 1434h211l606 -1434h-244zM729 1718l-250 -209l-112 115l362 305l363 -305l-113 -115z" />
    <glyph glyph-name="atilde" unicode="&#xe3;" horiz-adv-x="1472" 
d="M483 524h506l-184 449q-52 143 -57 157l-11 29h-2l-10 -29q-9 -28 -27 -76t-30 -81zM1204 0l-133 326h-670l-133 -326h-243l606 1434h211l606 -1434h-244zM967 1788h180q0 -108 -73 -178t-185 -70q-72 0 -161 59t-131 59t-70 -25q-28 -26 -27 -66h-178q0 109 72 179
t168 69q94 -1 182 -61t127 -60q40 0 68 26t28 68z" />
    <glyph glyph-name="adieresis" unicode="&#xe4;" horiz-adv-x="1472" 
d="M483 524h506l-184 449q-52 143 -57 157l-11 29h-2l-10 -29q-9 -28 -27 -76t-30 -81zM1204 0l-133 326h-670l-133 -326h-243l606 1434h211l606 -1434h-244zM981 1569q-49 0 -83 34t-34 82q0 47 34 81t83 34t83 -34t34 -82t-34 -81q-34 -34 -83 -34zM475 1569q-49 0 -83 34
t-34 82q0 47 34 81t83 34t83 -34t34 -82t-34 -81q-34 -34 -83 -34z" />
    <glyph glyph-name="aring" unicode="&#xe5;" horiz-adv-x="1472" 
d="M483 524h506l-184 449q-52 143 -57 157l-11 29h-2l-10 -29q-9 -28 -27 -76t-30 -81zM736 1774q-48 0 -83 -34t-35 -81t35 -82t83 -35t83 34t35 82t-35 82t-83 34zM483 1670q0 89 74 163t177 74t178 -74t75 -162t-40 -149t-103 -92l604 -1430h-244l-133 326h-670
l-133 -326h-243l604 1427q-66 31 -106 93t-40 150z" />
    <glyph glyph-name="ae" unicode="&#xe6;" horiz-adv-x="2052" 
d="M926 524v697h-154q-2 0 -113 -287l-170 -410h437zM1147 213h770v-213h-991v326h-518l-138 -326h-245l618 1434h1262v-213h-758v-373h606v-201h-606v-434z" />
    <glyph glyph-name="ccedilla" unicode="&#xe7;" horiz-adv-x="1552" 
d="M829 -508h-184l49 125h135q45 0 71 22q26 21 26 55t-27 56t-70 23h-159l71 202q-283 31 -470 238t-187 517t216 520q216 212 527 212q207 0 380 -101t272 -276l-232 -61q-63 100 -177 158t-243 57q-223 0 -366 -145q-143 -144 -143 -376t144 -376q146 -144 365 -145
q143 0 265 69q121 70 182 185l227 -62q-86 -182 -254 -294t-377 -122l-30 -79q92 2 154 -52t62 -150t-64 -148q-65 -52 -163 -52z" />
    <glyph glyph-name="egrave" unicode="&#xe8;" horiz-adv-x="1310" 
d="M408 213h770v-213h-998v1434h985v-213h-757v-373h604v-201h-604v-434zM866 1628l-69 -125l-467 213l80 156z" />
    <glyph glyph-name="eacute" unicode="&#xe9;" horiz-adv-x="1310" 
d="M408 213h770v-213h-998v1434h985v-213h-757v-373h604v-201h-604v-434zM1004 1716l-467 -213l-70 125l457 244z" />
    <glyph glyph-name="ecircumflex" unicode="&#xea;" horiz-adv-x="1310" 
d="M408 213h770v-213h-998v1434h985v-213h-757v-373h604v-201h-604v-434zM680 1718l-250 -209l-113 115l363 305l362 -305l-112 -115z" />
    <glyph glyph-name="edieresis" unicode="&#xeb;" horiz-adv-x="1310" 
d="M408 213h770v-213h-998v1434h985v-213h-757v-373h604v-201h-604v-434zM932 1569q-49 0 -83 34t-34 82q0 47 34 81t83 34t83 -34t34 -82t-34 -81q-34 -34 -83 -34zM426 1569q-49 0 -83 34t-34 82q0 47 34 81t83 34t83 -34t34 -82t-34 -81q-34 -34 -83 -34z" />
    <glyph glyph-name="igrave" unicode="&#xec;" horiz-adv-x="587" 
d="M408 0h-228v1434h228v-1434zM406 1503l-467 213l79 156l457 -244z" />
    <glyph glyph-name="iacute" unicode="&#xed;" horiz-adv-x="587" 
d="M408 0h-228v1434h228v-1434zM532 1872l80 -156l-467 -213l-69 125z" />
    <glyph glyph-name="icircumflex" unicode="&#xee;" horiz-adv-x="587" 
d="M408 0h-228v1434h228v-1434zM-74 1624l363 305l362 -305l-112 -115l-250 209l-250 -209z" />
    <glyph glyph-name="idieresis" unicode="&#xef;" horiz-adv-x="587" 
d="M408 0h-228v1434h228v-1434zM541 1569q-49 0 -83 34t-34 82q0 47 34 81t83 34t83 -34t34 -82t-34 -81q-34 -34 -83 -34zM35 1569q-49 0 -83 34t-34 82q0 47 34 81t83 34t83 -34t34 -82t-34 -81q-34 -34 -83 -34z" />
    <glyph glyph-name="eth" unicode="&#xf0;" horiz-adv-x="1632" 
d="M424 213h393q209 0 353 136q144 135 144 363t-146 368q-148 140 -361 141h-383v-392h315v-204h-315v-412zM197 1434h610q313 0 528 -203t215 -518t-212 -514t-521 -199h-620v625h-113v204h113v605z" />
    <glyph glyph-name="ntilde" unicode="&#xf1;" horiz-adv-x="1572" 
d="M1165 1434h228v-1434h-213l-523 705q-53 75 -117 165t-100 138l-34 49h-3l3 -53l2 -396v-608h-228v1434h213l527 -707q42 -57 106 -145t102 -142l39 -53h2l-2 59l-2 377v611zM1020 1788h180q0 -108 -73 -178t-185 -70q-72 0 -161 59t-131 59t-70 -25q-28 -26 -27 -66
h-178q1 109 73 179t166 69t183 -61q88 -60 128 -60q39 0 67 26t28 68z" />
    <glyph glyph-name="ograve" unicode="&#xf2;" horiz-adv-x="1654" 
d="M1337 718q0 232 -144 376q-145 144 -367 145q-222 -1 -366 -145t-143 -376q-1 -232 143 -378t366 -145q222 0 367 146q144 145 144 377zM84 717q0 321 216 533t528 212t528 -212t217 -534q0 -322 -216 -533q-217 -212 -529 -212t-528 212t-216 534zM944 1503l-467 213
l80 156l457 -244z" />
    <glyph glyph-name="oacute" unicode="&#xf3;" horiz-adv-x="1654" 
d="M1337 718q0 232 -144 376q-145 144 -367 145q-222 -1 -366 -145t-143 -376q-1 -232 143 -378t366 -145q222 0 367 146q144 145 144 377zM84 717q0 321 216 533t528 212t528 -212t217 -534q0 -322 -216 -533q-217 -212 -529 -212t-528 212t-216 534zM1071 1872l80 -156
l-467 -213l-70 125z" />
    <glyph glyph-name="ocircumflex" unicode="&#xf4;" horiz-adv-x="1654" 
d="M1337 718q0 232 -144 376q-145 144 -367 145q-222 -1 -366 -145t-143 -376q-1 -232 143 -378t366 -145q222 0 367 146q144 145 144 377zM84 717q0 321 216 533t528 212t528 -212t217 -534q0 -322 -216 -533q-217 -212 -529 -212t-528 212t-216 534zM465 1624l362 305
l363 -305l-113 -115l-250 209l-249 -209z" />
    <glyph glyph-name="otilde" unicode="&#xf5;" horiz-adv-x="1654" 
d="M1337 718q0 232 -144 376q-145 144 -367 145q-222 -1 -366 -145t-143 -376q-1 -232 143 -378t366 -145q222 0 367 146q144 145 144 377zM84 717q0 321 216 533t528 212t528 -212t217 -534q0 -322 -216 -533q-217 -212 -529 -212t-528 212t-216 534zM1065 1788h180
q0 -108 -73 -178t-185 -70q-72 0 -161 59t-131 59q-41 0 -69 -25q-28 -26 -28 -66h-178q0 109 73 179t167 69t182 -61t128 -60t68 26t27 68z" />
    <glyph glyph-name="odieresis" unicode="&#xf6;" horiz-adv-x="1654" 
d="M1337 718q0 232 -144 376q-145 144 -367 145q-222 -1 -366 -145t-143 -376q-1 -232 143 -378t366 -145q222 0 367 146q144 145 144 377zM84 717q0 321 216 533t528 212t528 -212t217 -534q0 -322 -216 -533q-217 -212 -529 -212t-528 212t-216 534zM1079 1569
q-49 0 -83 34t-34 82q0 47 34 81t83 34t83 -34t34 -82t-34 -81q-34 -34 -83 -34zM573 1569q-49 0 -83 34t-34 82q0 47 34 81t83 34t83 -34t34 -82t-34 -81q-34 -34 -83 -34z" />
    <glyph glyph-name="divide" unicode="&#xf7;" 
d="M700 152q-51 0 -86 36q-34 36 -34 85q0 50 34 85q35 35 86 35t86 -35t35 -85q0 -49 -35 -85t-86 -36zM242 821h940v-188h-940v188zM700 1063q-51 0 -86 36q-34 36 -34 86t34 85q35 35 86 35t86 -35t35 -85t-35 -86t-86 -36z" />
    <glyph glyph-name="oslash" unicode="&#xf8;" horiz-adv-x="1654" 
d="M827 195q221 0 366 146q145 147 145 363t-115 359l-625 -819q102 -49 229 -49zM827 1239q-223 0 -366 -144q-143 -143 -143 -365t120 -365l627 821q-106 53 -238 53zM1573 712q0 -318 -216 -529q-216 -212 -530 -212q-199 0 -366 92l-76 -100l-160 123l74 98
q-215 211 -215 533q0 321 216 533t527 212q201 0 375 -96l78 100l160 -118l-78 -103q211 -215 211 -533z" />
    <glyph glyph-name="ugrave" unicode="&#xf9;" horiz-adv-x="1497" 
d="M1126 1434h226v-826q0 -307 -160 -472t-444 -165t-444 165q-159 165 -159 472v826h228v-824q0 -428 377 -428t376 428v824zM864 1503l-467 213l80 156l457 -244z" />
    <glyph glyph-name="uacute" unicode="&#xfa;" horiz-adv-x="1497" 
d="M1126 1434h226v-826q0 -307 -160 -472t-444 -165t-444 165q-159 165 -159 472v826h228v-824q0 -428 377 -428t376 428v824zM991 1872l80 -156l-467 -213l-69 125z" />
    <glyph glyph-name="ucircumflex" unicode="&#xfb;" horiz-adv-x="1497" 
d="M1126 1434h226v-826q0 -307 -160 -472t-444 -165t-444 165q-159 165 -159 472v826h228v-824q0 -428 377 -428t376 428v824zM385 1624l363 305l362 -305l-113 -115l-249 209l-250 -209z" />
    <glyph glyph-name="udieresis" unicode="&#xfc;" horiz-adv-x="1497" 
d="M1126 1434h226v-826q0 -307 -160 -472t-444 -165t-444 165q-159 165 -159 472v826h228v-824q0 -428 377 -428t376 428v824zM999 1569q-49 0 -83 34t-34 82q0 47 34 81t83 34t83 -34t34 -82t-34 -81q-34 -34 -83 -34zM494 1569q-49 0 -83 34t-34 82q0 47 34 81t83 34
t83 -34q33 -34 33 -82t-34 -81q-34 -34 -82 -34z" />
    <glyph glyph-name="yacute" unicode="&#xfd;" horiz-adv-x="1388" 
d="M807 0h-225v680l-553 754h256l325 -441q14 -18 43 -56t41 -54h2q2 0 82 110l326 441h256l-553 -754v-680zM934 1872l80 -156l-467 -213l-70 125z" />
    <glyph glyph-name="thorn" unicode="&#xfe;" horiz-adv-x="1271" 
d="M408 465h278q123 0 197 71q73 70 73 184t-74 184t-196 71h-278v-510zM408 1186h274q226 0 368 -131t142 -336t-141 -336t-369 -131h-274v-252h-228v1434h228v-248z" />
    <glyph glyph-name="ydieresis" unicode="&#xff;" horiz-adv-x="1388" 
d="M807 0h-225v680l-553 754h256l325 -441q14 -18 43 -56t41 -54h2q2 0 82 110l326 441h256l-553 -754v-680zM942 1569q-49 0 -83 34t-34 82q0 47 34 81t83 34t83 -34t34 -82t-34 -81q-34 -34 -83 -34zM436 1569q-49 0 -83 34t-34 82q0 47 34 81t83 34t83 -34t34 -82
t-34 -81q-34 -34 -83 -34z" />
    <glyph glyph-name="Amacron" unicode="&#x100;" horiz-adv-x="1472" 
d="M483 524h506l-184 449q-52 143 -57 157l-11 29h-2l-10 -29q-9 -28 -27 -76t-30 -81zM1204 0l-133 326h-670l-133 -326h-243l606 1434h211l606 -1434h-244zM1083 1761v-174h-677v174h677z" />
    <glyph glyph-name="amacron" unicode="&#x101;" horiz-adv-x="1472" 
d="M483 524h506l-184 449q-52 143 -57 157l-11 29h-2l-10 -29q-9 -28 -27 -76t-30 -81zM1204 0l-133 326h-670l-133 -326h-243l606 1434h211l606 -1434h-244zM1083 1761v-174h-677v174h677z" />
    <glyph glyph-name="Abreve" unicode="&#x102;" horiz-adv-x="1472" 
d="M483 524h506l-184 449q-52 143 -57 157l-11 29h-2l-10 -29q-9 -28 -27 -76t-30 -81zM1204 0l-133 326h-670l-133 -326h-243l606 1434h211l606 -1434h-244zM736 1524q-126 0 -219 77t-116 197h164q13 -57 61 -95t111 -38t112 39q48 39 60 94h164q-27 -122 -119 -198
t-218 -76z" />
    <glyph glyph-name="abreve" unicode="&#x103;" horiz-adv-x="1472" 
d="M483 524h506l-184 449q-52 143 -57 157l-11 29h-2l-10 -29q-9 -28 -27 -76t-30 -81zM1204 0l-133 326h-670l-133 -326h-243l606 1434h211l606 -1434h-244zM736 1524q-126 0 -219 77t-116 197h164q13 -57 61 -95t111 -38t112 39q48 39 60 94h164q-27 -122 -119 -198
t-218 -76z" />
    <glyph glyph-name="Aogonek" unicode="&#x104;" horiz-adv-x="1472" 
d="M483 524h506l-184 449q-52 143 -57 157l-11 29h-2l-10 -29q-9 -28 -27 -76t-30 -81zM907 -206q0 128 82 210t176 92l-94 230h-670l-133 -326h-243l606 1434h211l606 -1434h-115q-102 0 -182 -50t-80 -151q0 -63 45 -108t121 -45q138 0 199 135l123 -74
q-101 -205 -341 -205q-126 0 -219 82q-92 82 -92 210z" />
    <glyph glyph-name="aogonek" unicode="&#x105;" horiz-adv-x="1472" 
d="M483 524h506l-184 449q-52 143 -57 157l-11 29h-2l-10 -29q-9 -28 -27 -76t-30 -81zM907 -206q0 128 82 210t176 92l-94 230h-670l-133 -326h-243l606 1434h211l606 -1434h-115q-102 0 -182 -50t-80 -151q0 -63 45 -108t121 -45q138 0 199 135l123 -74
q-101 -205 -341 -205q-126 0 -219 82q-92 82 -92 210z" />
    <glyph glyph-name="Cacute" unicode="&#x106;" horiz-adv-x="1552" 
d="M827 1239q-223 0 -366 -145q-143 -144 -143 -376t144 -376q146 -144 365 -145q143 0 265 69q121 70 182 185l227 -62q-92 -193 -271 -305t-403 -113q-311 0 -527 212t-216 534q0 321 216 533t527 212q207 0 381 -102t271 -275l-232 -61q-63 100 -177 158t-243 57z
M1059 1872l80 -156l-467 -213l-70 125z" />
    <glyph glyph-name="cacute" unicode="&#x107;" horiz-adv-x="1552" 
d="M827 1239q-223 0 -366 -145q-143 -144 -143 -376t144 -376q146 -144 365 -145q143 0 265 69q121 70 182 185l227 -62q-92 -193 -271 -305t-403 -113q-311 0 -527 212t-216 534q0 321 216 533t527 212q207 0 381 -102t271 -275l-232 -61q-63 100 -177 158t-243 57z
M1059 1872l80 -156l-467 -213l-70 125z" />
    <glyph glyph-name="Cdotaccent" unicode="&#x10a;" horiz-adv-x="1552" 
d="M827 1239q-223 0 -366 -145q-143 -144 -143 -376t144 -376q146 -144 365 -145q143 0 265 69q121 70 182 185l227 -62q-92 -193 -271 -305t-403 -113q-311 0 -527 212t-216 534q0 321 216 533t527 212q207 0 381 -102t271 -275l-232 -61q-63 100 -177 158t-243 57z
M821 1567q-49 0 -83 35t-34 83q0 47 34 81t83 34t83 -34t34 -82t-34 -82q-34 -35 -83 -35z" />
    <glyph glyph-name="cdotaccent" unicode="&#x10b;" horiz-adv-x="1552" 
d="M827 1239q-223 0 -366 -145q-143 -144 -143 -376t144 -376q146 -144 365 -145q143 0 265 69q121 70 182 185l227 -62q-92 -193 -271 -305t-403 -113q-311 0 -527 212t-216 534q0 321 216 533t527 212q207 0 381 -102t271 -275l-232 -61q-63 100 -177 158t-243 57z
M821 1567q-49 0 -83 35t-34 83q0 47 34 81t83 34t83 -34t34 -82t-34 -82q-34 -35 -83 -35z" />
    <glyph glyph-name="Ccaron" unicode="&#x10c;" horiz-adv-x="1552" 
d="M827 1239q-223 0 -366 -145q-143 -144 -143 -376t144 -376q146 -144 365 -145q143 0 265 69q121 70 182 185l227 -62q-92 -193 -271 -305t-403 -113q-311 0 -527 212t-216 534q0 321 216 533t527 212q207 0 381 -102t271 -275l-232 -61q-63 100 -177 158t-243 57z
M459 1794l112 115l250 -209l250 209l111 -115l-361 -305z" />
    <glyph glyph-name="ccaron" unicode="&#x10d;" horiz-adv-x="1552" 
d="M827 1239q-223 0 -366 -145q-143 -144 -143 -376t144 -376q146 -144 365 -145q143 0 265 69q121 70 182 185l227 -62q-92 -193 -271 -305t-403 -113q-311 0 -527 212t-216 534q0 321 216 533t527 212q207 0 381 -102t271 -275l-232 -61q-63 100 -177 158t-243 57z
M459 1794l112 115l250 -209l250 209l111 -115l-361 -305z" />
    <glyph glyph-name="Dcaron" unicode="&#x10e;" horiz-adv-x="1617" 
d="M408 213h393q209 0 353 136q144 135 144 363t-147 368t-360 141h-383v-1008zM180 1434h611q313 0 528 -203t215 -518t-212 -514t-521 -199h-621v1434zM422 1794l113 115l249 -209l250 209l111 -115l-361 -305z" />
    <glyph glyph-name="dcaron" unicode="&#x10f;" horiz-adv-x="1617" 
d="M408 213h393q209 0 353 136q144 135 144 363t-147 368t-360 141h-383v-1008zM180 1434h611q313 0 528 -203t215 -518t-212 -514t-521 -199h-621v1434zM422 1794l113 115l249 -209l250 209l111 -115l-361 -305z" />
    <glyph glyph-name="Dcroat" unicode="&#x110;" horiz-adv-x="1632" 
d="M424 213h393q209 0 353 136q144 135 144 363t-146 368q-148 140 -361 141h-383v-392h315v-204h-315v-412zM197 1434h610q313 0 528 -203t215 -518t-212 -514t-521 -199h-620v625h-113v204h113v605z" />
    <glyph glyph-name="dcroat" unicode="&#x111;" horiz-adv-x="1632" 
d="M424 213h393q209 0 353 136q144 135 144 363t-146 368q-148 140 -361 141h-383v-392h315v-204h-315v-412zM197 1434h610q313 0 528 -203t215 -518t-212 -514t-521 -199h-620v625h-113v204h113v605z" />
    <glyph glyph-name="Emacron" unicode="&#x112;" horiz-adv-x="1310" 
d="M408 213h770v-213h-998v1434h985v-213h-757v-373h604v-201h-604v-434zM1038 1761v-174h-678v174h678z" />
    <glyph glyph-name="emacron" unicode="&#x113;" horiz-adv-x="1310" 
d="M408 213h770v-213h-998v1434h985v-213h-757v-373h604v-201h-604v-434zM1034 1761v-174h-678v174h678z" />
    <glyph glyph-name="Edotaccent" unicode="&#x116;" horiz-adv-x="1310" 
d="M408 213h770v-213h-998v1434h985v-213h-757v-373h604v-201h-604v-434zM690 1567q-49 0 -83 35t-34 83q0 47 34 81t83 34t83 -34t34 -82t-34 -82q-34 -35 -83 -35z" />
    <glyph glyph-name="edotaccent" unicode="&#x117;" horiz-adv-x="1310" 
d="M408 213h770v-213h-998v1434h985v-213h-757v-373h604v-201h-604v-434zM690 1567q-49 0 -83 35t-34 83q0 47 34 81t83 34t83 -34t34 -82t-34 -82q-34 -35 -83 -35z" />
    <glyph glyph-name="Eogonek" unicode="&#x118;" horiz-adv-x="1310" 
d="M539 -209q0 125 77 209h-436v1434h985v-213h-757v-373h604v-201h-604v-434h770v-213h-213q-103 0 -183 -50t-80 -151q0 -63 46 -108t120 -45q138 0 199 135l123 -74q-102 -205 -341 -205q-126 0 -218 82t-92 207z" />
    <glyph glyph-name="eogonek" unicode="&#x119;" horiz-adv-x="1310" 
d="M180 0v1434h985v-213h-757v-373h604v-201h-604v-434h770v-213h-183q-102 0 -182 -50t-80 -151q0 -63 45 -108t121 -45q138 0 199 135l123 -74q-102 -205 -341 -205q-126 0 -218 82t-92 207t77 209h-467z" />
    <glyph glyph-name="Ecaron" unicode="&#x11a;" horiz-adv-x="1310" 
d="M408 213h770v-213h-998v1434h985v-213h-757v-373h604v-201h-604v-434zM1051 1794l-361 -305l-362 305l112 115l250 -209l250 209z" />
    <glyph glyph-name="ecaron" unicode="&#x11b;" horiz-adv-x="1310" 
d="M408 213h770v-213h-998v1434h985v-213h-757v-373h604v-201h-604v-434zM1047 1794l-361 -305l-362 305l112 115l250 -209l250 209z" />
    <glyph glyph-name="Gcircumflex" unicode="&#x11c;" horiz-adv-x="1626" 
d="M1309 180h-2q-66 -80 -194 -144t-286 -65q-311 0 -527 212t-216 534q0 321 216 533t527 212q213 -2 384 -103t268 -274l-232 -61q-63 100 -177 158t-243 57q-223 0 -366 -145q-143 -146 -143 -378t146 -378q148 -146 374 -145q180 1 303 81t168 185v121h-418v186h612
v-768h-196v131l2 39v12zM446 1624l363 305l362 -305l-112 -115l-250 209l-250 -209z" />
    <glyph glyph-name="gcircumflex" unicode="&#x11d;" horiz-adv-x="1626" 
d="M1309 180h-2q-66 -80 -194 -144t-286 -65q-311 0 -527 212t-216 534q0 321 216 533t527 212q213 -2 384 -103t268 -274l-232 -61q-63 100 -177 158t-243 57q-223 0 -366 -145q-143 -146 -143 -378t146 -378q148 -146 374 -145q180 1 303 81t168 185v121h-418v186h612
v-768h-196v131l2 39v12zM446 1624l363 305l362 -305l-112 -115l-250 209l-250 -209z" />
    <glyph glyph-name="Gbreve" unicode="&#x11e;" horiz-adv-x="1626" 
d="M1309 180h-2q-66 -80 -194 -144t-286 -65q-311 0 -527 212t-216 534q0 321 216 533t527 212q213 -2 384 -103t268 -274l-232 -61q-63 100 -177 158t-243 57q-223 0 -366 -145q-143 -146 -143 -378t146 -378q148 -146 374 -145q180 1 303 81t168 185v121h-418v186h612
v-768h-196v131l2 39v12zM817 1665q63 0 112 39q48 39 60 94h164q-27 -122 -119 -198t-218 -76t-219 76t-116 198h164q13 -57 61 -95t111 -38z" />
    <glyph glyph-name="gbreve" unicode="&#x11f;" horiz-adv-x="1626" 
d="M1309 180h-2q-66 -80 -194 -144t-286 -65q-311 0 -527 212t-216 534q0 321 216 533t527 212q213 -2 384 -103t268 -274l-232 -61q-63 100 -177 158t-243 57q-223 0 -366 -145q-143 -146 -143 -378t146 -378q148 -146 374 -145q180 1 303 81t168 185v121h-418v186h612
v-768h-196v131l2 39v12zM817 1665q63 0 112 39q48 39 60 94h164q-27 -122 -119 -198t-218 -76t-219 76t-116 198h164q13 -57 61 -95t111 -38z" />
    <glyph glyph-name="Gdotaccent" unicode="&#x120;" horiz-adv-x="1626" 
d="M1309 180h-2q-66 -80 -194 -144t-286 -65q-311 0 -527 212t-216 534q0 321 216 533t527 212q213 -2 384 -103t268 -274l-232 -61q-63 100 -177 158t-243 57q-223 0 -366 -145q-143 -146 -143 -378t146 -378q148 -146 374 -145q180 1 303 81t168 185v121h-418v186h612
v-768h-196v131l2 39v12zM815 1567q-49 0 -83 35t-34 83q0 47 34 81t83 34t83 -34t34 -82t-34 -82q-34 -35 -83 -35z" />
    <glyph glyph-name="gdotaccent" unicode="&#x121;" horiz-adv-x="1626" 
d="M1309 180h-2q-66 -80 -194 -144t-286 -65q-311 0 -527 212t-216 534q0 321 216 533t527 212q213 -2 384 -103t268 -274l-232 -61q-63 100 -177 158t-243 57q-223 0 -366 -145q-143 -146 -143 -378t146 -378q148 -146 374 -145q180 1 303 81t168 185v121h-418v186h612
v-768h-196v131l2 39v12zM815 1567q-49 0 -83 35t-34 83q0 47 34 81t83 34t83 -34t34 -82t-34 -82q-34 -35 -83 -35z" />
    <glyph glyph-name="Gcommaaccent" unicode="&#x122;" horiz-adv-x="1626" 
d="M698 -194q0 48 35 81t84 33t82 -38t33 -110t-50 -160q-50 -89 -124 -157h-86q45 39 84 109t39 123l22 10l-22 2q-37 2 -67 31q-30 28 -30 76zM1309 180h-2q-66 -80 -194 -144t-286 -65q-311 0 -527 212t-216 534q0 321 216 533t527 212q213 -2 384 -103t268 -274
l-232 -61q-63 100 -177 158t-243 57q-223 0 -366 -145q-143 -146 -143 -378t146 -378q148 -146 374 -145q180 1 303 81t168 185v121h-418v186h612v-768h-196v131l2 39v12z" />
    <glyph glyph-name="gcommaaccent" unicode="&#x123;" horiz-adv-x="1626" 
d="M698 -194q0 48 35 81t84 33t82 -38t33 -110t-50 -160q-50 -89 -124 -157h-86q45 39 84 109t39 123l22 10l-22 2q-37 2 -67 31q-30 28 -30 76zM1309 180h-2q-66 -80 -194 -144t-286 -65q-311 0 -527 212t-216 534q0 321 216 533t527 212q213 -2 384 -103t268 -274
l-232 -61q-63 100 -177 158t-243 57q-223 0 -366 -145q-143 -146 -143 -378t146 -378q148 -146 374 -145q180 1 303 81t168 185v121h-418v186h612v-768h-196v131l2 39v12z" />
    <glyph glyph-name="Hcircumflex" unicode="&#x124;" horiz-adv-x="1515" 
d="M1108 1434h227v-1434h-227v629h-700v-629h-228v1434h228v-594h700v594zM752 1718l-250 -209l-113 115l363 305l362 -305l-113 -115z" />
    <glyph glyph-name="hcircumflex" unicode="&#x125;" horiz-adv-x="1515" 
d="M1108 1434h227v-1434h-227v629h-700v-629h-228v1434h228v-594h700v594zM752 1718l-250 -209l-113 115l363 305l362 -305l-113 -115z" />
    <glyph glyph-name="Hbar" unicode="&#x126;" horiz-adv-x="1515" 
d="M1108 840v260h-700v-260h700zM1473 1288v-188h-138v-1100h-227v629h-700v-629h-228v1100h-137v188h137v146h228v-146h700v146h227v-146h138z" />
    <glyph glyph-name="hbar" unicode="&#x127;" horiz-adv-x="1515" 
d="M1108 840v260h-700v-260h700zM1473 1288v-188h-138v-1100h-227v629h-700v-629h-228v1100h-137v188h137v146h228v-146h700v146h227v-146h138z" />
    <glyph glyph-name="Imacron" unicode="&#x12a;" horiz-adv-x="587" 
d="M408 0h-228v1434h228v-1434zM-37 1761h678v-174h-678v174z" />
    <glyph glyph-name="imacron" unicode="&#x12b;" horiz-adv-x="587" 
d="M408 0h-228v1434h228v-1434zM-35 1761h678v-174h-678v174z" />
    <glyph glyph-name="Iogonek" unicode="&#x12e;" horiz-adv-x="587" 
d="M-90 -204q0 130 87 213t183 89v1336h228v-1434h-72q-102 0 -182 -50t-80 -151q0 -63 45 -108t121 -45q137 0 198 135l123 -74q-103 -205 -341 -205q-126 0 -218 82t-92 212z" />
    <glyph glyph-name="iogonek" unicode="&#x12f;" horiz-adv-x="587" 
d="M-90 -204q0 130 87 213t183 89v1336h228v-1434h-72q-102 0 -182 -50t-80 -151q0 -63 45 -108t121 -45q137 0 198 135l123 -74q-103 -205 -341 -205q-126 0 -218 82t-92 212z" />
    <glyph glyph-name="Idotaccent" unicode="&#x130;" horiz-adv-x="587" 
d="M408 0h-228v1434h228v-1434zM293 1567q-49 0 -83 35t-34 83q0 47 34 81t83 34t83 -34t34 -82t-34 -82q-34 -35 -83 -35z" />
    <glyph glyph-name="dotlessi" unicode="&#x131;" horiz-adv-x="587" 
d="M408 0h-228v1434h228v-1434z" />
    <glyph glyph-name="IJ" unicode="&#x132;" horiz-adv-x="1918" 
d="M1546 1434h228v-826q0 -301 -164 -469t-451 -168q-201 1 -357 103t-216 266l225 59q39 -100 133 -158t215 -59q186 0 287 111q100 111 100 305v836zM408 0h-228v1434h228v-1434z" />
    <glyph glyph-name="ij" unicode="&#x133;" horiz-adv-x="1918" 
d="M1546 1434h228v-826q0 -301 -164 -469t-451 -168q-201 1 -357 103t-216 266l225 59q39 -100 133 -158t215 -59q186 0 287 111q100 111 100 305v836zM408 0h-228v1434h228v-1434z" />
    <glyph glyph-name="Jcircumflex" unicode="&#x134;" horiz-adv-x="1357" 
d="M985 1434h227v-826q0 -301 -164 -469t-450 -168q-200 1 -356 103t-217 266l225 59q39 -100 133 -158t215 -59q186 0 287 111q100 111 100 305v836zM731 1624l363 305l362 -305l-113 -115l-249 209l-250 -209z" />
    <glyph glyph-name="jcircumflex" unicode="&#x135;" horiz-adv-x="1357" 
d="M985 1434h227v-826q0 -301 -164 -469t-450 -168q-200 1 -356 103t-217 266l225 59q39 -100 133 -158t215 -59q186 0 287 111q100 111 100 305v836zM731 1624l363 305l362 -305l-113 -115l-249 209l-250 -209z" />
    <glyph glyph-name="Kcommaaccent" unicode="&#x136;" horiz-adv-x="1441" 
d="M604 -194q0 48 35 81t84 33t82 -38t33 -110t-50 -160q-50 -89 -124 -157h-86q45 39 84 109t38 123l23 10l-23 2q-36 2 -66 31q-30 28 -30 76zM408 0h-228v1434h228v-334l-2 -301l-3 -31h3l28 29q29 29 85 87t110 111l440 439h277l-594 -594l624 -840h-266l-508 690
l-194 -196v-494z" />
    <glyph glyph-name="kcommaaccent" unicode="&#x137;" horiz-adv-x="1441" 
d="M616 -194q0 48 35 81t84 33t82 -38t33 -110t-50 -160q-50 -89 -124 -157h-86q45 39 84 109t39 123l22 10l-22 2q-37 2 -67 31q-30 28 -30 76zM408 0h-228v1434h228v-334l-2 -301l-3 -31h3l28 29q29 29 85 87t110 111l440 439h277l-594 -594l624 -840h-266l-508 690
l-194 -196v-494z" />
    <glyph glyph-name="Lacute" unicode="&#x139;" horiz-adv-x="1185" 
d="M408 213h737v-213h-965v1434h228v-1221zM543 1872l80 -156l-467 -213l-70 125z" />
    <glyph glyph-name="lacute" unicode="&#x13a;" horiz-adv-x="1185" 
d="M408 213h737v-213h-965v1434h228v-1221zM543 1872l80 -156l-467 -213l-70 125z" />
    <glyph glyph-name="Lcommaaccent" unicode="&#x13b;" horiz-adv-x="1185" 
d="M547 -194q0 48 35 81t84 33t82 -38q32 -38 32 -110t-50 -160q-50 -89 -124 -157h-86q45 39 84 109t39 123l23 10l-23 2q-37 2 -67 31q-30 28 -29 76zM408 213h737v-213h-965v1434h228v-1221z" />
    <glyph glyph-name="lcommaaccent" unicode="&#x13c;" horiz-adv-x="1185" 
d="M489 -194q0 48 35 81t84 33t82 -38t33 -110t-50 -160q-50 -89 -124 -157h-86q45 39 84 109t39 123l22 10l-22 2q-37 2 -67 31q-30 28 -30 76zM408 213h737v-213h-965v1434h228v-1221z" />
    <glyph glyph-name="Lcaron" unicode="&#x13d;" horiz-adv-x="1185" 
d="M408 213h737v-213h-965v1434h228v-1221zM639 1340q0 50 37 85t88 35t86 -40t35 -116q1 -76 -53 -169q-54 -94 -132 -164h-90q49 41 89 115t40 128l25 11l-25 2q-37 2 -69 33q-32 30 -31 80z" />
    <glyph glyph-name="lcaron" unicode="&#x13e;" horiz-adv-x="1185" 
d="M408 213h737v-213h-965v1434h228v-1221zM709 1233l-25 2q-39 4 -70 35q-30 31 -30 80t37 84q37 34 88 34t86 -38t35 -115q0 -76 -54 -171q-53 -95 -131 -163h-90q49 39 89 113t40 131z" />
    <glyph glyph-name="Ldot" unicode="&#x13f;" horiz-adv-x="1185" 
d="M809 670q-49 0 -83 34t-34 82q0 49 34 83t83 34t82 -34t33 -83q0 -48 -33 -82t-82 -34zM408 213h737v-213h-965v1434h228v-1221z" />
    <glyph glyph-name="ldot" unicode="&#x140;" horiz-adv-x="1185" 
d="M809 670q-49 0 -83 34t-34 82q0 49 34 83t83 34t82 -34t33 -83q0 -48 -33 -82t-82 -34zM408 213h737v-213h-965v1434h228v-1221z" />
    <glyph glyph-name="Lslash" unicode="&#x141;" horiz-adv-x="1185" 
d="M408 213h737v-213h-965v1434h228v-627l542 276v-215l-542 -276v-379z" />
    <glyph glyph-name="lslash" unicode="&#x142;" horiz-adv-x="1185" 
d="M408 213h737v-213h-965v1434h228v-627l542 276v-215l-542 -276v-379z" />
    <glyph glyph-name="Nacute" unicode="&#x143;" horiz-adv-x="1572" 
d="M1165 1434h228v-1434h-213l-523 705q-53 75 -117 165t-100 138l-34 49h-3l3 -53l2 -396v-608h-228v1434h213l527 -707q42 -57 106 -145t102 -142l39 -53h2l-2 59l-2 377v611zM1026 1872l80 -156l-467 -213l-70 125z" />
    <glyph glyph-name="nacute" unicode="&#x144;" horiz-adv-x="1572" 
d="M1165 1434h228v-1434h-213l-523 705q-53 75 -117 165t-100 138l-34 49h-3l3 -53l2 -396v-608h-228v1434h213l527 -707q42 -57 106 -145t102 -142l39 -53h2l-2 59l-2 377v611zM1026 1872l80 -156l-467 -213l-70 125z" />
    <glyph glyph-name="Ncommaaccent" unicode="&#x145;" horiz-adv-x="1572" 
d="M682 -194q0 48 35 81t84 33t82 -38t33 -110t-51 -160q-50 -89 -124 -157h-86q45 39 84 109t39 123l23 10l-23 2q-36 2 -66 31q-30 28 -30 76zM1165 1434h228v-1434h-213l-523 705q-53 75 -117 165t-100 138l-34 49h-3l3 -53l2 -396v-608h-228v1434h213l527 -707
q42 -57 106 -145t102 -142l39 -53h2l-2 59l-2 377v611z" />
    <glyph glyph-name="ncommaaccent" unicode="&#x146;" horiz-adv-x="1572" 
d="M682 -194q0 48 35 81t84 33t82 -38t33 -110t-51 -160q-50 -89 -124 -157h-86q45 39 84 109t39 123l23 10l-23 2q-36 2 -66 31q-30 28 -30 76zM1165 1434h228v-1434h-213l-523 705q-53 75 -117 165t-100 138l-34 49h-3l3 -53l2 -396v-608h-228v1434h213l527 -707
q42 -57 106 -145t102 -142l39 -53h2l-2 59l-2 377v611z" />
    <glyph glyph-name="Ncaron" unicode="&#x147;" horiz-adv-x="1572" 
d="M1165 1434h228v-1434h-213l-523 705q-53 75 -117 165t-100 138l-34 49h-3l3 -53l2 -396v-608h-228v1434h213l527 -707q42 -57 106 -145t102 -142l39 -53h2l-2 59l-2 377v611zM426 1794l113 115l249 -209l250 209l111 -115l-361 -305z" />
    <glyph glyph-name="ncaron" unicode="&#x148;" horiz-adv-x="1572" 
d="M1165 1434h228v-1434h-213l-523 705q-53 75 -117 165t-100 138l-34 49h-3l3 -53l2 -396v-608h-228v1434h213l527 -707q42 -57 106 -145t102 -142l39 -53h2l-2 59l-2 377v611zM426 1794l113 115l249 -209l250 209l111 -115l-361 -305z" />
    <glyph glyph-name="Eng" unicode="&#x14a;" horiz-adv-x="1572" 
d="M1165 1434h228v-1434q0 -195 -117 -321t-297 -125h-84v184h68q100 0 158 72t59 190l-523 705q-53 75 -117 165t-100 138l-34 49h-3l3 -53l2 -396v-608h-228v1434h213l527 -707q42 -57 106 -145t102 -142l39 -53h2l-2 59l-2 377v611z" />
    <glyph glyph-name="eng" unicode="&#x14b;" horiz-adv-x="1572" 
d="M1165 1434h228v-1434q0 -195 -117 -321t-297 -125h-84v184h68q100 0 158 72t59 190l-523 705q-53 75 -117 165t-100 138l-34 49h-3l3 -53l2 -396v-608h-228v1434h213l527 -707q42 -57 106 -145t102 -142l39 -53h2l-2 59l-2 377v611z" />
    <glyph glyph-name="Omacron" unicode="&#x14c;" horiz-adv-x="1654" 
d="M1337 718q0 232 -144 376q-145 144 -367 145q-222 -1 -366 -145t-143 -376q-1 -232 143 -378t366 -145q222 0 367 146q144 145 144 377zM84 717q0 321 216 533t528 212t528 -212t217 -534q0 -322 -216 -533q-217 -212 -529 -212t-528 212t-216 534zM508 1761h678v-174
h-678v174z" />
    <glyph glyph-name="omacron" unicode="&#x14d;" horiz-adv-x="1654" 
d="M1337 718q0 232 -144 376q-145 144 -367 145q-222 -1 -366 -145t-143 -376q-1 -232 143 -378t366 -145q222 0 367 146q144 145 144 377zM84 717q0 321 216 533t528 212t528 -212t217 -534q0 -322 -216 -533q-217 -212 -529 -212t-528 212t-216 534zM504 1761h678v-174
h-678v174z" />
    <glyph glyph-name="Ohungarumlaut" unicode="&#x150;" horiz-adv-x="1654" 
d="M1337 718q0 232 -144 376q-145 144 -367 145q-222 -1 -366 -145t-143 -376q-1 -232 143 -378t366 -145q222 0 367 146q144 145 144 377zM84 717q0 321 216 533t528 212t528 -212t217 -534q0 -322 -216 -533q-217 -212 -529 -212t-528 212t-216 534zM1315 1872l80 -156
l-467 -213l-68 125zM920 1872l79 -156l-467 -213l-67 125z" />
    <glyph glyph-name="ohungarumlaut" unicode="&#x151;" horiz-adv-x="1654" 
d="M1337 718q0 232 -144 376q-145 144 -367 145q-222 -1 -366 -145t-143 -376q-1 -232 143 -378t366 -145q222 0 367 146q144 145 144 377zM84 717q0 321 216 533t528 212t528 -212t217 -534q0 -322 -216 -533q-217 -212 -529 -212t-528 212t-216 534zM1311 1872l80 -156
l-467 -213l-68 125zM915 1872l80 -156l-467 -213l-67 125z" />
    <glyph glyph-name="OE" unicode="&#x152;" horiz-adv-x="2097" 
d="M807 1219q-219 -1 -354 -137t-135 -364t134 -366q136 -138 355 -137q96 0 166 29v946q-63 29 -166 29zM1192 213h770v-213h-989q-72 -8 -166 -8q-309 0 -516 204t-207 521t207 521t516 204q113 0 166 -8h977v-213h-758v-373h604v-201h-604v-434z" />
    <glyph glyph-name="oe" unicode="&#x153;" horiz-adv-x="2097" 
d="M807 1219q-219 -1 -354 -137t-135 -364t134 -366q136 -138 355 -137q96 0 166 29v946q-63 29 -166 29zM1192 213h770v-213h-989q-72 -8 -166 -8q-309 0 -516 204t-207 521t207 521t516 204q113 0 166 -8h977v-213h-758v-373h604v-201h-604v-434z" />
    <glyph glyph-name="Racute" unicode="&#x154;" horiz-adv-x="1333" 
d="M408 713h268q139 -1 214 71t75 185t-76 183t-213 69h-268v-508zM649 512h-241v-512h-228v1434h469q255 0 403 -126t148 -339q0 -150 -75 -256t-212 -158l340 -555h-256l-303 514q-14 -2 -45 -2zM950 1716l-467 -213l-69 125l456 244z" />
    <glyph glyph-name="racute" unicode="&#x155;" horiz-adv-x="1333" 
d="M408 713h268q139 -1 214 71t75 185t-76 183t-213 69h-268v-508zM649 512h-241v-512h-228v1434h469q255 0 403 -126t148 -339q0 -150 -75 -256t-212 -158l340 -555h-256l-303 514q-14 -2 -45 -2zM983 1716l-467 -213l-70 125l457 244z" />
    <glyph glyph-name="Rcommaaccent" unicode="&#x156;" horiz-adv-x="1333" 
d="M664 -80q50 0 82 -38t32 -110t-50 -160q-50 -89 -124 -157h-86q45 39 84 109t39 123l23 10l-23 2q-37 2 -67 31q-30 28 -30 76t36 81q35 33 84 33zM408 713h268q139 -1 214 71t75 185t-76 183t-213 69h-268v-508zM649 512h-241v-512h-228v1434h469q255 0 403 -126
t148 -339q0 -151 -75 -257t-212 -157l340 -555h-256l-303 514q-14 -2 -45 -2z" />
    <glyph glyph-name="rcommaaccent" unicode="&#x157;" horiz-adv-x="1333" 
d="M698 -80q49 0 82 -38t33 -110t-50 -160q-50 -89 -124 -157h-86q45 39 84 109t39 123l22 10l-22 2q-37 2 -67 31q-29 28 -29 76t34 81q35 33 84 33zM408 713h268q139 -1 214 71t75 185t-76 183t-213 69h-268v-508zM649 512h-241v-512h-228v1434h469q255 0 403 -126
t148 -339q0 -151 -75 -257t-212 -157l340 -555h-256l-303 514q-14 -2 -45 -2z" />
    <glyph glyph-name="Rcaron" unicode="&#x158;" horiz-adv-x="1333" 
d="M408 713h268q139 -1 214 71t75 185t-76 183t-213 69h-268v-508zM649 512h-241v-512h-228v1434h469q255 0 403 -126t148 -339q0 -150 -75 -256t-212 -158l340 -555h-256l-303 514q-14 -2 -45 -2zM993 1794l-360 -305l-363 305l113 115l250 -209l250 209z" />
    <glyph glyph-name="rcaron" unicode="&#x159;" horiz-adv-x="1333" 
d="M408 713h268q139 -1 214 71t75 185t-76 183t-213 69h-268v-508zM649 512h-241v-512h-228v1434h469q255 0 403 -126t148 -339q0 -150 -75 -256t-212 -158l340 -555h-256l-303 514q-14 -2 -45 -2zM993 1794l-360 -305l-363 305l113 115l250 -209l250 209z" />
    <glyph glyph-name="Sacute" unicode="&#x15a;" horiz-adv-x="1232" 
d="M605 1266q-119 0 -193 -54t-74 -139q0 -59 53 -105t105 -66t124 -42q159 -48 244 -86q196 -86 259 -205q40 -74 40 -170q0 -186 -148 -307q-149 -121 -379 -121t-379 117q-148 117 -196 309l218 60q20 -119 115 -201q96 -82 236 -82t218 62t78 155q0 122 -139 183
q-65 30 -161 60t-144 46t-88 32q-40 15 -102 50q-186 105 -186 299q0 170 146 286q146 115 354 115q210 0 354 -108t185 -279l-217 -59q-25 118 -114 184t-209 66zM868 1872l80 -156l-467 -213l-69 125z" />
    <glyph glyph-name="sacute" unicode="&#x15b;" horiz-adv-x="1232" 
d="M605 1266q-119 0 -193 -54t-74 -139q0 -59 53 -105t105 -66t124 -42q159 -48 244 -86q196 -86 259 -205q40 -74 40 -170q0 -186 -148 -307q-149 -121 -379 -121t-379 117q-148 117 -196 309l218 60q20 -119 115 -201q96 -82 236 -82t218 62t78 155q0 122 -139 183
q-65 30 -161 60t-144 46t-88 32q-40 15 -102 50q-186 105 -186 299q0 170 146 286q146 115 354 115q210 0 354 -108t185 -279l-217 -59q-25 118 -114 184t-209 66zM881 1872l80 -156l-467 -213l-70 125z" />
    <glyph glyph-name="Scircumflex" unicode="&#x15c;" horiz-adv-x="1232" 
d="M605 1266q-119 0 -193 -54t-74 -139q0 -59 53 -105t105 -66t124 -42q159 -48 244 -86q196 -86 259 -205q40 -74 40 -170q0 -186 -148 -307q-149 -121 -379 -121t-379 117q-148 117 -196 309l218 60q20 -119 115 -201q96 -82 236 -82t218 62t78 155q0 122 -139 183
q-65 30 -161 60t-144 46t-88 32q-40 15 -102 50q-186 105 -186 299q0 170 146 286q146 115 354 115q210 0 354 -108t185 -279l-217 -59q-25 118 -114 184t-209 66zM262 1624l363 305l362 -305l-113 -115l-249 209l-250 -209z" />
    <glyph glyph-name="scircumflex" unicode="&#x15d;" horiz-adv-x="1232" 
d="M605 1266q-119 0 -193 -54t-74 -139q0 -59 53 -105t105 -66t124 -42q159 -48 244 -86q196 -86 259 -205q40 -74 40 -170q0 -186 -148 -307q-149 -121 -379 -121t-379 117q-148 117 -196 309l218 60q20 -119 115 -201q96 -82 236 -82t218 62t78 155q0 122 -139 183
q-65 30 -161 60t-144 46t-88 32q-40 15 -102 50q-186 105 -186 299q0 170 146 286q146 115 354 115q210 0 354 -108t185 -279l-217 -59q-25 118 -114 184t-209 66zM262 1624l363 305l362 -305l-113 -115l-249 209l-250 -209z" />
    <glyph glyph-name="Scedilla" unicode="&#x15e;" horiz-adv-x="1232" 
d="M605 1266q-119 0 -193 -54t-74 -139q0 -59 53 -105t105 -66t124 -42q159 -48 244 -86q196 -86 259 -205q40 -74 40 -170q0 -171 -123 -287t-327 -137l-31 -81q92 2 154 -52t63 -150q0 -95 -64 -148q-65 -52 -163 -52h-185l50 125h135q44 0 70 22q26 21 26 55t-27 56
t-69 23h-160l70 200q-205 12 -340 127t-181 297l218 60q20 -119 115 -201q96 -82 236 -82t218 62t78 155q0 122 -139 183q-65 30 -161 60t-144 46t-88 32q-40 15 -102 50q-186 105 -186 299q0 170 146 286q146 115 354 115q210 0 354 -108t185 -279l-217 -59
q-25 118 -114 184t-209 66z" />
    <glyph glyph-name="scedilla" unicode="&#x15f;" horiz-adv-x="1232" 
d="M605 1266q-119 0 -193 -54t-74 -139q0 -59 53 -105t105 -66t124 -42q159 -48 244 -86q196 -86 259 -205q40 -74 40 -170q0 -165 -119 -281t-317 -141l-33 -83q92 2 154 -52t63 -150q0 -95 -64 -148q-65 -52 -163 -52h-184l49 125h135q45 0 71 22q25 21 25 55t-26 56
t-70 23h-160l70 198q-209 10 -348 126t-185 300l218 60q20 -119 115 -201q96 -82 236 -82t218 62t78 155q0 122 -139 183q-65 30 -161 60t-144 46t-88 32q-40 15 -102 50q-186 105 -186 299q0 170 146 286q146 115 354 115q210 0 354 -108t185 -279l-217 -59
q-25 118 -114 184t-209 66z" />
    <glyph glyph-name="Scaron" unicode="&#x160;" horiz-adv-x="1232" 
d="M605 1266q-119 0 -193 -54t-74 -139q0 -59 53 -105t105 -66t124 -42q159 -48 244 -86q196 -86 259 -205q40 -74 40 -170q0 -186 -148 -307q-149 -121 -379 -121t-379 117q-148 117 -196 309l218 60q20 -119 115 -201q96 -82 236 -82t218 62t78 155q0 122 -139 183
q-65 30 -161 60t-144 46t-88 32q-40 15 -102 50q-186 105 -186 299q0 170 146 286q146 115 354 115q210 0 354 -108t185 -279l-217 -59q-25 118 -114 184t-209 66zM268 1794l113 115l250 -209l250 209l110 -115l-360 -305z" />
    <glyph glyph-name="scaron" unicode="&#x161;" horiz-adv-x="1232" 
d="M605 1266q-119 0 -193 -54t-74 -139q0 -59 53 -105t105 -66t124 -42q159 -48 244 -86q196 -86 259 -205q40 -74 40 -170q0 -186 -148 -307q-149 -121 -379 -121t-379 117q-148 117 -196 309l218 60q20 -119 115 -201q96 -82 236 -82t218 62t78 155q0 122 -139 183
q-65 30 -161 60t-144 46t-88 32q-40 15 -102 50q-186 105 -186 299q0 170 146 286q146 115 354 115q210 0 354 -108t185 -279l-217 -59q-25 118 -114 184t-209 66zM281 1794l112 115l250 -209l250 209l111 -115l-361 -305z" />
    <glyph glyph-name="Tcedilla" unicode="&#x162;" horiz-adv-x="1228" 
d="M725 0h-61l-41 -106q92 2 154 -52q63 -54 63 -150t-65 -148t-163 -52h-184l49 125h135q45 0 71 22q26 21 26 55t-27 56t-70 23h-159l79 227h-32v1221h-463v213h1153v-213h-465v-1221z" />
    <glyph glyph-name="tcedilla" unicode="&#x163;" horiz-adv-x="1228" 
d="M725 0h-61l-41 -106q92 2 154 -52q63 -54 63 -150t-65 -148t-163 -52h-184l49 125h135q45 0 71 22q26 21 26 55t-27 56t-70 23h-159l79 227h-32v1221h-463v213h1153v-213h-465v-1221z" />
    <glyph glyph-name="Tcaron" unicode="&#x164;" horiz-adv-x="1228" 
d="M37 1434h1153v-213h-465v-1221h-225v1221h-463v213zM993 1794l-360 -305l-363 305l113 115l250 -209l250 209z" />
    <glyph glyph-name="tcaron" unicode="&#x165;" horiz-adv-x="1228" 
d="M37 1434h1153v-213h-465v-1221h-225v1221h-463v213zM993 1794l-360 -305l-363 305l113 115l250 -209l250 209z" />
    <glyph glyph-name="Tbar" unicode="&#x166;" horiz-adv-x="1228" 
d="M1190 1221h-465v-369h240v-174h-240v-678h-225v678h-240v174h240v369h-463v213h1153v-213z" />
    <glyph glyph-name="tbar" unicode="&#x167;" horiz-adv-x="1228" 
d="M1190 1221h-465v-369h240v-174h-240v-678h-225v678h-240v174h240v369h-463v213h1153v-213z" />
    <glyph glyph-name="Umacron" unicode="&#x16a;" horiz-adv-x="1497" 
d="M1126 1434h226v-826q0 -307 -160 -472t-444 -165t-444 165q-159 165 -159 472v826h228v-824q0 -428 377 -428t376 428v824zM424 1761h678v-174h-678v174z" />
    <glyph glyph-name="umacron" unicode="&#x16b;" horiz-adv-x="1497" 
d="M1126 1434h226v-826q0 -307 -160 -472t-444 -165t-444 165q-159 165 -159 472v826h228v-824q0 -428 377 -428t376 428v824zM424 1761h678v-174h-678v174z" />
    <glyph glyph-name="Ubreve" unicode="&#x16c;" horiz-adv-x="1497" 
d="M1126 1434h226v-826q0 -307 -160 -472t-444 -165t-444 165q-159 165 -159 472v826h228v-824q0 -428 377 -428t376 428v824zM756 1665q64 0 111 39q48 39 61 94h164q-27 -122 -119 -198t-218 -76t-219 76t-116 198h164q14 -57 61 -95t111 -38z" />
    <glyph glyph-name="ubreve" unicode="&#x16d;" horiz-adv-x="1497" 
d="M1126 1434h226v-826q0 -307 -160 -472t-444 -165t-444 165q-159 165 -159 472v826h228v-824q0 -428 377 -428t376 428v824zM756 1665q64 0 111 39q48 39 61 94h164q-27 -122 -119 -198t-218 -76t-219 76t-116 198h164q14 -57 61 -95t111 -38z" />
    <glyph glyph-name="Uring" unicode="&#x16e;" horiz-adv-x="1497" 
d="M1126 1434h226v-826q0 -307 -160 -472t-444 -165t-444 165q-159 165 -159 472v826h228v-824q0 -428 377 -428t376 428v824zM755 1542q48 0 83 34q34 34 34 82t-34 82q-35 34 -83 34t-83 -34t-35 -81t35 -82t83 -35zM753 1405q-103 0 -178 74q-73 74 -73 177t73 177
t177 74t179 -74t75 -177t-75 -177t-178 -74z" />
    <glyph glyph-name="uring" unicode="&#x16f;" horiz-adv-x="1497" 
d="M1126 1434h226v-826q0 -307 -160 -472t-444 -165t-444 165q-159 165 -159 472v826h228v-824q0 -428 377 -428t376 428v824zM755 1542q48 0 83 34q34 34 34 82t-34 82q-35 34 -83 34t-83 -34t-35 -81t35 -82t83 -35zM753 1405q-103 0 -178 74q-73 74 -73 177t73 177
t177 74t179 -74t75 -177t-75 -177t-178 -74z" />
    <glyph glyph-name="Uhungarumlaut" unicode="&#x170;" horiz-adv-x="1497" 
d="M1126 1434h226v-826q0 -307 -160 -472t-444 -165t-444 165q-159 165 -159 472v826h228v-824q0 -428 377 -428t376 428v824zM1231 1872l80 -156l-467 -213l-68 125zM836 1872l79 -156l-466 -213l-68 125z" />
    <glyph glyph-name="uhungarumlaut" unicode="&#x171;" horiz-adv-x="1497" 
d="M1126 1434h226v-826q0 -307 -160 -472t-444 -165t-444 165q-159 165 -159 472v826h228v-824q0 -428 377 -428t376 428v824zM1231 1872l80 -156l-467 -213l-68 125zM836 1872l79 -156l-466 -213l-68 125z" />
    <glyph glyph-name="Uogonek" unicode="&#x172;" horiz-adv-x="1497" 
d="M1352 1434v-826q0 -248 -104 -404t-300 -208q-92 -35 -144 -81q-52 -45 -52 -115t42 -112t106 -42t117 38q52 38 79 91l118 -78q-41 -82 -127 -138q-87 -57 -201 -57t-205 76t-91 196t102 199q-260 15 -403 179t-144 456v826h228v-824q0 -428 377 -428t376 428v824h226z
" />
    <glyph glyph-name="uogonek" unicode="&#x173;" horiz-adv-x="1497" 
d="M1352 1434v-826q0 -248 -104 -404t-300 -208q-92 -35 -144 -81q-52 -45 -52 -115t42 -112t106 -42t117 38q52 38 79 91l118 -78q-41 -82 -127 -138q-87 -57 -201 -57t-205 76t-91 196t102 199q-260 15 -403 179t-144 456v826h228v-824q0 -428 377 -428t376 428v824h226z
" />
    <glyph glyph-name="Wcircumflex" unicode="&#x174;" horiz-adv-x="2056" 
d="M1767 1434h240l-469 -1434h-207l-229 723q-25 79 -43 147t-25 93l-6 26h-2l-6 -26q-19 -84 -68 -240l-229 -723h-207l-467 1434h240l272 -871q42 -145 53 -190l9 -27h2l6 27q8 25 23 80t36 110l236 697h204l236 -697q20 -55 36 -110t23 -80l7 -27h2l8 27q30 123 51 190z
M655 1624l363 305l362 -305l-112 -115l-250 209l-250 -209z" />
    <glyph glyph-name="wcircumflex" unicode="&#x175;" horiz-adv-x="2056" 
d="M1767 1434h240l-469 -1434h-207l-229 723q-25 79 -43 147t-25 93l-6 26h-2l-6 -26q-19 -84 -68 -240l-229 -723h-207l-467 1434h240l272 -871q42 -145 53 -190l9 -27h2l6 27q8 25 23 80t36 110l236 697h204l236 -697q20 -55 36 -110t23 -80l7 -27h2l8 27q30 123 51 190z
M653 1624l363 305l362 -305l-112 -115l-250 209l-250 -209z" />
    <glyph glyph-name="Ycircumflex" unicode="&#x176;" horiz-adv-x="1388" 
d="M807 0h-225v680l-553 754h256l325 -441q14 -18 43 -56t41 -54h2q2 0 82 110l326 441h256l-553 -754v-680zM326 1624l362 305l363 -305l-113 -115l-250 209l-250 -209z" />
    <glyph glyph-name="ycircumflex" unicode="&#x177;" horiz-adv-x="1388" 
d="M807 0h-225v680l-553 754h256l325 -441q14 -18 43 -56t41 -54h2q2 0 82 110l326 441h256l-553 -754v-680zM328 1624l362 305l363 -305l-113 -115l-250 209l-250 -209z" />
    <glyph glyph-name="Ydieresis" unicode="&#x178;" horiz-adv-x="1388" 
d="M807 0h-225v680l-553 754h256l325 -441q14 -18 43 -56t41 -54h2q2 0 82 110l326 441h256l-553 -754v-680zM940 1569q-49 0 -83 34t-34 82q0 47 34 81t83 34t83 -34t34 -82t-34 -81q-34 -34 -83 -34zM434 1569q-49 0 -83 34t-34 82q0 47 34 81t83 34t83 -34t34 -82
t-34 -81q-34 -34 -83 -34z" />
    <glyph glyph-name="Zacute" unicode="&#x179;" horiz-adv-x="1427" 
d="M143 1221v213h1162v-211l-762 -891q-27 -29 -57 -60t-44 -47l-16 -16l2 -2l10 2h29l160 4h678v-213h-1182v211l780 899q20 24 49 52t47 46l21 17l-2 2l-10 -2h-32l-157 -4h-676zM963 1872l79 -156l-467 -213l-69 125z" />
    <glyph glyph-name="zacute" unicode="&#x17a;" horiz-adv-x="1427" 
d="M143 1221v213h1162v-211l-762 -891q-27 -29 -57 -60t-44 -47l-16 -16l2 -2l10 2h29l160 4h678v-213h-1182v211l780 899q20 24 49 52t47 46l21 17l-2 2l-10 -2h-32l-157 -4h-676zM963 1872l79 -156l-467 -213l-69 125z" />
    <glyph glyph-name="Zdotaccent" unicode="&#x17b;" horiz-adv-x="1427" 
d="M143 1221v213h1162v-211l-762 -891q-27 -29 -57 -60t-44 -47l-16 -16l2 -2l10 2h29l160 4h678v-213h-1182v211l780 899q20 24 49 52t47 46l21 17l-2 2l-10 -2h-32l-157 -4h-676zM725 1567q-49 0 -83 35t-34 83q0 47 34 81t83 34t83 -34t34 -82t-34 -82q-34 -35 -83 -35z
" />
    <glyph glyph-name="zdotaccent" unicode="&#x17c;" horiz-adv-x="1427" 
d="M143 1221v213h1162v-211l-762 -891q-27 -29 -57 -60t-44 -47l-16 -16l2 -2l10 2h29l160 4h678v-213h-1182v211l780 899q20 24 49 52t47 46l21 17l-2 2l-10 -2h-32l-157 -4h-676zM725 1567q-49 0 -83 35t-34 83q0 47 34 81t83 34t83 -34t34 -82t-34 -82q-34 -35 -83 -35z
" />
    <glyph glyph-name="Zcaron" unicode="&#x17d;" horiz-adv-x="1427" 
d="M143 1221v213h1162v-211l-762 -891q-27 -29 -57 -60t-44 -47l-16 -16l2 -2l10 2h29l160 4h678v-213h-1182v211l780 899q20 24 49 52t47 46l21 17l-2 2l-10 -2h-32l-157 -4h-676zM362 1794l113 115l250 -209l250 209l110 -115l-360 -305z" />
    <glyph glyph-name="zcaron" unicode="&#x17e;" horiz-adv-x="1427" 
d="M143 1221v213h1162v-211l-762 -891q-27 -29 -57 -60t-44 -47l-16 -16l2 -2l10 2h29l160 4h678v-213h-1182v211l780 899q20 24 49 52t47 46l21 17l-2 2l-10 -2h-32l-157 -4h-676zM362 1794l113 115l250 -209l250 209l110 -115l-360 -305z" />
    <glyph glyph-name="Scommaaccent" unicode="&#x218;" horiz-adv-x="1232" 
d="M610 -80q49 0 82 -38t33 -110t-50 -160q-50 -89 -124 -157h-86q45 39 84 109t39 123l22 10l-22 2q-37 2 -67 31q-29 28 -29 76t34 81q35 33 84 33zM605 1266q-119 0 -193 -54t-74 -139q0 -59 53 -105t105 -66t124 -42q159 -48 244 -86q196 -86 259 -205q40 -74 40 -170
q0 -186 -148 -307q-149 -121 -379 -121t-379 117q-148 117 -196 309l218 60q20 -119 115 -201q96 -82 236 -82t218 62t78 155q0 122 -139 183q-65 30 -161 60t-144 46t-88 32q-40 15 -102 50q-186 105 -186 299q0 170 146 286q146 115 354 115q210 0 354 -108t185 -279
l-217 -59q-25 118 -114 184t-209 66z" />
    <glyph glyph-name="scommaaccent" unicode="&#x219;" horiz-adv-x="1232" 
d="M610 -80q49 0 82 -38t33 -110t-50 -160q-50 -89 -124 -157h-86q45 39 84 109t39 123l22 10l-22 2q-37 2 -67 31q-29 28 -29 76t34 81q35 33 84 33zM605 1266q-119 0 -193 -54t-74 -139q0 -59 53 -105t105 -66t124 -42q159 -48 244 -86q196 -86 259 -205q40 -74 40 -170
q0 -186 -148 -307q-149 -121 -379 -121t-379 117q-148 117 -196 309l218 60q20 -119 115 -201q96 -82 236 -82t218 62t78 155q0 122 -139 183q-65 30 -161 60t-144 46t-88 32q-40 15 -102 50q-186 105 -186 299q0 170 146 286q146 115 354 115q210 0 354 -108t185 -279
l-217 -59q-25 118 -114 184t-209 66z" />
    <glyph glyph-name="uni021A" unicode="&#x21a;" horiz-adv-x="1228" 
d="M510 -194q0 48 35 81t84 33t82 -38t33 -110t-51 -160q-50 -89 -124 -157h-86q45 39 84 109t39 123l23 10l-23 2q-36 2 -66 31q-30 28 -30 76zM37 1434h1153v-213h-465v-1221h-225v1221h-463v213z" />
    <glyph glyph-name="uni021B" unicode="&#x21b;" horiz-adv-x="1228" 
d="M465 -194q0 48 35 81t84 33t82 -38q32 -38 32 -110t-50 -160q-50 -89 -124 -157h-86q45 39 84 109t39 123l23 10l-23 2q-37 2 -67 31q-30 28 -29 76zM37 1434h1153v-213h-465v-1221h-225v1221h-463v213z" />
    <glyph glyph-name="dotlessj" unicode="&#x237;" horiz-adv-x="1357" 
d="M985 1434h227v-826q0 -301 -164 -469t-450 -168q-200 1 -356 103t-217 266l225 59q39 -100 133 -158t215 -59q186 0 287 111q100 111 100 305v836z" />
    <glyph glyph-name="circumflex" unicode="&#x2c6;" horiz-adv-x="776" 
d="M6 1624l363 305l360 -305l-111 -115l-249 209l-250 -209z" />
    <glyph glyph-name="caron" unicode="&#x2c7;" horiz-adv-x="776" 
d="M6 1794l113 115l250 -209l249 209l111 -115l-360 -307z" />
    <glyph glyph-name="breve" unicode="&#x2d8;" horiz-adv-x="690" 
d="M322 1665q64 0 111 39q48 39 61 94h161q-25 -122 -117 -198t-218 -76q-125 0 -218 76t-118 198h166q14 -55 61 -94t111 -39z" />
    <glyph glyph-name="dotaccent" unicode="&#x2d9;" horiz-adv-x="335" 
d="M144 1567q-48 0 -82 35t-34 83q0 47 34 81t82 34t82 -34t34 -82t-34 -82q-34 -35 -82 -35z" />
    <glyph glyph-name="ring" unicode="&#x2da;" horiz-adv-x="565" 
d="M265 1491q48 0 83 35t35 83t-35 82q-35 33 -83 33t-83 -34t-35 -81q0 -48 35 -83t83 -35zM516 1607q0 -103 -75 -178t-178 -75t-177 74t-74 178t74 178t177 74t178 -74t75 -177z" />
    <glyph glyph-name="ogonek" unicode="&#x2db;" horiz-adv-x="1228" 
d="M203 -202q0 132 92 216t186 84l148 -98q-101 0 -183 -50t-81 -151q0 -63 45 -108t120 -45q138 0 199 135l125 -74q-102 -205 -342 -205q-125 0 -217 82t-92 214z" />
    <glyph glyph-name="tilde" unicode="&#x2dc;" horiz-adv-x="927" 
d="M598 1540q-70 0 -159 59t-131 59t-70 -26q-28 -27 -27 -65h-178q1 109 73 179t166 69t183 -61q88 -60 128 -60q41 0 67 26t28 68h178q2 -108 -72 -178t-186 -70z" />
    <glyph glyph-name="hungarumlaut" unicode="&#x2dd;" horiz-adv-x="1034" 
d="M883 1872l80 -156l-467 -213l-68 125zM487 1872l80 -156l-467 -213l-67 125z" />
    <glyph glyph-name="commaaccentcomb" unicode="&#x326;" horiz-adv-x="0" 
d="M121 -194q0 48 34 81t83 33q50 0 82 -38t32 -110t-50 -162q-50 -89 -126 -155h-86q47 39 85 109t38 123l25 10l-25 2q-35 0 -63 30q-28 29 -29 77z" />
    <glyph glyph-name="Wgrave" unicode="&#x1e80;" horiz-adv-x="2056" 
d="M1767 1434h240l-469 -1434h-207l-229 723q-25 79 -43 147t-25 93l-6 26h-2l-6 -26q-19 -84 -68 -240l-229 -723h-207l-467 1434h240l272 -871q42 -145 53 -190l9 -27h2l6 27q8 25 23 80t36 110l236 697h204l236 -697q20 -55 36 -110t23 -80l7 -27h2l8 27q30 123 51 190z
M1135 1503l-467 213l80 156l456 -244z" />
    <glyph glyph-name="wgrave" unicode="&#x1e81;" horiz-adv-x="2056" 
d="M1767 1434h240l-469 -1434h-207l-229 723q-25 79 -43 147t-25 93l-6 26h-2l-6 -26q-19 -84 -68 -240l-229 -723h-207l-467 1434h240l272 -871q42 -145 53 -190l9 -27h2l6 27q8 25 23 80t36 110l236 697h204l236 -697q20 -55 36 -110t23 -80l7 -27h2l8 27q30 123 51 190z
M1133 1503l-467 213l79 156l457 -244z" />
    <glyph glyph-name="Wacute" unicode="&#x1e82;" horiz-adv-x="2056" 
d="M1767 1434h240l-469 -1434h-207l-229 723q-25 79 -43 147t-25 93l-6 26h-2l-6 -26q-19 -84 -68 -240l-229 -723h-207l-467 1434h240l272 -871q42 -145 53 -190l9 -27h2l6 27q8 25 23 80t36 110l236 697h204l236 -697q20 -55 36 -110t23 -80l7 -27h2l8 27q30 123 51 190z
M1262 1872l79 -156l-467 -213l-69 125z" />
    <glyph glyph-name="wacute" unicode="&#x1e83;" horiz-adv-x="2056" 
d="M1767 1434h240l-469 -1434h-207l-229 723q-25 79 -43 147t-25 93l-6 26h-2l-6 -26q-19 -84 -68 -240l-229 -723h-207l-467 1434h240l272 -871q42 -145 53 -190l9 -27h2l6 27q8 25 23 80t36 110l236 697h204l236 -697q20 -55 36 -110t23 -80l7 -27h2l8 27q30 123 51 190z
M1260 1872l79 -156l-467 -213l-69 125z" />
    <glyph glyph-name="Wdieresis" unicode="&#x1e84;" horiz-adv-x="2056" 
d="M1767 1434h240l-469 -1434h-207l-229 723q-25 79 -43 147t-25 93l-6 26h-2l-6 -26q-19 -84 -68 -240l-229 -723h-207l-467 1434h240l272 -871q42 -145 53 -190l9 -27h2l6 27q8 25 23 80t36 110l236 697h204l236 -697q20 -55 36 -110t23 -80l7 -27h2l8 27q30 123 51 190z
M1270 1569q-49 0 -83 34t-34 82q0 47 34 81t83 34t83 -34q33 -34 33 -82t-34 -81q-34 -34 -82 -34zM764 1569q-49 0 -83 34t-34 82q0 47 34 81t83 34t83 -34t34 -82t-34 -81q-34 -34 -83 -34z" />
    <glyph glyph-name="wdieresis" unicode="&#x1e85;" horiz-adv-x="2056" 
d="M1767 1434h240l-469 -1434h-207l-229 723q-25 79 -43 147t-25 93l-6 26h-2l-6 -26q-19 -84 -68 -240l-229 -723h-207l-467 1434h240l272 -871q42 -145 53 -190l9 -27h2l6 27q8 25 23 80t36 110l236 697h204l236 -697q20 -55 36 -110t23 -80l7 -27h2l8 27q30 123 51 190z
M1268 1569q-49 0 -83 34t-34 82q0 47 34 81t83 34t83 -34q33 -34 33 -82t-34 -81q-34 -34 -82 -34zM762 1569q-49 0 -83 34t-34 82q0 47 34 81t83 34t83 -34t34 -82t-34 -81q-34 -34 -83 -34z" />
    <glyph glyph-name="Germandbls" unicode="&#x1e9e;" horiz-adv-x="1617" 
d="M408 1221v-1221h-228v1434h1215l-228 -422q-14 -27 -41 -75t-41 -77l-16 -29l2 -2h10q197 -1 325 -119t128 -302t-134 -310t-353 -127q-160 0 -292 77t-200 204l215 59q90 -145 268 -145q125 0 197 71t72 176t-72 176t-203 70h-180v170l129 246q34 70 68 125l12 23l-2 2
h-8l-93 -4h-550z" />
    <glyph glyph-name="Ygrave" unicode="&#x1ef2;" horiz-adv-x="1388" 
d="M807 0h-225v680l-553 754h256l325 -441q14 -18 43 -56t41 -54h2q2 0 82 110l326 441h256l-553 -754v-680zM805 1503l-467 213l80 156l456 -244z" />
    <glyph glyph-name="ygrave" unicode="&#x1ef3;" horiz-adv-x="1388" 
d="M807 0h-225v680l-553 754h256l325 -441q14 -18 43 -56t41 -54h2q2 0 82 110l326 441h256l-553 -754v-680zM807 1503l-467 213l80 156l457 -244z" />
    <glyph glyph-name="uni2007" unicode="&#x2007;" 
 />
    <glyph glyph-name="uni2009" unicode="&#x2009;" horiz-adv-x="245" 
 />
    <glyph glyph-name="uni200A" unicode="&#x200a;" horiz-adv-x="81" 
 />
    <glyph glyph-name="endash" unicode="&#x2013;" horiz-adv-x="1220" 
d="M180 831h860v-210h-860v210z" />
    <glyph glyph-name="emdash" unicode="&#x2014;" horiz-adv-x="2099" 
d="M180 831h1739v-210h-1739v210z" />
    <glyph glyph-name="quoteleft" unicode="&#x2018;" horiz-adv-x="636" 
d="M426 1090q0 -50 -36 -84q-36 -35 -88 -35t-87 40q-35 39 -35 115t53 170t132 164h90q-49 -38 -89 -112t-40 -131l-23 -11l23 -2q40 -2 70 -33t30 -81z" />
    <glyph glyph-name="quoteright" unicode="&#x2019;" horiz-adv-x="636" 
d="M211 1340q0 50 36 85t87 35t86 -40t35 -116q1 -76 -53 -169q-54 -94 -132 -164h-90q49 41 89 115t40 128l25 11l-25 2q-37 2 -67 33q-30 30 -31 80z" />
    <glyph glyph-name="quotesinglbase" unicode="&#x201a;" horiz-adv-x="636" 
d="M211 99q0 50 36 85t87 35t86 -40q35 -39 35 -115q1 -76 -53 -170t-132 -164h-90q49 40 89 114t40 129l25 11l-25 2q-37 2 -67 32t-31 81z" />
    <glyph glyph-name="quotedblleft" unicode="&#x201c;" horiz-adv-x="1044" 
d="M834 1090q0 -50 -36 -84q-36 -35 -88 -35t-87 40q-35 39 -35 115t53 170t131 164h90q-49 -38 -89 -112t-40 -131l-22 -11l22 -2q39 -2 70 -33t31 -81zM426 1090q0 -50 -36 -84q-36 -35 -88 -35t-87 40q-35 39 -35 115t53 170t132 164h90q-49 -38 -89 -112t-40 -131
l-23 -11l23 -2q40 -2 70 -33t30 -81z" />
    <glyph glyph-name="quotedblright" unicode="&#x201d;" horiz-adv-x="1044" 
d="M618 1340q0 50 36 85t87 35t86 -40t35 -116t-53 -169q-53 -94 -131 -164h-90q49 41 89 115t40 128l24 11l-24 2q-37 2 -68 33q-31 30 -31 80zM211 1340q0 50 36 85t87 35t86 -40t35 -116q1 -76 -53 -169q-54 -94 -132 -164h-90q49 41 89 115t40 128l25 11l-25 2
q-37 2 -67 33q-30 30 -31 80z" />
    <glyph glyph-name="quotedblbase" unicode="&#x201e;" horiz-adv-x="1026" 
d="M600 99q0 50 36 84t87 34t86 -39q35 -38 35 -114t-53 -172t-132 -162h-90q49 38 89 112t40 131l25 9l-25 4q-38 2 -68 32t-30 81zM211 99q0 50 36 84t87 34t86 -39q35 -38 35 -114q1 -76 -53 -172t-132 -162h-90q49 38 89 112t40 131l25 9l-25 4q-37 2 -67 32t-31 81z
" />
    <glyph glyph-name="dagger" unicode="&#x2020;" horiz-adv-x="1040" 
d="M1004 1073v-192h-383v-256q1 -237 -13 -431t-16 -194h-146q-6 0 -17 241t-11 384v256h-381v192h381v361h203v-361h383z" />
    <glyph glyph-name="daggerdbl" unicode="&#x2021;" horiz-adv-x="1040" 
d="M621 881v-267h383v-192h-388q-3 -163 -13 -292q-9 -130 -11 -130h-146q-4 0 -13 158t-11 264h-385v192h381v267h-381v192h381v361h203v-361h383v-192h-383z" />
    <glyph glyph-name="bullet" unicode="&#x2022;" horiz-adv-x="796" 
d="M398 508q-91 0 -154 64t-64 155q0 89 64 153t154 64t154 -63t64 -153t-63 -156q-64 -64 -155 -64z" />
    <glyph glyph-name="ellipsis" unicode="&#x2026;" horiz-adv-x="1531" 
d="M1309 -29q-41 0 -71 30t-30 71q0 40 30 70t71 30t71 -30t29 -70q1 -40 -29 -71q-30 -30 -71 -30zM756 -29q-41 0 -71 30t-30 71q0 40 30 70t71 30q40 0 70 -30t30 -70t-30 -71q-30 -30 -70 -30zM223 -29q-41 0 -71 30t-29 71q0 40 30 70q31 30 71 30t70 -30t30 -70
t-30 -71q-30 -30 -71 -30z" />
    <glyph glyph-name="perthousand" unicode="&#x2030;" horiz-adv-x="2789" 
d="M2339 139q94 0 151 75q58 76 58 184t-58 184t-151 76q-94 0 -153 -76q-58 -76 -58 -185t58 -183t153 -75zM1483 139q94 0 151 75q58 76 58 184t-58 184t-151 76q-94 0 -153 -76q-58 -76 -58 -185t58 -183t153 -75zM2339 -16q-164 0 -266 118t-103 295q0 178 102 297
t267 119q164 0 265 -119t101 -297q0 -177 -101 -295t-265 -118zM1483 -16q-164 0 -266 118t-103 295q0 178 102 297t267 119q164 0 265 -119t101 -297q0 -177 -101 -295t-265 -118zM451 776q94 0 151 75t57 183t-57 185q-57 75 -151 75t-153 -75q-58 -76 -58 -185
q0 -110 58 -184t153 -74zM393 0l993 1434h156l-995 -1434h-154zM451 621q-164 0 -267 117q-102 118 -102 296t102 297t266 119t266 -119q101 -119 101 -297t-101 -296t-265 -117z" />
    <glyph glyph-name="guilsinglleft" unicode="&#x2039;" horiz-adv-x="970" 
d="M664 1200l124 -125l-364 -354l364 -354l-126 -127l-482 481z" />
    <glyph glyph-name="guilsinglright" unicode="&#x203a;" horiz-adv-x="970" 
d="M307 1200l481 -479l-481 -481l-127 127l367 354l-365 354z" />
    <glyph glyph-name="fraction" unicode="&#x2044;" horiz-adv-x="247" 
d="M-451 0l994 1434h155l-995 -1434h-154z" />
    <glyph glyph-name="Euro" unicode="&#x20ac;" horiz-adv-x="1640" 
d="M900 -25q-242 0 -440 152t-259 397h-117v152h94v80h-94v151h117q61 246 259 399t458 152q208 0 380 -101t267 -274l-230 -57q-65 98 -175 156t-259 57q-149 0 -281 -90t-188 -242h510v-151h-541q-2 -12 -2 -39t2 -41h539v-152h-506q56 -150 188 -238t286 -87
q154 -1 274 67q119 68 180 183l227 -58q-90 -193 -269 -305q-178 -112 -420 -111z" />
    <glyph glyph-name="uni20B9" unicode="&#x20b9;" horiz-adv-x="1204" 
d="M1124 1257h-252q47 -49 72 -112h180v-170h-145q0 -184 -119 -309t-315 -150l405 -516h-264l-403 518v172h184q121 0 199 83t77 202h-563v170h510q-80 113 -223 112h-287v177h944v-177z" />
    <glyph glyph-name="afii61352" unicode="&#x2116;" horiz-adv-x="2283" 
d="M1565 637h667v-143h-667v143zM1688 1106q0 -94 59 -154t149 -61q90 0 151 60q60 61 60 155t-60 156q-61 62 -151 61q-90 1 -149 -61t-59 -156zM1165 1434h228v-1434h-213l-523 705q-53 75 -117 165t-100 138l-34 49h-3l3 -53l2 -396v-608h-228v1434h213l527 -707
q42 -57 106 -145t102 -142l39 -53h2l-2 59l-2 377v611zM1544 1106q0 152 102 253t252 101q148 0 250 -101t102 -253t-102 -252t-250 -100t-252 100q-102 100 -102 252z" />
    <glyph glyph-name="trademark" unicode="&#x2122;" horiz-adv-x="1609" 
d="M887 1012v-244h-139v666h135l147 -242q33 -51 57 -107l7 -12h2l27 56q15 30 36 61l150 244h133v-666h-139v244q0 95 6 176l2 26h-2q-11 -13 -33 -52q-22 -38 -41 -64l-107 -174h-65l-180 290h-2v-26q6 -81 6 -176zM37 1296v138h598v-138h-227v-528h-144v528h-227z" />
    <glyph glyph-name="oneeighth" unicode="&#x215b;" horiz-adv-x="1486" 
d="M995 224q0 -56 46 -92t118 -36t119 36t47 91t-47 91t-120 36t-118 -35t-45 -91zM1018 599q0 -48 40 -79t102 -31t102 31q38 31 38 79t-39 78q-41 30 -103 30t-101 -30t-39 -78zM1460 210q0 -91 -85 -159q-85 -67 -216 -67t-216 68t-85 158q0 91 53 143t117 67v2
q-43 10 -88 59t-45 131t74 142q73 60 189 59q116 0 191 -60q75 -59 75 -141t-47 -131q-46 -49 -87 -59v-2q62 -14 116 -66t54 -144zM125 0l993 1434h156l-995 -1434h-154zM260 1075q0 99 10 154v12h-2q-30 -45 -67 -78l-80 -76l-96 87l280 260h107v-797h-152v438z" />
    <glyph glyph-name="threeeighths" unicode="&#x215c;" horiz-adv-x="1628" 
d="M1139 224q0 -56 46 -92t118 -36q73 0 119 36t46 91t-47 91t-119 36t-118 -35q-45 -35 -45 -91zM1302 707q-62 0 -102 -30t-39 -78q0 -48 40 -79q41 -31 103 -31t101 31t39 79t-40 78t-102 30zM1001 210q-1 91 53 143t117 67v2q-43 10 -88 59t-45 131t74 142t190 59
q116 0 190 -60q74 -59 75 -141q0 -82 -46 -131t-87 -59v-2q63 -14 116 -66q54 -52 54 -144q0 -91 -85 -159q-85 -67 -216 -67t-217 67q-85 68 -85 159zM266 0l994 1434h155l-995 -1434h-154zM633 1234q0 -86 -53 -133q-53 -48 -119 -52v-2q76 -5 129 -51t53 -126
q0 -110 -83 -180t-204 -70t-210 68t-105 172l133 37q8 -67 55 -107t120 -40t112 36t39 87q0 52 -43 85t-109 33h-78v111h78q61 0 101 33q39 33 39 78t-36 77t-102 31q-131 0 -166 -137l-129 35q21 104 101 167q80 64 204 64t199 -65q74 -65 74 -151z" />
    <glyph glyph-name="fiveeighths" unicode="&#x215d;" horiz-adv-x="1589" 
d="M1264 96q72 0 118 36t48 91q0 55 -48 91t-120 36t-117 -35t-45 -91t46 -92t118 -36zM1263 707q-61 0 -101 -30t-40 -78t40 -79t102 -31t102 31q39 31 39 79t-40 78t-102 30zM963 210q0 91 53 143t117 67v2q-43 10 -89 59q-45 49 -45 131t74 142t190 59q117 0 191 -60
q74 -59 74 -141t-46 -131t-87 -59v-2q63 -14 116 -66t53 -144q0 -91 -84 -159q-85 -67 -216 -67t-216 68t-85 158zM1223 1434h155l-995 -1434h-154zM340 1167q131 -1 212 -75t81 -194t-83 -199t-207 -79t-205 68q-81 66 -97 164l137 39q10 -63 50 -103t109 -38q69 0 112 42
t43 108t-43 109q-43 42 -113 42q-104 0 -146 -80l-124 33l73 430h447v-136h-336l-14 -69q-21 -82 -37 -119l2 -2q55 59 139 59z" />
    <glyph glyph-name="seveneighths" unicode="&#x215e;" horiz-adv-x="1388" 
d="M899 224q0 -56 46 -92t118 -36t119 36t47 91t-47 91t-120 36t-118 -35t-45 -91zM922 599q0 -48 40 -79t102 -31t101 31t39 79t-40 78t-102 30t-101 -30t-39 -78zM1364 210q0 -91 -85 -159q-85 -67 -216 -67t-216 68t-85 158q0 91 53 143t117 67v2q-43 10 -88 59t-45 131
t73 142q74 59 190 59t190 -60q74 -59 75 -141q0 -82 -46 -131t-87 -59v-2q62 -14 116 -66t54 -144zM27 0l993 1434h156l-996 -1434h-153zM20 1298v136h590v-88l-395 -709h-152l312 555q33 64 67 98l11 13l-2 2l-9 -2h-20l-109 -5h-293z" />
    <glyph glyph-name="minus" unicode="&#x2212;" 
d="M246 821h940v-188h-940v188z" />
    <glyph glyph-name="notequal" unicode="&#x2260;" 
d="M1186 831h-316l-118 -231h434v-188h-531l-116 -232h-193l119 232h-219v188h315l119 231h-434v189h530l129 252h189l-129 -252h221v-189z" />
    <glyph glyph-name="lessequal" unicode="&#x2264;" 
d="M1176 168v-188h-940v188h940zM1083 340h-280l-570 412l666 499h277l-650 -499z" />
    <glyph glyph-name="greaterequal" unicode="&#x2265;" 
d="M254 168h940v-188h-940v188zM346 340l557 412l-649 499h276l666 -499l-569 -412h-281z" />
    <glyph glyph-name="lozenge" unicode="&#x25ca;" horiz-adv-x="1540" 
d="M770 1204l-487 -487l487 -486l487 486zM770 -29l-745 746l745 745l746 -745z" />
    <glyph glyph-name="Cacute.loclPLK" horiz-adv-x="1552" 
d="M827 1239q-223 0 -366 -145q-143 -144 -143 -376t144 -376q146 -144 365 -145q143 0 265 69q121 70 182 185l227 -62q-92 -193 -271 -305t-403 -113q-311 0 -527 212t-216 534q0 321 216 533t527 212q207 0 381 -102t271 -275l-232 -61q-63 100 -177 158t-243 57z
M928 1946l170 -95l-232 -352l-143 82z" />
    <glyph glyph-name="I.ss03" horiz-adv-x="950" 
d="M588 201h278v-201h-782v201h276v1032h-268v201h766v-201h-270v-1032z" />
    <glyph glyph-name="IJ.ss03" horiz-adv-x="2281" 
d="M1909 1434h227v-826q0 -301 -164 -469t-450 -168q-201 1 -357 103t-217 266l226 59q39 -100 133 -158t215 -59q186 0 286 111t101 305v836zM588 1233v-1032h278v-201h-782v201h276v1032h-268v201h766v-201h-270z" />
    <glyph glyph-name="IJ.ss03.ss04" horiz-adv-x="2279" 
d="M1272 1434h862v-826q0 -301 -164 -469t-450 -168q-201 1 -357 103t-217 266l225 59q39 -100 133 -158t216 -59q186 0 286 111t101 305v623h-635v213zM588 1233v-1032h278v-201h-782v201h276v1032h-268v201h766v-201h-270z" />
    <glyph glyph-name="IJ.ss04" horiz-adv-x="1916" 
d="M909 1434h863v-826q0 -301 -164 -469t-451 -168q-201 1 -357 103t-216 266l225 59q39 -100 133 -158t215 -59q186 0 287 111q100 111 100 305v623h-635v213zM180 0v1434h228v-1434h-228z" />
    <glyph glyph-name="Iacute.ss03" horiz-adv-x="950" 
d="M588 201h278v-201h-782v201h276v1032h-268v201h766v-201h-270v-1032zM795 1716l-467 -213l-70 125l457 244z" />
    <glyph glyph-name="Icircumflex.ss03" horiz-adv-x="950" 
d="M588 201h278v-201h-782v201h276v1032h-268v201h766v-201h-270v-1032zM471 1718l-250 -209l-112 115l362 305l363 -305l-113 -115z" />
    <glyph glyph-name="Idieresis.ss03" horiz-adv-x="950" 
d="M588 201h278v-201h-782v201h276v1032h-268v201h766v-201h-270v-1032zM723 1569q-49 0 -83 34t-34 82q0 47 34 81t83 34t83 -34t34 -82t-34 -81q-34 -34 -83 -34zM217 1569q-49 0 -83 34t-34 82q0 47 34 81t83 34t83 -34t34 -82t-34 -81q-34 -34 -83 -34z" />
    <glyph glyph-name="Idotaccent.ss03" horiz-adv-x="950" 
d="M588 201h278v-201h-782v201h276v1032h-268v201h766v-201h-270v-1032zM477 1567q-49 0 -83 35t-34 83q0 47 34 81t83 34t83 -34t34 -82t-34 -82q-34 -35 -83 -35z" />
    <glyph glyph-name="Igrave.ss03" horiz-adv-x="950" 
d="M588 201h278v-201h-782v201h276v1032h-268v201h766v-201h-270v-1032zM657 1628l-69 -125l-467 213l80 156z" />
    <glyph glyph-name="Imacron.ss03" horiz-adv-x="950" 
d="M588 201h278v-201h-782v201h276v1032h-268v201h766v-201h-270v-1032zM858 1761v-174h-766v174h766z" />
    <glyph glyph-name="Iogonek.ss03" horiz-adv-x="950" 
d="M866 0h-417q-103 0 -183 -50t-80 -151q0 -63 45 -108t121 -45q137 0 199 135l123 -74q-102 -205 -341 -205q-126 0 -218 82t-92 207t77 209h-16v201h276v1032h-268v201h766v-201h-270v-1032h278v-201z" />
    <glyph glyph-name="J.ss04" horiz-adv-x="1357" 
d="M350 1434h862v-826q0 -301 -164 -469t-450 -168q-200 1 -356 103t-217 266l225 59q39 -100 133 -158t215 -59q186 0 287 111q100 111 100 305v623h-635v213z" />
    <glyph glyph-name="Jcircumflex.ss04" horiz-adv-x="1357" 
d="M350 1434h862v-826q0 -301 -164 -469t-450 -168q-200 1 -356 103t-217 266l225 59q39 -100 133 -158t215 -59q186 0 287 111q100 111 100 305v623h-635v213zM764 1718l-250 -209l-113 115l363 305l360 -305l-110 -115z" />
    <glyph glyph-name="N.ss02" horiz-adv-x="1572" 
d="M1165 1434h228v-1434h-228v520l-471 375q-63 53 -137 117t-115 98l-39 35h-2v-10l5 -114l2 -128v-893h-228v1434h215l396 -328q373 -315 376 -315h2v8l-2 55v45l-2 120v415z" />
    <glyph glyph-name="Nacute.loclPLK" horiz-adv-x="1572" 
d="M1165 1434h228v-1434h-213l-523 705q-53 75 -117 165t-100 138l-34 49h-3l3 -53l2 -396v-608h-228v1434h213l527 -707q42 -57 106 -145t102 -142l39 -53h2l-2 59l-2 377v611zM895 1946l170 -95l-231 -352l-144 82z" />
    <glyph glyph-name="Nacute.loclPLK.ss02" horiz-adv-x="1572" 
d="M1165 1434h228v-1434h-228v520l-471 375q-63 53 -137 117t-115 98l-39 35h-2v-10l5 -114l2 -128v-893h-228v1434h215l396 -328q373 -315 376 -315h2v8l-2 55v45l-2 120v415zM903 1946l170 -95l-231 -352l-144 82z" />
    <glyph glyph-name="Nacute.ss02" horiz-adv-x="1572" 
d="M1165 1434h228v-1434h-228v520l-471 375q-63 53 -137 117t-115 98l-39 35h-2v-10l5 -114l2 -128v-893h-228v1434h215l396 -328q373 -315 376 -315h2v8l-2 55v45l-2 120v415zM1034 1872l80 -156l-467 -213l-69 125z" />
    <glyph glyph-name="Ncaron.ss02" horiz-adv-x="1572" 
d="M1165 1434h228v-1434h-228v520l-471 375q-63 53 -137 117t-115 98l-39 35h-2v-10l5 -114l2 -128v-893h-228v1434h215l396 -328q373 -315 376 -315h2v8l-2 55v45l-2 120v415zM434 1794l113 115l250 -209l250 209l110 -115l-360 -305z" />
    <glyph glyph-name="Ncommaaccent.ss02" horiz-adv-x="1572" 
d="M682 -194q0 48 35 81t84 33t82 -38t33 -110t-51 -160q-50 -89 -124 -157h-86q45 39 84 109t39 123l23 10l-23 2q-36 2 -66 31q-30 28 -30 76zM1165 1434h228v-1434h-228v520l-471 375q-63 53 -137 117t-115 98l-39 35h-2v-10l5 -114l2 -128v-893h-228v1434h215l396 -328
q373 -315 376 -315h2v8l-2 55v45l-2 120v415z" />
    <glyph glyph-name="Ntilde.ss02" horiz-adv-x="1572" 
d="M1165 1434h228v-1434h-228v520l-471 375q-63 53 -137 117t-115 98l-39 35h-2v-10l5 -114l2 -128v-893h-228v1434h215l396 -328q373 -315 376 -315h2v8l-2 55v45l-2 120v415zM1028 1788h180q0 -108 -72 -178t-186 -70q-72 0 -160 59t-132 59q-42 0 -70 -25
q-28 -26 -27 -66h-178q0 109 73 179t167 69t182 -61t128 -60q39 0 67 26t28 68z" />
    <glyph glyph-name="Oacute.loclPLK" horiz-adv-x="1654" 
d="M1337 718q0 232 -144 376q-145 144 -367 145q-222 -1 -366 -145t-143 -376q-1 -232 143 -378t366 -145q222 0 367 146q144 145 144 377zM84 717q0 321 216 533t528 212t528 -212t217 -534q0 -322 -216 -533q-217 -212 -529 -212t-528 212t-216 534zM944 1946l170 -95
l-231 -352l-144 82z" />
    <glyph glyph-name="Q.ss01" horiz-adv-x="1697" 
d="M317 732q-1 -226 145 -367t362 -141t362 140q146 142 147 368q0 226 -146 368q-147 142 -363 141q-216 1 -362 -141t-145 -368zM1495 221h123v-221h-795q-311 0 -525 208t-214 523t215 524t526 209t527 -209t217 -524q0 -166 -74 -303t-199 -219l2 -2l5 2q4 0 12 1t18 2
t43 5t119 4z" />
    <glyph glyph-name="Sacute.loclPLK" horiz-adv-x="1232" 
d="M605 1266q-119 0 -193 -54t-74 -139q0 -59 53 -105t105 -66t124 -42q159 -48 244 -86q196 -86 259 -205q40 -74 40 -170q0 -186 -148 -307q-149 -121 -379 -121t-379 117q-148 117 -196 309l218 60q20 -119 115 -201q96 -82 236 -82t218 62t78 155q0 122 -139 183
q-65 30 -161 60t-144 46t-88 32q-40 15 -102 50q-186 105 -186 299q0 170 146 286q146 115 354 115q210 0 354 -108t185 -279l-217 -59q-25 118 -114 184t-209 66zM737 1946l170 -95l-231 -352l-144 82z" />
    <glyph glyph-name="Y.ss05" horiz-adv-x="1388" 
d="M1096 745v-186h-289v-559h-225v559h-285v186h238l-506 689h256l325 -441q14 -18 43 -56t41 -54h2q2 0 82 110l326 441h256l-506 -689h242z" />
    <glyph glyph-name="Yacute.ss05" horiz-adv-x="1388" 
d="M1096 745v-186h-289v-559h-225v559h-285v186h238l-506 689h256l325 -441q14 -18 43 -56t41 -54h2q2 0 82 110l326 441h256l-506 -689h242zM1012 1716l-467 -213l-70 125l457 244z" />
    <glyph glyph-name="Ycircumflex.ss05" horiz-adv-x="1388" 
d="M1096 745v-186h-289v-559h-225v559h-285v186h238l-506 689h256l325 -441q14 -18 43 -56t41 -54h2q2 0 82 110l326 441h256l-506 -689h242zM688 1718l-250 -209l-112 115l362 305l363 -305l-113 -115z" />
    <glyph glyph-name="Ydieresis.ss05" horiz-adv-x="1388" 
d="M1096 745v-186h-289v-559h-225v559h-285v186h238l-506 689h256l325 -441q14 -18 43 -56t41 -54h2q2 0 82 110l326 441h256l-506 -689h242zM940 1569q-49 0 -83 34t-34 82q0 47 34 81t83 34t83 -34t34 -82t-34 -81q-34 -34 -83 -34zM434 1569q-49 0 -83 34t-34 82
q0 47 34 81t83 34t83 -34t34 -82t-34 -81q-34 -34 -83 -34z" />
    <glyph glyph-name="Ygrave.ss05" horiz-adv-x="1388" 
d="M1096 745v-186h-289v-559h-225v559h-285v186h238l-506 689h256l325 -441q14 -18 43 -56t41 -54h2q2 0 82 110l326 441h256l-506 -689h242zM874 1628l-69 -125l-467 213l80 156z" />
    <glyph glyph-name="Zacute.loclPLK" horiz-adv-x="1427" 
d="M143 1221v213h1162v-211l-762 -891q-27 -29 -57 -60t-44 -47l-16 -16l2 -2l10 2h29l160 4h678v-213h-1182v211l780 899q20 24 49 52t47 46l21 17l-2 2l-10 -2h-32l-157 -4h-676zM831 1946l170 -95l-231 -352l-143 82z" />
    <glyph glyph-name="cacute.loclPLK" horiz-adv-x="1552" 
d="M827 1239q-223 0 -366 -145q-143 -144 -143 -376t144 -376q146 -144 365 -145q143 0 265 69q121 70 182 185l227 -62q-92 -193 -271 -305t-403 -113q-311 0 -527 212t-216 534q0 321 216 533t527 212q207 0 381 -102t271 -275l-232 -61q-63 100 -177 158t-243 57z
M928 1946l170 -95l-232 -352l-143 82z" />
    <glyph glyph-name="dotlessj.ss04" horiz-adv-x="1357" 
d="M350 1434h862v-826q0 -301 -164 -469t-450 -168q-200 1 -356 103t-217 266l225 59q39 -100 133 -158t215 -59q186 0 287 111q100 111 100 305v623h-635v213z" />
    <glyph glyph-name="i.ss03" horiz-adv-x="950" 
d="M588 201h278v-201h-782v201h276v1032h-268v201h766v-201h-270v-1032z" />
    <glyph glyph-name="iacute.ss03" horiz-adv-x="950" 
d="M588 201h278v-201h-782v201h276v1032h-268v201h766v-201h-270v-1032zM795 1716l-467 -213l-70 125l457 244z" />
    <glyph glyph-name="icircumflex.ss03" horiz-adv-x="950" 
d="M588 201h278v-201h-782v201h276v1032h-268v201h766v-201h-270v-1032zM471 1718l-250 -209l-112 115l362 305l363 -305l-113 -115z" />
    <glyph glyph-name="idieresis.ss03" horiz-adv-x="950" 
d="M588 201h278v-201h-782v201h276v1032h-268v201h766v-201h-270v-1032zM723 1569q-49 0 -83 34t-34 82q0 47 34 81t83 34t83 -34t34 -82t-34 -81q-34 -34 -83 -34zM217 1569q-49 0 -83 34t-34 82q0 47 34 81t83 34t83 -34t34 -82t-34 -81q-34 -34 -83 -34z" />
    <glyph glyph-name="idotaccent.ss03" horiz-adv-x="950" 
d="M588 201h278v-201h-782v201h276v1032h-268v201h766v-201h-270v-1032zM477 1567q-49 0 -83 35t-34 83q0 47 34 81t83 34t83 -34t34 -82t-34 -82q-34 -35 -83 -35z" />
    <glyph glyph-name="igrave.ss03" horiz-adv-x="950" 
d="M588 201h278v-201h-782v201h276v1032h-268v201h766v-201h-270v-1032zM657 1628l-69 -125l-467 213l80 156z" />
    <glyph glyph-name="ij.ss03" horiz-adv-x="2281" 
d="M1909 1434h227v-826q0 -301 -164 -469t-450 -168q-201 1 -357 103t-217 266l226 59q39 -100 133 -158t215 -59q186 0 286 111t101 305v836zM588 1233v-1032h278v-201h-782v201h276v1032h-268v201h766v-201h-270z" />
    <glyph glyph-name="ij.ss03.ss04" horiz-adv-x="2279" 
d="M1272 1434h862v-826q0 -301 -164 -469t-450 -168q-201 1 -357 103t-217 266l225 59q39 -100 133 -158t216 -59q186 0 286 111t101 305v623h-635v213zM588 1233v-1032h278v-201h-782v201h276v1032h-268v201h766v-201h-270z" />
    <glyph glyph-name="ij.ss04" horiz-adv-x="1916" 
d="M909 1434h863v-826q0 -301 -164 -469t-451 -168q-201 1 -357 103t-216 266l225 59q39 -100 133 -158t215 -59q186 0 287 111q100 111 100 305v623h-635v213zM180 0v1434h228v-1434h-228z" />
    <glyph glyph-name="imacron.ss03" horiz-adv-x="950" 
d="M588 201h278v-201h-782v201h276v1032h-268v201h766v-201h-270v-1032zM858 1761v-174h-766v174h766z" />
    <glyph glyph-name="iogonek.ss03" horiz-adv-x="950" 
d="M866 0h-417q-103 0 -183 -50t-80 -151q0 -63 45 -108t121 -45q137 0 199 135l123 -74q-102 -205 -341 -205q-126 0 -218 82t-92 207t77 209h-16v201h276v1032h-268v201h766v-201h-270v-1032h278v-201z" />
    <glyph glyph-name="j.ss04" horiz-adv-x="1357" 
d="M350 1434h862v-826q0 -301 -164 -469t-450 -168q-200 1 -356 103t-217 266l225 59q39 -100 133 -158t215 -59q186 0 287 111q100 111 100 305v623h-635v213z" />
    <glyph glyph-name="jcircumflex.ss04" horiz-adv-x="1357" 
d="M350 1434h862v-826q0 -301 -164 -469t-450 -168q-200 1 -356 103t-217 266l225 59q39 -100 133 -158t215 -59q186 0 287 111q100 111 100 305v623h-635v213zM764 1718l-250 -209l-113 115l363 305l362 -305l-112 -115z" />
    <glyph glyph-name="n.ss02" horiz-adv-x="1572" 
d="M1165 1434h228v-1434h-228v520l-471 375q-63 53 -137 117t-115 98l-39 35h-2v-10l5 -114l2 -128v-893h-228v1434h215l396 -328q373 -315 376 -315h2v8l-2 55v45l-2 120v415z" />
    <glyph glyph-name="nacute.loclPLK" horiz-adv-x="1572" 
d="M1165 1434h228v-1434h-213l-523 705q-53 75 -117 165t-100 138l-34 49h-3l3 -53l2 -396v-608h-228v1434h213l527 -707q42 -57 106 -145t102 -142l39 -53h2l-2 59l-2 377v611zM895 1946l170 -95l-231 -352l-144 82z" />
    <glyph glyph-name="nacute.loclPLK.ss02" horiz-adv-x="1572" 
d="M1165 1434h228v-1434h-228v520l-471 375q-63 53 -137 117t-115 98l-39 35h-2v-10l5 -114l2 -128v-893h-228v1434h215l396 -328q373 -315 376 -315h2v8l-2 55v45l-2 120v415zM903 1946l170 -95l-231 -352l-144 82z" />
    <glyph glyph-name="nacute.ss02" horiz-adv-x="1572" 
d="M1165 1434h228v-1434h-228v520l-471 375q-63 53 -137 117t-115 98l-39 35h-2v-10l5 -114l2 -128v-893h-228v1434h215l396 -328q373 -315 376 -315h2v8l-2 55v45l-2 120v415zM1034 1872l80 -156l-467 -213l-69 125z" />
    <glyph glyph-name="ncaron.ss02" horiz-adv-x="1572" 
d="M1165 1434h228v-1434h-228v520l-471 375q-63 53 -137 117t-115 98l-39 35h-2v-10l5 -114l2 -128v-893h-228v1434h215l396 -328q373 -315 376 -315h2v8l-2 55v45l-2 120v415zM434 1794l113 115l250 -209l250 209l110 -115l-360 -305z" />
    <glyph glyph-name="ncommaaccent.ss02" horiz-adv-x="1572" 
d="M682 -194q0 48 35 81t84 33t82 -38t33 -110t-51 -160q-50 -89 -124 -157h-86q45 39 84 109t39 123l23 10l-23 2q-36 2 -66 31q-30 28 -30 76zM1165 1434h228v-1434h-228v520l-471 375q-63 53 -137 117t-115 98l-39 35h-2v-10l5 -114l2 -128v-893h-228v1434h215l396 -328
q373 -315 376 -315h2v8l-2 55v45l-2 120v415z" />
    <glyph glyph-name="ntilde.ss02" horiz-adv-x="1572" 
d="M1165 1434h228v-1434h-228v520l-471 375q-63 53 -137 117t-115 98l-39 35h-2v-10l5 -114l2 -128v-893h-228v1434h215l396 -328q373 -315 376 -315h2v8l-2 55v45l-2 120v415zM1028 1788h180q0 -108 -72 -178t-186 -70q-72 0 -160 59t-132 59q-42 0 -70 -25
q-28 -26 -27 -66h-178q0 109 73 179t167 69t182 -61t128 -60q39 0 67 26t28 68z" />
    <glyph glyph-name="oacute.loclPLK" horiz-adv-x="1654" 
d="M1337 718q0 232 -144 376q-145 144 -367 145q-222 -1 -366 -145t-143 -376q-1 -232 143 -378t366 -145q222 0 367 146q144 145 144 377zM84 717q0 321 216 533t528 212t528 -212t217 -534q0 -322 -216 -533q-217 -212 -529 -212t-528 212t-216 534zM944 1946l170 -95
l-231 -352l-144 82z" />
    <glyph glyph-name="q.ss01" horiz-adv-x="1697" 
d="M317 732q-1 -226 145 -367t362 -141t362 140q146 142 147 368q0 226 -146 368q-147 142 -363 141q-216 1 -362 -141t-145 -368zM1495 221h123v-221h-795q-311 0 -525 208t-214 523t215 524t526 209t527 -209t217 -524q0 -166 -74 -303t-199 -219l2 -2l5 2q4 0 12 1t18 2
t43 5t119 4z" />
    <glyph glyph-name="sacute.loclPLK" horiz-adv-x="1232" 
d="M605 1266q-119 0 -193 -54t-74 -139q0 -59 53 -105t105 -66t124 -42q159 -48 244 -86q196 -86 259 -205q40 -74 40 -170q0 -186 -148 -307q-149 -121 -379 -121t-379 117q-148 117 -196 309l218 60q20 -119 115 -201q96 -82 236 -82t218 62t78 155q0 122 -139 183
q-65 30 -161 60t-144 46t-88 32q-40 15 -102 50q-186 105 -186 299q0 170 146 286q146 115 354 115q210 0 354 -108t185 -279l-217 -59q-25 118 -114 184t-209 66zM737 1946l170 -95l-231 -352l-144 82z" />
    <glyph glyph-name="y.ss05" horiz-adv-x="1388" 
d="M1096 745v-186h-289v-559h-225v559h-285v186h238l-506 689h256l325 -441q14 -18 43 -56t41 -54h2q2 0 82 110l326 441h256l-506 -689h242z" />
    <glyph glyph-name="yacute.ss05" horiz-adv-x="1388" 
d="M1096 745v-186h-289v-559h-225v559h-285v186h238l-506 689h256l325 -441q14 -18 43 -56t41 -54h2q2 0 82 110l326 441h256l-506 -689h242zM1012 1716l-467 -213l-70 125l457 244z" />
    <glyph glyph-name="ycircumflex.ss05" horiz-adv-x="1388" 
d="M1096 745v-186h-289v-559h-225v559h-285v186h238l-506 689h256l325 -441q14 -18 43 -56t41 -54h2q2 0 82 110l326 441h256l-506 -689h242zM688 1718l-250 -209l-112 115l362 305l363 -305l-113 -115z" />
    <glyph glyph-name="ydieresis.ss05" horiz-adv-x="1388" 
d="M1096 745v-186h-289v-559h-225v559h-285v186h238l-506 689h256l325 -441q14 -18 43 -56t41 -54h2q2 0 82 110l326 441h256l-506 -689h242zM940 1569q-49 0 -83 34t-34 82q0 47 34 81t83 34t83 -34t34 -82t-34 -81q-34 -34 -83 -34zM434 1569q-49 0 -83 34t-34 82
q0 47 34 81t83 34t83 -34t34 -82t-34 -81q-34 -34 -83 -34z" />
    <glyph glyph-name="ygrave.ss05" horiz-adv-x="1388" 
d="M1096 745v-186h-289v-559h-225v559h-285v186h238l-506 689h256l325 -441q14 -18 43 -56t41 -54h2q2 0 82 110l326 441h256l-506 -689h242zM874 1628l-69 -125l-467 213l80 156z" />
    <glyph glyph-name="zacute.loclPLK" horiz-adv-x="1427" 
d="M143 1221v213h1162v-211l-762 -891q-27 -29 -57 -60t-44 -47l-16 -16l2 -2l10 2h29l160 4h678v-213h-1182v211l780 899q20 24 49 52t47 46l21 17l-2 2l-10 -2h-32l-157 -4h-676zM831 1946l170 -95l-231 -352l-143 82z" />
    <glyph glyph-name="zero.slsh" horiz-adv-x="1468" 
d="M733 195q203 0 311 147q108 148 107 374q0 226 -104 371l-523 -837q90 -55 209 -55zM733 1239q-203 0 -309 -147t-106 -379t108 -371l522 838q-92 59 -215 59zM734 1462q298 0 475 -215t177 -530t-177 -531t-475 -215q-298 0 -474 215q-176 214 -176 530t176 531t474 215
z" />
    <glyph glyph-name="zero.sups" horiz-adv-x="786" 
d="M393 1108q94 0 152 75q57 75 57 183t-57 184t-151 76t-153 -76t-59 -184t58 -184q58 -74 153 -74zM393 952q-164 0 -266 118t-102 296t102 297t266 119t265 -119q102 -119 102 -297t-102 -296t-265 -118z" />
    <glyph glyph-name="four.sups" horiz-adv-x="710" 
d="M428 1266v198l4 88v9h-2l-12 -17q-16 -24 -72 -94l-102 -117q-37 -42 -60 -59l-10 -10l2 -2h8l74 4h170zM664 1270v-129h-99v-172h-137v172h-408v104l433 520h112v-495h99z" />
    <glyph glyph-name="five.sups" horiz-adv-x="679" 
d="M340 1499q131 0 212 -75q81 -74 81 -194t-83 -199t-207 -79t-205 67t-97 165l137 39q10 -63 50 -103t109 -39q69 0 112 42t43 109q0 66 -43 108t-113 42q-104 0 -146 -79l-124 32l73 430h447v-135h-336l-14 -69q-21 -82 -37 -119l2 -2q55 59 139 59z" />
    <glyph glyph-name="six.sups" horiz-adv-x="679" 
d="M330 1081q72 0 116 41t44 110q2 70 -42 110t-118 40q-72 0 -117 -41t-45 -109t45 -110q45 -41 117 -41zM352 1501q125 0 204 -79q79 -80 79 -198t-86 -195t-216 -77t-219 78t-89 208t116 288l185 239h157l-247 -317l2 -2q49 55 114 55z" />
    <glyph glyph-name="seven.sups" horiz-adv-x="620" 
d="M20 1630v135h590v-88l-395 -708h-152l312 555q29 57 78 110l-2 2l-9 -2h-20l-109 -4h-293z" />
    <glyph glyph-name="eight.sups" horiz-adv-x="651" 
d="M162 1193q0 -56 46 -92t118 -36t118 36t48 91q0 55 -48 91t-120 36t-117 -35t-45 -91zM184 1568q0 -48 40 -79t102 -31t102 31q39 31 39 79t-40 78t-102 30t-102 -30q-39 -30 -39 -78zM326 952q-131 0 -216 68t-85 159t53 143t117 67v2q-43 10 -89 59q-45 49 -45 131
t74 141q74 60 190 60q117 0 191 -60t74 -142q0 -81 -46 -130t-87 -59v-2q63 -15 116 -67t53 -143t-84 -159q-85 -68 -216 -68z" />
    <glyph glyph-name="nine.sups" horiz-adv-x="659" 
d="M326 1352q74 0 118 41t43 109q1 68 -43 110q-44 41 -117 41t-117 -41t-45 -110q-1 -70 43 -110t118 -40zM307 1231q-125 0 -204 79q-79 78 -79 198t87 197q86 77 216 77t219 -78t89 -218t-143 -308l-175 -209h-167l270 311l-2 2q-45 -51 -111 -51z" />
    <glyph glyph-name="zero.tf" 
d="M722 1239q-168 0 -256 -120q-104 -143 -108 -402q0 -152 35 -252q35 -99 73 -151t101 -86t155 -34t165 50q123 81 166 298q16 85 16 175q0 193 -71 342q-38 82 -111 131q-74 49 -165 49zM699 1462q360 0 515 -326q91 -188 91 -418t-95 -428q-154 -319 -511 -319
q-133 0 -249 65q-213 119 -290 410q-35 128 -35 270q0 289 139 509q70 109 186 173t249 64z" />
    <glyph glyph-name="one.tf" 
d="M901 1434v-1221h346v-213h-921v213h350v666l4 190l2 35h-2l-18 -21q-63 -70 -95 -102l-143 -141l-141 135l460 459h158z" />
    <glyph glyph-name="two.tf" 
d="M1204 213v-213h-1014v184q432 367 631 539q156 131 156 283q0 112 -77 184t-199 72q-121 0 -201 -66t-111 -176l-211 55q52 183 192 285t349 102t347 -129t138 -323t-117 -325q-111 -125 -256 -222l-342 -256l3 -2h8l214 8h490z" />
    <glyph glyph-name="three.tf" 
d="M742 1462q220 0 348 -116q129 -116 129 -268q-1 -152 -93 -240t-206 -93v-2q131 -4 226 -91t95 -234q0 -199 -145 -323q-144 -124 -360 -124t-370 114t-192 292l205 55q23 -118 114 -188t223 -70t211 72t79 180t-81 166t-218 57h-125v180h125q135 1 207 57t71 152
q0 96 -70 160q-70 63 -204 64q-234 0 -308 -244l-202 53q43 179 182 285t359 106z" />
    <glyph glyph-name="four.tf" 
d="M883 524v346l2 123l4 119v10h-2l-23 -28q-66 -95 -127 -164l-235 -279q-35 -43 -66 -76t-43 -51v-2l126 2h364zM1278 524v-198h-180v-326h-215v326h-750v168l782 940h183v-910h180z" />
    <glyph glyph-name="five.tf" 
d="M713 938q221 0 368 -134t147 -344t-146 -349t-362 -139t-360 109q-143 110 -182 275l209 56q25 -106 107 -175t211 -69t211 84t83 213q0 129 -84 212t-210 83q-213 0 -275 -154l-197 56l127 772h783v-213h-615l-28 -152q-12 -68 -24 -123t-17 -78l-6 -22l2 -2
q31 34 101 64t157 30z" />
    <glyph glyph-name="six.tf" 
d="M720 766q-144 0 -234 -82t-89 -215t91 -215t232 -82t230 83t89 215t-87 214t-232 82zM760 954q223 0 359 -142t136 -354q-1 -212 -155 -349t-387 -137t-388 138q-155 140 -155 361q0 141 52 260t167 270l328 433h246l-431 -572l3 -2q80 94 225 94z" />
    <glyph glyph-name="seven.tf" 
d="M225 1221v213h1047v-136l-729 -1298h-242l545 965q33 57 74 121t63 102l25 35l-2 2h-15l-133 -4h-633z" />
    <glyph glyph-name="eight.tf" 
d="M1038 405q0 113 -88 181t-235 68t-235 -69q-88 -68 -89 -181q0 -113 89 -183q90 -69 236 -69t234 70t88 183zM995 1076q0 94 -79 156q-78 62 -202 62t-202 -62t-78 -158q0 -95 79 -154q79 -60 202 -60t201 60t79 156zM1255 399q1 -186 -151 -307t-390 -121t-388 121
t-150 307q0 147 97 245t227 118v2q-80 10 -170 98t-90 219q0 162 134 272q134 109 341 109t341 -110t134 -271q0 -131 -90 -219t-168 -98v-2q127 -20 225 -118t98 -245z" />
    <glyph glyph-name="nine.tf" 
d="M991 965q0 141 -91 219t-231 78q-141 0 -233 -80t-92 -222t93 -218t233 -76t230 80q91 80 91 219zM629 479q-236 0 -370 139q-134 138 -134 356t155 353q154 135 392 135t392 -134t155 -367q0 -266 -267 -580l-327 -381h-258l491 569l-2 2q-80 -92 -227 -92z" />
    <glyph glyph-name="zero.slsh.tf" 
d="M1069 717q0 190 -63 325l-488 -782q78 -66 186 -66q279 1 349 348q16 85 16 175zM713 1239q-81 0 -145 -34q-204 -109 -210 -488q0 -209 74 -346l492 788q-84 80 -211 80zM699 1462q360 0 515 -326q91 -188 91 -418t-95 -428q-154 -319 -511 -319q-133 0 -249 65
q-213 119 -290 410q-35 128 -35 270q0 289 139 509q70 109 186 173t249 64z" />
    <glyph glyph-name="zero.slsh.numr" horiz-adv-x="780" 
d="M393 776q94 0 152 75q57 75 57 179t-47 174l-252 -405q41 -23 90 -23zM233 862l254 408q-41 25 -94 24q-94 0 -152 -76q-59 -76 -59 -180q0 -106 51 -176zM393 1450q164 0 265 -119q102 -119 102 -297t-102 -296t-265 -118q-164 0 -266 118t-102 296t102 297t266 119z
" />
    <glyph glyph-name="zero.slsh.dnom" horiz-adv-x="780" 
d="M393 135q94 0 152 75q57 75 57 179t-47 174l-252 -405q41 -23 90 -23zM233 221l254 408q-41 25 -94 24q-94 1 -152 -75q-59 -76 -59 -182t51 -175zM393 809q164 0 265 -119q102 -119 102 -297t-102 -296q-102 -117 -265 -117q-164 0 -266 118t-102 295q0 178 102 297
t266 119z" />
    <glyph glyph-name="zero.slsh.sups" horiz-adv-x="780" 
d="M602 1362q0 104 -47 174l-252 -406q41 -23 90 -22q94 0 152 75q57 75 57 179zM233 1194l254 408q-41 25 -94 24q-94 0 -152 -76q-59 -76 -59 -181t51 -175zM393 1782q164 0 265 -119q102 -119 102 -297t-102 -296t-265 -118q-164 0 -266 118t-102 296t102 297t266 119z
" />
    <glyph glyph-name="zero.dnom" horiz-adv-x="786" 
d="M393 139q94 0 152 75q57 76 57 184t-57 184t-151 76t-153 -76t-59 -185t58 -183t153 -75zM393 -16q-164 0 -266 118t-102 295q0 178 102 297t266 119t265 -119q102 -119 102 -297q0 -177 -102 -295t-265 -118z" />
    <glyph glyph-name="one.dnom" horiz-adv-x="483" 
d="M260 438q0 91 10 156v10h-2l-32 -42q-16 -19 -35 -36l-80 -75l-96 88l280 258h107v-797h-152v438z" />
    <glyph glyph-name="two.dnom" horiz-adv-x="681" 
d="M453 135h176v-135h-578v102l303 248q131 109 131 197q0 55 -41 91t-100 36q-123 0 -166 -148l-137 37q27 111 109 181t200 69q118 0 202 -77q83 -78 83 -200t-139 -235q-104 -85 -164 -123l-90 -57l2 -2q66 16 209 16z" />
    <glyph glyph-name="three.dnom" horiz-adv-x="669" 
d="M360 813q124 -1 199 -65q74 -64 74 -150t-53 -134t-119 -52v-2q76 -4 129 -50t53 -124q0 -111 -83 -182q-83 -70 -204 -70t-210 68t-105 173l133 35q8 -68 55 -106t120 -39q73 0 112 35t39 88t-42 86t-110 32h-78v109h78q61 0 101 33q39 33 39 78q0 44 -36 76t-102 32
q-131 0 -166 -137l-129 37q21 104 101 166t204 63z" />
    <glyph glyph-name="four.dnom" horiz-adv-x="710" 
d="M428 299v197l4 90v6h-2l-12 -19q-24 -32 -72 -92l-102 -116q-27 -31 -60 -58l-10 -10l2 -2h8l74 4h170zM664 301v-129h-99v-172h-137v172h-408v107l433 518h112v-496h99z" />
    <glyph glyph-name="five.dnom" horiz-adv-x="679" 
d="M340 530q131 0 212 -74t81 -193q0 -120 -83 -200q-83 -79 -207 -79t-205 66t-97 167l137 37q10 -63 50 -101t109 -38t112 41q43 40 43 108t-43 109t-113 41q-102 0 -146 -78l-124 33l73 428h447v-133h-336l-14 -70q-21 -82 -37 -119l2 -2q53 57 139 57z" />
    <glyph glyph-name="six.dnom" horiz-adv-x="679" 
d="M168 264q0 -68 45 -110t116 -41q71 0 115 42q44 41 46 109t-42 109t-118 41q-72 0 -117 -41t-45 -109zM635 257q0 -120 -86 -197q-86 -76 -216 -76t-219 78t-89 209q0 132 116 286l185 240h157l-247 -318l2 -2q51 57 114 58q125 0 204 -79t79 -199z" />
    <glyph glyph-name="seven.dnom" horiz-adv-x="620" 
d="M20 664v133h590v-86l-395 -711h-152l312 555q29 60 67 98l11 13l-2 2h-9l-87 -4h-335z" />
    <glyph glyph-name="eight.dnom" horiz-adv-x="651" 
d="M162 224q0 -56 46 -92t118 -36t118 37t48 91q0 54 -48 90t-120 36t-117 -35t-45 -91zM325 707q-61 0 -101 -30t-40 -78t40 -79q40 -32 102 -30t102 32q39 30 39 78q0 47 -40 77t-102 30zM25 211q0 92 53 144t117 67v2q-43 10 -89 58q-45 48 -45 130t74 142t190 59
q117 0 191 -59q74 -58 74 -140t-45 -131t-88 -59v-2q63 -14 116 -66t53 -145q0 -92 -84 -159q-85 -66 -216 -66t-216 66t-85 159z" />
    <glyph glyph-name="nine.dnom" horiz-adv-x="659" 
d="M487 535q1 67 -43 109t-116 42t-117 -42t-46 -110t43 -108q44 -41 118 -41t118 41t43 109zM307 264q-125 0 -204 79t-79 198t87 195q86 76 216 77q130 0 219 -78t89 -203q0 -156 -143 -321l-175 -211h-167l270 311l-2 2q-43 -49 -111 -49z" />
    <glyph glyph-name="zero.numr" horiz-adv-x="786" 
d="M393 776q94 0 152 75q57 75 57 183t-57 185q-57 75 -151 75t-153 -76t-59 -184q0 -110 58 -184t153 -74zM393 621q-164 -1 -266 117t-102 296t102 297t266 119t265 -119q102 -119 102 -297t-102 -296t-265 -117z" />
    <glyph glyph-name="one.numr" horiz-adv-x="483" 
d="M260 1075q0 99 10 154v12h-2q-30 -45 -67 -78l-80 -76l-96 87l280 260h107v-797h-152v438z" />
    <glyph glyph-name="two.numr" horiz-adv-x="681" 
d="M453 770h176v-133h-578v102l303 248q131 104 131 195q0 55 -41 91t-100 36q-123 0 -166 -146l-137 37q27 110 109 180t200 70t202 -78q83 -78 83 -198t-127 -227q-166 -139 -266 -189l2 -2l30 2q93 12 179 12z" />
    <glyph glyph-name="three.numr" horiz-adv-x="690" 
d="M633 1234q0 -86 -53 -133q-53 -48 -119 -52v-2q76 -5 129 -51t53 -126q0 -110 -83 -180t-204 -70t-210 68t-105 172l133 37q8 -67 55 -107t120 -40t112 36t39 87q0 52 -43 85t-109 33h-78v111h78q61 0 101 33q39 33 39 78t-36 77t-102 31q-131 0 -166 -137l-129 35
q21 104 101 167q80 64 204 64t199 -65q74 -65 74 -151z" />
    <glyph glyph-name="four.numr" horiz-adv-x="710" 
d="M428 934v199l4 88v8h-2l-12 -17q-16 -24 -72 -94l-102 -117q-31 -35 -60 -59l-10 -10l2 -2h8l74 4h170zM664 938v-129h-99v-172h-137v172h-408v104l433 521h112v-496h99z" />
    <glyph glyph-name="five.numr" horiz-adv-x="679" 
d="M340 1167q131 -1 212 -75t81 -194t-83 -199t-207 -79t-205 68q-81 66 -97 164l137 39q10 -63 50 -103t109 -38q69 0 112 42t43 108t-43 109q-43 42 -113 42q-104 0 -146 -80l-124 33l73 430h447v-136h-336l-14 -69q-21 -82 -37 -119l2 -2q55 59 139 59z" />
    <glyph glyph-name="six.numr" horiz-adv-x="679" 
d="M330 750q72 0 116 41t44 109q2 68 -42 110q-44 41 -118 41q-72 0 -117 -41t-45 -110q0 -70 45 -110t117 -40zM352 1169q125 -1 204 -79t79 -197t-86 -196t-216 -77t-219 78t-89 208t116 288l185 240h157l-247 -318l2 -2q49 55 114 55z" />
    <glyph glyph-name="seven.numr" horiz-adv-x="620" 
d="M20 1298v136h590v-88l-395 -709h-152l312 555q33 64 67 98l11 13l-2 2l-9 -2h-20l-109 -5h-293z" />
    <glyph glyph-name="eight.numr" horiz-adv-x="651" 
d="M162 861q0 -56 46 -92t118 -36t118 36t48 91q0 55 -48 91t-120 36t-117 -35t-45 -91zM184 1236q0 -48 40 -79t102 -31t102 31q39 31 39 79t-40 78t-102 30t-102 -30q-39 -30 -39 -78zM25 847q0 91 53 143t117 67v2q-43 10 -89 59q-45 49 -45 131q0 81 74 141t190 60
q117 0 191 -60t74 -142t-46 -130q-46 -49 -87 -59v-2q63 -15 116 -67t53 -143t-84 -159q-85 -68 -216 -68t-216 68t-85 159z" />
    <glyph glyph-name="nine.numr" horiz-adv-x="659" 
d="M326 1020q74 0 118 41t43 109q1 68 -43 110q-44 41 -117 41t-117 -41t-45 -110q-1 -70 43 -110t118 -40zM307 899q-125 0 -204 79t-79 199q0 121 87 197q86 76 216 76t219 -78t89 -218t-143 -308l-175 -209h-167l270 311l-2 2q-45 -51 -111 -51z" />
    <glyph glyph-name="dollar.tf" 
d="M697 1266q-119 0 -193 -54t-74 -139q0 -59 53 -105t105 -66t170 -56q370 -112 457 -277q40 -74 40 -170q-1 -163 -117 -279t-311 -143v-161h-223v164q-176 32 -293 142t-157 275l217 60q20 -119 115 -201q96 -82 236 -82t218 62t78 155q0 121 -138 183q-66 31 -162 60
q-96 30 -144 46t-88 32q-40 15 -102 50q-187 106 -186 306q1 140 113 249q113 109 293 137v164h223v-166q158 -31 268 -131q109 -101 142 -246l-217 -59q-25 118 -114 184t-209 66z" />
    <glyph glyph-name="percent.tf" 
d="M997 139q94 0 152 75q57 76 57 184t-57 184t-151 76t-153 -76t-59 -185t58 -183t153 -75zM422 776q94 0 151 75t57 183t-56 185q-58 75 -152 75t-153 -75q-58 -76 -58 -185q1 -110 59 -184t152 -74zM997 813q163 0 265 -119t102 -297t-101 -296q-101 -117 -265 -117
t-264 112q-101 112 -105 287l-189 -383h-155l333 678q-86 -57 -196 -57q-164 -1 -266 117t-103 296q1 178 103 297t266 119t265 -119t101 -297v-12l203 412h156l-328 -668q78 47 178 47z" />
    <glyph glyph-name="cent.tf" 
d="M825 -29h-182v207q-190 33 -317 181q-127 147 -127 353t126 353t316 182v215h184v-213q131 -20 235 -98t161 -193l-199 -51q-94 152 -285 152q-149 0 -239 -94t-90 -252t91 -251t238 -93q102 0 182 47q78 47 119 133l197 -53q-51 -125 -161 -211t-249 -109v-205z" />
    <glyph glyph-name="sterling.tf" 
d="M874 213h392v-213h-1073v213q106 20 137 96t18 230l-8 86h-139v180h123l-19 199q-18 186 114 320t329 138q160 4 307 -91t198 -302l-192 -53q-78 256 -305 246q-111 -4 -173 -83t-53 -194l17 -180h448v-180h-432l8 -82q23 -268 -96 -336l2 -2h10q9 0 29 1t46 2t61 2
q105 3 251 3z" />
    <glyph glyph-name="currency.tf" 
d="M715 1044q-143 0 -243 -100t-99 -246q0 -146 99 -245q98 -99 242 -99t243 98t100 246q1 146 -99 246t-243 100zM1260 698q0 -180 -105 -321l143 -146l-112 -114l-146 145q-145 -112 -326 -112t-325 110l-145 -143l-113 114l143 144q-106 147 -106 324t113 323l-144 143
l113 115l145 -143q141 104 319 104t320 -104l146 143l112 -115l-143 -143q111 -144 111 -324z" />
    <glyph glyph-name="yen.tf" 
d="M1243 905v-155h-364l-52 -70v-4h416v-154h-416v-522h-225v522h-405v154h405v4l-51 70h-354v155h239l-387 529h256l326 -441q43 -55 71 -96l13 -14h2q2 0 82 110l325 441h256l-387 -529h250z" />
    <glyph glyph-name="Euro.tf" 
d="M744 -25q-228 0 -409 151t-237 398h-98v152h78v80h-78v151h98q52 250 234 401t424 150q206 0 362 -100t246 -275l-221 -55q-59 106 -163 164t-242 57q-140 0 -255 -88t-159 -254h467v-151h-490v-80h487v-152h-462q46 -164 160 -251t258 -87t258 70q112 70 169 190
l213 -55q-82 -193 -246 -305q-166 -112 -394 -111z" />
    <glyph glyph-name="uni20B9.tf" 
d="M1227 1257h-252q47 -49 72 -112h180v-170h-146q-1 -186 -119 -311t-315 -148l408 -516h-264l-404 518v172h182q121 0 200 84t79 201h-563v170h510q-80 113 -226 112h-284v177h942v-177z" />
    <glyph glyph-name="colon.case" horiz-adv-x="487" 
d="M244 276q-51 0 -86 36t-35 86t35 85t86 35t86 -35t35 -85t-35 -86t-86 -36zM244 897q-51 0 -86 36t-35 86t35 85t86 35t86 -35t35 -85t-35 -86t-86 -36z" />
    <glyph glyph-name="semicolon.case" horiz-adv-x="520" 
d="M276 518q51 0 86 -40t35 -116t-52 -169q-52 -94 -130 -162h-92q49 39 89 113t40 130l24 9l-24 2q-37 3 -68 33q-30 30 -30 80t35 85q36 35 87 35zM272 899q-51 0 -86 36q-34 36 -34 86t34 85q35 35 86 35t86 -35t35 -85t-35 -86t-86 -36z" />
    <glyph glyph-name="apple" horiz-adv-x="1626" 
d="M1067 -2q-12 0 -12 12t12 13q12 -1 12 -13t-12 -12zM1202 54q0 -34 24 -34t24 34t-24 34t-24 -34zM1321 0h-31l8 109h39l17 -70l18 70h39l4 -109h-29v82l-22 -80h-21l-22 80v-82zM922 109h30l15 -74l12 74h31l12 -74l14 74h29l-27 -109h-32l-13 72l-14 -72h-31zM870 43
v-20h43v-23h-73v109h73v-23h-43v-20h39v-23h-39zM823 0h-30v109h30v-109zM680 109h33l18 -80l21 80h30l-34 -109h-33zM604 68h37v41h29v-109h-29v43h-37v-43h-31v109h31v-41zM479 86v23h84v-23h-28v-86h-27v86h-29zM373 109h37l32 -66v66h27v-109h-31l-39 72v-72h-26v109z
M328 0h-29v41l-35 68h35l14 -48l17 48h32l-34 -68v-41zM1282 53q0 -55 -55 -55t-56 55q-1 25 15 41t41 16t40 -16t15 -41zM1143 88q-31 0 -31 -34t31 -34q12 0 18 7l6 -25q-12 -4 -28 -4q-57 0 -58 53q0 58 60 60q20 0 28 -5l-8 -24q-6 6 -18 6zM222 88q-12 0 -11 -7
q-1 -7 25 -16t26 -32q0 -35 -49 -35q-20 0 -33 6l8 25q25 -9 34 -9t9 11q-1 6 -25 14t-24 31q0 35 43 35q20 0 31 -7l-6 -24q-16 8 -28 8zM811 524l184 -162q55 -10 273 -14q-6 193 -15 266l-166 187l166 182q6 43 15 272q-199 -4 -271 -14l-186 -166l-180 166
q-72 10 -273 14q8 -231 15 -272l162 -182l-162 -183q-6 -43 -15 -270q219 4 271 14zM1356 168q-354 0 -425 26q-22 7 -38 23l-55 47l-27 21l-78 -68q-16 -16 -39 -24q-72 -25 -426 -25h-88v88q0 366 25 427q8 22 22 38l70 80l-70 78q-14 18 -22 40q-25 69 -25 424v91h88
q345 0 430 -26q23 -7 39 -22l78 -71l35 33l41 34q18 16 40 24q66 26 425 28h90v-91q0 -359 -27 -425q-8 -23 -24 -39l-45 -54l-23 -24l74 -86q12 -19 19 -39q6 -20 16 -124t10 -292v-92h-90z" />
    </font>
</defs>
</svg>
